  0
SECTION
  2
HEADER
  9
$ACADVER
  1
AC1014
  9
$HANDSEED
  5
FFFF
  9
$MEASUREMENT
 70
     1
  0
ENDSEC
  0
SECTION
  2
TABLES
  0
TABLE
  2
VPORT
  5
8
330
0
100
AcDbSymbolTable
 70
     4
  0
VPORT
  5
2E
330
8
100
AcDbSymbolTableRecord
100
AcDbViewportTableRecord
  2
*ACTIVE
 70
     0
 10
0.0
 20
0.0
 11
1.0
 21
1.0
 12
210.0
 22
148.5
 13
0.0
 23
0.0
 14
10.0
 24
10.0
 15
10.0
 25
10.0
 16
0.0
 26
0.0
 36
1.0
 17
0.0
 27
0.0
 37
0.0
 40
341.0
 41
1.24
 42
50.0
 43
0.0
 44
0.0
 50
0.0
 51
0.0
 71
     0
 72
   100
 73
     1
 74
     3
 75
     0
 76
     0
 77
     0
 78
     0
  0
ENDTAB
  0
TABLE
  2
LTYPE
  5
5
330
0
100
AcDbSymbolTable
 70
     1
  0
LTYPE
  5
14
330
5
100
AcDbSymbolTableRecord
100
AcDbLinetypeTableRecord
  2
BYBLOCK
 70
     0
  3

 72
    65
 73
     0
 40
0.0
  0
LTYPE
  5
15
330
5
100
AcDbSymbolTableRecord
100
AcDbLinetypeTableRecord
  2
BYLAYER
 70
     0
  3

 72
    65
 73
     0
 40
0.0
  0
LTYPE
  5
16
330
5
100
AcDbSymbolTableRecord
100
AcDbLinetypeTableRecord
  2
CONTINUOUS
 70
     0
  3
Solid line
 72
    65
 73
     0
 40
0.0
  0
ENDTAB
  0
TABLE
  2
LAYER
  5
2
100
AcDbSymbolTable
 70
1
  0
LAYER
  5
50
100
AcDbSymbolTableRecord
100
AcDbLayerTableRecord
  2
0
 70
0
  6
CONTINUOUS
  0
ENDTAB
  0
TABLE
  2
STYLE
  5
3
330
0
100
AcDbSymbolTable
 70
     1
  0
STYLE
  5
11
330
3
100
AcDbSymbolTableRecord
100
AcDbTextStyleTableRecord
  2
STANDARD
 70
     0
 40
0.0
 41
1.0
 50
0.0
 71
     0
 42
2.5
  3
txt
  4

  0
ENDTAB
  0
TABLE
  2
VIEW
  5
6
330
0
100
AcDbSymbolTable
 70
     0
  0
ENDTAB
  0
TABLE
  2
UCS
  5
7
330
0
100
AcDbSymbolTable
 70
     0
  0
ENDTAB
  0
TABLE
  2
APPID
  5
9
330
0
100
AcDbSymbolTable
 70
     2
  0
APPID
  5
12
330
9
100
AcDbSymbolTableRecord
100
AcDbRegAppTableRecord
  2
ACAD
 70
     0
  0
ENDTAB
  0
TABLE
  2
DIMSTYLE
  5
A
330
0
100
AcDbSymbolTable
 70
     1
  0
DIMSTYLE
105
27
330
A
100
AcDbSymbolTableRecord
100
AcDbDimStyleTableRecord
  2
ISO-25
 70
     0
  3

  4

  5

  6

  7

 40
1.0
 41
2.5
 42
0.625
 43
3.75
 44
1.25
 45
0.0
 46
0.0
 47
0.0
 48
0.0
140
2.5
141
2.5
142
0.0
143
0.03937007874016
144
1.0
145
0.0
146
1.0
147
0.625
 71
     0
 72
     0
 73
     0
 74
     0
 75
     0
 76
     0
 77
     1
 78
     8
170
     0
171
     3
172
     1
173
     0
174
     0
175
     0
176
     0
177
     0
178
     0
270
     2
271
     2
272
     2
273
     2
274
     3
340
11
275
     0
280
     0
281
     0
282
     0
283
     0
284
     8
285
     0
286
     0
287
     3
288
     0
  0
ENDTAB
  0
TABLE
  2
BLOCK_RECORD
  5
1
330
0
100
AcDbSymbolTable
 70
     1
  0
BLOCK_RECORD
  5
1F
330
1
100
AcDbSymbolTableRecord
100
AcDbBlockTableRecord
  2
*MODEL_SPACE
  0
BLOCK_RECORD
  5
1B
330
1
100
AcDbSymbolTableRecord
100
AcDbBlockTableRecord
  2
*PAPER_SPACE
  0
ENDTAB
  0
ENDSEC
  0
SECTION
  2
BLOCKS
  0
BLOCK
  5
20
330
1F
100
AcDbEntity
  8
0
100
AcDbBlockBegin
  2
*MODEL_SPACE
 70
     0
 10
0.0
 20
0.0
 30
0.0
  3
*MODEL_SPACE
  1

  0
ENDBLK
  5
21
330
1F
100
AcDbEntity
  8
0
100
AcDbBlockEnd
  0
BLOCK
  5
1C
330
1B
100
AcDbEntity
 67
     1
  8
0
100
AcDbBlockBegin
  2
*PAPER_SPACE
  1

  0
ENDBLK
  5
1D
330
1B
100
AcDbEntity
 67
     1
  8
0
100
AcDbBlockEnd
  0
ENDSEC
  0
SECTION
  2
ENTITIES
  0
SPLINE
  5
100
100
AcDbEntity
  8
0
 62
5
100
AcDbSpline
 70
8
 71
3
 72
8
 73
4
 74
0
 40
0
 40
0
 40
0
 40
0
 40
1
 40
1
 40
1
 40
1
 10
466.284072
 20
168.837434
 30
0.0
 10
466.284072
 20
169.404593
 30
0.0
 10
465.981496
 20
169.928670
 30
0.0
 10
465.490322
 20
170.212249
 30
0.0
  0
SPLINE
  5
101
100
AcDbEntity
  8
0
 62
5
100
AcDbSpline
 70
8
 71
3
 72
8
 73
4
 74
0
 40
0
 40
0
 40
0
 40
0
 40
1
 40
1
 40
1
 40
1
 10
465.490322
 20
170.212249
 30
0.0
 10
464.999148
 20
170.495829
 30
0.0
 10
464.393996
 20
170.495829
 30
0.0
 10
463.902822
 20
170.212249
 30
0.0
  0
SPLINE
  5
102
100
AcDbEntity
  8
0
 62
5
100
AcDbSpline
 70
8
 71
3
 72
8
 73
4
 74
0
 40
0
 40
0
 40
0
 40
0
 40
1
 40
1
 40
1
 40
1
 10
463.902822
 20
170.212249
 30
0.0
 10
463.411648
 20
169.928670
 30
0.0
 10
463.109072
 20
169.404593
 30
0.0
 10
463.109072
 20
168.837434
 30
0.0
  0
SPLINE
  5
103
100
AcDbEntity
  8
0
 62
5
100
AcDbSpline
 70
8
 71
3
 72
8
 73
4
 74
0
 40
0
 40
0
 40
0
 40
0
 40
1
 40
1
 40
1
 40
1
 10
463.109072
 20
168.837434
 30
0.0
 10
463.109072
 20
168.270275
 30
0.0
 10
463.411648
 20
167.746198
 30
0.0
 10
463.902822
 20
167.462619
 30
0.0
  0
SPLINE
  5
104
100
AcDbEntity
  8
0
 62
5
100
AcDbSpline
 70
8
 71
3
 72
8
 73
4
 74
0
 40
0
 40
0
 40
0
 40
0
 40
1
 40
1
 40
1
 40
1
 10
463.902822
 20
167.462619
 30
0.0
 10
464.393996
 20
167.179039
 30
0.0
 10
464.999148
 20
167.179039
 30
0.0
 10
465.490322
 20
167.462619
 30
0.0
  0
SPLINE
  5
105
100
AcDbEntity
  8
0
 62
5
100
AcDbSpline
 70
8
 71
3
 72
8
 73
4
 74
0
 40
0
 40
0
 40
0
 40
0
 40
1
 40
1
 40
1
 40
1
 10
465.490322
 20
167.462619
 30
0.0
 10
465.981496
 20
167.746198
 30
0.0
 10
466.284072
 20
168.270275
 30
0.0
 10
466.284072
 20
168.837434
 30
0.0
  0
SPLINE
  5
106
100
AcDbEntity
  8
0
 62
5
100
AcDbSpline
 70
8
 71
3
 72
8
 73
4
 74
0
 40
0
 40
0
 40
0
 40
0
 40
1
 40
1
 40
1
 40
1
 10
481.524072
 20
219.637434
 30
0.0
 10
481.524072
 20
220.204593
 30
0.0
 10
481.221496
 20
220.728670
 30
0.0
 10
480.730322
 20
221.012249
 30
0.0
  0
SPLINE
  5
107
100
AcDbEntity
  8
0
 62
5
100
AcDbSpline
 70
8
 71
3
 72
8
 73
4
 74
0
 40
0
 40
0
 40
0
 40
0
 40
1
 40
1
 40
1
 40
1
 10
480.730322
 20
221.012249
 30
0.0
 10
480.239148
 20
221.295829
 30
0.0
 10
479.633996
 20
221.295829
 30
0.0
 10
479.142822
 20
221.012249
 30
0.0
  0
SPLINE
  5
108
100
AcDbEntity
  8
0
 62
5
100
AcDbSpline
 70
8
 71
3
 72
8
 73
4
 74
0
 40
0
 40
0
 40
0
 40
0
 40
1
 40
1
 40
1
 40
1
 10
479.142822
 20
221.012249
 30
0.0
 10
478.651648
 20
220.728670
 30
0.0
 10
478.349072
 20
220.204593
 30
0.0
 10
478.349072
 20
219.637434
 30
0.0
  0
SPLINE
  5
109
100
AcDbEntity
  8
0
 62
5
100
AcDbSpline
 70
8
 71
3
 72
8
 73
4
 74
0
 40
0
 40
0
 40
0
 40
0
 40
1
 40
1
 40
1
 40
1
 10
478.349072
 20
219.637434
 30
0.0
 10
478.349072
 20
219.070275
 30
0.0
 10
478.651648
 20
218.546198
 30
0.0
 10
479.142822
 20
218.262619
 30
0.0
  0
SPLINE
  5
10a
100
AcDbEntity
  8
0
 62
5
100
AcDbSpline
 70
8
 71
3
 72
8
 73
4
 74
0
 40
0
 40
0
 40
0
 40
0
 40
1
 40
1
 40
1
 40
1
 10
479.142822
 20
218.262619
 30
0.0
 10
479.633996
 20
217.979039
 30
0.0
 10
480.239148
 20
217.979039
 30
0.0
 10
480.730322
 20
218.262619
 30
0.0
  0
SPLINE
  5
10b
100
AcDbEntity
  8
0
 62
5
100
AcDbSpline
 70
8
 71
3
 72
8
 73
4
 74
0
 40
0
 40
0
 40
0
 40
0
 40
1
 40
1
 40
1
 40
1
 10
480.730322
 20
218.262619
 30
0.0
 10
481.221496
 20
218.546198
 30
0.0
 10
481.524072
 20
219.070275
 30
0.0
 10
481.524072
 20
219.637434
 30
0.0
  0
LWPOLYLINE
  5
10c
100
AcDbEntity
  8
0
 62
5
100
AcDbPolyline
 90
1
 70
1
 10
466.284072
 20
168.837434
 30
0.0
  0
SPLINE
  5
10d
100
AcDbEntity
  8
0
 62
5
100
AcDbSpline
 70
8
 71
3
 72
8
 73
4
 74
0
 40
0
 40
0
 40
0
 40
0
 40
1
 40
1
 40
1
 40
1
 10
514.544072
 20
167.567434
 30
0.0
 10
514.544072
 20
168.134593
 30
0.0
 10
514.241496
 20
168.658670
 30
0.0
 10
513.750322
 20
168.942249
 30
0.0
  0
SPLINE
  5
10e
100
AcDbEntity
  8
0
 62
5
100
AcDbSpline
 70
8
 71
3
 72
8
 73
4
 74
0
 40
0
 40
0
 40
0
 40
0
 40
1
 40
1
 40
1
 40
1
 10
513.750322
 20
168.942249
 30
0.0
 10
513.259148
 20
169.225829
 30
0.0
 10
512.653996
 20
169.225829
 30
0.0
 10
512.162822
 20
168.942249
 30
0.0
  0
SPLINE
  5
10f
100
AcDbEntity
  8
0
 62
5
100
AcDbSpline
 70
8
 71
3
 72
8
 73
4
 74
0
 40
0
 40
0
 40
0
 40
0
 40
1
 40
1
 40
1
 40
1
 10
512.162822
 20
168.942249
 30
0.0
 10
511.671648
 20
168.658670
 30
0.0
 10
511.369072
 20
168.134593
 30
0.0
 10
511.369072
 20
167.567434
 30
0.0
  0
SPLINE
  5
110
100
AcDbEntity
  8
0
 62
5
100
AcDbSpline
 70
8
 71
3
 72
8
 73
4
 74
0
 40
0
 40
0
 40
0
 40
0
 40
1
 40
1
 40
1
 40
1
 10
511.369072
 20
167.567434
 30
0.0
 10
511.369072
 20
167.000275
 30
0.0
 10
511.671648
 20
166.476198
 30
0.0
 10
512.162822
 20
166.192619
 30
0.0
  0
SPLINE
  5
111
100
AcDbEntity
  8
0
 62
5
100
AcDbSpline
 70
8
 71
3
 72
8
 73
4
 74
0
 40
0
 40
0
 40
0
 40
0
 40
1
 40
1
 40
1
 40
1
 10
512.162822
 20
166.192619
 30
0.0
 10
512.653996
 20
165.909039
 30
0.0
 10
513.259148
 20
165.909039
 30
0.0
 10
513.750322
 20
166.192619
 30
0.0
  0
SPLINE
  5
112
100
AcDbEntity
  8
0
 62
5
100
AcDbSpline
 70
8
 71
3
 72
8
 73
4
 74
0
 40
0
 40
0
 40
0
 40
0
 40
1
 40
1
 40
1
 40
1
 10
513.750322
 20
166.192619
 30
0.0
 10
514.241496
 20
166.476198
 30
0.0
 10
514.544072
 20
167.000275
 30
0.0
 10
514.544072
 20
167.567434
 30
0.0
  0
LWPOLYLINE
  5
113
100
AcDbEntity
  8
0
 62
5
100
AcDbPolyline
 90
1
 70
1
 10
481.524072
 20
219.637434
 30
0.0
  0
SPLINE
  5
114
100
AcDbEntity
  8
0
 62
5
100
AcDbSpline
 70
8
 71
3
 72
8
 73
4
 74
0
 40
0
 40
0
 40
0
 40
0
 40
1
 40
1
 40
1
 40
1
 10
509.464072
 20
219.637434
 30
0.0
 10
509.464072
 20
220.204593
 30
0.0
 10
509.161496
 20
220.728670
 30
0.0
 10
508.670322
 20
221.012249
 30
0.0
  0
SPLINE
  5
115
100
AcDbEntity
  8
0
 62
5
100
AcDbSpline
 70
8
 71
3
 72
8
 73
4
 74
0
 40
0
 40
0
 40
0
 40
0
 40
1
 40
1
 40
1
 40
1
 10
508.670322
 20
221.012249
 30
0.0
 10
508.179148
 20
221.295829
 30
0.0
 10
507.573996
 20
221.295829
 30
0.0
 10
507.082822
 20
221.012249
 30
0.0
  0
SPLINE
  5
116
100
AcDbEntity
  8
0
 62
5
100
AcDbSpline
 70
8
 71
3
 72
8
 73
4
 74
0
 40
0
 40
0
 40
0
 40
0
 40
1
 40
1
 40
1
 40
1
 10
507.082822
 20
221.012249
 30
0.0
 10
506.591648
 20
220.728670
 30
0.0
 10
506.289072
 20
220.204593
 30
0.0
 10
506.289072
 20
219.637434
 30
0.0
  0
SPLINE
  5
117
100
AcDbEntity
  8
0
 62
5
100
AcDbSpline
 70
8
 71
3
 72
8
 73
4
 74
0
 40
0
 40
0
 40
0
 40
0
 40
1
 40
1
 40
1
 40
1
 10
506.289072
 20
219.637434
 30
0.0
 10
506.289072
 20
219.070275
 30
0.0
 10
506.591648
 20
218.546198
 30
0.0
 10
507.082822
 20
218.262619
 30
0.0
  0
SPLINE
  5
118
100
AcDbEntity
  8
0
 62
5
100
AcDbSpline
 70
8
 71
3
 72
8
 73
4
 74
0
 40
0
 40
0
 40
0
 40
0
 40
1
 40
1
 40
1
 40
1
 10
507.082822
 20
218.262619
 30
0.0
 10
507.573996
 20
217.979039
 30
0.0
 10
508.179148
 20
217.979039
 30
0.0
 10
508.670322
 20
218.262619
 30
0.0
  0
SPLINE
  5
119
100
AcDbEntity
  8
0
 62
5
100
AcDbSpline
 70
8
 71
3
 72
8
 73
4
 74
0
 40
0
 40
0
 40
0
 40
0
 40
1
 40
1
 40
1
 40
1
 10
508.670322
 20
218.262619
 30
0.0
 10
509.161496
 20
218.546198
 30
0.0
 10
509.464072
 20
219.070275
 30
0.0
 10
509.464072
 20
219.637434
 30
0.0
  0
LWPOLYLINE
  5
11a
100
AcDbEntity
  8
0
 62
5
100
AcDbPolyline
 90
1
 70
1
 10
514.544072
 20
167.567434
 30
0.0
  0
LWPOLYLINE
  5
11b
100
AcDbEntity
  8
0
 62
5
100
AcDbPolyline
 90
1
 70
1
 10
509.464072
 20
219.637434
 30
0.0
  0
LWPOLYLINE
  5
11c
100
AcDbEntity
  8
0
 62
3
100
AcDbPolyline
 90
68
 70
1
 10
478.163255
 20
144.597447
 30
0.0
 10
478.163255
 20
148.597444
 30
0.0
 10
470.941030
 20
148.597444
 30
0.0
 10
470.941030
 20
144.597447
 30
0.0
 10
463.718804
 20
144.597447
 30
0.0
 10
463.718804
 20
148.597444
 30
0.0
 10
456.496579
 20
148.597444
 30
0.0
 10
456.496579
 20
170.819666
 30
0.0
 10
452.496581
 20
170.819666
 30
0.0
 10
452.496581
 20
193.041888
 30
0.0
 10
456.496579
 20
193.041888
 30
0.0
 10
456.496579
 20
215.264110
 30
0.0
 10
452.496581
 20
215.264110
 30
0.0
 10
452.496581
 20
237.486332
 30
0.0
 10
456.496579
 20
237.486332
 30
0.0
 10
456.496579
 20
259.708553
 30
0.0
 10
452.496581
 20
259.708553
 30
0.0
 10
452.496581
 20
281.930776
 30
0.0
 10
456.496579
 20
281.930776
 30
0.0
 10
456.496579
 20
304.152997
 30
0.0
 10
452.496581
 20
304.152997
 30
0.0
 10
452.496581
 20
326.375219
 30
0.0
 10
456.496579
 20
326.375219
 30
0.0
 10
456.496579
 20
348.597441
 30
0.0
 10
463.718804
 20
348.597441
 30
0.0
 10
463.718804
 20
352.597438
 30
0.0
 10
470.941030
 20
352.597438
 30
0.0
 10
470.941030
 20
348.597441
 30
0.0
 10
478.163255
 20
348.597441
 30
0.0
 10
478.163255
 20
352.597438
 30
0.0
 10
485.385480
 20
352.597438
 30
0.0
 10
485.385480
 20
348.597441
 30
0.0
 10
492.607706
 20
348.597441
 30
0.0
 10
492.607706
 20
352.597438
 30
0.0
 10
499.829905
 20
352.597438
 30
0.0
 10
499.829905
 20
348.597441
 30
0.0
 10
507.052130
 20
348.597441
 30
0.0
 10
507.052130
 20
352.597438
 30
0.0
 10
514.274356
 20
352.597438
 30
0.0
 10
514.274356
 20
348.597441
 30
0.0
 10
521.496581
 20
348.597441
 30
0.0
 10
521.496581
 20
326.375219
 30
0.0
 10
525.496578
 20
326.375219
 30
0.0
 10
525.496578
 20
304.152997
 30
0.0
 10
521.496581
 20
304.152997
 30
0.0
 10
521.496581
 20
281.930776
 30
0.0
 10
525.496578
 20
281.930776
 30
0.0
 10
525.496578
 20
259.708553
 30
0.0
 10
521.496581
 20
259.708553
 30
0.0
 10
521.496581
 20
237.486332
 30
0.0
 10
525.496578
 20
237.486332
 30
0.0
 10
525.496578
 20
215.264110
 30
0.0
 10
521.496581
 20
215.264110
 30
0.0
 10
521.496581
 20
193.041888
 30
0.0
 10
525.496578
 20
193.041888
 30
0.0
 10
525.496578
 20
170.819666
 30
0.0
 10
521.496581
 20
170.819666
 30
0.0
 10
521.496581
 20
148.597444
 30
0.0
 10
514.274356
 20
148.597444
 30
0.0
 10
514.274356
 20
144.597447
 30
0.0
 10
507.052130
 20
144.597447
 30
0.0
 10
507.052130
 20
148.597444
 30
0.0
 10
499.829905
 20
148.597444
 30
0.0
 10
499.829905
 20
144.597447
 30
0.0
 10
492.607706
 20
144.597447
 30
0.0
 10
492.607706
 20
148.597444
 30
0.0
 10
485.385480
 20
148.597444
 30
0.0
 10
485.385480
 20
144.597447
 30
0.0
  0
LWPOLYLINE
  5
11d
100
AcDbEntity
  8
0
 62
3
100
AcDbPolyline
 90
64
 70
1
 10
574.496247
 20
348.597441
 30
0.0
 10
574.496247
 20
326.375219
 30
0.0
 10
574.496247
 20
304.152997
 30
0.0
 10
574.496247
 20
281.930776
 30
0.0
 10
574.496247
 20
259.708553
 30
0.0
 10
574.496247
 20
237.486332
 30
0.0
 10
574.496247
 20
215.264110
 30
0.0
 10
574.496247
 20
193.041888
 30
0.0
 10
574.496247
 20
170.819666
 30
0.0
 10
574.496247
 20
148.597444
 30
0.0
 10
570.051803
 20
148.597444
 30
0.0
 10
570.051803
 20
144.597447
 30
0.0
 10
565.607359
 20
144.597447
 30
0.0
 10
565.607359
 20
148.597444
 30
0.0
 10
561.162914
 20
148.597444
 30
0.0
 10
561.162914
 20
144.597447
 30
0.0
 10
556.718470
 20
144.597447
 30
0.0
 10
556.718470
 20
148.597444
 30
0.0
 10
552.274026
 20
148.597444
 30
0.0
 10
552.274026
 20
144.597447
 30
0.0
 10
547.829581
 20
144.597447
 30
0.0
 10
547.829581
 20
148.597444
 30
0.0
 10
543.385137
 20
148.597444
 30
0.0
 10
543.385137
 20
144.597447
 30
0.0
 10
538.940692
 20
144.597447
 30
0.0
 10
538.940692
 20
148.597444
 30
0.0
 10
534.496248
 20
148.597444
 30
0.0
 10
534.496248
 20
144.597447
 30
0.0
 10
530.496251
 20
144.597447
 30
0.0
 10
530.496251
 20
170.819666
 30
0.0
 10
534.496248
 20
170.819666
 30
0.0
 10
534.496248
 20
193.041888
 30
0.0
 10
530.496251
 20
193.041888
 30
0.0
 10
530.496251
 20
215.264110
 30
0.0
 10
534.496248
 20
215.264110
 30
0.0
 10
534.496248
 20
237.486332
 30
0.0
 10
530.496251
 20
237.486332
 30
0.0
 10
530.496251
 20
259.708553
 30
0.0
 10
534.496248
 20
259.708553
 30
0.0
 10
534.496248
 20
281.930776
 30
0.0
 10
530.496251
 20
281.930776
 30
0.0
 10
530.496251
 20
304.152997
 30
0.0
 10
534.496248
 20
304.152997
 30
0.0
 10
534.496248
 20
326.375219
 30
0.0
 10
530.496251
 20
326.375219
 30
0.0
 10
530.496251
 20
352.597438
 30
0.0
 10
534.496248
 20
352.597438
 30
0.0
 10
534.496248
 20
348.597441
 30
0.0
 10
538.940692
 20
348.597441
 30
0.0
 10
538.940692
 20
352.597438
 30
0.0
 10
543.385137
 20
352.597438
 30
0.0
 10
543.385137
 20
348.597441
 30
0.0
 10
547.829581
 20
348.597441
 30
0.0
 10
547.829581
 20
352.597438
 30
0.0
 10
552.274026
 20
352.597438
 30
0.0
 10
552.274026
 20
348.597441
 30
0.0
 10
556.718470
 20
348.597441
 30
0.0
 10
556.718470
 20
352.597438
 30
0.0
 10
561.162914
 20
352.597438
 30
0.0
 10
561.162914
 20
348.597441
 30
0.0
 10
565.607359
 20
348.597441
 30
0.0
 10
565.607359
 20
352.597438
 30
0.0
 10
570.051803
 20
352.597438
 30
0.0
 10
570.051803
 20
348.597441
 30
0.0
  0
SPLINE
  5
11e
100
AcDbEntity
  8
0
 62
5
100
AcDbSpline
 70
8
 71
3
 72
8
 73
4
 74
0
 40
0
 40
0
 40
0
 40
0
 40
1
 40
1
 40
1
 40
1
 10
379.746589
 20
306.257282
 30
0.0
 10
379.746589
 20
307.507711
 30
0.0
 10
379.079493
 20
308.663156
 30
0.0
 10
377.996589
 20
309.288371
 30
0.0
  0
SPLINE
  5
11f
100
AcDbEntity
  8
0
 62
5
100
AcDbSpline
 70
8
 71
3
 72
8
 73
4
 74
0
 40
0
 40
0
 40
0
 40
0
 40
1
 40
1
 40
1
 40
1
 10
377.996589
 20
309.288371
 30
0.0
 10
376.913685
 20
309.913586
 30
0.0
 10
375.579492
 20
309.913586
 30
0.0
 10
374.496588
 20
309.288371
 30
0.0
  0
SPLINE
  5
120
100
AcDbEntity
  8
0
 62
5
100
AcDbSpline
 70
8
 71
3
 72
8
 73
4
 74
0
 40
0
 40
0
 40
0
 40
0
 40
1
 40
1
 40
1
 40
1
 10
374.496588
 20
309.288371
 30
0.0
 10
373.413684
 20
308.663156
 30
0.0
 10
372.746588
 20
307.507711
 30
0.0
 10
372.746588
 20
306.257282
 30
0.0
  0
SPLINE
  5
121
100
AcDbEntity
  8
0
 62
5
100
AcDbSpline
 70
8
 71
3
 72
8
 73
4
 74
0
 40
0
 40
0
 40
0
 40
0
 40
1
 40
1
 40
1
 40
1
 10
372.746588
 20
306.257282
 30
0.0
 10
372.746588
 20
305.006852
 30
0.0
 10
373.413684
 20
303.851407
 30
0.0
 10
374.496588
 20
303.226192
 30
0.0
  0
SPLINE
  5
122
100
AcDbEntity
  8
0
 62
5
100
AcDbSpline
 70
8
 71
3
 72
8
 73
4
 74
0
 40
0
 40
0
 40
0
 40
0
 40
1
 40
1
 40
1
 40
1
 10
374.496588
 20
303.226192
 30
0.0
 10
375.579492
 20
302.600977
 30
0.0
 10
376.913685
 20
302.600977
 30
0.0
 10
377.996589
 20
303.226192
 30
0.0
  0
SPLINE
  5
123
100
AcDbEntity
  8
0
 62
5
100
AcDbSpline
 70
8
 71
3
 72
8
 73
4
 74
0
 40
0
 40
0
 40
0
 40
0
 40
1
 40
1
 40
1
 40
1
 10
377.996589
 20
303.226192
 30
0.0
 10
379.079493
 20
303.851407
 30
0.0
 10
379.746589
 20
305.006852
 30
0.0
 10
379.746589
 20
306.257282
 30
0.0
  0
LWPOLYLINE
  5
124
100
AcDbEntity
  8
0
 62
3
100
AcDbPolyline
 90
64
 70
1
 10
403.496780
 20
147.598139
 30
0.0
 10
403.496780
 20
169.820361
 30
0.0
 10
403.496780
 20
192.042583
 30
0.0
 10
403.496780
 20
214.264805
 30
0.0
 10
403.496780
 20
236.487027
 30
0.0
 10
403.496780
 20
258.709249
 30
0.0
 10
403.496780
 20
280.931471
 30
0.0
 10
403.496780
 20
303.153693
 30
0.0
 10
403.496780
 20
325.375914
 30
0.0
 10
403.496780
 20
347.598136
 30
0.0
 10
407.941224
 20
347.598136
 30
0.0
 10
407.941224
 20
351.598133
 30
0.0
 10
412.385669
 20
351.598133
 30
0.0
 10
412.385669
 20
347.598136
 30
0.0
 10
416.830113
 20
347.598136
 30
0.0
 10
416.830113
 20
351.598133
 30
0.0
 10
421.274558
 20
351.598133
 30
0.0
 10
421.274558
 20
347.598136
 30
0.0
 10
425.719002
 20
347.598136
 30
0.0
 10
425.719002
 20
351.598133
 30
0.0
 10
430.163446
 20
351.598133
 30
0.0
 10
430.163446
 20
347.598136
 30
0.0
 10
434.607891
 20
347.598136
 30
0.0
 10
434.607891
 20
351.598133
 30
0.0
 10
439.052335
 20
351.598133
 30
0.0
 10
439.052335
 20
347.598136
 30
0.0
 10
443.496779
 20
347.598136
 30
0.0
 10
443.496779
 20
351.598133
 30
0.0
 10
447.496777
 20
351.598133
 30
0.0
 10
447.496777
 20
325.375914
 30
0.0
 10
443.496779
 20
325.375914
 30
0.0
 10
443.496779
 20
303.153693
 30
0.0
 10
447.496777
 20
303.153693
 30
0.0
 10
447.496777
 20
280.931471
 30
0.0
 10
443.496779
 20
280.931471
 30
0.0
 10
443.496779
 20
258.709249
 30
0.0
 10
447.496777
 20
258.709249
 30
0.0
 10
447.496777
 20
236.487027
 30
0.0
 10
443.496779
 20
236.487027
 30
0.0
 10
443.496779
 20
214.264805
 30
0.0
 10
447.496777
 20
214.264805
 30
0.0
 10
447.496777
 20
192.042583
 30
0.0
 10
443.496779
 20
192.042583
 30
0.0
 10
443.496779
 20
169.820361
 30
0.0
 10
447.496777
 20
169.820361
 30
0.0
 10
447.496777
 20
143.598142
 30
0.0
 10
443.496779
 20
143.598142
 30
0.0
 10
443.496779
 20
147.598139
 30
0.0
 10
439.052335
 20
147.598139
 30
0.0
 10
439.052335
 20
143.598142
 30
0.0
 10
434.607891
 20
143.598142
 30
0.0
 10
434.607891
 20
147.598139
 30
0.0
 10
430.163446
 20
147.598139
 30
0.0
 10
430.163446
 20
143.598142
 30
0.0
 10
425.719002
 20
143.598142
 30
0.0
 10
425.719002
 20
147.598139
 30
0.0
 10
421.274558
 20
147.598139
 30
0.0
 10
421.274558
 20
143.598142
 30
0.0
 10
416.830113
 20
143.598142
 30
0.0
 10
416.830113
 20
147.598139
 30
0.0
 10
412.385669
 20
147.598139
 30
0.0
 10
412.385669
 20
143.598142
 30
0.0
 10
407.941224
 20
143.598142
 30
0.0
 10
407.941224
 20
147.598139
 30
0.0
  0
SPLINE
  5
125
100
AcDbEntity
  8
0
 62
5
100
AcDbSpline
 70
8
 71
3
 72
8
 73
4
 74
0
 40
0
 40
0
 40
0
 40
0
 40
1
 40
1
 40
1
 40
1
 10
379.746589
 20
190.937630
 30
0.0
 10
379.746589
 20
192.188060
 30
0.0
 10
379.079493
 20
193.343505
 30
0.0
 10
377.996589
 20
193.968720
 30
0.0
  0
SPLINE
  5
126
100
AcDbEntity
  8
0
 62
5
100
AcDbSpline
 70
8
 71
3
 72
8
 73
4
 74
0
 40
0
 40
0
 40
0
 40
0
 40
1
 40
1
 40
1
 40
1
 10
377.996589
 20
193.968720
 30
0.0
 10
376.913685
 20
194.593935
 30
0.0
 10
375.579492
 20
194.593935
 30
0.0
 10
374.496588
 20
193.968720
 30
0.0
  0
SPLINE
  5
127
100
AcDbEntity
  8
0
 62
5
100
AcDbSpline
 70
8
 71
3
 72
8
 73
4
 74
0
 40
0
 40
0
 40
0
 40
0
 40
1
 40
1
 40
1
 40
1
 10
374.496588
 20
193.968720
 30
0.0
 10
373.413684
 20
193.343505
 30
0.0
 10
372.746588
 20
192.188060
 30
0.0
 10
372.746588
 20
190.937630
 30
0.0
  0
SPLINE
  5
128
100
AcDbEntity
  8
0
 62
5
100
AcDbSpline
 70
8
 71
3
 72
8
 73
4
 74
0
 40
0
 40
0
 40
0
 40
0
 40
1
 40
1
 40
1
 40
1
 10
372.746588
 20
190.937630
 30
0.0
 10
372.746588
 20
189.687200
 30
0.0
 10
373.413684
 20
188.531755
 30
0.0
 10
374.496588
 20
187.906540
 30
0.0
  0
SPLINE
  5
129
100
AcDbEntity
  8
0
 62
5
100
AcDbSpline
 70
8
 71
3
 72
8
 73
4
 74
0
 40
0
 40
0
 40
0
 40
0
 40
1
 40
1
 40
1
 40
1
 10
374.496588
 20
187.906540
 30
0.0
 10
375.579492
 20
187.281325
 30
0.0
 10
376.913685
 20
187.281325
 30
0.0
 10
377.996589
 20
187.906540
 30
0.0
  0
SPLINE
  5
12a
100
AcDbEntity
  8
0
 62
5
100
AcDbSpline
 70
8
 71
3
 72
8
 73
4
 74
0
 40
0
 40
0
 40
0
 40
0
 40
1
 40
1
 40
1
 40
1
 10
377.996589
 20
187.906540
 30
0.0
 10
379.079493
 20
188.531755
 30
0.0
 10
379.746589
 20
189.687200
 30
0.0
 10
379.746589
 20
190.937630
 30
0.0
  0
LWPOLYLINE
  5
12b
100
AcDbEntity
  8
0
 62
5
100
AcDbPolyline
 90
1
 70
1
 10
379.746589
 20
306.257282
 30
0.0
  0
SPLINE
  5
12c
100
AcDbEntity
  8
0
 62
5
100
AcDbSpline
 70
8
 71
3
 72
8
 73
4
 74
0
 40
0
 40
0
 40
0
 40
0
 40
1
 40
1
 40
1
 40
1
 10
391.348939
 20
270.523318
 30
0.0
 10
391.348939
 20
275.703669
 30
0.0
 10
388.585255
 20
280.490511
 30
0.0
 10
384.098939
 20
283.080687
 30
0.0
  0
SPLINE
  5
12d
100
AcDbEntity
  8
0
 62
5
100
AcDbSpline
 70
8
 71
3
 72
8
 73
4
 74
0
 40
0
 40
0
 40
0
 40
0
 40
1
 40
1
 40
1
 40
1
 10
384.098939
 20
283.080687
 30
0.0
 10
379.612623
 20
285.670863
 30
0.0
 10
374.085254
 20
285.670863
 30
0.0
 10
369.598939
 20
283.080687
 30
0.0
  0
SPLINE
  5
12e
100
AcDbEntity
  8
0
 62
5
100
AcDbSpline
 70
8
 71
3
 72
8
 73
4
 74
0
 40
0
 40
0
 40
0
 40
0
 40
1
 40
1
 40
1
 40
1
 10
369.598939
 20
283.080687
 30
0.0
 10
365.112623
 20
280.490511
 30
0.0
 10
362.348938
 20
275.703669
 30
0.0
 10
362.348939
 20
270.523318
 30
0.0
  0
SPLINE
  5
12f
100
AcDbEntity
  8
0
 62
5
100
AcDbSpline
 70
8
 71
3
 72
8
 73
4
 74
0
 40
0
 40
0
 40
0
 40
0
 40
1
 40
1
 40
1
 40
1
 10
362.348939
 20
270.523318
 30
0.0
 10
362.348939
 20
265.342967
 30
0.0
 10
365.112623
 20
260.556125
 30
0.0
 10
369.598939
 20
257.965949
 30
0.0
  0
SPLINE
  5
130
100
AcDbEntity
  8
0
 62
5
100
AcDbSpline
 70
8
 71
3
 72
8
 73
4
 74
0
 40
0
 40
0
 40
0
 40
0
 40
1
 40
1
 40
1
 40
1
 10
369.598939
 20
257.965949
 30
0.0
 10
374.085254
 20
255.375774
 30
0.0
 10
379.612623
 20
255.375774
 30
0.0
 10
384.098939
 20
257.965949
 30
0.0
  0
SPLINE
  5
131
100
AcDbEntity
  8
0
 62
5
100
AcDbSpline
 70
8
 71
3
 72
8
 73
4
 74
0
 40
0
 40
0
 40
0
 40
0
 40
1
 40
1
 40
1
 40
1
 10
384.098939
 20
257.965949
 30
0.0
 10
388.585255
 20
260.556125
 30
0.0
 10
391.348939
 20
265.342967
 30
0.0
 10
391.348939
 20
270.523318
 30
0.0
  0
LWPOLYLINE
  5
132
100
AcDbEntity
  8
0
 62
5
100
AcDbPolyline
 90
1
 70
1
 10
379.746589
 20
190.937630
 30
0.0
  0
SPLINE
  5
133
100
AcDbEntity
  8
0
 62
5
100
AcDbSpline
 70
8
 71
3
 72
8
 73
4
 74
0
 40
0
 40
0
 40
0
 40
0
 40
1
 40
1
 40
1
 40
1
 10
391.348939
 20
226.671594
 30
0.0
 10
391.348939
 20
231.851945
 30
0.0
 10
388.585255
 20
236.638787
 30
0.0
 10
384.098939
 20
239.228963
 30
0.0
  0
SPLINE
  5
134
100
AcDbEntity
  8
0
 62
5
100
AcDbSpline
 70
8
 71
3
 72
8
 73
4
 74
0
 40
0
 40
0
 40
0
 40
0
 40
1
 40
1
 40
1
 40
1
 10
384.098939
 20
239.228963
 30
0.0
 10
379.612623
 20
241.819138
 30
0.0
 10
374.085254
 20
241.819138
 30
0.0
 10
369.598939
 20
239.228963
 30
0.0
  0
SPLINE
  5
135
100
AcDbEntity
  8
0
 62
5
100
AcDbSpline
 70
8
 71
3
 72
8
 73
4
 74
0
 40
0
 40
0
 40
0
 40
0
 40
1
 40
1
 40
1
 40
1
 10
369.598939
 20
239.228963
 30
0.0
 10
365.112623
 20
236.638787
 30
0.0
 10
362.348938
 20
231.851945
 30
0.0
 10
362.348939
 20
226.671594
 30
0.0
  0
SPLINE
  5
136
100
AcDbEntity
  8
0
 62
5
100
AcDbSpline
 70
8
 71
3
 72
8
 73
4
 74
0
 40
0
 40
0
 40
0
 40
0
 40
1
 40
1
 40
1
 40
1
 10
362.348939
 20
226.671594
 30
0.0
 10
362.348939
 20
221.491243
 30
0.0
 10
365.112623
 20
216.704401
 30
0.0
 10
369.598939
 20
214.114225
 30
0.0
  0
SPLINE
  5
137
100
AcDbEntity
  8
0
 62
5
100
AcDbSpline
 70
8
 71
3
 72
8
 73
4
 74
0
 40
0
 40
0
 40
0
 40
0
 40
1
 40
1
 40
1
 40
1
 10
369.598939
 20
214.114225
 30
0.0
 10
374.085254
 20
211.524050
 30
0.0
 10
379.612623
 20
211.524050
 30
0.0
 10
384.098939
 20
214.114225
 30
0.0
  0
SPLINE
  5
138
100
AcDbEntity
  8
0
 62
5
100
AcDbSpline
 70
8
 71
3
 72
8
 73
4
 74
0
 40
0
 40
0
 40
0
 40
0
 40
1
 40
1
 40
1
 40
1
 10
384.098939
 20
214.114225
 30
0.0
 10
388.585255
 20
216.704401
 30
0.0
 10
391.348939
 20
221.491243
 30
0.0
 10
391.348939
 20
226.671594
 30
0.0
  0
LWPOLYLINE
  5
139
100
AcDbEntity
  8
0
 62
5
100
AcDbPolyline
 90
1
 70
1
 10
391.348939
 20
270.523318
 30
0.0
  0
SPLINE
  5
13a
100
AcDbEntity
  8
0
 62
5
100
AcDbSpline
 70
8
 71
3
 72
8
 73
4
 74
0
 40
0
 40
0
 40
0
 40
0
 40
1
 40
1
 40
1
 40
1
 10
355.091894
 20
287.597436
 30
0.0
 10
355.092548
 20
288.351702
 30
0.0
 10
354.690528
 20
289.048953
 30
0.0
 10
354.037423
 20
289.426275
 30
0.0
  0
SPLINE
  5
13b
100
AcDbEntity
  8
0
 62
5
100
AcDbSpline
 70
8
 71
3
 72
8
 73
4
 74
0
 40
0
 40
0
 40
0
 40
0
 40
1
 40
1
 40
1
 40
1
 10
354.037423
 20
289.426275
 30
0.0
 10
353.384319
 20
289.803597
 30
0.0
 10
352.579471
 20
289.803597
 30
0.0
 10
351.926367
 20
289.426275
 30
0.0
  0
SPLINE
  5
13c
100
AcDbEntity
  8
0
 62
5
100
AcDbSpline
 70
8
 71
3
 72
8
 73
4
 74
0
 40
0
 40
0
 40
0
 40
0
 40
1
 40
1
 40
1
 40
1
 10
351.926367
 20
289.426275
 30
0.0
 10
351.273262
 20
289.048953
 30
0.0
 10
350.871242
 20
288.351702
 30
0.0
 10
350.871896
 20
287.597436
 30
0.0
  0
SPLINE
  5
13d
100
AcDbEntity
  8
0
 62
5
100
AcDbSpline
 70
8
 71
3
 72
8
 73
4
 74
0
 40
0
 40
0
 40
0
 40
0
 40
1
 40
1
 40
1
 40
1
 10
350.871896
 20
287.597436
 30
0.0
 10
350.871242
 20
286.843170
 30
0.0
 10
351.273262
 20
286.145919
 30
0.0
 10
351.926367
 20
285.768597
 30
0.0
  0
SPLINE
  5
13e
100
AcDbEntity
  8
0
 62
5
100
AcDbSpline
 70
8
 71
3
 72
8
 73
4
 74
0
 40
0
 40
0
 40
0
 40
0
 40
1
 40
1
 40
1
 40
1
 10
351.926367
 20
285.768597
 30
0.0
 10
352.579471
 20
285.391275
 30
0.0
 10
353.384319
 20
285.391275
 30
0.0
 10
354.037423
 20
285.768597
 30
0.0
  0
SPLINE
  5
13f
100
AcDbEntity
  8
0
 62
5
100
AcDbSpline
 70
8
 71
3
 72
8
 73
4
 74
0
 40
0
 40
0
 40
0
 40
0
 40
1
 40
1
 40
1
 40
1
 10
354.037423
 20
285.768597
 30
0.0
 10
354.690528
 20
286.145919
 30
0.0
 10
355.092548
 20
286.843170
 30
0.0
 10
355.091894
 20
287.597436
 30
0.0
  0
LWPOLYLINE
  5
140
100
AcDbEntity
  8
0
 62
5
100
AcDbPolyline
 90
1
 70
1
 10
391.348939
 20
226.671594
 30
0.0
  0
SPLINE
  5
141
100
AcDbEntity
  8
0
 62
5
100
AcDbSpline
 70
8
 71
3
 72
8
 73
4
 74
0
 40
0
 40
0
 40
0
 40
0
 40
1
 40
1
 40
1
 40
1
 10
362.996586
 20
248.597456
 30
0.0
 10
363.000222
 20
252.708431
 30
0.0
 10
360.809131
 20
256.508685
 30
0.0
 10
357.249526
 20
258.565223
 30
0.0
  0
SPLINE
  5
142
100
AcDbEntity
  8
0
 62
5
100
AcDbSpline
 70
8
 71
3
 72
8
 73
4
 74
0
 40
0
 40
0
 40
0
 40
0
 40
1
 40
1
 40
1
 40
1
 10
357.249526
 20
258.565223
 30
0.0
 10
353.689922
 20
260.621761
 30
0.0
 10
349.303259
 20
260.621761
 30
0.0
 10
345.743654
 20
258.565223
 30
0.0
  0
SPLINE
  5
143
100
AcDbEntity
  8
0
 62
5
100
AcDbSpline
 70
8
 71
3
 72
8
 73
4
 74
0
 40
0
 40
0
 40
0
 40
0
 40
1
 40
1
 40
1
 40
1
 10
345.743654
 20
258.565223
 30
0.0
 10
342.184050
 20
256.508685
 30
0.0
 10
339.992959
 20
252.708431
 30
0.0
 10
339.996595
 20
248.597456
 30
0.0
  0
SPLINE
  5
144
100
AcDbEntity
  8
0
 62
5
100
AcDbSpline
 70
8
 71
3
 72
8
 73
4
 74
0
 40
0
 40
0
 40
0
 40
0
 40
1
 40
1
 40
1
 40
1
 10
339.996595
 20
248.597456
 30
0.0
 10
339.992959
 20
244.486480
 30
0.0
 10
342.184050
 20
240.686226
 30
0.0
 10
345.743654
 20
238.629688
 30
0.0
  0
SPLINE
  5
145
100
AcDbEntity
  8
0
 62
5
100
AcDbSpline
 70
8
 71
3
 72
8
 73
4
 74
0
 40
0
 40
0
 40
0
 40
0
 40
1
 40
1
 40
1
 40
1
 10
345.743654
 20
238.629688
 30
0.0
 10
349.303259
 20
236.573150
 30
0.0
 10
353.689922
 20
236.573150
 30
0.0
 10
357.249526
 20
238.629688
 30
0.0
  0
SPLINE
  5
146
100
AcDbEntity
  8
0
 62
5
100
AcDbSpline
 70
8
 71
3
 72
8
 73
4
 74
0
 40
0
 40
0
 40
0
 40
0
 40
1
 40
1
 40
1
 40
1
 10
357.249526
 20
238.629688
 30
0.0
 10
360.809131
 20
240.686226
 30
0.0
 10
363.000222
 20
244.486480
 30
0.0
 10
362.996586
 20
248.597456
 30
0.0
  0
LWPOLYLINE
  5
147
100
AcDbEntity
  8
0
 62
5
100
AcDbPolyline
 90
1
 70
1
 10
355.091894
 20
287.597436
 30
0.0
  0
SPLINE
  5
148
100
AcDbEntity
  8
0
 62
5
100
AcDbSpline
 70
8
 71
3
 72
8
 73
4
 74
0
 40
0
 40
0
 40
0
 40
0
 40
1
 40
1
 40
1
 40
1
 10
386.746591
 20
165.597452
 30
0.0
 10
386.746591
 20
168.455580
 30
0.0
 10
385.221798
 20
171.096599
 30
0.0
 10
382.746587
 20
172.525662
 30
0.0
  0
SPLINE
  5
149
100
AcDbEntity
  8
0
 62
5
100
AcDbSpline
 70
8
 71
3
 72
8
 73
4
 74
0
 40
0
 40
0
 40
0
 40
0
 40
1
 40
1
 40
1
 40
1
 10
382.746587
 20
172.525662
 30
0.0
 10
380.271376
 20
173.954726
 30
0.0
 10
377.221791
 20
173.954726
 30
0.0
 10
374.746580
 20
172.525662
 30
0.0
  0
SPLINE
  5
14a
100
AcDbEntity
  8
0
 62
5
100
AcDbSpline
 70
8
 71
3
 72
8
 73
4
 74
0
 40
0
 40
0
 40
0
 40
0
 40
1
 40
1
 40
1
 40
1
 10
374.746580
 20
172.525662
 30
0.0
 10
372.271368
 20
171.096599
 30
0.0
 10
370.746576
 20
168.455580
 30
0.0
 10
370.746576
 20
165.597452
 30
0.0
  0
SPLINE
  5
14b
100
AcDbEntity
  8
0
 62
5
100
AcDbSpline
 70
8
 71
3
 72
8
 73
4
 74
0
 40
0
 40
0
 40
0
 40
0
 40
1
 40
1
 40
1
 40
1
 10
370.746576
 20
165.597452
 30
0.0
 10
370.746576
 20
162.739325
 30
0.0
 10
372.271368
 20
160.098306
 30
0.0
 10
374.746580
 20
158.669242
 30
0.0
  0
SPLINE
  5
14c
100
AcDbEntity
  8
0
 62
5
100
AcDbSpline
 70
8
 71
3
 72
8
 73
4
 74
0
 40
0
 40
0
 40
0
 40
0
 40
1
 40
1
 40
1
 40
1
 10
374.746580
 20
158.669242
 30
0.0
 10
377.221791
 20
157.240179
 30
0.0
 10
380.271376
 20
157.240179
 30
0.0
 10
382.746587
 20
158.669242
 30
0.0
  0
SPLINE
  5
14d
100
AcDbEntity
  8
0
 62
5
100
AcDbSpline
 70
8
 71
3
 72
8
 73
4
 74
0
 40
0
 40
0
 40
0
 40
0
 40
1
 40
1
 40
1
 40
1
 10
382.746587
 20
158.669242
 30
0.0
 10
385.221798
 20
160.098306
 30
0.0
 10
386.746591
 20
162.739325
 30
0.0
 10
386.746591
 20
165.597452
 30
0.0
  0
LWPOLYLINE
  5
14e
100
AcDbEntity
  8
0
 62
5
100
AcDbPolyline
 90
1
 70
1
 10
362.996586
 20
248.597456
 30
0.0
  0
SPLINE
  5
14f
100
AcDbEntity
  8
0
 62
5
100
AcDbSpline
 70
8
 71
3
 72
8
 73
4
 74
0
 40
0
 40
0
 40
0
 40
0
 40
1
 40
1
 40
1
 40
1
 10
361.246579
 20
331.597433
 30
0.0
 10
361.249869
 20
334.457747
 30
0.0
 10
359.725798
 20
337.102195
 30
0.0
 10
357.249240
 20
338.533303
 30
0.0
  0
SPLINE
  5
150
100
AcDbEntity
  8
0
 62
5
100
AcDbSpline
 70
8
 71
3
 72
8
 73
4
 74
0
 40
0
 40
0
 40
0
 40
0
 40
1
 40
1
 40
1
 40
1
 10
357.249240
 20
338.533303
 30
0.0
 10
354.772682
 20
339.964411
 30
0.0
 10
351.720486
 20
339.964411
 30
0.0
 10
349.243928
 20
338.533303
 30
0.0
  0
SPLINE
  5
151
100
AcDbEntity
  8
0
 62
5
100
AcDbSpline
 70
8
 71
3
 72
8
 73
4
 74
0
 40
0
 40
0
 40
0
 40
0
 40
1
 40
1
 40
1
 40
1
 10
349.243928
 20
338.533303
 30
0.0
 10
346.767370
 20
337.102195
 30
0.0
 10
345.243300
 20
334.457747
 30
0.0
 10
345.246590
 20
331.597433
 30
0.0
  0
SPLINE
  5
152
100
AcDbEntity
  8
0
 62
5
100
AcDbSpline
 70
8
 71
3
 72
8
 73
4
 74
0
 40
0
 40
0
 40
0
 40
0
 40
1
 40
1
 40
1
 40
1
 10
345.246590
 20
331.597433
 30
0.0
 10
345.243218
 20
328.737064
 30
0.0
 10
346.767271
 20
326.092531
 30
0.0
 10
349.243863
 20
324.661373
 30
0.0
  0
SPLINE
  5
153
100
AcDbEntity
  8
0
 62
5
100
AcDbSpline
 70
8
 71
3
 72
8
 73
4
 74
0
 40
0
 40
0
 40
0
 40
0
 40
1
 40
1
 40
1
 40
1
 10
349.243863
 20
324.661373
 30
0.0
 10
351.720454
 20
323.230214
 30
0.0
 10
354.772714
 20
323.230214
 30
0.0
 10
357.249306
 20
324.661373
 30
0.0
  0
SPLINE
  5
154
100
AcDbEntity
  8
0
 62
5
100
AcDbSpline
 70
8
 71
3
 72
8
 73
4
 74
0
 40
0
 40
0
 40
0
 40
0
 40
1
 40
1
 40
1
 40
1
 10
357.249306
 20
324.661373
 30
0.0
 10
359.725897
 20
326.092531
 30
0.0
 10
361.249950
 20
328.737064
 30
0.0
 10
361.246579
 20
331.597433
 30
0.0
  0
LWPOLYLINE
  5
155
100
AcDbEntity
  8
0
 62
5
100
AcDbPolyline
 90
1
 70
1
 10
386.746591
 20
165.597452
 30
0.0
  0
SPLINE
  5
156
100
AcDbEntity
  8
0
 62
5
100
AcDbSpline
 70
8
 71
3
 72
8
 73
4
 74
0
 40
0
 40
0
 40
0
 40
0
 40
1
 40
1
 40
1
 40
1
 10
361.246579
 20
165.597452
 30
0.0
 10
361.249869
 20
168.457767
 30
0.0
 10
359.725798
 20
171.102215
 30
0.0
 10
357.249240
 20
172.533323
 30
0.0
  0
SPLINE
  5
157
100
AcDbEntity
  8
0
 62
5
100
AcDbSpline
 70
8
 71
3
 72
8
 73
4
 74
0
 40
0
 40
0
 40
0
 40
0
 40
1
 40
1
 40
1
 40
1
 10
357.249240
 20
172.533323
 30
0.0
 10
354.772682
 20
173.964431
 30
0.0
 10
351.720486
 20
173.964431
 30
0.0
 10
349.243928
 20
172.533323
 30
0.0
  0
SPLINE
  5
158
100
AcDbEntity
  8
0
 62
5
100
AcDbSpline
 70
8
 71
3
 72
8
 73
4
 74
0
 40
0
 40
0
 40
0
 40
0
 40
1
 40
1
 40
1
 40
1
 10
349.243928
 20
172.533323
 30
0.0
 10
346.767370
 20
171.102215
 30
0.0
 10
345.243300
 20
168.457767
 30
0.0
 10
345.246590
 20
165.597452
 30
0.0
  0
SPLINE
  5
159
100
AcDbEntity
  8
0
 62
5
100
AcDbSpline
 70
8
 71
3
 72
8
 73
4
 74
0
 40
0
 40
0
 40
0
 40
0
 40
1
 40
1
 40
1
 40
1
 10
345.246590
 20
165.597452
 30
0.0
 10
345.243218
 20
162.737084
 30
0.0
 10
346.767271
 20
160.092551
 30
0.0
 10
349.243863
 20
158.661392
 30
0.0
  0
SPLINE
  5
15a
100
AcDbEntity
  8
0
 62
5
100
AcDbSpline
 70
8
 71
3
 72
8
 73
4
 74
0
 40
0
 40
0
 40
0
 40
0
 40
1
 40
1
 40
1
 40
1
 10
349.243863
 20
158.661392
 30
0.0
 10
351.720454
 20
157.230234
 30
0.0
 10
354.772714
 20
157.230234
 30
0.0
 10
357.249306
 20
158.661392
 30
0.0
  0
SPLINE
  5
15b
100
AcDbEntity
  8
0
 62
5
100
AcDbSpline
 70
8
 71
3
 72
8
 73
4
 74
0
 40
0
 40
0
 40
0
 40
0
 40
1
 40
1
 40
1
 40
1
 10
357.249306
 20
158.661392
 30
0.0
 10
359.725897
 20
160.092551
 30
0.0
 10
361.249950
 20
162.737084
 30
0.0
 10
361.246579
 20
165.597452
 30
0.0
  0
LWPOLYLINE
  5
15c
100
AcDbEntity
  8
0
 62
5
100
AcDbPolyline
 90
1
 70
1
 10
361.246579
 20
331.597433
 30
0.0
  0
SPLINE
  5
15d
100
AcDbEntity
  8
0
 62
5
100
AcDbSpline
 70
8
 71
3
 72
8
 73
4
 74
0
 40
0
 40
0
 40
0
 40
0
 40
1
 40
1
 40
1
 40
1
 10
386.746591
 20
331.597433
 30
0.0
 10
386.746591
 20
334.455560
 30
0.0
 10
385.221798
 20
337.096579
 30
0.0
 10
382.746587
 20
338.525643
 30
0.0
  0
SPLINE
  5
15e
100
AcDbEntity
  8
0
 62
5
100
AcDbSpline
 70
8
 71
3
 72
8
 73
4
 74
0
 40
0
 40
0
 40
0
 40
0
 40
1
 40
1
 40
1
 40
1
 10
382.746587
 20
338.525643
 30
0.0
 10
380.271376
 20
339.954706
 30
0.0
 10
377.221791
 20
339.954706
 30
0.0
 10
374.746580
 20
338.525643
 30
0.0
  0
SPLINE
  5
15f
100
AcDbEntity
  8
0
 62
5
100
AcDbSpline
 70
8
 71
3
 72
8
 73
4
 74
0
 40
0
 40
0
 40
0
 40
0
 40
1
 40
1
 40
1
 40
1
 10
374.746580
 20
338.525643
 30
0.0
 10
372.271368
 20
337.096579
 30
0.0
 10
370.746576
 20
334.455560
 30
0.0
 10
370.746576
 20
331.597433
 30
0.0
  0
SPLINE
  5
160
100
AcDbEntity
  8
0
 62
5
100
AcDbSpline
 70
8
 71
3
 72
8
 73
4
 74
0
 40
0
 40
0
 40
0
 40
0
 40
1
 40
1
 40
1
 40
1
 10
370.746576
 20
331.597433
 30
0.0
 10
370.746576
 20
328.739305
 30
0.0
 10
372.271368
 20
326.098286
 30
0.0
 10
374.746580
 20
324.669223
 30
0.0
  0
SPLINE
  5
161
100
AcDbEntity
  8
0
 62
5
100
AcDbSpline
 70
8
 71
3
 72
8
 73
4
 74
0
 40
0
 40
0
 40
0
 40
0
 40
1
 40
1
 40
1
 40
1
 10
374.746580
 20
324.669223
 30
0.0
 10
377.221791
 20
323.240159
 30
0.0
 10
380.271376
 20
323.240159
 30
0.0
 10
382.746587
 20
324.669223
 30
0.0
  0
SPLINE
  5
162
100
AcDbEntity
  8
0
 62
5
100
AcDbSpline
 70
8
 71
3
 72
8
 73
4
 74
0
 40
0
 40
0
 40
0
 40
0
 40
1
 40
1
 40
1
 40
1
 10
382.746587
 20
324.669223
 30
0.0
 10
385.221798
 20
326.098286
 30
0.0
 10
386.746591
 20
328.739305
 30
0.0
 10
386.746591
 20
331.597433
 30
0.0
  0
LWPOLYLINE
  5
163
100
AcDbEntity
  8
0
 62
5
100
AcDbPolyline
 90
1
 70
1
 10
361.246579
 20
165.597452
 30
0.0
  0
LWPOLYLINE
  5
164
100
AcDbEntity
  8
0
 62
5
100
AcDbPolyline
 90
1
 70
1
 10
386.746591
 20
331.597433
 30
0.0
  0
SPLINE
  5
165
100
AcDbEntity
  8
0
 62
5
100
AcDbSpline
 70
8
 71
3
 72
8
 73
4
 74
0
 40
0
 40
0
 40
0
 40
0
 40
1
 40
1
 40
1
 40
1
 10
346.228829
 20
196.377437
 30
0.0
 10
346.228829
 20
196.824023
 30
0.0
 10
345.990578
 20
197.236685
 30
0.0
 10
345.603823
 20
197.459978
 30
0.0
  0
SPLINE
  5
166
100
AcDbEntity
  8
0
 62
5
100
AcDbSpline
 70
8
 71
3
 72
8
 73
4
 74
0
 40
0
 40
0
 40
0
 40
0
 40
1
 40
1
 40
1
 40
1
 10
345.603823
 20
197.459978
 30
0.0
 10
345.217069
 20
197.683271
 30
0.0
 10
344.740567
 20
197.683271
 30
0.0
 10
344.353813
 20
197.459978
 30
0.0
  0
SPLINE
  5
167
100
AcDbEntity
  8
0
 62
5
100
AcDbSpline
 70
8
 71
3
 72
8
 73
4
 74
0
 40
0
 40
0
 40
0
 40
0
 40
1
 40
1
 40
1
 40
1
 10
344.353813
 20
197.459978
 30
0.0
 10
343.967058
 20
197.236685
 30
0.0
 10
343.728807
 20
196.824023
 30
0.0
 10
343.728807
 20
196.377437
 30
0.0
  0
SPLINE
  5
168
100
AcDbEntity
  8
0
 62
5
100
AcDbSpline
 70
8
 71
3
 72
8
 73
4
 74
0
 40
0
 40
0
 40
0
 40
0
 40
1
 40
1
 40
1
 40
1
 10
343.728807
 20
196.377437
 30
0.0
 10
343.728807
 20
195.930851
 30
0.0
 10
343.967058
 20
195.518189
 30
0.0
 10
344.353813
 20
195.294896
 30
0.0
  0
SPLINE
  5
169
100
AcDbEntity
  8
0
 62
5
100
AcDbSpline
 70
8
 71
3
 72
8
 73
4
 74
0
 40
0
 40
0
 40
0
 40
0
 40
1
 40
1
 40
1
 40
1
 10
344.353813
 20
195.294896
 30
0.0
 10
344.740567
 20
195.071603
 30
0.0
 10
345.217069
 20
195.071603
 30
0.0
 10
345.603823
 20
195.294896
 30
0.0
  0
SPLINE
  5
16a
100
AcDbEntity
  8
0
 62
5
100
AcDbSpline
 70
8
 71
3
 72
8
 73
4
 74
0
 40
0
 40
0
 40
0
 40
0
 40
1
 40
1
 40
1
 40
1
 10
345.603823
 20
195.294896
 30
0.0
 10
345.990578
 20
195.518189
 30
0.0
 10
346.228829
 20
195.930851
 30
0.0
 10
346.228829
 20
196.377437
 30
0.0
  0
LWPOLYLINE
  5
16b
100
AcDbEntity
  8
0
 62
5
100
AcDbPolyline
 90
4
 70
1
 10
347.341587
 20
194.437433
 30
0.0
 10
358.622177
 20
194.437433
 30
0.0
 10
358.622177
 20
213.557441
 30
0.0
 10
347.341587
 20
213.557441
 30
0.0
  0
SPLINE
  5
16c
100
AcDbEntity
  8
0
 62
5
100
AcDbSpline
 70
8
 71
3
 72
8
 73
4
 74
0
 40
0
 40
0
 40
0
 40
0
 40
1
 40
1
 40
1
 40
1
 10
346.228829
 20
211.617437
 30
0.0
 10
346.228829
 20
212.064023
 30
0.0
 10
345.990578
 20
212.476685
 30
0.0
 10
345.603823
 20
212.699978
 30
0.0
  0
SPLINE
  5
16d
100
AcDbEntity
  8
0
 62
5
100
AcDbSpline
 70
8
 71
3
 72
8
 73
4
 74
0
 40
0
 40
0
 40
0
 40
0
 40
1
 40
1
 40
1
 40
1
 10
345.603823
 20
212.699978
 30
0.0
 10
345.217069
 20
212.923271
 30
0.0
 10
344.740567
 20
212.923271
 30
0.0
 10
344.353813
 20
212.699978
 30
0.0
  0
SPLINE
  5
16e
100
AcDbEntity
  8
0
 62
5
100
AcDbSpline
 70
8
 71
3
 72
8
 73
4
 74
0
 40
0
 40
0
 40
0
 40
0
 40
1
 40
1
 40
1
 40
1
 10
344.353813
 20
212.699978
 30
0.0
 10
343.967058
 20
212.476685
 30
0.0
 10
343.728807
 20
212.064023
 30
0.0
 10
343.728807
 20
211.617437
 30
0.0
  0
SPLINE
  5
16f
100
AcDbEntity
  8
0
 62
5
100
AcDbSpline
 70
8
 71
3
 72
8
 73
4
 74
0
 40
0
 40
0
 40
0
 40
0
 40
1
 40
1
 40
1
 40
1
 10
343.728807
 20
211.617437
 30
0.0
 10
343.728807
 20
211.170851
 30
0.0
 10
343.967058
 20
210.758189
 30
0.0
 10
344.353813
 20
210.534896
 30
0.0
  0
SPLINE
  5
170
100
AcDbEntity
  8
0
 62
5
100
AcDbSpline
 70
8
 71
3
 72
8
 73
4
 74
0
 40
0
 40
0
 40
0
 40
0
 40
1
 40
1
 40
1
 40
1
 10
344.353813
 20
210.534896
 30
0.0
 10
344.740567
 20
210.311603
 30
0.0
 10
345.217069
 20
210.311603
 30
0.0
 10
345.603823
 20
210.534896
 30
0.0
  0
SPLINE
  5
171
100
AcDbEntity
  8
0
 62
5
100
AcDbSpline
 70
8
 71
3
 72
8
 73
4
 74
0
 40
0
 40
0
 40
0
 40
0
 40
1
 40
1
 40
1
 40
1
 10
345.603823
 20
210.534896
 30
0.0
 10
345.990578
 20
210.758189
 30
0.0
 10
346.228829
 20
211.170851
 30
0.0
 10
346.228829
 20
211.617437
 30
0.0
  0
LWPOLYLINE
  5
172
100
AcDbEntity
  8
0
 62
5
100
AcDbPolyline
 90
1
 70
1
 10
346.228829
 20
196.377437
 30
0.0
  0
LWPOLYLINE
  5
173
100
AcDbEntity
  8
0
 62
5
100
AcDbPolyline
 90
1
 70
1
 10
346.228829
 20
211.617437
 30
0.0
  0
LWPOLYLINE
  5
174
100
AcDbEntity
  8
0
 62
3
100
AcDbPolyline
 90
4
 70
1
 10
398.496578
 20
148.597444
 30
0.0
 10
333.496576
 20
148.597444
 30
0.0
 10
333.496576
 20
348.597441
 30
0.0
 10
398.496578
 20
348.597441
 30
0.0
  0
LWPOLYLINE
  5
175
100
AcDbEntity
  8
0
 62
3
100
AcDbPolyline
 90
4
 70
1
 10
292.496584
 20
148.597444
 30
0.0
 10
292.496584
 20
348.597441
 30
0.0
 10
328.496586
 20
348.597441
 30
0.0
 10
328.496586
 20
148.597444
 30
0.0
  0
LWPOLYLINE
  5
176
100
AcDbEntity
  8
0
 62
3
100
AcDbPolyline
 90
4
 70
1
 10
251.496581
 20
148.597444
 30
0.0
 10
251.496581
 20
348.597441
 30
0.0
 10
287.496594
 20
348.597441
 30
0.0
 10
287.496594
 20
148.597444
 30
0.0
  0
LWPOLYLINE
  5
177
100
AcDbEntity
  8
0
 62
3
100
AcDbPolyline
 90
67
 70
1
 10
524.302249
 20
401.597451
 30
0.0
 10
531.524475
 20
401.597451
 30
0.0
 10
538.746700
 20
401.597451
 30
0.0
 10
545.968899
 20
401.597449
 30
0.0
 10
553.191124
 20
401.597449
 30
0.0
 10
560.413350
 20
401.597449
 30
0.0
 10
567.635575
 20
401.597446
 30
0.0
 10
571.635573
 20
401.597446
 30
0.0
 10
571.635573
 20
397.153002
 30
0.0
 10
567.635575
 20
397.153002
 30
0.0
 10
567.635575
 20
392.708557
 30
0.0
 10
571.635573
 20
392.708557
 30
0.0
 10
571.635573
 20
388.264113
 30
0.0
 10
567.635575
 20
388.264113
 30
0.0
 10
567.635575
 20
383.819669
 30
0.0
 10
571.635573
 20
383.819669
 30
0.0
 10
571.635573
 20
379.375229
 30
0.0
 10
567.635575
 20
379.375229
 30
0.0
 10
567.635575
 20
374.930785
 30
0.0
 10
571.635573
 20
374.930785
 30
0.0
 10
571.635573
 20
370.486341
 30
0.0
 10
567.635575
 20
370.486341
 30
0.0
 10
567.635575
 20
366.041896
 30
0.0
 10
571.635573
 20
366.041896
 30
0.0
 10
571.635573
 20
361.597452
 30
0.0
 10
567.635575
 20
361.597452
 30
0.0
 10
567.635575
 20
357.597455
 30
0.0
 10
560.413350
 20
357.597455
 30
0.0
 10
560.413350
 20
361.597452
 30
0.0
 10
553.191124
 20
361.597452
 30
0.0
 10
553.191124
 20
357.597455
 30
0.0
 10
545.968899
 20
357.597455
 30
0.0
 10
545.968899
 20
361.597452
 30
0.0
 10
538.746674
 20
361.597452
 30
0.0
 10
538.746674
 20
357.597455
 30
0.0
 10
535.135587
 20
357.597455
 30
0.0
 10
531.524475
 20
357.597455
 30
0.0
 10
531.524475
 20
361.597452
 30
0.0
 10
524.302249
 20
361.597452
 30
0.0
 10
524.302249
 20
357.597455
 30
0.0
 10
517.080024
 20
357.597455
 30
0.0
 10
517.080024
 20
361.597452
 30
0.0
 10
509.857798
 20
361.597452
 30
0.0
 10
509.857798
 20
357.597455
 30
0.0
 10
502.635573
 20
357.597455
 30
0.0
 10
502.635573
 20
361.597452
 30
0.0
 10
498.635576
 20
361.597452
 30
0.0
 10
498.635576
 20
366.041896
 30
0.0
 10
502.635573
 20
366.041896
 30
0.0
 10
502.635573
 20
370.486341
 30
0.0
 10
498.635576
 20
370.486341
 30
0.0
 10
498.635576
 20
374.930785
 30
0.0
 10
502.635573
 20
374.930785
 30
0.0
 10
502.635573
 20
379.375229
 30
0.0
 10
498.635576
 20
379.375229
 30
0.0
 10
498.635576
 20
383.819674
 30
0.0
 10
502.635573
 20
383.819674
 30
0.0
 10
502.635573
 20
388.264118
 30
0.0
 10
498.635576
 20
388.264118
 30
0.0
 10
498.635576
 20
392.708563
 30
0.0
 10
502.635573
 20
392.708563
 30
0.0
 10
502.635573
 20
397.153007
 30
0.0
 10
498.635576
 20
397.153007
 30
0.0
 10
498.635576
 20
401.597451
 30
0.0
 10
502.635573
 20
401.597451
 30
0.0
 10
509.857798
 20
401.597451
 30
0.0
 10
517.080024
 20
401.597451
 30
0.0
  0
LWPOLYLINE
  5
178
100
AcDbEntity
  8
0
 62
5
100
AcDbPolyline
 90
4
 70
1
 10
462.597606
 20
373.297856
 30
0.0
 10
462.597606
 20
362.177842
 30
0.0
 10
474.675597
 20
362.177842
 30
0.0
 10
474.675597
 20
373.297856
 30
0.0
  0
LWPOLYLINE
  5
179
100
AcDbEntity
  8
0
 62
3
100
AcDbPolyline
 90
67
 70
1
 10
424.635586
 20
400.597848
 30
0.0
 10
431.857811
 20
400.597848
 30
0.0
 10
439.080037
 20
400.597850
 30
0.0
 10
446.302262
 20
400.597850
 30
0.0
 10
453.524461
 20
400.597850
 30
0.0
 10
460.746687
 20
400.597853
 30
0.0
 10
467.968912
 20
400.597853
 30
0.0
 10
475.191137
 20
400.597853
 30
0.0
 10
482.413363
 20
400.597853
 30
0.0
 10
489.635588
 20
400.597850
 30
0.0
 10
493.635586
 20
400.597850
 30
0.0
 10
493.635586
 20
396.153406
 30
0.0
 10
489.635588
 20
396.153406
 30
0.0
 10
489.635588
 20
391.708961
 30
0.0
 10
493.635586
 20
391.708961
 30
0.0
 10
493.635586
 20
387.264517
 30
0.0
 10
489.635588
 20
387.264520
 30
0.0
 10
489.635588
 20
382.820073
 30
0.0
 10
493.635586
 20
382.820073
 30
0.0
 10
493.635586
 20
378.375634
 30
0.0
 10
489.635588
 20
378.375634
 30
0.0
 10
489.635588
 20
373.931189
 30
0.0
 10
493.635586
 20
373.931189
 30
0.0
 10
493.635586
 20
369.486745
 30
0.0
 10
489.635588
 20
369.486745
 30
0.0
 10
489.635588
 20
365.042300
 30
0.0
 10
493.635586
 20
365.042300
 30
0.0
 10
493.635586
 20
360.597856
 30
0.0
 10
489.635588
 20
360.597856
 30
0.0
 10
489.635588
 20
356.597859
 30
0.0
 10
482.413363
 20
356.597859
 30
0.0
 10
482.413363
 20
360.597856
 30
0.0
 10
475.191137
 20
360.597856
 30
0.0
 10
475.191137
 20
356.597859
 30
0.0
 10
467.968912
 20
356.597859
 30
0.0
 10
467.968912
 20
360.597856
 30
0.0
 10
460.746687
 20
360.597856
 30
0.0
 10
460.746687
 20
356.597859
 30
0.0
 10
457.135574
 20
356.597859
 30
0.0
 10
453.524488
 20
356.597859
 30
0.0
 10
453.524488
 20
360.597856
 30
0.0
 10
446.302262
 20
360.597856
 30
0.0
 10
446.302262
 20
356.597859
 30
0.0
 10
439.080037
 20
356.597859
 30
0.0
 10
439.080037
 20
360.597856
 30
0.0
 10
431.857811
 20
360.597856
 30
0.0
 10
431.857811
 20
356.597859
 30
0.0
 10
424.635586
 20
356.597859
 30
0.0
 10
424.635586
 20
360.597856
 30
0.0
 10
420.635589
 20
360.597856
 30
0.0
 10
420.635589
 20
365.042300
 30
0.0
 10
424.635586
 20
365.042300
 30
0.0
 10
424.635586
 20
369.486745
 30
0.0
 10
420.635589
 20
369.486745
 30
0.0
 10
420.635589
 20
373.931189
 30
0.0
 10
424.635586
 20
373.931189
 30
0.0
 10
424.635586
 20
378.375634
 30
0.0
 10
420.635589
 20
378.375634
 30
0.0
 10
420.635589
 20
382.820070
 30
0.0
 10
424.635586
 20
382.820070
 30
0.0
 10
424.635586
 20
387.264514
 30
0.0
 10
420.635589
 20
387.264512
 30
0.0
 10
420.635589
 20
391.708959
 30
0.0
 10
424.635586
 20
391.708959
 30
0.0
 10
424.635586
 20
396.153403
 30
0.0
 10
420.635589
 20
396.153403
 30
0.0
 10
420.635589
 20
400.597848
 30
0.0
  0
LWPOLYLINE
  5
17a
100
AcDbEntity
  8
0
 62
5
100
AcDbPolyline
 90
4
 70
1
 10
379.673564
 20
391.018444
 30
0.0
 10
367.595573
 20
391.018444
 30
0.0
 10
367.595573
 20
379.898443
 30
0.0
 10
379.673564
 20
379.898443
 30
0.0
  0
LWPOLYLINE
  5
17b
100
AcDbEntity
  8
0
 62
3
100
AcDbPolyline
 90
4
 70
1
 10
356.635579
 20
392.598446
 30
0.0
 10
413.635587
 20
392.598446
 30
0.0
 10
413.635587
 20
356.598441
 30
0.0
 10
356.635579
 20
356.598441
 30
0.0
  0
LWPOLYLINE
  5
17c
100
AcDbEntity
  8
0
 62
3
100
AcDbPolyline
 90
4
 70
1
 10
351.635589
 20
356.598441
 30
0.0
 10
294.635581
 20
356.598441
 30
0.0
 10
294.635581
 20
392.598446
 30
0.0
 10
351.635589
 20
392.598446
 30
0.0
  0
ENDSEC
  0
SECTION
  2
OBJECTS
  0
DICTIONARY
  5
C
330
0
100
AcDbDictionary
  3
ACAD_GROUP
350
D
  3
ACAD_MLINESTYLE
350
17
  0
DICTIONARY
  5
D
330
C
100
AcDbDictionary
  0
DICTIONARY
  5
1A
330
C
100
AcDbDictionary
  0
DICTIONARY
  5
17
330
C
100
AcDbDictionary
  3
STANDARD
350
18
  0
DICTIONARY
  5
19
330
C
100
AcDbDictionary
  0
ENDSEC
  0
EOF
