<?xml version="1.0" encoding="UTF-8" standalone="no"?>
<svg
   xmlns:dc="http://purl.org/dc/elements/1.1/"
   xmlns:cc="http://creativecommons.org/ns#"
   xmlns:rdf="http://www.w3.org/1999/02/22-rdf-syntax-ns#"
   xmlns:svg="http://www.w3.org/2000/svg"
   xmlns="http://www.w3.org/2000/svg"
   xmlns:sodipodi="http://sodipodi.sourceforge.net/DTD/sodipodi-0.dtd"
   xmlns:inkscape="http://www.inkscape.org/namespaces/inkscape"
   width="594mm"
   height="420mm"
   version="1.1"
   id="svg80"
   sodipodi:docname="ControlBox_Prototype_Box1_LaserPrep.svg"
   inkscape:version="0.92.2 5c3e80d, 2017-08-06">
  <metadata
     id="metadata84">
    <rdf:RDF>
      <cc:Work
         rdf:about="">
        <dc:format>image/svg+xml</dc:format>
        <dc:type
           rdf:resource="http://purl.org/dc/dcmitype/StillImage" />
        <dc:title></dc:title>
      </cc:Work>
    </rdf:RDF>
  </metadata>
  <sodipodi:namedview
     pagecolor="#ffffff"
     bordercolor="#666666"
     borderopacity="1"
     objecttolerance="10"
     gridtolerance="10"
     guidetolerance="10"
     inkscape:pageopacity="0"
     inkscape:pageshadow="2"
     inkscape:window-width="1150"
     inkscape:window-height="779"
     id="namedview82"
     showgrid="false"
     units="mm"
     inkscape:document-units="mm"
     inkscape:zoom="0.59465222"
     inkscape:cx="1146.3396"
     inkscape:cy="902.86636"
     inkscape:window-x="111"
     inkscape:window-y="0"
     inkscape:window-maximized="0"
     inkscape:current-layer="g78" />
  <desc
     id="desc2">/Users/callumkirkwood/Documents/Projects/Github/Trace-Transform/CAD/ControlBox_Prototype_Box1_export.dxf - scale = 1.000000, origin = (0.000000, 0.000000), method = manual</desc>
  <defs
     id="defs16">
    <marker
       id="DistanceX"
       orient="auto"
       refX="0"
       refY="0"
       style="overflow:visible">
      <path
         d="M 3,-3 -3,3 M 0,-5 V 5"
         style="stroke:#000000;stroke-width:0.5"
         id="path4"
         inkscape:connector-curvature="0" />
    </marker>
    <pattern
       height="8"
       id="Hatch"
       patternUnits="userSpaceOnUse"
       width="8"
       x="0"
       y="0">
      <path
         d="M8 4 l-4,4"
         linecap="square"
         stroke="#000000"
         stroke-width="0.25"
         id="path7" />
      <path
         d="M6 2 l-4,4"
         linecap="square"
         stroke="#000000"
         stroke-width="0.25"
         id="path9" />
      <path
         d="M4 0 l-4,4"
         linecap="square"
         stroke="#000000"
         stroke-width="0.25"
         id="path11" />
    </pattern>
    <symbol
       id="*MODEL_SPACE" />
    <symbol
       id="*PAPER_SPACE" />
  </defs>
  <g
     inkscape:groupmode="layer"
     inkscape:label="0"
     id="g78"
     transform="translate(0,464.8819)">
    <path
       d="m 861.3728,-107.77548 h 45.6491 v -42.0283 h -45.6491 z"
       style="fill:none;stroke:#0000ff"
       id="path20"
       inkscape:connector-curvature="0" />
    <path
       d="M 1035.3823,-83.662081 H 819.9492 V -219.72504 h 215.4331 z"
       style="fill:none;stroke:#00ff00"
       id="path22"
       inkscape:connector-curvature="0" />
    <path
       d="m 1179.1479,-122.89508 v -42.0283 h -45.6491 v 42.0283 z"
       style="fill:none;stroke:#0000ff"
       id="path24"
       inkscape:connector-curvature="0" />
    <path
       d="m 1295.3298,-249.96279 27.2966,1e-5 h 15.1181 v 16.7979 h -15.1181 v 16.7979 h 15.1181 v 16.7979 h -15.1181 v 16.7979 h 15.1181 v 16.7979 h -15.1181 v 16.7979 h 15.1181 v 16.7979 h -15.1181 v 16.7979 h 15.1181 v 16.797899 h -15.1181 v 15.1181 h -27.2966 v -15.1181 h -27.2966 v 15.1181 h -27.2966 v -15.1181 H 1213.44 v 15.1181 h -13.6483 -13.6483 v -15.1181 h -27.2965 v 15.1181 h -27.2966 v -15.1181 h -27.2966 v 15.1181 h -27.2966 v -15.1181 h -15.1181 v -16.797899 h 15.1181 v -16.7979 h -15.1181 v -16.7979 h 15.1181 v -16.7979 h -15.1181 v -16.7979 h 15.1181 v -16.79792 h -15.1181 v -16.7979 h 15.1181 v -16.7979 h -15.1181 v -16.7979 h 15.1181 27.2966 27.2966 27.2966 27.2966 27.2965 l 27.2966,10e-6 h 27.2966 z"
       style="fill:none;stroke:#00ff00"
       id="path26"
       inkscape:connector-curvature="0" />
    <path
       d="m 1453.65,-253.74081 h 27.2966 27.2966 27.2966 l 27.2966,1e-5 h 27.2966 27.2966 l 15.1181,1e-5 v 16.7979 h -15.1182 v 16.79789 l 15.1182,1e-5 v 16.7979 l -15.1182,-1e-5 v 16.79792 h 15.1182 v 16.7979 h -15.1182 v 16.7979 h 15.1181 v 16.7979 h -15.1181 v 16.7979 h 15.1181 v 16.7979 h -15.1181 v 15.118099 h -27.2965 v -15.118099 h -27.2966 v 15.118099 h -27.2966 v -15.118099 h -27.2966 v 15.118099 h -13.6483 -13.6483 V -102.55968 H 1453.65 v 15.118099 h -27.2966 v -15.118099 h -27.2966 v 15.118099 h -27.2966 l 10e-5,-15.118099 h -15.1182 v -16.7979 h 15.1182 v -16.7979 h -15.1182 v -16.7979 h 15.1182 v -16.7979 h -15.1182 v -16.7979 h 15.1182 v -16.79793 h -15.1181 l -10e-5,-16.7979 h 15.1182 v -16.7979 h -15.1182 v -16.7979 h 15.1182 27.2965 27.2966 z"
       style="fill:none;stroke:#00ff00"
       id="path28"
       inkscape:connector-curvature="0" />
    <path
       d="m 898.7927,-64.764381 h 83.9895 83.9895 83.9895 83.9895 83.9895 83.9895 83.9895 83.9895 83.9895 v 16.7979 h 15.1182 v 16.7979 h -15.1182 v 16.7979 h 15.1182 v 16.7979 h -15.1182 v 16.7979 h 15.1182 v 16.7979 h -15.1182 v 16.7979 h 15.1182 v 16.7979 h -15.1182 v 16.797905 h 15.1182 v 15.118096 h -99.1077 V 86.416724 h -83.9895 v 15.118096 h -83.9895 V 86.416724 h -83.9895 v 15.118096 h -83.9895 V 86.416724 h -83.9895 v 15.118096 h -83.9895 V 86.416724 H 982.7822 V 101.53482 H 883.6746 V 86.416724 h 15.1181 V 69.618819 h -15.1181 v -16.7979 h 15.1181 v -16.7979 h -15.1181 v -16.7979 h 15.1181 v -16.7979 h -15.1181 v -16.7979 h 15.1181 v -16.7979 h -15.1181 v -16.7979 h 15.1181 z"
       style="fill:none;stroke:#00ff00"
       id="path30"
       inkscape:connector-curvature="0" />
    <path
       d="M 728.7152,691.14112 V -64.764381 h 136.063 V 691.14112 Z"
       style="fill:none;stroke:#00ff00"
       id="path32"
       inkscape:connector-curvature="0" />
    <path
       d="M 573.7546,691.14112 V -64.764381 h 136.063 V 691.14112 Z"
       style="fill:none;stroke:#00ff00"
       id="path34"
       inkscape:connector-curvature="0" />
    <path
       d="m 1584.2006,166.54152 a 6,6 0 1 0 -12,0 6,6 0 1 0 12,0 z"
       style="fill:none;stroke:#0000ff"
       id="path36"
       inkscape:connector-curvature="0" />
    <path
       d="m 1392.2006,224.14152 a 6,6 0 1 0 -12,0 6,6 0 1 0 12,0 z"
       style="fill:none;stroke:#0000ff"
       id="path38"
       inkscape:connector-curvature="0" />
    <path
       d="m 1589.0006,348.94152 a 6,6 0 1 0 -12,0 6,6 0 1 0 12,0 z"
       style="fill:none;stroke:#0000ff"
       id="path40"
       inkscape:connector-curvature="0" />
    <path
       d="m 1392.2006,329.74152 a 6,6 0 1 0 -12,0 6,6 0 1 0 12,0 z"
       style="fill:none;stroke:#0000ff"
       id="path42"
       inkscape:connector-curvature="0" />
    <path
       d="m 1654.6982,217.43912 h 15.1182 v 27.2966 h -15.1182 v 27.2966 h 15.1182 v 27.2966 h -15.1182 v 27.2965 h 15.1182 v 27.2966 h -15.1182 v 27.2966 h -83.9895 v 15.1181 h -83.9895 v -15.1181 h -83.9895 v 15.1181 h -83.9895 v -15.1181 h -83.9895 v 15.1181 h -83.9895 v -15.1181 h -83.9895 v 15.1181 h -83.9895 v -15.1181 h -83.9895 v -27.2966 h -15.1181 v -27.2966 h 15.1181 v -27.2965 h -15.1181 v -27.2966 h 15.1181 v -27.2966 h -15.1181 v -27.2966 h 15.1181 v -27.2966 h -15.1181 v -27.2966 h 15.1181 v -27.2966 h 83.9895 v -15.1181 h 83.9895 v 15.1181 h 83.9895 v -15.1181 h 83.9895 v 15.1181 h 83.9895 v -15.1181 h 83.9895 v 15.1181 h 83.9895 v -15.1181 h 83.9895 v 15.1181 h 83.9895 v 27.2966 h 15.1182 v 27.2966 h -15.1182 z"
       style="fill:none;stroke:#00ff00"
       id="path44"
       inkscape:connector-curvature="0" />
    <path
       d="m 1658.4752,581.53292 h -83.9895 -83.9895 -83.9895 -83.9896 -83.9895 -83.9895 -83.9895 -83.9895 -83.9895 v -16.7979 h -15.1181 v -16.7979 h 15.1181 v -16.7979 h -15.1181 v -16.7979 h 15.1181 v -16.7979 h -15.1181 v -16.7979 h 15.1181 v -16.7979 h -15.1181 v -16.7979 h 15.1181 v -16.7979 h -15.1181 v -15.1181 h 99.1076 v 15.1181 h 83.9895 v -15.1181 h 83.9895 v 15.1181 h 83.9895 v -15.1181 h 83.9895 v 15.1181 h 83.9896 v -15.1181 h 83.9895 v 15.1181 h 83.9895 v -15.1181 h 99.1076 v 15.1181 h -15.1181 v 16.7979 h 15.1181 v 16.7979 h -15.1181 v 16.7979 h 15.1181 v 16.7979 h -15.1181 v 16.7979 h 15.1181 v 16.7979 h -15.1181 v 16.7979 h 15.1181 v 16.7979 h -15.1181 z"
       style="fill:none;stroke:#00ff00"
       id="path46"
       inkscape:connector-curvature="0" />
    <path
       d="M 864.7782,846.10172 H 649.3451 v -136.063 h 215.4331 z"
       style="fill:none;stroke:#00ff00"
       id="path48"
       inkscape:connector-curvature="0" />
    <path
       d="m 1072.0469,684.52572 a 13.22835,13.22835 0 1 0 -26.4567,0 13.22835,13.22835 0 1 0 26.4567,0 z"
       style="fill:none;stroke:#0000ff"
       id="path50"
       inkscape:connector-curvature="0" />
    <path
       d="m 1507.9007,684.52572 a 13.22835,13.22835 0 1 0 -26.4567,0 13.22835,13.22835 0 1 0 26.4567,0 z"
       style="fill:none;stroke:#0000ff"
       id="path52"
       inkscape:connector-curvature="0" />
    <path
       d="m 1248.6792,672.24912 a 54.80315,54.80315 0 1 0 -109.6063,0 54.80315,54.80315 0 1 0 109.6063,0 z"
       style="fill:none;stroke:#0000ff"
       id="path54"
       inkscape:connector-curvature="0" />
    <path
       d="m 1414.418,672.24912 a 54.803165,54.803165 0 1 0 -109.6063,0 54.803165,54.803165 0 1 0 109.6063,0 z"
       style="fill:none;stroke:#0000ff"
       id="path56"
       inkscape:connector-curvature="0" />
    <path
       d="m 1137.3187,772.45532 a 7.974803,7.974803 0 1 0 -15.9496,0 7.974803,7.974803 0 1 0 15.9496,0 z"
       style="fill:none;stroke:#0000ff"
       id="path58"
       inkscape:connector-curvature="0" />
    <path
       d="m 1320.2101,778.06902 a 43.4646,43.4646 0 1 0 -86.9292,0 43.4646,43.4646 0 1 0 86.9292,0 z"
       style="fill:none;stroke:#0000ff"
       id="path60"
       inkscape:connector-curvature="0" />
    <path
       d="m 1620.6825,675.07692 a 30.236225,30.236225 0 1 0 -60.4724,0 30.236225,30.236225 0 1 0 60.4724,0 z"
       style="fill:none;stroke:#0000ff"
       id="path62"
       inkscape:connector-curvature="0" />
    <path
       d="m 993.2809,771.45482 a 30.23622,30.23622 0 1 0 -60.4724,0 30.23622,30.23622 0 1 0 60.4724,0 z"
       style="fill:none;stroke:#0000ff"
       id="path64"
       inkscape:connector-curvature="0" />
    <path
       d="m 1620.6825,771.45482 a 30.236225,30.236225 0 1 0 -60.4724,0 30.236225,30.236225 0 1 0 60.4724,0 z"
       style="fill:none;stroke:#0000ff"
       id="path66"
       inkscape:connector-curvature="0" />
    <path
       d="m 993.2809,675.07692 a 30.23622,30.23622 0 1 0 -60.4724,0 30.23622,30.23622 0 1 0 60.4724,0 z"
       style="fill:none;stroke:#0000ff"
       id="path68"
       inkscape:connector-curvature="0" />
    <path
       d="m 1481.4447,793.77292 v -42.6353 h -72.2646 v 42.6353 z"
       style="fill:none;stroke:#0000ff"
       id="path70"
       inkscape:connector-curvature="0" />
    <path
       d="m 1478.8368,802.70312 a 4.7244095,4.7244095 0 1 0 -9.4488,0 4.7244095,4.7244095 0 1 0 9.4488,0 z"
       style="fill:none;stroke:#0000ff"
       id="path72"
       inkscape:connector-curvature="0" />
    <path
       d="m 1421.2368,802.70312 a 4.72441,4.72441 0 1 0 -9.4488,0 4.72441,4.72441 0 1 0 9.4488,0 z"
       style="fill:none;stroke:#0000ff"
       id="path74"
       inkscape:connector-curvature="0" />
    <path
       d="m 1654.6982,600.43122 v 245.6693 H 898.7927 v -245.6693 z"
       style="fill:none;stroke:#00ff00"
       id="path76"
       inkscape:connector-curvature="0" />
  </g>
</svg>
