<?xml version="1.0" encoding="UTF-8" standalone="no"?>
<svg
   xmlns:dc="http://purl.org/dc/elements/1.1/"
   xmlns:cc="http://creativecommons.org/ns#"
   xmlns:rdf="http://www.w3.org/1999/02/22-rdf-syntax-ns#"
   xmlns:svg="http://www.w3.org/2000/svg"
   xmlns="http://www.w3.org/2000/svg"
   xmlns:sodipodi="http://sodipodi.sourceforge.net/DTD/sodipodi-0.dtd"
   xmlns:inkscape="http://www.inkscape.org/namespaces/inkscape"
   width="600mm"
   height="400mm"
   version="1.1"
   id="svg440"
   sodipodi:docname="controlBox_LaserReady_9mm_sheet1.svg"
   inkscape:version="0.92.2 5c3e80d, 2017-08-06">
  <metadata
     id="metadata444">
    <rdf:RDF>
      <cc:Work
         rdf:about="">
        <dc:format>image/svg+xml</dc:format>
        <dc:type
           rdf:resource="http://purl.org/dc/dcmitype/StillImage" />
        <dc:title></dc:title>
      </cc:Work>
    </rdf:RDF>
  </metadata>
  <sodipodi:namedview
     pagecolor="#ffffff"
     bordercolor="#666666"
     borderopacity="1"
     objecttolerance="10"
     gridtolerance="10"
     guidetolerance="10"
     inkscape:pageopacity="0"
     inkscape:pageshadow="2"
     inkscape:window-width="1391"
     inkscape:window-height="852"
     id="namedview442"
     showgrid="false"
     inkscape:document-units="mm"
     units="mm"
     inkscape:zoom="0.10512065"
     inkscape:cx="230.83488"
     inkscape:cy="63.693727"
     inkscape:window-x="67"
     inkscape:window-y="0"
     inkscape:window-maximized="0"
     inkscape:current-layer="g438" />
  <desc
     id="desc296">/Users/callumkirkwood/Desktop/controlBox_export.dxf - scale = 1.000000, origin = (0.000000, 0.000000), method = manual</desc>
  <defs
     id="defs310">
    <marker
       id="DistanceX"
       orient="auto"
       refX="0"
       refY="0"
       style="overflow:visible">
      <path
         d="M 3,-3 -3,3 M 0,-5 V 5"
         style="stroke:#000000;stroke-width:0.5"
         id="path298"
         inkscape:connector-curvature="0" />
    </marker>
    <pattern
       height="8"
       id="Hatch"
       patternUnits="userSpaceOnUse"
       width="8"
       x="0"
       y="0">
      <path
         d="M8 4 l-4,4"
         linecap="square"
         stroke="#000000"
         stroke-width="0.25"
         id="path301" />
      <path
         d="M6 2 l-4,4"
         linecap="square"
         stroke="#000000"
         stroke-width="0.25"
         id="path303" />
      <path
         d="M4 0 l-4,4"
         linecap="square"
         stroke="#000000"
         stroke-width="0.25"
         id="path305" />
    </pattern>
    <symbol
       id="*MODEL_SPACE" />
    <symbol
       id="*PAPER_SPACE" />
  </defs>
  <g
     inkscape:groupmode="layer"
     inkscape:label="0"
     id="g438"
     transform="translate(0,389.29131)">
    <path
       d="m 28.538635,-66.552401 h 34.0158 v -75.590549 h -34.0158 v -75.59056 h 34.0158 v -75.59055 h -34.0158 v -75.59055 H 2258.4599 v 75.59055 h -34.0157 v 75.59055 h 34.0157 v 75.59056 h -34.0157 v 75.590549 h 34.0157 v 41.5748 h -89.1968 V 9.0381491 h -89.1969 V -24.977601 h -89.1968 V 9.0381491 h -89.1969 V -24.977601 h -89.1968 V 9.0381491 h -89.1969 V -24.977601 H 1634.082 V 9.0381491 h -89.1969 V -24.977601 h -89.1969 V 9.0381491 h -89.1968 V -24.977601 h -89.1969 V 9.0381491 h -89.1968 V -24.977601 h -89.1969 V 9.0381491 H 1009.704 V -24.977601 H 920.50714 V 9.0381491 h -89.1968 V -24.977601 h -89.1969 V 9.0381491 h -89.1968 V -24.977601 h -89.1969 V 9.0381491 h -89.1968 V -24.977601 h -89.1969 V 9.0381491 h -89.1968 V -24.977601 h -89.1969 V 9.0381491 h -89.1968 V -24.977601 H 28.538635 Z"
       style="fill:none;stroke:#00ff00"
       id="path322"
       inkscape:connector-curvature="0" />
    <path
       d="m 254.22228,482.80388 v -230.5512 a 15.11815,15.11815 0 0 0 -30.2363,7e-4 v 230.5512 a 15.11811,15.11811 0 0 0 30.2362,-7e-4 z"
       style="fill:none;stroke:#0000ff"
       id="path324"
       inkscape:connector-curvature="0" />
    <path
       d="m 553.34488,482.79748 v -230.5511 a 15.11815,15.11815 0 0 0 -30.2363,6e-4 l 0.01,230.5512 a 15.118111,15.118111 0 0 0 30.2362,-7e-4 z"
       style="fill:none;stroke:#0000ff"
       id="path326"
       inkscape:connector-curvature="0" />
    <path
       d="m 852.46748,482.79108 v -230.5511 a 15.11811,15.11811 0 0 0 -30.2362,6e-4 v 230.5512 a 15.11811,15.11811 0 0 0 30.2362,-7e-4 z"
       style="fill:none;stroke:#0000ff"
       id="path328"
       inkscape:connector-curvature="0" />
    <path
       d="m 1450.7127,482.77838 -0.01,-230.5512 a 15.11811,15.11811 0 0 0 -30.2362,6e-4 l 0.01,230.5512 a 15.11811,15.11811 0 0 0 30.2362,-6e-4 z"
       style="fill:none;stroke:#0000ff"
       id="path330"
       inkscape:connector-curvature="0" />
    <path
       d="m 1749.8353,482.77198 -0.01,-230.5512 a 15.118111,15.118111 0 0 0 -30.2362,7e-4 v 230.5511 a 15.11811,15.11811 0 0 0 30.2362,-6e-4 z"
       style="fill:none;stroke:#0000ff"
       id="path332"
       inkscape:connector-curvature="0" />
    <path
       d="m 2048.9579,482.76558 v -230.5512 a 15.11811,15.11811 0 0 0 -30.2362,7e-4 l 0.01,230.5511 a 15.118111,15.118111 0 0 0 30.2362,-6e-4 z"
       style="fill:none;stroke:#0000ff"
       id="path334"
       inkscape:connector-curvature="0" />
    <path
       d="m 1151.5901,482.78478 v -230.5512 a 15.118111,15.118111 0 0 0 -30.2362,6e-4 v 230.5512 a 15.118111,15.118111 0 0 0 30.2362,-6e-4 z"
       style="fill:none;stroke:#0000ff"
       id="path336"
       inkscape:connector-curvature="0" />
    <path
       d="m 21.512878,480.59838 h 34.0158 v -75.5905 h -34.0158 v -75.5906 h 34.0158 v -75.5905 h -34.0158 v -41.5748 h 89.196902 v -34.0158 h 89.1968 v 34.0158 h 89.1969 v -34.0158 h 89.1968 v 34.0158 h 89.1969 v -34.0158 h 89.1968 v 34.0158 h 89.1969 v -34.0158 h 89.1968 v 34.0158 h 89.1969 v -34.0158 h 89.1968 v 34.0158 h 89.19692 v -34.0158 h 89.1968 v 34.0158 h 89.1969 v -34.0158 h 89.1968 v 34.0158 h 89.1969 v -34.0158 h 89.1968 v 34.0158 h 89.1969 v -34.0158 h 89.1968 v 34.0158 h 89.1969 v -34.0158 h 89.1968 v 34.0158 h 89.1969 v -34.0158 h 89.1968 v 34.0158 h 89.1969 v -34.0158 h 89.1968 v 34.0158 h 89.1969 v 41.5748 h -34.0157 v 75.5905 h 34.0157 v 75.5906 h -34.0157 v 75.5905 h 34.0157 v 75.5906 H 21.512878 Z"
       style="fill:none;stroke:#00ff00"
       id="path338"
       inkscape:connector-curvature="0" />
    <path
       d="M 2212.6262,668.56133 V 1001.1597 H 50.736426 V 668.56133 Z"
       style="fill:none;stroke:#00ff00"
       id="path436"
       inkscape:connector-curvature="0" />
  </g>
</svg>
