0
SECTION
2
HEADER
9
$INSUNITS
70
4
9
$ACADVER
1
AC1014
9
$HANDSEED
5
FFFF
0
ENDSEC
0
SECTION
2
TABLES
0
TABLE
2
VPORT
5
8
100
AcDbSymbolTable
0
ENDTAB
0
TABLE
2
LTYPE
5
5
100
AcDbSymbolTable
0
LTYPE
5
14
100
AcDbSymbolTableRecord
100
AcDbLinetypeTableRecord
2
BYBLOCK
70
0
0
LTYPE
5
15
100
AcDbSymbolTableRecord
100
AcDbLinetypeTableRecord
2
BYLAYER
70
0
0
ENDTAB
0
TABLE
2
LAYER
5
2
100
AcDbSymbolTable
70
2
0
LAYER
5
50
100
AcDbSymbolTableRecord
100
AcDbLayerTableRecord
2
0
70
0
6
CONTINUOUS
0
ENDTAB
0
TABLE
2
STYLE
5
3
100
AcDbSymbolTable
70
1
0
STYLE
5
11
100
AcDbSymbolTableRecord
100
AcDbTextStyleTableRecord
2
STANDARD
70
0
0
ENDTAB
0
TABLE
2
VIEW
5
6
100
AcDbSymbolTable
70
0
0
ENDTAB
0
TABLE
2
UCS
5
7
100
AcDbSymbolTable
70
0
0
ENDTAB
0
TABLE
2
APPID
5
9
100
AcDbSymbolTable
70
2
0
APPID
5
12
100
AcDbSymbolTableRecord
100
AcDbRegAppTableRecord
2
ACAD
70
0
0
ENDTAB
0
TABLE
2
DIMSTYLE
5
A
100
AcDbSymbolTable
70
1
0
ENDTAB
0
TABLE
2
BLOCK_RECORD
5
1
100
AcDbSymbolTable
70
1
0
BLOCK_RECORD
5
1F
100
AcDbSymbolTableRecord
100
AcDbBlockTableRecord
2
*MODEL_SPACE
0
BLOCK_RECORD
5
1B
100
AcDbSymbolTableRecord
100
AcDbBlockTableRecord
2
*PAPER_SPACE
0
ENDTAB
0
ENDSEC
0
SECTION
2
BLOCKS
0
BLOCK
5
20
100
AcDbEntity
100
AcDbBlockBegin
2
*MODEL_SPACE
0
ENDBLK
5
21
100
AcDbEntity
100
AcDbBlockEnd
0
BLOCK
5
1C
100
AcDbEntity
100
AcDbBlockBegin
2
*PAPER_SPACE
0
ENDBLK
5
1D
100
AcDbEntity
100
AcDbBlockEnd
0
ENDSEC
0
SECTION
2
ENTITIES
0
CIRCLE
5
100
100
AcDbEntity
8
0
100
AcDbCircle
10
-297.93900000000002
20
-179.76000000000013
30
0
40
1.587499999999995
0
CIRCLE
5
101
100
AcDbEntity
8
0
100
AcDbCircle
10
-282.69900000000001
20
-128.96000000000015
30
0
40
1.5875000000000039
0
CIRCLE
5
102
100
AcDbEntity
8
0
100
AcDbCircle
10
-249.67900000000009
20
-181.03000000000014
30
0
40
1.5874999999999995
0
CIRCLE
5
103
100
AcDbEntity
8
0
100
AcDbCircle
10
-254.75900000000007
20
-128.96000000000015
30
0
40
1.5875000000000039
0
LWPOLYLINE
5
104
100
AcDbEntity
8
0
100
AcDbPolyline
90
68
70
1
43
0.0
10
-284.47233333333332
20
-204.00000000000003
10
-284.47233333333332
20
-200.000000014497
10
-291.69455555555555
20
-200
10
-291.69455555555555
20
-204.00000000000003
10
-298.91677777777778
20
-204.00000000000003
10
-298.91677777777778
20
-200
10
-306.13900000000001
20
-200
10
-306.13900000000001
20
-177.77777777777777
10
-310.13900000000007
20
-177.77777777777771
10
-310.13900000000007
20
-155.55555555555557
10
-306.13900000000007
20
-155.5555555555556
10
-306.13900000000007
20
-133.3333333333334
10
-310.13900000000007
20
-133.33333333333337
10
-310.13900000000007
20
-111.11111111111113
10
-306.13900000000007
20
-111.11111111111114
10
-306.13900000000007
20
-88.888888888888857
10
-310.13900000000007
20
-88.888888888888872
10
-310.13900000000007
20
-66.666666666666643
10
-306.13900000000007
20
-66.666666666666629
10
-306.13900000000007
20
-44.444444444444393
10
-310.13900000000001
20
-44.444444444444429
10
-310.13900000000001
20
-22.222222222222214
10
-306.1389999999999
20
-22.222222222222214
10
-306.13900000000001
20
3.6170386417140577e-14
10
-298.91677777777778
20
3.6637359812630166e-14
10
-298.91677777777778
20
4.0000000000000222
10
-291.69455555555555
20
4.0000000000000222
10
-291.69455555555555
20
6.4324962903670106e-16
10
-284.47233333333332
20
1.4496991385115621e-08
10
-284.47233333333253
20
4.0000000000000222
10
-277.2501111111111
20
4.0000000000000222
10
-277.2501111111111
20
6.43249629135569e-16
10
-270.02788888888892
20
3.6637359812630166e-14
10
-270.02788888888892
20
4.0000000000000222
10
-262.8056666666667
20
4.0000000000000222
10
-262.8056666666667
20
6.432496291355692e-16
10
-255.58344444444444
20
1.1102230246251565e-15
10
-255.58344444444444
20
4.0000000000000222
10
-248.36122222222224
20
4.0000000000000222
10
-248.36122222222224
20
6.4324962913556851e-16
10
-241.13900000000001
20
0
10
-241.13900000000004
20
-22.222222222222214
10
-237.13900000000001
20
-22.222222222222214
10
-237.13900000000001
20
-44.444444444444443
10
-241.13900000000001
20
-44.444444444444429
10
-241.13900000000001
20
-66.666666666666643
10
-237.13900000000001
20
-66.666666666666686
10
-237.13900000000001
20
-88.888888888888886
10
-241.13900000000001
20
-88.888888888888872
10
-241.13900000000001
20
-111.11111111111113
10
-237.13900000000001
20
-111.11111111111114
10
-237.13900000000001
20
-133.33333333333331
10
-241.13900000000001
20
-133.33333333333337
10
-241.13900000000001
20
-155.55555555555557
10
-237.13900000000001
20
-155.55555555555554
10
-237.13900000000001
20
-177.77777777777777
10
-241.13900000000004
20
-177.77777777777774
10
-241.13900000000001
20
-200
10
-248.36122222222224
20
-200
10
-248.36122222222224
20
-204
10
-255.58344444444444
20
-204
10
-255.58344444444447
20
-200
10
-262.8056666666667
20
-200
10
-262.8056666666667
20
-204
10
-270.02788888888892
20
-204
10
-270.02788888888892
20
-200.00000000000011
10
-277.2501111111111
20
-200.00000000000003
10
-277.2501111111111
20
-204
0
LWPOLYLINE
5
105
100
AcDbEntity
8
0
100
AcDbPolyline
90
64
70
1
43
0.0
10
-188.13932126760477
20
-1.1495506324621374e-07
10
-188.13932126762236
20
-22.222222337178263
10
-188.13932126763632
20
-44.444444559400495
10
-188.13932126762236
20
-66.66666678162332
10
-188.13932126762236
20
-88.888889003846685
10
-188.13932126762236
20
-111.11111122606448
10
-188.13932126762236
20
-133.33333344828785
10
-188.13932126763996
20
-155.55555567051067
10
-188.13932126762236
20
-177.7777778927329
10
-188.13932126760477
20
-200.00000011495609
10
-192.5837657120492
20
-200.00000011495666
10
-192.58376571204948
20
-204.00000011495618
10
-197.02821015649391
20
-204.00000011495621
10
-197.02821015649366
20
-200.00000011495686
10
-201.47265460093806
20
-200.00000011495695
10
-201.47265460093777
20
-204.00000011495621
10
-205.9170990453826
20
-204.00000011495621
10
-205.91709904538263
20
-200.00000011495695
10
-210.36154348982706
20
-200.00000011495695
10
-210.36154348982711
20
-204.00000011495621
10
-214.80598793427188
20
-204.00000011495621
10
-214.80598793427163
20
-200.00000011495689
10
-219.25043237871606
20
-200.00000011495686
10
-219.25043237871574
20
-204.00000011495621
10
-223.69487682316017
20
-204.00000011495618
10
-223.69487682316046
20
-200.00000011495666
10
-228.13932126760483
20
-200.0000001149557
10
-228.13932126760483
20
-204.0000001149557
10
-232.13932126760483
20
-204.0000001149557
10
-232.1393212676042
20
-177.77777789273387
10
-228.13932126758854
20
-177.77777789273276
10
-228.13932126757214
20
-155.55555567051056
10
-232.13932126760477
20
-155.55555567051113
10
-232.1393212676048
20
-133.3333334482889
10
-228.13932126758854
20
-133.33333344828671
10
-228.13932126758851
20
-111.11111122606448
10
-232.13932126760511
20
-111.1111112260667
10
-232.13932126760514
20
-88.888889003844469
10
-228.13932126758854
20
-88.888889003846685
10
-228.13932126758851
20
-66.666666781624457
10
-232.13932126760477
20
-66.666666781622268
10
-232.13932126760477
20
-44.44444455940004
10
-228.13932126757214
20
-44.444444559400608
10
-228.13932126758854
20
-22.22222233717838
10
-232.13932126760395
20
-22.222222337177318
10
-232.13932126760483
20
3.9999998850445762
10
-228.13932126760483
20
3.9999998850445402
10
-228.13932126760491
20
-1.149554633000673e-07
10
-223.69487682316046
20
-1.1495449481202513e-07
10
-223.69487682316017
20
3.9999998850450114
10
-219.25043237871577
20
3.9999998850450287
10
-219.25043237871606
20
-1.1495430866812169e-07
10
-214.8059879342716
20
-1.1495425500385181e-07
10
-214.80598793427185
20
3.9999998850450469
10
-210.3615434898274
20
3.9999998850450642
10
-210.36154348982706
20
-1.1495420208671132e-07
10
-205.91709904538263
20
-1.1495420171314663e-07
10
-205.9170990453822
20
3.9999998850450558
10
-201.4726546009378
20
3.9999998850450464
10
-201.47265460093806
20
-1.149542553774165e-07
10
-197.02821015649363
20
-1.1495430829455699e-07
10
-197.02821015649391
20
3.9999998850450291
10
-192.58376571204951
20
3.9999998850450109
10
-192.5837657120492
20
-1.1495449518558982e-07
0
LWPOLYLINE
5
106
100
AcDbEntity
8
0
100
AcDbPolyline
90
64
70
1
43
0.0
10
-359.13881507110602
20
-200.9993065490728
10
-359.1388150710884
20
-178.7770843268496
10
-359.13881507107448
20
-156.55486210462738
10
-359.1388150710884
20
-134.33263988240455
10
-359.1388150710884
20
-112.1104176601812
10
-359.1388150710884
20
-89.88819543796339
10
-359.1388150710884
20
-67.665973215740053
10
-359.13881507107078
20
-45.443750993517213
10
-359.13881507108846
20
-23.221528771294977
10
-359.13881507110602
20
-0.99930654907180338
10
-354.69437062666157
20
-0.99930654907123495
10
-354.69437062666134
20
3.000693450928289
10
-350.24992618221688
20
3.0006934509283245
10
-350.24992618221717
20
-0.99930654907102179
10
-345.80548173777277
20
-0.99930654907095073
10
-345.80548173777294
20
3.0006934509283245
10
-341.3610372933282
20
3.0006934509283245
10
-341.3610372933282
20
-0.99930654907095073
10
-336.91659284888374
20
-0.99930654907095073
10
-336.91659284888368
20
3.0006934509283245
10
-332.47214840443888
20
3.0006934509283245
10
-332.47214840443917
20
-0.99930654907098626
10
-328.02770395999471
20
-0.99930654907102179
10
-328.02770395999505
20
3.0006934509283245
10
-323.58325951555059
20
3.000693450928289
10
-323.58325951555031
20
-0.99930654907123495
10
-319.13881507110597
20
-0.99930654907219418
10
-319.13881507110597
20
3.0006934509278271
10
-315.13881507110597
20
3.0006934509278249
10
-315.13881507110659
20
-23.221528771294018
10
-319.13881507112228
20
-23.221528771295119
10
-319.13881507113865
20
-45.443750993517334
10
-315.13881507110602
20
-45.443750993516765
10
-315.13881507110602
20
-67.665973215738987
10
-319.13881507112228
20
-67.665973215741161
10
-319.13881507112228
20
-89.88819543796339
10
-315.13881507110568
20
-89.888195437961187
10
-315.13881507110568
20
-112.1104176601834
10
-319.13881507112228
20
-112.1104176601812
10
-319.13881507112228
20
-134.33263988240341
10
-315.13881507110602
20
-134.3326398824056
10
-315.13881507110602
20
-156.55486210462783
10
-319.13881507113865
20
-156.55486210462726
10
-319.13881507112228
20
-178.77708432684949
10
-315.13881507110682
20
-178.77708432685054
10
-315.13881507110597
20
-204.99930654907246
10
-319.13881507110597
20
-204.99930654907243
10
-319.13881507110591
20
-200.9993065490724
10
-323.58325951555031
20
-200.9993065490734
10
-323.58325951555065
20
-204.99930654907288
10
-328.02770395999505
20
-204.99930654907288
10
-328.02770395999471
20
-200.99930654907357
10
-332.47214840443917
20
-200.99930654907359
10
-332.47214840443894
20
-204.99930654907291
10
-336.9165928488834
20
-204.99930654907291
10
-336.91659284888374
20
-200.99930654907368
10
-341.36103729332825
20
-200.99930654907368
10
-341.36103729332859
20
-204.99930654907291
10
-345.80548173777299
20
-204.99930654907291
10
-345.80548173777277
20
-200.99930654907359
10
-350.24992618221717
20
-200.99930654907357
10
-350.24992618221688
20
-204.99930654907288
10
-354.69437062666134
20
-204.99930654907288
10
-354.69437062666157
20
-200.99930654907337
0
CIRCLE
5
107
100
AcDbEntity
8
0
100
AcDbCircle
10
-386.38900000000041
20
-42.340174560958026
30
0
40
3.4999999999999982
0
CIRCLE
5
108
100
AcDbEntity
8
0
100
AcDbCircle
10
-386.38900000000041
20
-157.65982543904198
30
0
40
3.4999999999999982
0
CIRCLE
5
109
100
AcDbEntity
8
0
100
AcDbCircle
10
-383.14080380953641
20
-78.074138873503273
30
0
40
14.5
0
CIRCLE
5
110
100
AcDbEntity
8
0
100
AcDbCircle
10
-383.14080380953641
20
-121.92586112649673
30
0
40
14.5
0
CIRCLE
5
111
100
AcDbEntity
8
0
100
AcDbCircle
10
-409.6536981422272
20
-61
30
0
40
2.1100000000000039
0
CIRCLE
5
112
100
AcDbEntity
8
0
100
AcDbCircle
10
-411.13900000000046
20
-99.999999999999986
30
0
40
11.500000000000007
0
CIRCLE
5
113
100
AcDbEntity
8
0
100
AcDbCircle
10
-383.88900000000041
20
-183.00000000000006
30
0
40
8.0000000000000018
0
CIRCLE
5
114
100
AcDbEntity
8
0
100
AcDbCircle
10
-409.38900000000035
20
-16.999999999999886
30
0
40
8.0000000000000036
0
CIRCLE
5
115
100
AcDbEntity
8
0
100
AcDbCircle
10
-409.38900000000046
20
-183.00000000000006
30
0
40
8.0000000000000036
0
CIRCLE
5
116
100
AcDbEntity
8
0
100
AcDbCircle
10
-383.88900000000029
20
-17.000000000000028
30
0
40
8.0000000000000018
0
LWPOLYLINE
5
117
100
AcDbEntity
8
0
100
AcDbPolyline
90
4
70
1
43
0.0
10
-415.29398799044304
20
-154.16000000000219
10
-404.0134082940113
20
-154.16000000000219
10
-404.0134082940113
20
-135.04000000000218
10
-415.29398799044304
20
-135.04000000000218
0
CIRCLE
5
118
100
AcDbEntity
8
0
100
AcDbCircle
10
-417.65676152303797
20
-152.22000000000219
30
0
40
1.2500000000000004
0
CIRCLE
5
119
100
AcDbEntity
8
0
100
AcDbCircle
10
-417.65676152303797
20
-136.98000000000218
30
0
40
1.2500000000000004
0
LWPOLYLINE
5
120
100
AcDbEntity
8
0
100
AcDbPolyline
90
4
70
1
43
0.0
10
-364.13900000000041
20
-200.00000000000006
10
-429.13900000000041
20
-200.00000000000006
10
-429.13900000000041
20
1.0658141036401505e-13
10
-364.13900000000041
20
3.5527136788005009e-14
0
LWPOLYLINE
5
121
100
AcDbEntity
8
0
100
AcDbPolyline
90
4
70
1
43
0.0
10
-470.13900000000001
20
-199.99999999999994
10
-470.13900000000001
20
3.5527136788005016e-14
10
-434.13900000000001
20
3.5527136788005009e-14
10
-434.13900000000001
20
-199.99999999999994
0
LWPOLYLINE
5
122
100
AcDbEntity
8
0
100
AcDbPolyline
90
4
70
1
43
0.0
10
-511.13900000000001
20
-200
10
-511.13900000000001
20
3.5527136788005047e-14
10
-475.13900000000001
20
3.5527136788005009e-14
10
-475.13900000000001
20
-200
0
LWPOLYLINE
5
123
100
AcDbEntity
8
0
100
AcDbPolyline
90
67
70
1
43
0.0
10
-238.33332819561974
20
53.000005944800833
10
-231.11110597339751
20
53.000006061943417
10
-223.88888362843556
20
53.000005587041215
10
-216.66666140621342
20
53.000004520094315
10
-209.44443918398895
20
53.000003453147372
10
-202.22221696176683
20
53.00000238620045
10
-194.99999473954466
20
53.000001319253528
10
-190.99999473954472
20
53.00000072832907
10
-190.99999539612747
20
48.555556283884691
10
-194.99999539612742
20
48.555556874809213
10
-194.99999605271015
20
44.111112430364798
10
-190.99999605271017
20
44.111111839440355
10
-190.9999967092929
20
39.666667394995955
10
-194.99999670929282
20
39.666668281382577
10
-194.99999736587554
20
35.222223836938184
10
-190.99999703758419
20
35.222223246013648
10
-190.99999736587557
20
30.777778801569205
10
-194.99999769416692
20
30.777778801569188
10
-194.99999769416692
20
26.333334357124741
10
-190.99999769416689
20
26.33333465258692
10
-190.99999769416689
20
21.888890208142456
10
-194.99999769416692
20
21.88889020814246
10
-194.99999769416692
20
17.44444576369801
10
-190.99999769416689
20
17.444445763698063
10
-190.99999769416689
20
13.000001319253617
10
-194.99999769416692
20
13.000001319253634
10
-194.99999769416692
20
9.000001319253629
10
-202.22221991638915
20
9.0000013192536308
10
-202.22221991638912
20
13.000001319253634
10
-209.44444213861135
20
13.000001319253634
10
-209.44444213861567
20
9.0000013192536468
10
-216.66666436083787
20
9.0000013192536485
10
-216.66666436083591
20
13.000001319253634
10
-223.88888658305814
20
13.000001319253652
10
-223.88888658305589
20
9.0000013192536468
10
-227.49999769416704
20
9.0000011183334951
10
-231.11110880527809
20
9.0000017941558106
10
-231.11110827923039
20
13.000001391759849
10
-238.33333050145254
20
13.00000274396012
10
-238.33333102749606
20
9.0000023421198652
10
-245.5555532497182
20
9.000003693764512
10
-245.55555272367707
20
13.000003291593544
10
-252.77777494589915
20
13.000004643568822
10
-252.77777547194466
20
9.0000042417285488
10
-259.99999769416684
20
9.0000055933731957
10
-259.9999971681213
20
13.00000537087724
10
-263.99999716812124
20
13.000006119418646
10
-263.99999658362628
20
17.444450786098656
10
-259.99999658362628
20
17.4444500378175
10
-259.99999599913133
20
21.888894482261914
10
-263.99999599913127
20
21.888895218111447
10
-263.99999541463632
20
26.333339452751808
10
-259.99999541463643
20
26.333338163059473
10
-259.99999483014142
20
30.777783075688539
10
-263.99999515843274
20
30.777783820355754
10
-263.9999949022291
20
35.222228046178564
10
-259.99999457393778
20
35.222228111057554
10
-259.99999464602553
20
39.666672555502004
10
-263.99999464602553
20
39.666672195160878
10
-263.99999471811327
20
44.111116639605328
10
-259.99999471811327
20
44.111116704484289
10
-259.99999479020096
20
48.555561148928717
10
-263.99999479020101
20
48.5555610840497
10
-263.9999948622887
20
53.000005528494128
10
-259.9999948622887
20
53.000005593373096
10
-252.77777264006653
20
53.00000571051568
10
-245.5555504178443
20
53.000005827658256
0
LWPOLYLINE
5
124
100
AcDbEntity
8
0
100
AcDbPolyline
90
4
70
1
43
0.0
10
-300.03798704511877
20
24.700402223980738
10
-300.03798704511877
20
13.58040222398072
10
-287.95999569791587
20
13.58040222398072
10
-287.95999569791587
20
24.700402223980738
0
LWPOLYLINE
5
125
100
AcDbEntity
8
0
100
AcDbPolyline
90
67
70
1
43
0.0
10
-337.99999865253824
20
52.000402223980643
10
-330.77777643031607
20
52.000403290927565
10
-323.55555420809395
20
52.000404357874487
10
-316.33333198586951
20
52.000405424821409
10
-309.11110976364733
20
52.000406491768331
10
-301.88888741868544
20
52.000406966670511
10
-294.66666519646316
20
52.000406849527948
10
-287.44444297423865
20
52.000406732385315
10
-280.22222075201637
20
52.000406615242753
10
-272.9999985297942
20
52.00040649810019
10
-268.99999852979414
20
52.000406433221244
10
-268.99999860188194
20
47.555961988776815
10
-272.99999860188188
20
47.555962053655833
10
-272.99999867396969
20
43.111517609211404
10
-268.99999867396969
20
43.111517544332386
10
-268.99999874605743
20
38.667073099887951
10
-272.99999874605743
20
38.667073460229112
10
-272.99999881814517
20
34.222629015784683
10
-268.99999848985379
20
34.222628950905666
10
-268.99999823365016
20
29.778184725082802
10
-272.99999856194154
20
29.778183980415612
10
-272.99999797744653
20
25.333739067786546
10
-268.99999797744658
20
25.333740357478881
10
-268.99999739295157
20
20.889296122838537
10
-272.99999739295157
20
20.889295386988969
10
-272.99999680845656
20
16.444850942544612
10
-268.99999680845661
20
16.444851690825764
10
-268.9999962239616
20
12.000407024145737
10
-272.99999622396155
20
12.000406275604313
10
-272.99999569791612
20
8.0004064981002685
10
-280.22221792013829
20
8.0004051464556412
10
-280.22221844618377
20
12.000405548295895
10
-287.44444066840589
20
12.000404196320616
10
-287.44444014236473
20
8.0004045984915848
10
-294.66666236458684
20
8.0004032468469219
10
-294.66666289063039
20
12.000403648687211
10
-301.88888511285251
20
12.000402296486939
10
-301.88888458680486
20
8.0004026988829011
10
-305.49999569791589
20
8.0004020230605519
10
-309.11110680902704
20
8.0004022239807568
10
-309.11110680902476
20
12.000402223980743
10
-316.33332903124699
20
12.000402223980743
10
-316.33332903124506
20
8.0004022239807568
10
-323.55555125346723
20
8.0004022239807568
10
-323.55555125347155
20
12.000402223980743
10
-330.77777347569383
20
12.000402223980743
10
-330.77777347569389
20
8.0004022239807568
10
-337.99999569791612
20
8.0004022239807213
10
-337.99999569791601
20
12.000402223980707
10
-341.99999569791601
20
12.000402223980707
10
-341.99999569791606
20
16.444846668425207
10
-337.99999569791612
20
16.444846668425136
10
-337.99999569791601
20
20.889291112869564
10
-341.99999569791601
20
20.889291112869564
10
-341.99999569791606
20
25.333735557313993
10
-337.99999569791612
20
25.333735261851849
10
-337.99999569791601
20
29.778179706296278
10
-341.99999602620733
20
29.778179706296278
10
-341.99999635449876
20
34.222624150740778
10
-337.99999602620738
20
34.222624741665278
10
-337.99999668279014
20
38.667069186109636
10
-341.99999668279008
20
38.667068299723063
10
-341.99999733937284
20
43.111512744167428
10
-337.99999733937278
20
43.111513335091928
10
-337.99999799595554
20
47.555957779536286
10
-341.99999799595554
20
47.555957188611785
10
-341.99999865253824
20
52.000401633056143
0
LWPOLYLINE
5
126
100
AcDbEntity
8
0
100
AcDbPolyline
90
4
70
1
43
0.0
10
-382.96200865279729
20
42.421000000000021
10
-395.04000000000019
20
42.421000000000021
10
-395.04000000000019
20
31.301000000000002
10
-382.96200865279729
20
31.301000000000002
0
LWPOLYLINE
5
127
100
AcDbEntity
8
0
100
AcDbPolyline
90
4
70
1
43
0.0
10
-406.00000000000011
20
44.001000000000026
10
-349.00000000000006
20
44.001000000000047
10
-349
20
8.0010000000000314
10
-406
20
8.001000000000019
0
LWPOLYLINE
5
128
100
AcDbEntity
8
0
100
AcDbPolyline
90
4
70
1
43
0.0
10
-411
20
8.0009999999999994
10
-468.00000000000006
20
8.0010000000000048
10
-468.00000000000006
20
44.001000000000005
10
-411
20
44.000999999999991
0
ENDSEC
0
SECTION
2
OBJECTS
0
DICTIONARY
5
C
100
AcDbDictionary
3
ACAD_GROUP
350
D
3
ACAD_MLINESTYLE
350
17
0
DICTIONARY
5
D
100
AcDbDictionary
0
DICTIONARY
5
1A
330
C
100
AcDbDictionary
0
DICTIONARY
5
17
100
AcDbDictionary
0
ENDSEC
0
EOF
