  0
SECTION
  2
HEADER
  9
$ACADVER
  1
AC1014
  9
$HANDSEED
  5
FFFF
  9
$MEASUREMENT
 70
     1
  0
ENDSEC
  0
SECTION
  2
TABLES
  0
TABLE
  2
VPORT
  5
8
330
0
100
AcDbSymbolTable
 70
     4
  0
VPORT
  5
2E
330
8
100
AcDbSymbolTableRecord
100
AcDbViewportTableRecord
  2
*ACTIVE
 70
     0
 10
0.0
 20
0.0
 11
1.0
 21
1.0
 12
210.0
 22
148.5
 13
0.0
 23
0.0
 14
10.0
 24
10.0
 15
10.0
 25
10.0
 16
0.0
 26
0.0
 36
1.0
 17
0.0
 27
0.0
 37
0.0
 40
341.0
 41
1.24
 42
50.0
 43
0.0
 44
0.0
 50
0.0
 51
0.0
 71
     0
 72
   100
 73
     1
 74
     3
 75
     0
 76
     0
 77
     0
 78
     0
  0
ENDTAB
  0
TABLE
  2
LTYPE
  5
5
330
0
100
AcDbSymbolTable
 70
     1
  0
LTYPE
  5
14
330
5
100
AcDbSymbolTableRecord
100
AcDbLinetypeTableRecord
  2
BYBLOCK
 70
     0
  3

 72
    65
 73
     0
 40
0.0
  0
LTYPE
  5
15
330
5
100
AcDbSymbolTableRecord
100
AcDbLinetypeTableRecord
  2
BYLAYER
 70
     0
  3

 72
    65
 73
     0
 40
0.0
  0
LTYPE
  5
16
330
5
100
AcDbSymbolTableRecord
100
AcDbLinetypeTableRecord
  2
CONTINUOUS
 70
     0
  3
Solid line
 72
    65
 73
     0
 40
0.0
  0
ENDTAB
  0
TABLE
  2
LAYER
  5
2
100
AcDbSymbolTable
 70
1
  0
LAYER
  5
50
100
AcDbSymbolTableRecord
100
AcDbLayerTableRecord
  2
0
 70
0
  6
CONTINUOUS
  0
ENDTAB
  0
TABLE
  2
STYLE
  5
3
330
0
100
AcDbSymbolTable
 70
     1
  0
STYLE
  5
11
330
3
100
AcDbSymbolTableRecord
100
AcDbTextStyleTableRecord
  2
STANDARD
 70
     0
 40
0.0
 41
1.0
 50
0.0
 71
     0
 42
2.5
  3
txt
  4

  0
ENDTAB
  0
TABLE
  2
VIEW
  5
6
330
0
100
AcDbSymbolTable
 70
     0
  0
ENDTAB
  0
TABLE
  2
UCS
  5
7
330
0
100
AcDbSymbolTable
 70
     0
  0
ENDTAB
  0
TABLE
  2
APPID
  5
9
330
0
100
AcDbSymbolTable
 70
     2
  0
APPID
  5
12
330
9
100
AcDbSymbolTableRecord
100
AcDbRegAppTableRecord
  2
ACAD
 70
     0
  0
ENDTAB
  0
TABLE
  2
DIMSTYLE
  5
A
330
0
100
AcDbSymbolTable
 70
     1
  0
DIMSTYLE
105
27
330
A
100
AcDbSymbolTableRecord
100
AcDbDimStyleTableRecord
  2
ISO-25
 70
     0
  3

  4

  5

  6

  7

 40
1.0
 41
2.5
 42
0.625
 43
3.75
 44
1.25
 45
0.0
 46
0.0
 47
0.0
 48
0.0
140
2.5
141
2.5
142
0.0
143
0.03937007874016
144
1.0
145
0.0
146
1.0
147
0.625
 71
     0
 72
     0
 73
     0
 74
     0
 75
     0
 76
     0
 77
     1
 78
     8
170
     0
171
     3
172
     1
173
     0
174
     0
175
     0
176
     0
177
     0
178
     0
270
     2
271
     2
272
     2
273
     2
274
     3
340
11
275
     0
280
     0
281
     0
282
     0
283
     0
284
     8
285
     0
286
     0
287
     3
288
     0
  0
ENDTAB
  0
TABLE
  2
BLOCK_RECORD
  5
1
330
0
100
AcDbSymbolTable
 70
     1
  0
BLOCK_RECORD
  5
1F
330
1
100
AcDbSymbolTableRecord
100
AcDbBlockTableRecord
  2
*MODEL_SPACE
  0
BLOCK_RECORD
  5
1B
330
1
100
AcDbSymbolTableRecord
100
AcDbBlockTableRecord
  2
*PAPER_SPACE
  0
ENDTAB
  0
ENDSEC
  0
SECTION
  2
BLOCKS
  0
BLOCK
  5
20
330
1F
100
AcDbEntity
  8
0
100
AcDbBlockBegin
  2
*MODEL_SPACE
 70
     0
 10
0.0
 20
0.0
 30
0.0
  3
*MODEL_SPACE
  1

  0
ENDBLK
  5
21
330
1F
100
AcDbEntity
  8
0
100
AcDbBlockEnd
  0
BLOCK
  5
1C
330
1B
100
AcDbEntity
 67
     1
  8
0
100
AcDbBlockBegin
  2
*PAPER_SPACE
  1

  0
ENDBLK
  5
1D
330
1B
100
AcDbEntity
 67
     1
  8
0
100
AcDbBlockEnd
  0
ENDSEC
  0
SECTION
  2
ENTITIES
  0
SPLINE
  5
100
100
AcDbEntity
  8
0
 62
5
100
AcDbSpline
 70
8
 71
3
 72
8
 73
4
 74
0
 40
0
 40
0
 40
0
 40
0
 40
1
 40
1
 40
1
 40
1
 10
59.024044
 20
288.068533
 30
0.0
 10
59.024044
 20
288.068533
 30
0.0
 10
59.021398
 20
349.068536
 30
0.0
 10
59.021398
 20
349.068536
 30
0.0
  0
SPLINE
  5
101
100
AcDbEntity
  8
0
 62
5
100
AcDbSpline
 70
8
 71
3
 72
8
 73
4
 74
0
 40
0
 40
0
 40
0
 40
0
 40
1
 40
1
 40
1
 40
1
 10
59.021398
 20
349.068536
 30
0.0
 10
59.018685
 20
351.275790
 30
0.0
 10
57.228563
 20
353.063671
 30
0.0
 10
55.021308
 20
353.063620
 30
0.0
  0
SPLINE
  5
102
100
AcDbEntity
  8
0
 62
5
100
AcDbSpline
 70
8
 71
3
 72
8
 73
4
 74
0
 40
0
 40
0
 40
0
 40
0
 40
1
 40
1
 40
1
 40
1
 10
55.021308
 20
353.063620
 30
0.0
 10
52.814053
 20
353.063569
 30
0.0
 10
51.024014
 20
351.275605
 30
0.0
 10
51.021403
 20
349.068351
 30
0.0
  0
SPLINE
  5
103
100
AcDbEntity
  8
0
 62
5
100
AcDbSpline
 70
8
 71
3
 72
8
 73
4
 74
0
 40
0
 40
0
 40
0
 40
0
 40
1
 40
1
 40
1
 40
1
 10
51.021403
 20
349.068351
 30
0.0
 10
51.021403
 20
349.068351
 30
0.0
 10
51.021403
 20
288.068374
 30
0.0
 10
51.021403
 20
288.068374
 30
0.0
  0
SPLINE
  5
104
100
AcDbEntity
  8
0
 62
5
100
AcDbSpline
 70
8
 71
3
 72
8
 73
4
 74
0
 40
0
 40
0
 40
0
 40
0
 40
1
 40
1
 40
1
 40
1
 10
51.021403
 20
288.068374
 30
0.0
 10
51.021432
 20
286.639308
 30
0.0
 10
51.783856
 20
285.318811
 30
0.0
 10
53.021477
 20
284.604303
 30
0.0
  0
SPLINE
  5
105
100
AcDbEntity
  8
0
 62
5
100
AcDbSpline
 70
8
 71
3
 72
8
 73
4
 74
0
 40
0
 40
0
 40
0
 40
0
 40
1
 40
1
 40
1
 40
1
 10
53.021477
 20
284.604303
 30
0.0
 10
54.259099
 20
283.889794
 30
0.0
 10
55.783894
 20
283.889825
 30
0.0
 10
57.021488
 20
284.604382
 30
0.0
  0
SPLINE
  5
106
100
AcDbEntity
  8
0
 62
5
100
AcDbSpline
 70
8
 71
3
 72
8
 73
4
 74
0
 40
0
 40
0
 40
0
 40
0
 40
1
 40
1
 40
1
 40
1
 10
57.021488
 20
284.604382
 30
0.0
 10
58.259081
 20
285.318940
 30
0.0
 10
59.021453
 20
286.639466
 30
0.0
 10
59.021424
 20
288.068533
 30
0.0
  0
LWPOLYLINE
  5
107
100
AcDbEntity
  8
0
 62
3
100
AcDbPolyline
 90
124
 70
1
 10
595.291677
 20
45.791081
 30
0.0
 10
595.291677
 20
11.505357
 30
0.0
 10
571.691664
 20
11.505357
 30
0.0
 10
571.691664
 20
20.505344
 30
0.0
 10
548.091677
 20
20.505344
 30
0.0
 10
548.091677
 20
11.505357
 30
0.0
 10
524.491664
 20
11.505357
 30
0.0
 10
524.491664
 20
20.505344
 30
0.0
 10
500.891678
 20
20.505344
 30
0.0
 10
500.891678
 20
11.505357
 30
0.0
 10
477.291665
 20
11.505357
 30
0.0
 10
477.291665
 20
20.505344
 30
0.0
 10
453.691678
 20
20.505344
 30
0.0
 10
453.691678
 20
11.505357
 30
0.0
 10
430.091665
 20
11.505357
 30
0.0
 10
430.091665
 20
20.505344
 30
0.0
 10
406.491678
 20
20.505344
 30
0.0
 10
406.491678
 20
11.505357
 30
0.0
 10
382.891665
 20
11.505357
 30
0.0
 10
382.891665
 20
20.505344
 30
0.0
 10
359.291678
 20
20.505344
 30
0.0
 10
359.291678
 20
11.505357
 30
0.0
 10
335.691665
 20
11.505357
 30
0.0
 10
335.691665
 20
20.505344
 30
0.0
 10
312.091679
 20
20.505344
 30
0.0
 10
312.091679
 20
11.505357
 30
0.0
 10
288.491665
 20
11.505357
 30
0.0
 10
288.491665
 20
20.505344
 30
0.0
 10
264.891679
 20
20.505344
 30
0.0
 10
264.891679
 20
11.505357
 30
0.0
 10
241.291666
 20
11.505357
 30
0.0
 10
241.291666
 20
20.505344
 30
0.0
 10
217.691679
 20
20.505344
 30
0.0
 10
217.691679
 20
11.505357
 30
0.0
 10
194.091666
 20
11.505357
 30
0.0
 10
194.091666
 20
20.505344
 30
0.0
 10
170.491679
 20
20.505344
 30
0.0
 10
170.491679
 20
11.505357
 30
0.0
 10
146.891666
 20
11.505357
 30
0.0
 10
146.891666
 20
20.505344
 30
0.0
 10
123.291679
 20
20.505344
 30
0.0
 10
123.291679
 20
11.505357
 30
0.0
 10
99.691666
 20
11.505357
 30
0.0
 10
99.691666
 20
20.505344
 30
0.0
 10
76.091680
 20
20.505344
 30
0.0
 10
76.091680
 20
11.505357
 30
0.0
 10
52.491666
 20
11.505357
 30
0.0
 10
52.491666
 20
20.505344
 30
0.0
 10
28.891680
 20
20.505344
 30
0.0
 10
28.891680
 20
11.505357
 30
0.0
 10
5.291667
 20
11.505357
 30
0.0
 10
5.291667
 20
45.791081
 30
0.0
 10
14.291680
 20
45.791081
 30
0.0
 10
14.291680
 20
80.076795
 30
0.0
 10
5.291667
 20
80.076795
 30
0.0
 10
5.291667
 20
114.362509
 30
0.0
 10
14.291680
 20
114.362509
 30
0.0
 10
14.291680
 20
148.648223
 30
0.0
 10
5.291667
 20
148.648223
 30
0.0
 10
5.291667
 20
182.933936
 30
0.0
 10
14.291680
 20
182.933936
 30
0.0
 10
14.291680
 20
217.219650
 30
0.0
 10
5.291667
 20
217.219650
 30
0.0
 10
5.291667
 20
251.505364
 30
0.0
 10
28.891680
 20
251.505364
 30
0.0
 10
28.891680
 20
242.505350
 30
0.0
 10
52.491666
 20
242.505350
 30
0.0
 10
52.491666
 20
251.505364
 30
0.0
 10
76.091680
 20
251.505364
 30
0.0
 10
76.091680
 20
242.505350
 30
0.0
 10
99.691666
 20
242.505350
 30
0.0
 10
99.691666
 20
251.505364
 30
0.0
 10
123.291679
 20
251.505364
 30
0.0
 10
123.291679
 20
242.505350
 30
0.0
 10
146.891666
 20
242.505350
 30
0.0
 10
146.891666
 20
251.505364
 30
0.0
 10
170.491679
 20
251.505364
 30
0.0
 10
170.491679
 20
242.505350
 30
0.0
 10
194.091666
 20
242.505350
 30
0.0
 10
194.091666
 20
251.505364
 30
0.0
 10
217.691679
 20
251.505364
 30
0.0
 10
217.691679
 20
242.505350
 30
0.0
 10
241.291666
 20
242.505350
 30
0.0
 10
241.291666
 20
251.505364
 30
0.0
 10
264.891679
 20
251.505364
 30
0.0
 10
264.891679
 20
242.505350
 30
0.0
 10
288.491665
 20
242.505350
 30
0.0
 10
288.491665
 20
251.505364
 30
0.0
 10
312.091679
 20
251.505364
 30
0.0
 10
312.091679
 20
242.505350
 30
0.0
 10
335.691665
 20
242.505350
 30
0.0
 10
335.691665
 20
251.505364
 30
0.0
 10
359.291678
 20
251.505364
 30
0.0
 10
359.291678
 20
242.505350
 30
0.0
 10
382.891665
 20
242.505350
 30
0.0
 10
382.891665
 20
251.505364
 30
0.0
 10
406.491678
 20
251.505364
 30
0.0
 10
406.491678
 20
242.505350
 30
0.0
 10
430.091665
 20
242.505350
 30
0.0
 10
430.091665
 20
251.505364
 30
0.0
 10
453.691678
 20
251.505364
 30
0.0
 10
453.691678
 20
242.505350
 30
0.0
 10
477.291665
 20
242.505350
 30
0.0
 10
477.291665
 20
251.505364
 30
0.0
 10
500.891678
 20
251.505364
 30
0.0
 10
500.891678
 20
242.505350
 30
0.0
 10
524.491664
 20
242.505350
 30
0.0
 10
524.491664
 20
251.505364
 30
0.0
 10
548.091677
 20
251.505364
 30
0.0
 10
548.091677
 20
242.505350
 30
0.0
 10
571.691664
 20
242.505350
 30
0.0
 10
571.691664
 20
251.505364
 30
0.0
 10
595.291677
 20
251.505364
 30
0.0
 10
595.291677
 20
217.219650
 30
0.0
 10
586.291690
 20
217.219650
 30
0.0
 10
586.291690
 20
182.933936
 30
0.0
 10
595.291677
 20
182.933936
 30
0.0
 10
595.291677
 20
148.648223
 30
0.0
 10
586.291690
 20
148.648223
 30
0.0
 10
586.291690
 20
114.362509
 30
0.0
 10
595.291677
 20
114.362509
 30
0.0
 10
595.291677
 20
80.076795
 30
0.0
 10
586.291690
 20
80.076795
 30
0.0
 10
586.291690
 20
45.791081
 30
0.0
  0
SPLINE
  5
108
100
AcDbEntity
  8
0
 62
5
100
AcDbSpline
 70
8
 71
3
 72
8
 73
4
 74
0
 40
0
 40
0
 40
0
 40
0
 40
1
 40
1
 40
1
 40
1
 10
138.166898
 20
288.070226
 30
0.0
 10
138.166898
 20
288.070226
 30
0.0
 10
138.164253
 20
349.070230
 30
0.0
 10
138.164253
 20
349.070230
 30
0.0
  0
SPLINE
  5
109
100
AcDbEntity
  8
0
 62
5
100
AcDbSpline
 70
8
 71
3
 72
8
 73
4
 74
0
 40
0
 40
0
 40
0
 40
0
 40
1
 40
1
 40
1
 40
1
 10
138.164253
 20
349.070230
 30
0.0
 10
138.161663
 20
351.277571
 30
0.0
 10
136.371506
 20
353.065588
 30
0.0
 10
134.164163
 20
353.065537
 30
0.0
  0
SPLINE
  5
10a
100
AcDbEntity
  8
0
 62
5
100
AcDbSpline
 70
8
 71
3
 72
8
 73
4
 74
0
 40
0
 40
0
 40
0
 40
0
 40
1
 40
1
 40
1
 40
1
 10
134.164163
 20
353.065537
 30
0.0
 10
131.956820
 20
353.065486
 30
0.0
 10
130.166745
 20
351.277386
 30
0.0
 10
130.164258
 20
349.070045
 30
0.0
  0
SPLINE
  5
10b
100
AcDbEntity
  8
0
 62
5
100
AcDbSpline
 70
8
 71
3
 72
8
 73
4
 74
0
 40
0
 40
0
 40
0
 40
0
 40
1
 40
1
 40
1
 40
1
 10
130.164258
 20
349.070045
 30
0.0
 10
130.164258
 20
349.070045
 30
0.0
 10
130.164258
 20
288.070041
 30
0.0
 10
130.164258
 20
288.070041
 30
0.0
  0
SPLINE
  5
10c
100
AcDbEntity
  8
0
 62
5
100
AcDbSpline
 70
8
 71
3
 72
8
 73
4
 74
0
 40
0
 40
0
 40
0
 40
0
 40
1
 40
1
 40
1
 40
1
 10
130.164258
 20
288.070041
 30
0.0
 10
130.164291
 20
286.640975
 30
0.0
 10
130.926719
 20
285.320481
 30
0.0
 10
132.164343
 20
284.605976
 30
0.0
  0
SPLINE
  5
10d
100
AcDbEntity
  8
0
 62
5
100
AcDbSpline
 70
8
 71
3
 72
8
 73
4
 74
0
 40
0
 40
0
 40
0
 40
0
 40
1
 40
1
 40
1
 40
1
 10
132.164343
 20
284.605976
 30
0.0
 10
133.401967
 20
283.891472
 30
0.0
 10
134.926763
 20
283.891507
 30
0.0
 10
136.164354
 20
284.606069
 30
0.0
  0
SPLINE
  5
10e
100
AcDbEntity
  8
0
 62
5
100
AcDbSpline
 70
8
 71
3
 72
8
 73
4
 74
0
 40
0
 40
0
 40
0
 40
0
 40
1
 40
1
 40
1
 40
1
 10
136.164354
 20
284.606069
 30
0.0
 10
137.401945
 20
285.320631
 30
0.0
 10
138.164312
 20
286.641160
 30
0.0
 10
138.164279
 20
288.070226
 30
0.0
  0
LWPOLYLINE
  5
10f
100
AcDbEntity
  8
0
 62
5
100
AcDbPolyline
 90
2
 70
0
 10
59.021424
 20
288.068533
 30
0.0
 10
59.024044
 20
288.068533
 30
0.0
  0
SPLINE
  5
110
100
AcDbEntity
  8
0
 62
5
100
AcDbSpline
 70
8
 71
3
 72
8
 73
4
 74
0
 40
0
 40
0
 40
0
 40
0
 40
1
 40
1
 40
1
 40
1
 10
217.309753
 20
288.071919
 30
0.0
 10
217.309753
 20
288.071919
 30
0.0
 10
217.309753
 20
349.071923
 30
0.0
 10
217.309753
 20
349.071923
 30
0.0
  0
SPLINE
  5
111
100
AcDbEntity
  8
0
 62
5
100
AcDbSpline
 70
8
 71
3
 72
8
 73
4
 74
0
 40
0
 40
0
 40
0
 40
0
 40
1
 40
1
 40
1
 40
1
 10
217.309753
 20
349.071923
 30
0.0
 10
217.309702
 20
351.281068
 30
0.0
 10
215.518795
 20
353.071892
 30
0.0
 10
213.309650
 20
353.071841
 30
0.0
  0
SPLINE
  5
112
100
AcDbEntity
  8
0
 62
5
100
AcDbSpline
 70
8
 71
3
 72
8
 73
4
 74
0
 40
0
 40
0
 40
0
 40
0
 40
1
 40
1
 40
1
 40
1
 10
213.309650
 20
353.071841
 30
0.0
 10
211.100505
 20
353.071790
 30
0.0
 10
209.309681
 20
351.280883
 30
0.0
 10
209.309732
 20
349.071738
 30
0.0
  0
SPLINE
  5
113
100
AcDbEntity
  8
0
 62
5
100
AcDbSpline
 70
8
 71
3
 72
8
 73
4
 74
0
 40
0
 40
0
 40
0
 40
0
 40
1
 40
1
 40
1
 40
1
 10
209.309732
 20
349.071738
 30
0.0
 10
209.309732
 20
349.071738
 30
0.0
 10
209.309732
 20
288.071734
 30
0.0
 10
209.309732
 20
288.071734
 30
0.0
  0
SPLINE
  5
114
100
AcDbEntity
  8
0
 62
5
100
AcDbSpline
 70
8
 71
3
 72
8
 73
4
 74
0
 40
0
 40
0
 40
0
 40
0
 40
1
 40
1
 40
1
 40
1
 10
209.309732
 20
288.071734
 30
0.0
 10
209.312321
 20
285.864393
 30
0.0
 10
211.102479
 20
284.076375
 30
0.0
 10
213.309822
 20
284.076426
 30
0.0
  0
SPLINE
  5
115
100
AcDbEntity
  8
0
 62
5
100
AcDbSpline
 70
8
 71
3
 72
8
 73
4
 74
0
 40
0
 40
0
 40
0
 40
0
 40
1
 40
1
 40
1
 40
1
 10
213.309822
 20
284.076426
 30
0.0
 10
215.517165
 20
284.076478
 30
0.0
 10
217.307239
 20
285.864578
 30
0.0
 10
217.309726
 20
288.071919
 30
0.0
  0
LWPOLYLINE
  5
116
100
AcDbEntity
  8
0
 62
5
100
AcDbPolyline
 90
2
 70
0
 10
138.164279
 20
288.070226
 30
0.0
 10
138.166898
 20
288.070226
 30
0.0
  0
SPLINE
  5
117
100
AcDbEntity
  8
0
 62
5
100
AcDbSpline
 70
8
 71
3
 72
8
 73
4
 74
0
 40
0
 40
0
 40
0
 40
0
 40
1
 40
1
 40
1
 40
1
 10
375.595462
 20
288.075306
 30
0.0
 10
375.595462
 20
288.075306
 30
0.0
 10
375.595462
 20
349.075283
 30
0.0
 10
375.595462
 20
349.075283
 30
0.0
  0
SPLINE
  5
118
100
AcDbEntity
  8
0
 62
5
100
AcDbSpline
 70
8
 71
3
 72
8
 73
4
 74
0
 40
0
 40
0
 40
0
 40
0
 40
1
 40
1
 40
1
 40
1
 10
375.595462
 20
349.075283
 30
0.0
 10
375.592880
 20
351.282625
 30
0.0
 10
373.802728
 20
353.070648
 30
0.0
 10
371.595386
 20
353.070604
 30
0.0
  0
SPLINE
  5
119
100
AcDbEntity
  8
0
 62
5
100
AcDbSpline
 70
8
 71
3
 72
8
 73
4
 74
0
 40
0
 40
0
 40
0
 40
0
 40
1
 40
1
 40
1
 40
1
 10
371.595386
 20
353.070604
 30
0.0
 10
369.388043
 20
353.070560
 30
0.0
 10
367.597962
 20
351.282466
 30
0.0
 10
367.595468
 20
349.075125
 30
0.0
  0
SPLINE
  5
11a
100
AcDbEntity
  8
0
 62
5
100
AcDbSpline
 70
8
 71
3
 72
8
 73
4
 74
0
 40
0
 40
0
 40
0
 40
0
 40
1
 40
1
 40
1
 40
1
 10
367.595468
 20
349.075125
 30
0.0
 10
367.595468
 20
349.075125
 30
0.0
 10
367.595467
 20
288.075121
 30
0.0
 10
367.595468
 20
288.075121
 30
0.0
  0
SPLINE
  5
11b
100
AcDbEntity
  8
0
 62
5
100
AcDbSpline
 70
8
 71
3
 72
8
 73
4
 74
0
 40
0
 40
0
 40
0
 40
0
 40
1
 40
1
 40
1
 40
1
 10
367.595468
 20
288.075121
 30
0.0
 10
367.598057
 20
285.867779
 30
0.0
 10
369.388214
 20
284.079762
 30
0.0
 10
371.595557
 20
284.079813
 30
0.0
  0
SPLINE
  5
11c
100
AcDbEntity
  8
0
 62
5
100
AcDbSpline
 70
8
 71
3
 72
8
 73
4
 74
0
 40
0
 40
0
 40
0
 40
0
 40
1
 40
1
 40
1
 40
1
 10
371.595557
 20
284.079813
 30
0.0
 10
373.802900
 20
284.079864
 30
0.0
 10
375.592975
 20
285.867964
 30
0.0
 10
375.595462
 20
288.075306
 30
0.0
  0
LWPOLYLINE
  5
11d
100
AcDbEntity
  8
0
 62
5
100
AcDbPolyline
 90
1
 70
1
 10
217.309726
 20
288.071919
 30
0.0
  0
SPLINE
  5
11e
100
AcDbEntity
  8
0
 62
5
100
AcDbSpline
 70
8
 71
3
 72
8
 73
4
 74
0
 40
0
 40
0
 40
0
 40
0
 40
1
 40
1
 40
1
 40
1
 10
454.738317
 20
288.076973
 30
0.0
 10
454.738317
 20
288.076973
 30
0.0
 10
454.738317
 20
349.076977
 30
0.0
 10
454.738317
 20
349.076977
 30
0.0
  0
SPLINE
  5
11f
100
AcDbEntity
  8
0
 62
5
100
AcDbSpline
 70
8
 71
3
 72
8
 73
4
 74
0
 40
0
 40
0
 40
0
 40
0
 40
1
 40
1
 40
1
 40
1
 10
454.738317
 20
349.076977
 30
0.0
 10
454.735164
 20
351.283914
 30
0.0
 10
452.945180
 20
353.071308
 30
0.0
 10
450.738240
 20
353.071264
 30
0.0
  0
SPLINE
  5
120
100
AcDbEntity
  8
0
 62
5
100
AcDbSpline
 70
8
 71
3
 72
8
 73
4
 74
0
 40
0
 40
0
 40
0
 40
0
 40
1
 40
1
 40
1
 40
1
 10
450.738240
 20
353.071264
 30
0.0
 10
448.531300
 20
353.071221
 30
0.0
 10
446.741387
 20
351.283756
 30
0.0
 10
446.738322
 20
349.076818
 30
0.0
  0
SPLINE
  5
121
100
AcDbEntity
  8
0
 62
5
100
AcDbSpline
 70
8
 71
3
 72
8
 73
4
 74
0
 40
0
 40
0
 40
0
 40
0
 40
1
 40
1
 40
1
 40
1
 10
446.738322
 20
349.076818
 30
0.0
 10
446.738322
 20
349.076818
 30
0.0
 10
446.740968
 20
288.076814
 30
0.0
 10
446.740968
 20
288.076814
 30
0.0
  0
SPLINE
  5
122
100
AcDbEntity
  8
0
 62
5
100
AcDbSpline
 70
8
 71
3
 72
8
 73
4
 74
0
 40
0
 40
0
 40
0
 40
0
 40
1
 40
1
 40
1
 40
1
 10
446.740968
 20
288.076814
 30
0.0
 10
446.743550
 20
285.869473
 30
0.0
 10
448.533702
 20
284.081450
 30
0.0
 10
450.741044
 20
284.081493
 30
0.0
  0
SPLINE
  5
123
100
AcDbEntity
  8
0
 62
5
100
AcDbSpline
 70
8
 71
3
 72
8
 73
4
 74
0
 40
0
 40
0
 40
0
 40
0
 40
1
 40
1
 40
1
 40
1
 10
450.741044
 20
284.081493
 30
0.0
 10
452.948387
 20
284.081537
 30
0.0
 10
454.738468
 20
285.869631
 30
0.0
 10
454.740963
 20
288.076973
 30
0.0
  0
LWPOLYLINE
  5
124
100
AcDbEntity
  8
0
 62
5
100
AcDbPolyline
 90
1
 70
1
 10
375.595462
 20
288.075306
 30
0.0
  0
SPLINE
  5
125
100
AcDbEntity
  8
0
 62
5
100
AcDbSpline
 70
8
 71
3
 72
8
 73
4
 74
0
 40
0
 40
0
 40
0
 40
0
 40
1
 40
1
 40
1
 40
1
 10
533.881171
 20
288.078666
 30
0.0
 10
533.881171
 20
288.078666
 30
0.0
 10
533.878525
 20
349.078670
 30
0.0
 10
533.878525
 20
349.078670
 30
0.0
  0
SPLINE
  5
126
100
AcDbEntity
  8
0
 62
5
100
AcDbSpline
 70
8
 71
3
 72
8
 73
4
 74
0
 40
0
 40
0
 40
0
 40
0
 40
1
 40
1
 40
1
 40
1
 10
533.878525
 20
349.078670
 30
0.0
 10
533.875943
 20
351.286011
 30
0.0
 10
532.085792
 20
353.074034
 30
0.0
 10
529.878449
 20
353.073991
 30
0.0
  0
SPLINE
  5
127
100
AcDbEntity
  8
0
 62
5
100
AcDbSpline
 70
8
 71
3
 72
8
 73
4
 74
0
 40
0
 40
0
 40
0
 40
0
 40
1
 40
1
 40
1
 40
1
 10
529.878449
 20
353.073991
 30
0.0
 10
527.671106
 20
353.073947
 30
0.0
 10
525.881025
 20
351.285853
 30
0.0
 10
525.878531
 20
349.078511
 30
0.0
  0
SPLINE
  5
128
100
AcDbEntity
  8
0
 62
5
100
AcDbSpline
 70
8
 71
3
 72
8
 73
4
 74
0
 40
0
 40
0
 40
0
 40
0
 40
1
 40
1
 40
1
 40
1
 10
525.878531
 20
349.078511
 30
0.0
 10
525.878531
 20
349.078511
 30
0.0
 10
525.881177
 20
288.078507
 30
0.0
 10
525.881177
 20
288.078507
 30
0.0
  0
SPLINE
  5
129
100
AcDbEntity
  8
0
 62
5
100
AcDbSpline
 70
8
 71
3
 72
8
 73
4
 74
0
 40
0
 40
0
 40
0
 40
0
 40
1
 40
1
 40
1
 40
1
 10
525.881177
 20
288.078507
 30
0.0
 10
525.883883
 20
285.871254
 30
0.0
 10
527.673998
 20
284.083367
 30
0.0
 10
529.881253
 20
284.083411
 30
0.0
  0
SPLINE
  5
12a
100
AcDbEntity
  8
0
 62
5
100
AcDbSpline
 70
8
 71
3
 72
8
 73
4
 74
0
 40
0
 40
0
 40
0
 40
0
 40
1
 40
1
 40
1
 40
1
 10
529.881253
 20
284.083411
 30
0.0
 10
532.088508
 20
284.083455
 30
0.0
 10
533.878553
 20
285.871412
 30
0.0
 10
533.881171
 20
288.078666
 30
0.0
  0
LWPOLYLINE
  5
12b
100
AcDbEntity
  8
0
 62
5
100
AcDbPolyline
 90
2
 70
0
 10
454.740963
 20
288.076973
 30
0.0
 10
454.738317
 20
288.076973
 30
0.0
  0
SPLINE
  5
12c
100
AcDbEntity
  8
0
 62
5
100
AcDbSpline
 70
8
 71
3
 72
8
 73
4
 74
0
 40
0
 40
0
 40
0
 40
0
 40
1
 40
1
 40
1
 40
1
 10
296.452607
 20
288.073613
 30
0.0
 10
296.452607
 20
288.073613
 30
0.0
 10
296.452607
 20
349.073590
 30
0.0
 10
296.452607
 20
349.073590
 30
0.0
  0
SPLINE
  5
12d
100
AcDbEntity
  8
0
 62
5
100
AcDbSpline
 70
8
 71
3
 72
8
 73
4
 74
0
 40
0
 40
0
 40
0
 40
0
 40
1
 40
1
 40
1
 40
1
 10
296.452607
 20
349.073590
 30
0.0
 10
296.452564
 20
351.282735
 30
0.0
 10
294.661662
 20
353.073565
 30
0.0
 10
292.452518
 20
353.073521
 30
0.0
  0
SPLINE
  5
12e
100
AcDbEntity
  8
0
 62
5
100
AcDbSpline
 70
8
 71
3
 72
8
 73
4
 74
0
 40
0
 40
0
 40
0
 40
0
 40
1
 40
1
 40
1
 40
1
 10
292.452518
 20
353.073521
 30
0.0
 10
290.243373
 20
353.073477
 30
0.0
 10
288.452543
 20
351.282576
 30
0.0
 10
288.452586
 20
349.073431
 30
0.0
  0
SPLINE
  5
12f
100
AcDbEntity
  8
0
 62
5
100
AcDbSpline
 70
8
 71
3
 72
8
 73
4
 74
0
 40
0
 40
0
 40
0
 40
0
 40
1
 40
1
 40
1
 40
1
 10
288.452586
 20
349.073431
 30
0.0
 10
288.452586
 20
349.073431
 30
0.0
 10
288.455232
 20
288.073427
 30
0.0
 10
288.455232
 20
288.073427
 30
0.0
  0
SPLINE
  5
130
100
AcDbEntity
  8
0
 62
5
100
AcDbSpline
 70
8
 71
3
 72
8
 73
4
 74
0
 40
0
 40
0
 40
0
 40
0
 40
1
 40
1
 40
1
 40
1
 10
288.455232
 20
288.073427
 30
0.0
 10
288.457946
 20
285.866174
 30
0.0
 10
290.248067
 20
284.078293
 30
0.0
 10
292.455322
 20
284.078344
 30
0.0
  0
SPLINE
  5
131
100
AcDbEntity
  8
0
 62
5
100
AcDbSpline
 70
8
 71
3
 72
8
 73
4
 74
0
 40
0
 40
0
 40
0
 40
0
 40
1
 40
1
 40
1
 40
1
 10
292.455322
 20
284.078344
 30
0.0
 10
294.662577
 20
284.078395
 30
0.0
 10
296.452616
 20
285.866359
 30
0.0
 10
296.455227
 20
288.073613
 30
0.0
  0
LWPOLYLINE
  5
132
100
AcDbEntity
  8
0
 62
5
100
AcDbPolyline
 90
1
 70
1
 10
533.881171
 20
288.078666
 30
0.0
  0
LWPOLYLINE
  5
133
100
AcDbEntity
  8
0
 62
5
100
AcDbPolyline
 90
2
 70
0
 10
296.455227
 20
288.073613
 30
0.0
 10
296.452607
 20
288.073613
 30
0.0
  0
LWPOLYLINE
  5
134
100
AcDbEntity
  8
0
 62
3
100
AcDbPolyline
 90
4
 70
1
 10
578.453012
 20
271.652063
 30
0.0
 10
6.453029
 20
271.652063
 30
0.0
 10
6.453029
 20
359.652055
 30
0.0
 10
578.453012
 20
359.652055
 30
0.0
  0
ENDSEC
  0
SECTION
  2
OBJECTS
  0
DICTIONARY
  5
C
330
0
100
AcDbDictionary
  3
ACAD_GROUP
350
D
  3
ACAD_MLINESTYLE
350
17
  0
DICTIONARY
  5
D
330
C
100
AcDbDictionary
  0
DICTIONARY
  5
1A
330
C
100
AcDbDictionary
  0
DICTIONARY
  5
17
330
C
100
AcDbDictionary
  3
STANDARD
350
18
  0
DICTIONARY
  5
19
330
C
100
AcDbDictionary
  0
ENDSEC
  0
EOF
