0
SECTION
2
HEADER
9
$INSUNITS
70
4
9
$ACADVER
1
AC1014
9
$HANDSEED
5
FFFF
0
ENDSEC
0
SECTION
2
TABLES
0
TABLE
2
VPORT
5
8
100
AcDbSymbolTable
0
ENDTAB
0
TABLE
2
LTYPE
5
5
100
AcDbSymbolTable
0
LTYPE
5
14
100
AcDbSymbolTableRecord
100
AcDbLinetypeTableRecord
2
BYBLOCK
70
0
0
LTYPE
5
15
100
AcDbSymbolTableRecord
100
AcDbLinetypeTableRecord
2
BYLAYER
70
0
0
ENDTAB
0
TABLE
2
LAYER
5
2
100
AcDbSymbolTable
70
2
0
LAYER
5
50
100
AcDbSymbolTableRecord
100
AcDbLayerTableRecord
2
0
70
0
6
CONTINUOUS
0
ENDTAB
0
TABLE
2
STYLE
5
3
100
AcDbSymbolTable
70
1
0
STYLE
5
11
100
AcDbSymbolTableRecord
100
AcDbTextStyleTableRecord
2
STANDARD
70
0
0
ENDTAB
0
TABLE
2
VIEW
5
6
100
AcDbSymbolTable
70
0
0
ENDTAB
0
TABLE
2
UCS
5
7
100
AcDbSymbolTable
70
0
0
ENDTAB
0
TABLE
2
APPID
5
9
100
AcDbSymbolTable
70
2
0
APPID
5
12
100
AcDbSymbolTableRecord
100
AcDbRegAppTableRecord
2
ACAD
70
0
0
ENDTAB
0
TABLE
2
DIMSTYLE
5
A
100
AcDbSymbolTable
70
1
0
ENDTAB
0
TABLE
2
BLOCK_RECORD
5
1
100
AcDbSymbolTable
70
1
0
BLOCK_RECORD
5
1F
100
AcDbSymbolTableRecord
100
AcDbBlockTableRecord
2
*MODEL_SPACE
0
BLOCK_RECORD
5
1B
100
AcDbSymbolTableRecord
100
AcDbBlockTableRecord
2
*PAPER_SPACE
0
ENDTAB
0
ENDSEC
0
SECTION
2
BLOCKS
0
BLOCK
5
20
100
AcDbEntity
100
AcDbBlockBegin
2
*MODEL_SPACE
0
ENDBLK
5
21
100
AcDbEntity
100
AcDbBlockEnd
0
BLOCK
5
1C
100
AcDbEntity
100
AcDbBlockBegin
2
*PAPER_SPACE
0
ENDBLK
5
1D
100
AcDbEntity
100
AcDbBlockEnd
0
ENDSEC
0
SECTION
2
ENTITIES
0
LWPOLYLINE
5
100
100
AcDbEntity
8
0
100
AcDbPolyline
90
124
70
1
43
0.0
10
0
20
794.28571428571433
10
0
20
760
10
-23.599999999999998
20
760
10
-23.599999999999998
20
769
10
-47.199999999999903
20
769
10
-47.199999999999903
20
760
10
-70.799999999999997
20
760
10
-70.799999999999997
20
769
10
-94.399999999999906
20
769
10
-94.399999999999906
20
760
10
-117.99999999999999
20
760
10
-117.99999999999999
20
769
10
-141.59999999999991
20
769
10
-141.59999999999991
20
760
10
-165.19999999999999
20
760
10
-165.19999999999999
20
769
10
-188.7999999999999
20
769
10
-188.7999999999999
20
760
10
-212.39999999999998
20
760
10
-212.39999999999998
20
769
10
-235.99999999999989
20
769
10
-235.99999999999989
20
760
10
-259.59999999999997
20
760
10
-259.59999999999997
20
769
10
-283.19999999999987
20
769
10
-283.19999999999987
20
760
10
-306.80000000000001
20
760
10
-306.80000000000001
20
769
10
-330.39999999999992
20
769
10
-330.39999999999992
20
760
10
-354
20
760
10
-354
20
769
10
-377.59999999999991
20
769
10
-377.59999999999991
20
760
10
-401.19999999999999
20
760
10
-401.19999999999999
20
769
10
-424.7999999999999
20
769
10
-424.7999999999999
20
760
10
-448.39999999999998
20
760
10
-448.39999999999998
20
769
10
-471.99999999999989
20
769
10
-471.99999999999989
20
760
10
-495.59999999999997
20
760
10
-495.59999999999997
20
769
10
-519.19999999999982
20
769
10
-519.19999999999982
20
760
10
-542.79999999999995
20
760
10
-542.79999999999995
20
769
10
-566.39999999999986
20
769
10
-566.39999999999986
20
760
10
-590
20
760
10
-590
20
794.28571428571433
10
-581
20
794.28571428571433
10
-581
20
828.57142857142867
10
-590
20
828.57142857142867
10
-590
20
862.85714285714278
10
-581
20
862.85714285714278
10
-581
20
897.14285714285711
10
-590
20
897.14285714285711
10
-590
20
931.42857142857133
10
-581
20
931.42857142857133
10
-581
20
965.71428571428567
10
-590
20
965.71428571428567
10
-590
20
1000
10
-566.39999999999986
20
1000
10
-566.39999999999986
20
991
10
-542.79999999999995
20
991
10
-542.79999999999995
20
1000
10
-519.19999999999982
20
1000
10
-519.19999999999982
20
991
10
-495.59999999999997
20
991
10
-495.59999999999997
20
1000
10
-471.99999999999989
20
1000
10
-471.99999999999989
20
991
10
-448.39999999999998
20
991
10
-448.39999999999998
20
1000
10
-424.7999999999999
20
1000
10
-424.7999999999999
20
991
10
-401.19999999999999
20
991
10
-401.19999999999999
20
1000
10
-377.59999999999991
20
1000
10
-377.59999999999991
20
991
10
-354
20
991
10
-354
20
1000
10
-330.39999999999992
20
1000
10
-330.39999999999992
20
991
10
-306.80000000000001
20
991
10
-306.80000000000001
20
1000
10
-283.19999999999987
20
1000
10
-283.19999999999987
20
991
10
-259.59999999999997
20
991
10
-259.59999999999997
20
1000
10
-235.99999999999989
20
1000
10
-235.99999999999989
20
991
10
-212.39999999999998
20
991
10
-212.39999999999998
20
1000
10
-188.7999999999999
20
1000
10
-188.7999999999999
20
991
10
-165.19999999999999
20
991
10
-165.19999999999999
20
1000
10
-141.59999999999991
20
1000
10
-141.59999999999991
20
991
10
-117.99999999999999
20
991
10
-117.99999999999999
20
1000
10
-94.399999999999906
20
1000
10
-94.399999999999906
20
991
10
-70.799999999999997
20
991
10
-70.799999999999997
20
1000
10
-47.199999999999903
20
1000
10
-47.199999999999903
20
991
10
-23.599999999999998
20
991
10
-23.599999999999998
20
1000
10
0
20
1000
10
0
20
965.71428571428567
10
-9
20
965.71428571428567
10
-9
20
931.42857142857133
10
0
20
931.42857142857133
10
0
20
897.14285714285711
10
-9
20
897.14285714285711
10
-9
20
862.85714285714278
10
0
20
862.85714285714278
10
0
20
828.57142857142867
10
-9
20
828.57142857142867
10
-9
20
794.28571428571433
0
LWPOLYLINE
5
101
100
AcDbEntity
8
0
100
AcDbPolyline
90
32
70
1
43
0.0
10
-9.0000000000000018
20
144
10
-19.999999999999989
20
144
10
-19.999999999999993
20
135
10
-40
20
135
10
-40
20
144
10
-59.999999999999993
20
144
10
-59.999999999999993
20
135
10
-80
20
135
10
-80
20
144
10
-100
20
144
10
-100
20
366
10
-80
20
366
10
-80
20
375
10
-60
20
375
10
-59.999999999999993
20
366
10
-40
20
366
10
-40
20
375
10
-19.999999999999993
20
375
10
-19.999999999999993
20
366
10
-8.9999999999999982
20
366
10
-8.9999999999999982
20
340.71428571428567
10
1.9984014443252624e-15
20
340.71428571428567
10
2.2204460492503131e-15
20
306.42857142857144
10
-8.9999999999999982
20
306.42857142857144
10
-8.9999999999999982
20
272.14285714285711
10
1.9984014443252624e-15
20
272.14285714285711
10
2.2204460492503131e-15
20
237.85714285714283
10
-8.9999999999999982
20
237.85714285714283
10
-8.9999999999999982
20
203.57142857142856
10
1.9984014443252624e-15
20
203.57142857142856
10
2.2204460492503131e-15
20
169.28571428571428
10
-8.9999999999999982
20
169.28571428571428
0
LWPOLYLINE
5
102
100
AcDbEntity
8
0
100
AcDbPolyline
90
4
70
1
43
0.0
10
-143
20
152.99999999999997
10
-231
20
152.99999999999997
10
-231
20
357
10
-143
20
357
0
LWPOLYLINE
5
103
100
AcDbEntity
8
0
100
AcDbPolyline
90
4
70
1
43
0.0
10
-421.99999999999994
20
152.99999999999997
10
-421.99999999999994
20
357
10
-334
20
357
10
-334
20
152.99999999999997
0
LWPOLYLINE
5
104
100
AcDbEntity
8
0
100
AcDbPolyline
90
32
70
1
43
0.0
10
-581
20
144
10
-581
20
169.28571428571428
10
-590
20
169.28571428571428
10
-590
20
203.57142857142856
10
-581
20
203.57142857142856
10
-581
20
237.85714285714283
10
-590
20
237.85714285714283
10
-590
20
272.14285714285711
10
-581
20
272.14285714285711
10
-581
20
306.42857142857144
10
-590
20
306.42857142857144
10
-590
20
340.71428571428567
10
-581
20
340.71428571428567
10
-581
20
366
10
-570
20
366
10
-570
20
375
10
-550
20
375
10
-550
20
366
10
-530
20
366
10
-530
20
375
10
-510
20
375
10
-510
20
366
10
-490
20
366
10
-490
20
144
10
-510
20
144
10
-510
20
135
10
-530
20
135
10
-530
20
144
10
-550
20
144
10
-550
20
135
10
-570
20
135
10
-570
20
144
0
LWPOLYLINE
5
105
100
AcDbEntity
8
0
100
AcDbPolyline
90
68
70
1
43
0.0
10
-590
20
464
10
-581
20
464
10
-581
20
484
10
-590
20
484
10
-590
20
504
10
-581
20
504
10
-581
20
524
10
-590
20
524
10
-590
20
544
10
0
20
544
10
0
20
524
10
-9
20
524
10
-9
20
504
10
0
20
504
10
0
20
484
10
-9
20
484
10
-9
20
464
10
0
20
464
10
0
20
453
10
-23.599999999999998
20
453
10
-23.599999999999998
20
444
10
-47.199999999999996
20
444
10
-47.199999999999903
20
453
10
-70.799999999999997
20
453
10
-70.799999999999997
20
444
10
-94.399999999999991
20
444
10
-94.399999999999906
20
453
10
-117.99999999999999
20
453
10
-117.99999999999999
20
444
10
-141.59999999999999
20
444
10
-141.59999999999991
20
453
10
-165.19999999999999
20
453
10
-165.19999999999999
20
444
10
-188.79999999999998
20
444
10
-188.7999999999999
20
453
10
-212.39999999999998
20
453
10
-212.39999999999998
20
444
10
-235.99999999999997
20
444
10
-235.99999999999989
20
453
10
-259.59999999999997
20
453
10
-259.59999999999997
20
444
10
-283.19999999999999
20
444
10
-283.19999999999987
20
453
10
-306.80000000000001
20
453
10
-306.80000000000001
20
444
10
-330.39999999999998
20
444
10
-330.39999999999992
20
453
10
-354
20
453
10
-354
20
444
10
-377.59999999999997
20
444
10
-377.59999999999991
20
453
10
-401.19999999999999
20
453
10
-401.19999999999999
20
444
10
-424.79999999999995
20
444
10
-424.7999999999999
20
453
10
-448.39999999999998
20
453
10
-448.39999999999998
20
444
10
-471.99999999999994
20
444
10
-471.99999999999989
20
453
10
-495.59999999999997
20
453
10
-495.59999999999997
20
444
10
-519.19999999999993
20
444
10
-519.19999999999982
20
453
10
-542.79999999999995
20
453
10
-542.79999999999995
20
444
10
-566.39999999999998
20
444
10
-566.39999999999986
20
453
10
-590
20
453
0
LWPOLYLINE
5
106
100
AcDbEntity
8
0
100
AcDbPolyline
90
4
70
1
43
0.0
10
-528.42898610530756
20
610.41646741029194
10
-528.43028871360366
20
671.41646739638361
42
0.99999999999999989
10
-536.43028871177967
20
671.41629656250871
10
-536.42898610348345
20
610.41629657641704
42
0.99999999999999989
0
LWPOLYLINE
5
107
100
AcDbEntity
8
0
100
AcDbPolyline
90
4
70
1
43
0.0
10
-449.28612898049505
20
610.41815744541145
10
-449.28743158879115
20
671.41815743150323
42
0.99999999999999989
10
-457.28743158696716
20
671.41798659762821
10
-457.286128978671
20
610.41798661153655
42
0.99999999999999989
0
LWPOLYLINE
5
108
100
AcDbEntity
8
0
100
AcDbPolyline
90
4
70
1
43
0.0
10
-370.14327185568266
20
610.41984748053108
10
-370.1445744639787
20
671.41984746662274
42
0.99999999999999989
10
-378.14457446215471
20
671.41967663274784
10
-378.14327185385855
20
610.41967664665617
42
0.99999999999999989
0
LWPOLYLINE
5
109
100
AcDbEntity
8
0
100
AcDbPolyline
90
4
70
1
43
0.0
10
-211.85755760605784
20
610.42322755077021
10
-211.85886021435383
20
671.42322753686187
42
0.99999999999999989
10
-219.85886021252983
20
671.42305670298697
10
-219.8575576042337
20
610.4230567168953
42
0.99999999999999989
0
LWPOLYLINE
5
110
100
AcDbEntity
8
0
100
AcDbPolyline
90
4
70
1
43
0.0
10
-132.71470048124539
20
610.42491758588983
10
-132.7160030895414
20
671.42491757198161
42
0.99999999999999989
10
-140.71600308771741
20
671.42474673810671
10
-140.71470047942125
20
610.42474675201493
42
0.99999999999999989
0
LWPOLYLINE
5
111
100
AcDbEntity
8
0
100
AcDbPolyline
90
4
70
1
43
0.0
10
-53.571843356432964
20
610.42660762100934
10
-53.573145964729001
20
671.42660760710112
42
0.99999999999999989
10
-61.573145962905009
20
671.42643677322621
10
-61.571843354608831
20
610.42643678713443
42
0.99999999999999989
0
LWPOLYLINE
5
112
100
AcDbEntity
8
0
100
AcDbPolyline
90
4
70
1
43
0.0
10
-291.00041473087026
20
610.4215375156507
10
-291.00171733916631
20
671.42153750174225
42
0.99999999999999989
10
-299.00171733734231
20
671.42136666786746
10
-299.0004147290461
20
610.42136668177579
42
0.99999999999999989
0
LWPOLYLINE
5
113
100
AcDbEntity
8
0
100
AcDbPolyline
90
68
70
1
43
0.0
10
-590
20
611
10
-581
20
611
10
-581
20
631
10
-590
20
631
10
-590
20
651
10
-581
20
651
10
-581
20
671
10
-590
20
671
10
-590
20
682
10
-566.39999999999986
20
682
10
-566.39999999999986
20
691
10
-542.79999999999984
20
691
10
-542.79999999999984
20
682
10
-519.19999999999982
20
682
10
-519.19999999999982
20
691
10
-495.59999999999991
20
691
10
-495.59999999999991
20
682
10
-471.99999999999989
20
682
10
-471.99999999999989
20
691
10
-448.39999999999986
20
691
10
-448.39999999999986
20
682
10
-424.7999999999999
20
682
10
-424.7999999999999
20
691
10
-401.19999999999993
20
691
10
-401.19999999999993
20
682
10
-377.59999999999991
20
682
10
-377.59999999999991
20
691
10
-353.99999999999989
20
691
10
-353.99999999999989
20
682
10
-330.39999999999992
20
682
10
-330.39999999999992
20
691
10
-306.79999999999995
20
691
10
-306.79999999999995
20
682
10
-283.19999999999982
20
682
10
-283.19999999999993
20
691
10
-259.59999999999991
20
691
10
-259.59999999999991
20
682
10
-235.99999999999983
20
682
10
-235.99999999999994
20
691
10
-212.39999999999995
20
691
10
-212.39999999999995
20
682
10
-188.79999999999984
20
682
10
-188.79999999999995
20
691
10
-165.19999999999996
20
691
10
-165.19999999999996
20
682
10
-141.59999999999985
20
682
10
-141.59999999999997
20
691
10
-117.99999999999996
20
691
10
-117.99999999999996
20
682
10
-94.399999999999864
20
682
10
-94.399999999999963
20
691
10
-70.799999999999969
20
691
10
-70.799999999999969
20
682
10
-47.199999999999861
20
682
10
-47.19999999999996
20
691
10
-23.599999999999962
20
691
10
-23.599999999999962
20
682
10
3.5527136788005009e-14
20
682
10
3.5527136788005009e-14
20
671
10
-8.9999999999999645
20
671
10
-8.9999999999999645
20
651
10
3.5527136788005009e-14
20
651
10
3.5527136788005009e-14
20
631
10
-8.9999999999999645
20
631
10
-8.9999999999999645
20
611
10
3.5527136788005009e-14
20
611
10
0
20
591
10
-590
20
591
0
CIRCLE
5
114
100
AcDbEntity
8
0
100
AcDbCircle
10
-356.87500000000006
20
1172.5000000000002
30
0
40
3.5000000000000142
0
CIRCLE
5
115
100
AcDbEntity
8
0
100
AcDbCircle
10
-411.87500000000006
20
1087.5000000000002
30
0
40
3.5000000000000142
0
CIRCLE
5
116
100
AcDbEntity
8
0
100
AcDbCircle
10
-384.37500000000006
20
1087.5000000000002
30
0
40
3.5000000000000142
0
CIRCLE
5
117
100
AcDbEntity
8
0
100
AcDbCircle
10
-356.87500000000006
20
1130.0000000000002
30
0
40
3.5000000000000142
0
CIRCLE
5
118
100
AcDbEntity
8
0
100
AcDbCircle
10
-384.37500000000006
20
1172.5000000000002
30
0
40
3.5000000000000142
0
CIRCLE
5
119
100
AcDbEntity
8
0
100
AcDbCircle
10
-411.87500000000006
20
1130.0000000000002
30
0
40
3.5000000000000142
0
CIRCLE
5
120
100
AcDbEntity
8
0
100
AcDbCircle
10
-356.87500000000006
20
1087.5000000000002
30
0
40
3.5000000000000142
0
CIRCLE
5
121
100
AcDbEntity
8
0
100
AcDbCircle
10
-384.37500000000006
20
1130.0000000000002
30
0
40
3.5000000000000142
0
CIRCLE
5
122
100
AcDbEntity
8
0
100
AcDbCircle
10
-411.87500000000006
20
1172.5000000000002
30
0
40
3.5000000000000142
0
CIRCLE
5
123
100
AcDbEntity
8
0
100
AcDbCircle
10
-294.99999999999972
20
1155.7059999999999
30
0
40
8.0000000000000071
0
LWPOLYLINE
5
124
100
AcDbEntity
8
0
100
AcDbPolyline
90
4
70
1
43
0.0
10
-304.63038449999982
20
1135.7059999999999
10
-304.63038449999982
20
1124.2940000000001
10
-285.36961549999984
20
1124.2940000000001
10
-285.36961549999984
20
1135.7059999999999
0
CIRCLE
5
125
100
AcDbEntity
8
0
100
AcDbCircle
10
-287.37999999999994
20
1137.6199999999994
30
0
40
1.25
0
CIRCLE
5
126
100
AcDbEntity
8
0
100
AcDbCircle
10
-302.61999999999995
20
1137.6199999999994
30
0
40
1.25
0
LWPOLYLINE
5
127
100
AcDbEntity
8
0
100
AcDbPolyline
90
8
70
1
43
0.0
10
-201.63002328403968
20
1127.5000000000002
10
-105.63002328403968
20
1127.5000000000002
42
0.41421356237309509
10
-103.63002328403967
20
1129.5000000000002
10
-103.63002328403968
20
1130.5
42
0.41421356237309509
10
-105.63002328403968
20
1132.5000000000002
10
-201.63002328403974
20
1132.5000000000002
42
0.41421356237309509
10
-203.63002328403968
20
1130.5
10
-203.63002328403968
20
1129.5000000000002
42
0.41421356237309509
0
LWPOLYLINE
5
128
100
AcDbEntity
8
0
100
AcDbPolyline
90
8
70
1
43
0.0
10
-243.63002328404116
20
1081.247908071887
10
-242.6300232840411
20
1081.247908071887
42
0.41421356237311585
10
-240.63002328404107
20
1083.2479080718872
10
-240.63002328404224
20
1179.2479080718872
42
0.41421356237309509
10
-242.63002328404224
20
1181.247908071887
10
-243.63002328404116
20
1181.2479080718872
42
0.41421356237311585
10
-245.6300232840411
20
1179.247908071887
10
-245.63002328404113
20
1083.247908071887
42
0.41421356237309509
0
CIRCLE
5
129
100
AcDbEntity
8
0
100
AcDbCircle
10
-35.999999999999929
20
1129.9999999999998
30
0
40
7.9999999999999716
0
CIRCLE
5
130
100
AcDbEntity
8
0
100
AcDbCircle
10
-61.499999999999879
20
1130
30
0
40
7.9999999999999716
0
CIRCLE
5
131
100
AcDbEntity
8
0
100
AcDbCircle
10
-528.50000000000011
20
1130
30
0
40
7.9999999999999716
0
CIRCLE
5
132
100
AcDbEntity
8
0
100
AcDbCircle
10
-554
20
1130
30
0
40
7.9999999999999716
0
CIRCLE
5
133
100
AcDbEntity
8
0
100
AcDbCircle
10
-294.99999999999994
20
1048.5
30
0
40
11.500000000000021
0
CIRCLE
5
134
100
AcDbEntity
8
0
100
AcDbCircle
10
-116.25000000000011
20
1185.4999999999998
30
0
40
15
0
CIRCLE
5
135
100
AcDbEntity
8
0
100
AcDbCircle
10
-473.75
20
1185.5
30
0
40
15
0
LWPOLYLINE
5
136
100
AcDbEntity
8
0
100
AcDbPolyline
90
4
70
1
43
0.0
10
-581
20
1241
10
-9.00000000000027
20
1241.0000000000009
10
-8.9999999999999858
20
1019.0000000000002
10
-581
20
1019
0
LINE
5
137
100
AcDbEntity
8
0
100
AcDbLine
10
-439.5
20
1023.517079099675
30
0
11
-436.50000000000006
21
1023.517079099675
31
0
0
LINE
5
138
100
AcDbEntity
8
0
100
AcDbLine
10
-438.00000000000006
20
1025.0170790996751
30
0
11
-438.00000000000006
21
1022.0170790996751
31
0
0
LINE
5
139
100
AcDbEntity
8
0
100
AcDbLine
10
-574.99999999999761
20
1130.000000000007
30
0
11
-577.9999999999975
21
1130.000000000007
31
0
0
LINE
5
140
100
AcDbEntity
8
0
100
AcDbLine
10
-576.4999999999975
20
1131.500000000007
30
0
11
-576.49999999999761
21
1128.500000000007
31
0
0
LINE
5
141
100
AcDbEntity
8
0
100
AcDbLine
10
-438.00000000000006
20
1241
30
0
11
-438.00000000000006
21
1232
31
0
0
LINE
5
142
100
AcDbEntity
8
0
100
AcDbLine
10
-439.5
20
1236.5
30
0
11
-436.50000000000006
21
1236.5
31
0
0
LINE
5
143
100
AcDbEntity
8
0
100
AcDbLine
10
-438.00000000000006
20
1238
30
0
11
-438.00000000000006
21
1235
31
0
0
LINE
5
144
100
AcDbEntity
8
0
100
AcDbLine
10
-295.00000000000006
20
1238
30
0
11
-295.00000000000006
21
1235
31
0
0
LINE
5
145
100
AcDbEntity
8
0
100
AcDbLine
10
-293.50000000000568
20
1236.5
30
0
11
-296.50000000000568
21
1236.5
31
0
0
LINE
5
146
100
AcDbEntity
8
0
100
AcDbLine
10
-13.499999999999993
20
1131.5000000000005
30
0
11
-13.499999999999993
21
1128.5000000000005
31
0
0
LINE
5
147
100
AcDbEntity
8
0
100
AcDbLine
10
-14.999999999999991
20
1130.0000000000005
30
0
11
-11.999999999999989
21
1130.0000000000005
31
0
0
LINE
5
148
100
AcDbEntity
8
0
100
AcDbLine
10
-153.50000000000006
20
1023.5129615349269
30
0
11
-150.50000000000006
21
1023.5129615349269
31
0
0
LINE
5
149
100
AcDbEntity
8
0
100
AcDbLine
10
-152.00000000000006
20
1025.0129615349269
30
0
11
-152.00000000000006
21
1022.0129615349269
31
0
0
CIRCLE
5
150
100
AcDbEntity
8
0
100
AcDbCircle
10
-294.99999999999994
20
1048.5
30
0
40
11.500000000000021
0
LINE
5
151
100
AcDbEntity
8
0
100
AcDbLine
10
-296.50000000000006
20
1023.5000000000001
30
0
11
-293.50000000000006
21
1023.5000000000001
31
0
0
LINE
5
152
100
AcDbEntity
8
0
100
AcDbLine
10
-295
20
1028
30
0
11
-295.00000000000011
21
1019.0000000000002
31
0
0
LINE
5
153
100
AcDbEntity
8
0
100
AcDbLine
10
-295
20
1028.0000000000002
30
0
11
-295.00000000000011
21
1019.0000000000005
31
0
0
LWPOLYLINE
5
154
100
AcDbEntity
8
0
100
AcDbPolyline
90
4
70
1
43
0.0
10
-528.42898610530756
20
1270.4164674102917
10
-528.43028871360366
20
1331.4164673963837
42
0.99999999999999989
10
-536.43028871177967
20
1331.4162965625087
10
-536.42898610348345
20
1270.4162965764169
42
0.99999999999999989
0
LWPOLYLINE
5
155
100
AcDbEntity
8
0
100
AcDbPolyline
90
4
70
1
43
0.0
10
-449.28612898049516
20
1270.4181574454115
10
-449.28743158879115
20
1331.4181574315032
42
0.99999999999999989
10
-457.28743158696716
20
1331.4179865976282
10
-457.286128978671
20
1270.4179866115364
42
0.99999999999999989
0
LWPOLYLINE
5
156
100
AcDbEntity
8
0
100
AcDbPolyline
90
4
70
1
43
0.0
10
-370.14327185568271
20
1270.4198474805312
10
-370.14457446397876
20
1331.4198474666227
42
0.99999999999999989
10
-378.14457446215476
20
1331.4196766327477
10
-378.14327185385855
20
1270.4196766466562
42
0.99999999999999989
0
LWPOLYLINE
5
157
100
AcDbEntity
8
0
100
AcDbPolyline
90
4
70
1
43
0.0
10
-211.85755760605787
20
1270.4232275507702
10
-211.85886021435385
20
1331.4232275368618
42
0.99999999999999989
10
-219.85886021252986
20
1331.423056702987
10
-219.85755760423373
20
1270.4230567168954
42
0.99999999999999989
0
LWPOLYLINE
5
158
100
AcDbEntity
8
0
100
AcDbPolyline
90
4
70
1
43
0.0
10
-132.71470048124542
20
1270.4249175858897
10
-132.71600308954146
20
1331.4249175719815
42
0.99999999999999989
10
-140.71600308771747
20
1331.4247467381065
10
-140.71470047942128
20
1270.4247467520149
42
0.99999999999999989
0
LWPOLYLINE
5
159
100
AcDbEntity
8
0
100
AcDbPolyline
90
4
70
1
43
0.0
10
-53.571843356433
20
1270.4266076210095
10
-53.573145964729036
20
1331.426607607101
42
0.99999999999999989
10
-61.573145962905045
20
1331.4264367732262
10
-61.571843354608866
20
1270.4264367871344
42
0.99999999999999989
0
LWPOLYLINE
5
160
100
AcDbEntity
8
0
100
AcDbPolyline
90
4
70
1
43
0.0
10
-291.00041473087026
20
1270.4215375156507
10
-291.00171733916631
20
1331.4215375017423
42
0.99999999999999989
10
-299.00171733734231
20
1331.4213666678675
10
-299.00041472904616
20
1270.4213666817757
42
0.99999999999999989
0
LWPOLYLINE
5
161
100
AcDbEntity
8
0
100
AcDbPolyline
90
4
70
1
43
0.0
10
-8.9999999999999858
20
1254
10
-581
20
1254
10
-581
20
1342
10
-9
20
1342
0
LWPOLYLINE
5
162
100
AcDbEntity
8
0
100
AcDbPolyline
90
4
70
1
43
0.0
10
-9
20
1469.0000000000005
10
-8.9999999999999858
20
1381.0000000000005
10
-581
20
1381.0000000000005
10
-581
20
1469.0000000000005
0
ENDSEC
0
SECTION
2
OBJECTS
0
DICTIONARY
5
C
100
AcDbDictionary
3
ACAD_GROUP
350
D
3
ACAD_MLINESTYLE
350
17
0
DICTIONARY
5
D
100
AcDbDictionary
0
DICTIONARY
5
1A
330
C
100
AcDbDictionary
0
DICTIONARY
5
17
100
AcDbDictionary
0
ENDSEC
0
EOF
