  0
SECTION
  2
HEADER
  9
$ACADVER
  1
AC1014
  9
$HANDSEED
  5
FFFF
  9
$MEASUREMENT
 70
     1
  0
ENDSEC
  0
SECTION
  2
TABLES
  0
TABLE
  2
VPORT
  5
8
330
0
100
AcDbSymbolTable
 70
     4
  0
VPORT
  5
2E
330
8
100
AcDbSymbolTableRecord
100
AcDbViewportTableRecord
  2
*ACTIVE
 70
     0
 10
0.0
 20
0.0
 11
1.0
 21
1.0
 12
210.0
 22
148.5
 13
0.0
 23
0.0
 14
10.0
 24
10.0
 15
10.0
 25
10.0
 16
0.0
 26
0.0
 36
1.0
 17
0.0
 27
0.0
 37
0.0
 40
341.0
 41
1.24
 42
50.0
 43
0.0
 44
0.0
 50
0.0
 51
0.0
 71
     0
 72
   100
 73
     1
 74
     3
 75
     0
 76
     0
 77
     0
 78
     0
  0
ENDTAB
  0
TABLE
  2
LTYPE
  5
5
330
0
100
AcDbSymbolTable
 70
     1
  0
LTYPE
  5
14
330
5
100
AcDbSymbolTableRecord
100
AcDbLinetypeTableRecord
  2
BYBLOCK
 70
     0
  3

 72
    65
 73
     0
 40
0.0
  0
LTYPE
  5
15
330
5
100
AcDbSymbolTableRecord
100
AcDbLinetypeTableRecord
  2
BYLAYER
 70
     0
  3

 72
    65
 73
     0
 40
0.0
  0
LTYPE
  5
16
330
5
100
AcDbSymbolTableRecord
100
AcDbLinetypeTableRecord
  2
CONTINUOUS
 70
     0
  3
Solid line
 72
    65
 73
     0
 40
0.0
  0
ENDTAB
  0
TABLE
  2
LAYER
  5
2
100
AcDbSymbolTable
 70
1
  0
LAYER
  5
50
100
AcDbSymbolTableRecord
100
AcDbLayerTableRecord
  2
0
 70
0
  6
CONTINUOUS
  0
ENDTAB
  0
TABLE
  2
STYLE
  5
3
330
0
100
AcDbSymbolTable
 70
     1
  0
STYLE
  5
11
330
3
100
AcDbSymbolTableRecord
100
AcDbTextStyleTableRecord
  2
STANDARD
 70
     0
 40
0.0
 41
1.0
 50
0.0
 71
     0
 42
2.5
  3
txt
  4

  0
ENDTAB
  0
TABLE
  2
VIEW
  5
6
330
0
100
AcDbSymbolTable
 70
     0
  0
ENDTAB
  0
TABLE
  2
UCS
  5
7
330
0
100
AcDbSymbolTable
 70
     0
  0
ENDTAB
  0
TABLE
  2
APPID
  5
9
330
0
100
AcDbSymbolTable
 70
     2
  0
APPID
  5
12
330
9
100
AcDbSymbolTableRecord
100
AcDbRegAppTableRecord
  2
ACAD
 70
     0
  0
ENDTAB
  0
TABLE
  2
DIMSTYLE
  5
A
330
0
100
AcDbSymbolTable
 70
     1
  0
DIMSTYLE
105
27
330
A
100
AcDbSymbolTableRecord
100
AcDbDimStyleTableRecord
  2
ISO-25
 70
     0
  3

  4

  5

  6

  7

 40
1.0
 41
2.5
 42
0.625
 43
3.75
 44
1.25
 45
0.0
 46
0.0
 47
0.0
 48
0.0
140
2.5
141
2.5
142
0.0
143
0.03937007874016
144
1.0
145
0.0
146
1.0
147
0.625
 71
     0
 72
     0
 73
     0
 74
     0
 75
     0
 76
     0
 77
     1
 78
     8
170
     0
171
     3
172
     1
173
     0
174
     0
175
     0
176
     0
177
     0
178
     0
270
     2
271
     2
272
     2
273
     2
274
     3
340
11
275
     0
280
     0
281
     0
282
     0
283
     0
284
     8
285
     0
286
     0
287
     3
288
     0
  0
ENDTAB
  0
TABLE
  2
BLOCK_RECORD
  5
1
330
0
100
AcDbSymbolTable
 70
     1
  0
BLOCK_RECORD
  5
1F
330
1
100
AcDbSymbolTableRecord
100
AcDbBlockTableRecord
  2
*MODEL_SPACE
  0
BLOCK_RECORD
  5
1B
330
1
100
AcDbSymbolTableRecord
100
AcDbBlockTableRecord
  2
*PAPER_SPACE
  0
ENDTAB
  0
ENDSEC
  0
SECTION
  2
BLOCKS
  0
BLOCK
  5
20
330
1F
100
AcDbEntity
  8
0
100
AcDbBlockBegin
  2
*MODEL_SPACE
 70
     0
 10
0.0
 20
0.0
 30
0.0
  3
*MODEL_SPACE
  1

  0
ENDBLK
  5
21
330
1F
100
AcDbEntity
  8
0
100
AcDbBlockEnd
  0
BLOCK
  5
1C
330
1B
100
AcDbEntity
 67
     1
  8
0
100
AcDbBlockBegin
  2
*PAPER_SPACE
  1

  0
ENDBLK
  5
1D
330
1B
100
AcDbEntity
 67
     1
  8
0
100
AcDbBlockEnd
  0
ENDSEC
  0
SECTION
  2
ENTITIES
  0
SPLINE
  5
100
100
AcDbEntity
  8
0
 62
5
100
AcDbSpline
 70
8
 71
3
 72
8
 73
4
 74
0
 40
0
 40
0
 40
0
 40
0
 40
1
 40
1
 40
1
 40
1
 10
67.262978
 20
169.258148
 30
0.0
 10
67.262978
 20
169.258148
 30
0.0
 10
67.262978
 20
230.258153
 30
0.0
 10
67.262978
 20
230.258153
 30
0.0
  0
SPLINE
  5
101
100
AcDbEntity
  8
0
 62
5
100
AcDbSpline
 70
8
 71
3
 72
8
 73
4
 74
0
 40
0
 40
0
 40
0
 40
0
 40
1
 40
1
 40
1
 40
1
 10
67.262978
 20
230.258153
 30
0.0
 10
67.262927
 20
232.467297
 30
0.0
 10
65.472020
 20
234.258122
 30
0.0
 10
63.262875
 20
234.258071
 30
0.0
  0
SPLINE
  5
102
100
AcDbEntity
  8
0
 62
5
100
AcDbSpline
 70
8
 71
3
 72
8
 73
4
 74
0
 40
0
 40
0
 40
0
 40
0
 40
1
 40
1
 40
1
 40
1
 10
63.262875
 20
234.258071
 30
0.0
 10
61.053730
 20
234.258019
 30
0.0
 10
59.262906
 20
232.467112
 30
0.0
 10
59.262957
 20
230.257967
 30
0.0
  0
LWPOLYLINE
  5
103
100
AcDbEntity
  8
0
 62
3
100
AcDbPolyline
 90
68
 70
1
 10
7.550847
 20
314.608664
 30
0.0
 10
16.550861
 20
314.608664
 30
0.0
 10
16.550861
 20
334.608663
 30
0.0
 10
7.550847
 20
334.608663
 30
0.0
 10
7.550847
 20
354.608665
 30
0.0
 10
16.550861
 20
354.608665
 30
0.0
 10
16.550861
 20
374.608665
 30
0.0
 10
7.550847
 20
374.608665
 30
0.0
 10
7.550847
 20
394.608665
 30
0.0
 10
597.550849
 20
394.608665
 30
0.0
 10
597.550849
 20
374.608665
 30
0.0
 10
588.550861
 20
374.608665
 30
0.0
 10
588.550861
 20
354.608665
 30
0.0
 10
597.550849
 20
354.608665
 30
0.0
 10
597.550849
 20
334.608663
 30
0.0
 10
588.550861
 20
334.608663
 30
0.0
 10
588.550861
 20
314.608664
 30
0.0
 10
597.550849
 20
314.608664
 30
0.0
 10
597.550849
 20
303.608665
 30
0.0
 10
573.950862
 20
303.608665
 30
0.0
 10
573.950862
 20
294.608664
 30
0.0
 10
550.350849
 20
294.608664
 30
0.0
 10
550.350849
 20
303.608665
 30
0.0
 10
526.750862
 20
303.608665
 30
0.0
 10
526.750862
 20
294.608664
 30
0.0
 10
503.150849
 20
294.608664
 30
0.0
 10
503.150849
 20
303.608665
 30
0.0
 10
479.550862
 20
303.608665
 30
0.0
 10
479.550862
 20
294.608664
 30
0.0
 10
455.950849
 20
294.608664
 30
0.0
 10
455.950849
 20
303.608665
 30
0.0
 10
432.350863
 20
303.608665
 30
0.0
 10
432.350863
 20
294.608664
 30
0.0
 10
408.750849
 20
294.608664
 30
0.0
 10
408.750849
 20
303.608665
 30
0.0
 10
385.150836
 20
303.608665
 30
0.0
 10
385.150836
 20
294.608664
 30
0.0
 10
361.550850
 20
294.608664
 30
0.0
 10
361.550850
 20
303.608665
 30
0.0
 10
337.950836
 20
303.608665
 30
0.0
 10
337.950836
 20
294.608664
 30
0.0
 10
314.350850
 20
294.608664
 30
0.0
 10
314.350850
 20
303.608665
 30
0.0
 10
290.750837
 20
303.608665
 30
0.0
 10
290.750837
 20
294.608664
 30
0.0
 10
267.150850
 20
294.608664
 30
0.0
 10
267.150850
 20
303.608665
 30
0.0
 10
243.550847
 20
303.608665
 30
0.0
 10
243.550847
 20
294.608664
 30
0.0
 10
219.950861
 20
294.608664
 30
0.0
 10
219.950861
 20
303.608665
 30
0.0
 10
196.350848
 20
303.608665
 30
0.0
 10
196.350848
 20
294.608664
 30
0.0
 10
172.750861
 20
294.608664
 30
0.0
 10
172.750861
 20
303.608665
 30
0.0
 10
149.150848
 20
303.608665
 30
0.0
 10
149.150848
 20
294.608664
 30
0.0
 10
125.550861
 20
294.608664
 30
0.0
 10
125.550861
 20
303.608665
 30
0.0
 10
101.950848
 20
303.608665
 30
0.0
 10
101.950848
 20
294.608664
 30
0.0
 10
78.350861
 20
294.608664
 30
0.0
 10
78.350861
 20
303.608665
 30
0.0
 10
54.750848
 20
303.608665
 30
0.0
 10
54.750848
 20
294.608664
 30
0.0
 10
31.150862
 20
294.608664
 30
0.0
 10
31.150862
 20
303.608665
 30
0.0
 10
7.550847
 20
303.608665
 30
0.0
  0
SPLINE
  5
104
100
AcDbEntity
  8
0
 62
5
100
AcDbSpline
 70
8
 71
3
 72
8
 73
4
 74
0
 40
0
 40
0
 40
0
 40
0
 40
1
 40
1
 40
1
 40
1
 10
59.262957
 20
169.257962
 30
0.0
 10
59.265547
 20
167.050621
 30
0.0
 10
61.055704
 20
165.262604
 30
0.0
 10
63.263047
 20
165.262655
 30
0.0
  0
SPLINE
  5
105
100
AcDbEntity
  8
0
 62
5
100
AcDbSpline
 70
8
 71
3
 72
8
 73
4
 74
0
 40
0
 40
0
 40
0
 40
0
 40
1
 40
1
 40
1
 40
1
 10
63.263047
 20
165.262655
 30
0.0
 10
65.470390
 20
165.262706
 30
0.0
 10
67.260465
 20
167.050806
 30
0.0
 10
67.262952
 20
169.258148
 30
0.0
  0
LWPOLYLINE
  5
106
100
AcDbEntity
  8
0
 62
5
100
AcDbPolyline
 90
2
 70
0
 10
59.262957
 20
230.257967
 30
0.0
 10
59.262957
 20
169.257962
 30
0.0
  0
SPLINE
  5
107
100
AcDbEntity
  8
0
 62
5
100
AcDbSpline
 70
8
 71
3
 72
8
 73
4
 74
0
 40
0
 40
0
 40
0
 40
0
 40
1
 40
1
 40
1
 40
1
 10
146.405833
 20
169.259841
 30
0.0
 10
146.405833
 20
169.259841
 30
0.0
 10
146.405833
 20
230.259820
 30
0.0
 10
146.405833
 20
230.259820
 30
0.0
  0
SPLINE
  5
108
100
AcDbEntity
  8
0
 62
5
100
AcDbSpline
 70
8
 71
3
 72
8
 73
4
 74
0
 40
0
 40
0
 40
0
 40
0
 40
1
 40
1
 40
1
 40
1
 10
146.405833
 20
230.259820
 30
0.0
 10
146.405789
 20
232.468964
 30
0.0
 10
144.614888
 20
234.259795
 30
0.0
 10
142.405743
 20
234.259751
 30
0.0
  0
SPLINE
  5
109
100
AcDbEntity
  8
0
 62
5
100
AcDbSpline
 70
8
 71
3
 72
8
 73
4
 74
0
 40
0
 40
0
 40
0
 40
0
 40
1
 40
1
 40
1
 40
1
 10
142.405743
 20
234.259751
 30
0.0
 10
140.196598
 20
234.259707
 30
0.0
 10
138.405768
 20
232.468806
 30
0.0
 10
138.405812
 20
230.259661
 30
0.0
  0
LWPOLYLINE
  5
10a
100
AcDbEntity
  8
0
 62
5
100
AcDbPolyline
 90
1
 70
1
 10
67.262952
 20
169.258148
 30
0.0
  0
SPLINE
  5
10b
100
AcDbEntity
  8
0
 62
5
100
AcDbSpline
 70
8
 71
3
 72
8
 73
4
 74
0
 40
0
 40
0
 40
0
 40
0
 40
1
 40
1
 40
1
 40
1
 10
138.408458
 20
169.259656
 30
0.0
 10
138.411171
 20
167.052402
 30
0.0
 10
140.201292
 20
165.264521
 30
0.0
 10
142.408547
 20
165.264573
 30
0.0
  0
SPLINE
  5
10c
100
AcDbEntity
  8
0
 62
5
100
AcDbSpline
 70
8
 71
3
 72
8
 73
4
 74
0
 40
0
 40
0
 40
0
 40
0
 40
1
 40
1
 40
1
 40
1
 10
142.408547
 20
165.264573
 30
0.0
 10
144.615803
 20
165.264624
 30
0.0
 10
146.405841
 20
167.052587
 30
0.0
 10
146.408452
 20
169.259841
 30
0.0
  0
LWPOLYLINE
  5
10d
100
AcDbEntity
  8
0
 62
5
100
AcDbPolyline
 90
2
 70
0
 10
138.405812
 20
230.259661
 30
0.0
 10
138.408458
 20
169.259656
 30
0.0
  0
SPLINE
  5
10e
100
AcDbEntity
  8
0
 62
5
100
AcDbSpline
 70
8
 71
3
 72
8
 73
4
 74
0
 40
0
 40
0
 40
0
 40
0
 40
1
 40
1
 40
1
 40
1
 10
225.548687
 20
169.261534
 30
0.0
 10
225.548687
 20
169.261534
 30
0.0
 10
225.548687
 20
230.261513
 30
0.0
 10
225.548687
 20
230.261513
 30
0.0
  0
SPLINE
  5
10f
100
AcDbEntity
  8
0
 62
5
100
AcDbSpline
 70
8
 71
3
 72
8
 73
4
 74
0
 40
0
 40
0
 40
0
 40
0
 40
1
 40
1
 40
1
 40
1
 10
225.548687
 20
230.261513
 30
0.0
 10
225.546105
 20
232.468854
 30
0.0
 10
223.755954
 20
234.256877
 30
0.0
 10
221.548611
 20
234.256833
 30
0.0
  0
SPLINE
  5
110
100
AcDbEntity
  8
0
 62
5
100
AcDbSpline
 70
8
 71
3
 72
8
 73
4
 74
0
 40
0
 40
0
 40
0
 40
0
 40
1
 40
1
 40
1
 40
1
 10
221.548611
 20
234.256833
 30
0.0
 10
219.341268
 20
234.256790
 30
0.0
 10
217.551187
 20
232.468695
 30
0.0
 10
217.548693
 20
230.261354
 30
0.0
  0
SPLINE
  5
111
100
AcDbEntity
  8
0
 62
5
100
AcDbSpline
 70
8
 71
3
 72
8
 73
4
 74
0
 40
0
 40
0
 40
0
 40
0
 40
1
 40
1
 40
1
 40
1
 10
217.548693
 20
230.261354
 30
0.0
 10
217.548693
 20
230.261354
 30
0.0
 10
217.548693
 20
169.261349
 30
0.0
 10
217.548693
 20
169.261349
 30
0.0
  0
SPLINE
  5
112
100
AcDbEntity
  8
0
 62
5
100
AcDbSpline
 70
8
 71
3
 72
8
 73
4
 74
0
 40
0
 40
0
 40
0
 40
0
 40
1
 40
1
 40
1
 40
1
 10
217.548693
 20
169.261349
 30
0.0
 10
217.551282
 20
167.054008
 30
0.0
 10
219.341440
 20
165.265990
 30
0.0
 10
221.548783
 20
165.266042
 30
0.0
  0
SPLINE
  5
113
100
AcDbEntity
  8
0
 62
5
100
AcDbSpline
 70
8
 71
3
 72
8
 73
4
 74
0
 40
0
 40
0
 40
0
 40
0
 40
1
 40
1
 40
1
 40
1
 10
221.548783
 20
165.266042
 30
0.0
 10
223.756125
 20
165.266093
 30
0.0
 10
225.546200
 20
167.054193
 30
0.0
 10
225.548687
 20
169.261534
 30
0.0
  0
LWPOLYLINE
  5
114
100
AcDbEntity
  8
0
 62
5
100
AcDbPolyline
 90
2
 70
0
 10
146.408452
 20
169.259841
 30
0.0
 10
146.405833
 20
169.259841
 30
0.0
  0
SPLINE
  5
115
100
AcDbEntity
  8
0
 62
5
100
AcDbSpline
 70
8
 71
3
 72
8
 73
4
 74
0
 40
0
 40
0
 40
0
 40
0
 40
1
 40
1
 40
1
 40
1
 10
383.834402
 20
169.264895
 30
0.0
 10
383.834402
 20
169.264895
 30
0.0
 10
383.831756
 20
230.264900
 30
0.0
 10
383.831756
 20
230.264900
 30
0.0
  0
SPLINE
  5
116
100
AcDbEntity
  8
0
 62
5
100
AcDbSpline
 70
8
 71
3
 72
8
 73
4
 74
0
 40
0
 40
0
 40
0
 40
0
 40
1
 40
1
 40
1
 40
1
 10
383.831756
 20
230.264900
 30
0.0
 10
383.829174
 20
232.472241
 30
0.0
 10
382.039022
 20
234.260264
 30
0.0
 10
379.831679
 20
234.260220
 30
0.0
  0
SPLINE
  5
117
100
AcDbEntity
  8
0
 62
5
100
AcDbSpline
 70
8
 71
3
 72
8
 73
4
 74
0
 40
0
 40
0
 40
0
 40
0
 40
1
 40
1
 40
1
 40
1
 10
379.831679
 20
234.260220
 30
0.0
 10
377.624337
 20
234.260176
 30
0.0
 10
375.834256
 20
232.472082
 30
0.0
 10
375.831761
 20
230.264741
 30
0.0
  0
SPLINE
  5
118
100
AcDbEntity
  8
0
 62
5
100
AcDbSpline
 70
8
 71
3
 72
8
 73
4
 74
0
 40
0
 40
0
 40
0
 40
0
 40
1
 40
1
 40
1
 40
1
 10
375.831761
 20
230.264741
 30
0.0
 10
375.831761
 20
230.264741
 30
0.0
 10
375.834407
 20
169.264736
 30
0.0
 10
375.834407
 20
169.264736
 30
0.0
  0
SPLINE
  5
119
100
AcDbEntity
  8
0
 62
5
100
AcDbSpline
 70
8
 71
3
 72
8
 73
4
 74
0
 40
0
 40
0
 40
0
 40
0
 40
1
 40
1
 40
1
 40
1
 10
375.834407
 20
169.264736
 30
0.0
 10
375.836990
 20
167.057395
 30
0.0
 10
377.627141
 20
165.269371
 30
0.0
 10
379.834484
 20
165.269415
 30
0.0
  0
SPLINE
  5
11a
100
AcDbEntity
  8
0
 62
5
100
AcDbSpline
 70
8
 71
3
 72
8
 73
4
 74
0
 40
0
 40
0
 40
0
 40
0
 40
1
 40
1
 40
1
 40
1
 10
379.834484
 20
165.269415
 30
0.0
 10
382.041827
 20
165.269459
 30
0.0
 10
383.831907
 20
167.057553
 30
0.0
 10
383.834402
 20
169.264895
 30
0.0
  0
LWPOLYLINE
  5
11b
100
AcDbEntity
  8
0
 62
5
100
AcDbPolyline
 90
1
 70
1
 10
225.548687
 20
169.261534
 30
0.0
  0
SPLINE
  5
11c
100
AcDbEntity
  8
0
 62
5
100
AcDbSpline
 70
8
 71
3
 72
8
 73
4
 74
0
 40
0
 40
0
 40
0
 40
0
 40
1
 40
1
 40
1
 40
1
 10
462.977256
 20
169.266588
 30
0.0
 10
462.977256
 20
169.266588
 30
0.0
 10
462.974611
 20
230.266593
 30
0.0
 10
462.974611
 20
230.266593
 30
0.0
  0
SPLINE
  5
11d
100
AcDbEntity
  8
0
 62
5
100
AcDbSpline
 70
8
 71
3
 72
8
 73
4
 74
0
 40
0
 40
0
 40
0
 40
0
 40
1
 40
1
 40
1
 40
1
 10
462.974611
 20
230.266593
 30
0.0
 10
462.971897
 20
232.473846
 30
0.0
 10
461.181776
 20
234.261727
 30
0.0
 10
458.974521
 20
234.261676
 30
0.0
  0
SPLINE
  5
11e
100
AcDbEntity
  8
0
 62
5
100
AcDbSpline
 70
8
 71
3
 72
8
 73
4
 74
0
 40
0
 40
0
 40
0
 40
0
 40
1
 40
1
 40
1
 40
1
 10
458.974521
 20
234.261676
 30
0.0
 10
456.767266
 20
234.261625
 30
0.0
 10
454.977227
 20
232.473661
 30
0.0
 10
454.974616
 20
230.266408
 30
0.0
  0
SPLINE
  5
11f
100
AcDbEntity
  8
0
 62
5
100
AcDbSpline
 70
8
 71
3
 72
8
 73
4
 74
0
 40
0
 40
0
 40
0
 40
0
 40
1
 40
1
 40
1
 40
1
 10
454.974616
 20
230.266408
 30
0.0
 10
454.974616
 20
230.266408
 30
0.0
 10
454.974616
 20
169.266429
 30
0.0
 10
454.974616
 20
169.266429
 30
0.0
  0
SPLINE
  5
120
100
AcDbEntity
  8
0
 62
5
100
AcDbSpline
 70
8
 71
3
 72
8
 73
4
 74
0
 40
0
 40
0
 40
0
 40
0
 40
1
 40
1
 40
1
 40
1
 10
454.974616
 20
169.266429
 30
0.0
 10
454.977198
 20
167.059088
 30
0.0
 10
456.767350
 20
165.271065
 30
0.0
 10
458.974693
 20
165.271109
 30
0.0
  0
SPLINE
  5
121
100
AcDbEntity
  8
0
 62
5
100
AcDbSpline
 70
8
 71
3
 72
8
 73
4
 74
0
 40
0
 40
0
 40
0
 40
0
 40
1
 40
1
 40
1
 40
1
 10
458.974693
 20
165.271109
 30
0.0
 10
461.182035
 20
165.271152
 30
0.0
 10
462.972116
 20
167.059247
 30
0.0
 10
462.974611
 20
169.266588
 30
0.0
  0
LWPOLYLINE
  5
122
100
AcDbEntity
  8
0
 62
5
100
AcDbPolyline
 90
1
 70
1
 10
383.834402
 20
169.264895
 30
0.0
  0
SPLINE
  5
123
100
AcDbEntity
  8
0
 62
5
100
AcDbSpline
 70
8
 71
3
 72
8
 73
4
 74
0
 40
0
 40
0
 40
0
 40
0
 40
1
 40
1
 40
1
 40
1
 10
542.120111
 20
169.268281
 30
0.0
 10
542.120111
 20
169.268281
 30
0.0
 10
542.120111
 20
230.268286
 30
0.0
 10
542.120111
 20
230.268286
 30
0.0
  0
SPLINE
  5
124
100
AcDbEntity
  8
0
 62
5
100
AcDbSpline
 70
8
 71
3
 72
8
 73
4
 74
0
 40
0
 40
0
 40
0
 40
0
 40
1
 40
1
 40
1
 40
1
 10
542.120111
 20
230.268286
 30
0.0
 10
542.117522
 20
232.475628
 30
0.0
 10
540.327364
 20
234.263645
 30
0.0
 10
538.120021
 20
234.263594
 30
0.0
  0
SPLINE
  5
125
100
AcDbEntity
  8
0
 62
5
100
AcDbSpline
 70
8
 71
3
 72
8
 73
4
 74
0
 40
0
 40
0
 40
0
 40
0
 40
1
 40
1
 40
1
 40
1
 10
538.120021
 20
234.263594
 30
0.0
 10
535.912678
 20
234.263543
 30
0.0
 10
534.122604
 20
232.475442
 30
0.0
 10
534.120116
 20
230.268101
 30
0.0
  0
SPLINE
  5
126
100
AcDbEntity
  8
0
 62
5
100
AcDbSpline
 70
8
 71
3
 72
8
 73
4
 74
0
 40
0
 40
0
 40
0
 40
0
 40
1
 40
1
 40
1
 40
1
 10
534.120116
 20
230.268101
 30
0.0
 10
534.120116
 20
230.268101
 30
0.0
 10
534.122762
 20
169.268122
 30
0.0
 10
534.122762
 20
169.268122
 30
0.0
  0
SPLINE
  5
127
100
AcDbEntity
  8
0
 62
5
100
AcDbSpline
 70
8
 71
3
 72
8
 73
4
 74
0
 40
0
 40
0
 40
0
 40
0
 40
1
 40
1
 40
1
 40
1
 10
534.122762
 20
169.268122
 30
0.0
 10
534.125468
 20
167.060869
 30
0.0
 10
535.915584
 20
165.272982
 30
0.0
 10
538.122839
 20
165.273026
 30
0.0
  0
SPLINE
  5
128
100
AcDbEntity
  8
0
 62
5
100
AcDbSpline
 70
8
 71
3
 72
8
 73
4
 74
0
 40
0
 40
0
 40
0
 40
0
 40
1
 40
1
 40
1
 40
1
 10
538.122839
 20
165.273026
 30
0.0
 10
540.330094
 20
165.273070
 30
0.0
 10
542.120138
 20
167.061028
 30
0.0
 10
542.122757
 20
169.268281
 30
0.0
  0
LWPOLYLINE
  5
129
100
AcDbEntity
  8
0
 62
5
100
AcDbPolyline
 90
2
 70
0
 10
462.974611
 20
169.266588
 30
0.0
 10
462.977256
 20
169.266588
 30
0.0
  0
SPLINE
  5
12a
100
AcDbEntity
  8
0
 62
5
100
AcDbSpline
 70
8
 71
3
 72
8
 73
4
 74
0
 40
0
 40
0
 40
0
 40
0
 40
1
 40
1
 40
1
 40
1
 10
304.691547
 20
169.263201
 30
0.0
 10
304.691547
 20
169.263201
 30
0.0
 10
304.691547
 20
230.263206
 30
0.0
 10
304.691547
 20
230.263206
 30
0.0
  0
SPLINE
  5
12b
100
AcDbEntity
  8
0
 62
5
100
AcDbSpline
 70
8
 71
3
 72
8
 73
4
 74
0
 40
0
 40
0
 40
0
 40
0
 40
1
 40
1
 40
1
 40
1
 10
304.691547
 20
230.263206
 30
0.0
 10
304.688841
 20
232.470460
 30
0.0
 10
302.898726
 20
234.258346
 30
0.0
 10
300.691471
 20
234.258302
 30
0.0
  0
SPLINE
  5
12c
100
AcDbEntity
  8
0
 62
5
100
AcDbSpline
 70
8
 71
3
 72
8
 73
4
 74
0
 40
0
 40
0
 40
0
 40
0
 40
1
 40
1
 40
1
 40
1
 10
300.691471
 20
234.258302
 30
0.0
 10
298.484216
 20
234.258259
 30
0.0
 10
296.694171
 20
232.470301
 30
0.0
 10
296.691553
 20
230.263047
 30
0.0
  0
SPLINE
  5
12d
100
AcDbEntity
  8
0
 62
5
100
AcDbSpline
 70
8
 71
3
 72
8
 73
4
 74
0
 40
0
 40
0
 40
0
 40
0
 40
1
 40
1
 40
1
 40
1
 10
296.691553
 20
230.263047
 30
0.0
 10
296.691553
 20
230.263047
 30
0.0
 10
296.691553
 20
169.263042
 30
0.0
 10
296.691553
 20
169.263042
 30
0.0
  0
SPLINE
  5
12e
100
AcDbEntity
  8
0
 62
5
100
AcDbSpline
 70
8
 71
3
 72
8
 73
4
 74
0
 40
0
 40
0
 40
0
 40
0
 40
1
 40
1
 40
1
 40
1
 10
296.691553
 20
169.263042
 30
0.0
 10
296.694259
 20
167.055789
 30
0.0
 10
298.484374
 20
165.267902
 30
0.0
 10
300.691629
 20
165.267946
 30
0.0
  0
SPLINE
  5
12f
100
AcDbEntity
  8
0
 62
5
100
AcDbSpline
 70
8
 71
3
 72
8
 73
4
 74
0
 40
0
 40
0
 40
0
 40
0
 40
1
 40
1
 40
1
 40
1
 10
300.691629
 20
165.267946
 30
0.0
 10
302.898884
 20
165.267990
 30
0.0
 10
304.688929
 20
167.055948
 30
0.0
 10
304.691547
 20
169.263201
 30
0.0
  0
LWPOLYLINE
  5
130
100
AcDbEntity
  8
0
 62
5
100
AcDbPolyline
 90
2
 70
0
 10
542.122757
 20
169.268281
 30
0.0
 10
542.120111
 20
169.268281
 30
0.0
  0
LWPOLYLINE
  5
131
100
AcDbEntity
  8
0
 62
5
100
AcDbPolyline
 90
1
 70
1
 10
304.691547
 20
169.263201
 30
0.0
  0
LWPOLYLINE
  5
132
100
AcDbEntity
  8
0
 62
3
100
AcDbPolyline
 90
68
 70
1
 10
5.691949
 20
169.841686
 30
0.0
 10
14.691963
 20
169.841686
 30
0.0
 10
14.691963
 20
189.841673
 30
0.0
 10
5.691949
 20
189.841673
 30
0.0
 10
5.691949
 20
209.841686
 30
0.0
 10
14.691963
 20
209.841686
 30
0.0
 10
14.691963
 20
229.841672
 30
0.0
 10
5.691949
 20
229.841672
 30
0.0
 10
5.691949
 20
240.841671
 30
0.0
 10
29.291963
 20
240.841671
 30
0.0
 10
29.291963
 20
249.841685
 30
0.0
 10
52.891949
 20
249.841685
 30
0.0
 10
52.891949
 20
240.841671
 30
0.0
 10
76.491962
 20
240.841671
 30
0.0
 10
76.491962
 20
249.841685
 30
0.0
 10
100.091949
 20
249.841685
 30
0.0
 10
100.091949
 20
240.841671
 30
0.0
 10
123.691962
 20
240.841671
 30
0.0
 10
123.691962
 20
249.841685
 30
0.0
 10
147.291949
 20
249.841685
 30
0.0
 10
147.291949
 20
240.841671
 30
0.0
 10
170.891962
 20
240.841671
 30
0.0
 10
170.891962
 20
249.841685
 30
0.0
 10
194.491949
 20
249.841685
 30
0.0
 10
194.491949
 20
240.841671
 30
0.0
 10
218.091962
 20
240.841671
 30
0.0
 10
218.091962
 20
249.841685
 30
0.0
 10
241.691948
 20
249.841685
 30
0.0
 10
241.691948
 20
240.841671
 30
0.0
 10
265.291967
 20
240.841671
 30
0.0
 10
265.291967
 20
249.841685
 30
0.0
 10
288.891954
 20
249.841685
 30
0.0
 10
288.891954
 20
240.841671
 30
0.0
 10
312.491967
 20
240.841671
 30
0.0
 10
312.491967
 20
249.841685
 30
0.0
 10
336.091953
 20
249.841685
 30
0.0
 10
336.091953
 20
240.841671
 30
0.0
 10
359.691966
 20
240.841671
 30
0.0
 10
359.691966
 20
249.841685
 30
0.0
 10
383.291953
 20
249.841685
 30
0.0
 10
383.291953
 20
240.841671
 30
0.0
 10
406.891966
 20
240.841671
 30
0.0
 10
406.891966
 20
249.841685
 30
0.0
 10
430.491953
 20
249.841685
 30
0.0
 10
430.491953
 20
240.841671
 30
0.0
 10
454.091966
 20
240.841671
 30
0.0
 10
454.091966
 20
249.841685
 30
0.0
 10
477.691953
 20
249.841685
 30
0.0
 10
477.691953
 20
240.841671
 30
0.0
 10
501.291966
 20
240.841671
 30
0.0
 10
501.291966
 20
249.841685
 30
0.0
 10
524.891952
 20
249.841685
 30
0.0
 10
524.891952
 20
240.841671
 30
0.0
 10
548.491966
 20
240.841671
 30
0.0
 10
548.491966
 20
249.841685
 30
0.0
 10
572.091952
 20
249.841685
 30
0.0
 10
572.091952
 20
240.841671
 30
0.0
 10
595.691965
 20
240.841671
 30
0.0
 10
595.691965
 20
229.841672
 30
0.0
 10
586.691978
 20
229.841672
 30
0.0
 10
586.691978
 20
209.841686
 30
0.0
 10
595.691965
 20
209.841686
 30
0.0
 10
595.691965
 20
189.841673
 30
0.0
 10
586.691978
 20
189.841673
 30
0.0
 10
586.691978
 20
169.841686
 30
0.0
 10
595.691965
 20
169.841686
 30
0.0
 10
595.691965
 20
149.841673
 30
0.0
 10
5.691949
 20
149.841673
 30
0.0
  0
LWPOLYLINE
  5
133
100
AcDbEntity
  8
0
 62
3
100
AcDbPolyline
 90
4
 70
1
 10
585.424015
 20
120.109822
 30
0.0
 10
585.424015
 20
32.109837
 30
0.0
 10
13.424013
 20
32.109837
 30
0.0
 10
13.424013
 20
120.109822
 30
0.0
  0
ENDSEC
  0
SECTION
  2
OBJECTS
  0
DICTIONARY
  5
C
330
0
100
AcDbDictionary
  3
ACAD_GROUP
350
D
  3
ACAD_MLINESTYLE
350
17
  0
DICTIONARY
  5
D
330
C
100
AcDbDictionary
  0
DICTIONARY
  5
1A
330
C
100
AcDbDictionary
  0
DICTIONARY
  5
17
330
C
100
AcDbDictionary
  3
STANDARD
350
18
  0
DICTIONARY
  5
19
330
C
100
AcDbDictionary
  0
ENDSEC
  0
EOF
