0
SECTION
2
HEADER
9
$INSUNITS
70
4
9
$ACADVER
1
AC1014
9
$HANDSEED
5
FFFF
0
ENDSEC
0
SECTION
2
TABLES
0
TABLE
2
VPORT
5
8
100
AcDbSymbolTable
0
ENDTAB
0
TABLE
2
LTYPE
5
5
100
AcDbSymbolTable
0
LTYPE
5
14
100
AcDbSymbolTableRecord
100
AcDbLinetypeTableRecord
2
BYBLOCK
70
0
0
LTYPE
5
15
100
AcDbSymbolTableRecord
100
AcDbLinetypeTableRecord
2
BYLAYER
70
0
0
ENDTAB
0
TABLE
2
LAYER
5
2
100
AcDbSymbolTable
70
2
0
LAYER
5
50
100
AcDbSymbolTableRecord
100
AcDbLayerTableRecord
2
0
70
0
6
CONTINUOUS
0
ENDTAB
0
TABLE
2
STYLE
5
3
100
AcDbSymbolTable
70
1
0
STYLE
5
11
100
AcDbSymbolTableRecord
100
AcDbTextStyleTableRecord
2
STANDARD
70
0
0
ENDTAB
0
TABLE
2
VIEW
5
6
100
AcDbSymbolTable
70
0
0
ENDTAB
0
TABLE
2
UCS
5
7
100
AcDbSymbolTable
70
0
0
ENDTAB
0
TABLE
2
APPID
5
9
100
AcDbSymbolTable
70
2
0
APPID
5
12
100
AcDbSymbolTableRecord
100
AcDbRegAppTableRecord
2
ACAD
70
0
0
ENDTAB
0
TABLE
2
DIMSTYLE
5
A
100
AcDbSymbolTable
70
1
0
ENDTAB
0
TABLE
2
BLOCK_RECORD
5
1
100
AcDbSymbolTable
70
1
0
BLOCK_RECORD
5
1F
100
AcDbSymbolTableRecord
100
AcDbBlockTableRecord
2
*MODEL_SPACE
0
BLOCK_RECORD
5
1B
100
AcDbSymbolTableRecord
100
AcDbBlockTableRecord
2
*PAPER_SPACE
0
ENDTAB
0
ENDSEC
0
SECTION
2
BLOCKS
0
BLOCK
5
20
100
AcDbEntity
100
AcDbBlockBegin
2
*MODEL_SPACE
0
ENDBLK
5
21
100
AcDbEntity
100
AcDbBlockEnd
0
BLOCK
5
1C
100
AcDbEntity
100
AcDbBlockBegin
2
*PAPER_SPACE
0
ENDBLK
5
1D
100
AcDbEntity
100
AcDbBlockEnd
0
ENDSEC
0
SECTION
2
ENTITIES
0
LWPOLYLINE
5
100
100
AcDbEntity
8
0
100
AcDbPolyline
90
64
70
1
43
0.0
10
-385.13931860340426
20
-3.0000027791565613
10
-362.91709638118107
20
-3.0000027791741384
10
-340.69487415895884
20
-3.0000027791880917
10
-318.47265193673599
20
-3.0000027791741584
10
-296.25042971451262
20
-3.0000027791741584
10
-274.02820749229483
20
-3.0000027791741584
10
-251.80598527007149
20
-3.000002779174165
10
-229.58376304784866
20
-3.0000027791917532
10
-207.36154082562646
20
-3.0000027791741761
10
-185.13931860340324
20
-3.0000027791566062
10
-185.13931860340267
20
-7.4444472236010553
10
-181.13931860340318
20
-7.4444472236013386
10
-181.13931860340313
20
-11.888891668045767
10
-185.13931860340247
20
-11.888891668045465
10
-185.13931860340239
20
-16.33333611248991
10
-181.13931860340313
20
-16.333336112489611
10
-181.13931860340313
20
-20.777780556934413
10
-185.13931860340239
20
-20.777780556934431
10
-185.13931860340239
20
-25.222225001378877
10
-181.13931860340313
20
-25.222225001378931
10
-181.13931860340313
20
-29.666669445823697
10
-185.13931860340247
20
-29.666669445823413
10
-185.13931860340247
20
-34.111113890267859
10
-181.13931860340313
20
-34.111113890267561
10
-181.13931860340318
20
-38.555558334712003
10
-185.13931860340267
20
-38.555558334712273
10
-185.13931860340364
20
-43.000002779156659
10
-181.13931860340361
20
-43.000002779156659
10
-181.13931860340361
20
-47.000002779156667
10
-207.36154082562547
20
-47.000002779155992
10
-207.36154082562655
20
-43.00000277914036
10
-229.58376304784878
20
-43.000002779123975
10
-229.58376304784821
20
-47.000002779156596
10
-251.80598527007044
20
-47.000002779156574
10
-251.80598527007263
20
-43.000002779140338
10
-274.02820749229483
20
-43.000002779140338
10
-274.02820749229261
20
-47.000002779156929
10
-296.25042971451484
20
-47.000002779156929
10
-296.25042971451262
20
-43.000002779140317
10
-318.47265193673491
20
-43.000002779140317
10
-318.47265193673712
20
-47.000002779156574
10
-340.69487415895935
20
-47.00000277915656
10
-340.69487415895873
20
-43.000002779123946
10
-362.91709638118101
20
-43.000002779140317
10
-362.91709638118209
20
-47.000002779155764
10
-389.13931860340381
20
-47.000002779156617
10
-389.13931860340392
20
-43.000002779156631
10
-385.13931860340392
20
-43.000002779156681
10
-385.13931860340494
20
-38.555558334712231
10
-389.13931860340438
20
-38.555558334711947
10
-389.13931860340438
20
-34.111113890267518
10
-385.13931860340506
20
-34.111113890267823
10
-385.13931860340506
20
-29.666669445823377
10
-389.13931860340438
20
-29.666669445823661
10
-389.13931860340438
20
-25.222225001379215
10
-385.13931860340517
20
-25.222225001378842
10
-385.13931860340517
20
-20.777780556934395
10
-389.13931860340438
20
-20.777780556934022
10
-389.13931860340438
20
-16.333336112489572
10
-385.13931860340506
20
-16.333336112489857
10
-385.13931860340506
20
-11.88889166804543
10
-389.13931860340438
20
-11.888891668045733
10
-389.13931860340432
20
-7.4444472236012862
10
-385.13931860340483
20
-7.4444472236010011
0
LWPOLYLINE
5
101
100
AcDbEntity
8
0
100
AcDbPolyline
90
4
70
1
43
0.0
10
-395.04000000000019
20
8.3800000000000043
10
-382.96200865279729
20
8.3800000000000079
10
-382.96200865279729
20
19.500000000000032
10
-395.04000000000013
20
19.500000000000032
0
LWPOLYLINE
5
102
100
AcDbEntity
8
0
100
AcDbPolyline
90
4
70
1
43
0.0
10
-349
20
2.0000000000000031
10
-406
20
1.9999999999999885
10
-406.00000000000011
20
38.000000000000014
10
-349.00000000000006
20
38.000000000000028
0
LWPOLYLINE
5
103
100
AcDbEntity
8
0
100
AcDbPolyline
90
4
70
1
43
0.0
10
-310.96200783138113
20
12.380402223980688
10
-310.96200783138113
20
23.500402223980707
10
-323.03999917858403
20
23.500402223980707
10
-323.03999917858403
20
12.380402223980688
0
LWPOLYLINE
5
104
100
AcDbEntity
8
0
100
AcDbPolyline
90
67
70
1
43
0.0
10
-280.22221844618377
20
46.000403290927537
10
-272.99999622396166
20
46.000402223980615
10
-268.99999622396166
20
46.000401633056114
10
-268.99999688054442
20
41.555957188611757
10
-272.99999688054436
20
41.555957779536257
10
-272.99999753712711
20
37.1115133350919
10
-268.99999753712711
20
37.111512744167399
10
-268.99999819370981
20
32.667068299723034
10
-272.99999819370976
20
32.667069186109607
10
-272.99999885029251
20
28.22262474166525
10
-268.99999852200119
20
28.222624150740749
10
-268.99999885029251
20
23.77817970629625
10
-272.99999917858383
20
23.77817970629625
10
-272.99999917858383
20
19.333735261851821
10
-268.99999917858389
20
19.333735557313965
10
-268.99999917858389
20
14.889291112869536
10
-272.99999917858383
20
14.889291112869536
10
-272.99999917858383
20
10.444846668425107
10
-268.99999917858389
20
10.444846668425178
10
-268.99999917858389
20
6.0004022239806796
10
-272.99999917858383
20
6.0004022239806796
10
-272.99999917858383
20
2.0004022239806938
10
-280.22222140080606
20
2.0004022239807293
10
-280.22222140080606
20
6.0004022239807151
10
-287.44444362302835
20
6.0004022239807151
10
-287.44444362303261
20
2.0004022239807293
10
-294.6666658452549
20
2.0004022239807293
10
-294.66666584525291
20
6.0004022239807151
10
-301.88888806747508
20
6.0004022239807151
10
-301.88888806747292
20
2.0004022239807293
10
-305.49999917858401
20
2.0004020230605244
10
-309.11111028969509
20
2.0004026988828736
10
-309.11110976364739
20
6.0004022964869117
10
-316.33333198586951
20
6.0004036486871835
10
-316.33333251191306
20
2.0004032468468944
10
-323.55555473413517
20
2.0004045984915573
10
-323.55555420809401
20
6.0004041963205887
10
-330.77777643031618
20
6.0004055482958671
10
-330.77777695636155
20
2.0004051464556136
10
-337.99999917858378
20
2.000406498100241
10
-337.99999865253835
20
6.0004062756042851
10
-341.9999986525383
20
6.0004070241457086
10
-341.99999806804328
20
10.444851690825736
10
-337.9999980680434
20
10.444850942544583
10
-337.99999748354827
20
14.889295386988941
10
-341.99999748354827
20
14.889296122838509
10
-341.99999689905326
20
19.333740357478852
10
-337.99999689905337
20
19.333739067786517
10
-337.99999631455842
20
23.778183980415584
10
-341.99999664284968
20
23.778184725082774
10
-341.9999963866461
20
28.222628950905637
10
-337.99999605835472
20
28.222629015784655
10
-337.99999613044241
20
32.667073460229084
10
-341.99999613044247
20
32.667073099887922
10
-341.99999620253016
20
37.111517544332358
10
-337.99999620253027
20
37.111517609211376
10
-337.99999627461796
20
41.555962053655804
10
-341.99999627461801
20
41.555961988776787
10
-341.99999634670576
20
46.000406433221215
10
-337.9999963467057
20
46.000406498100162
10
-330.77777412448359
20
46.000406615242724
10
-323.5555519022613
20
46.000406732385287
10
-316.33332968003674
20
46.00040684952792
10
-309.11110745781451
20
46.000406966670482
10
-301.88888511285256
20
46.000406491768302
10
-294.66666289063039
20
46.000405424821381
10
-287.44444066840595
20
46.000404357874459
0
LWPOLYLINE
5
105
100
AcDbEntity
8
0
100
AcDbPolyline
90
67
70
1
43
0.0
10
-238.33332819561974
20
47.00000594480084
10
-231.11110597339751
20
47.000006061943424
10
-223.88888362843556
20
47.000005587041223
10
-216.66666140621342
20
47.000004520094322
10
-209.44443918398895
20
47.000003453147379
10
-202.22221696176683
20
47.000002386200457
10
-194.99999473954466
20
47.000001319253535
10
-190.99999473954472
20
47.00000072832907
10
-190.99999539612747
20
42.555556283884698
10
-194.99999539612742
20
42.555556874809213
10
-194.99999605271015
20
38.111112430364798
10
-190.99999605271017
20
38.111111839440348
10
-190.9999967092929
20
33.666667394995955
10
-194.99999670929282
20
33.666668281382577
10
-194.99999736587554
20
29.222223836938184
10
-190.99999703758419
20
29.222223246013648
10
-190.99999736587557
20
24.777778801569205
10
-194.99999769416692
20
24.777778801569184
10
-194.99999769416692
20
20.333334357124741
10
-190.99999769416689
20
20.33333465258692
10
-190.99999769416689
20
15.888890208142456
10
-194.99999769416692
20
15.888890208142456
10
-194.99999769416692
20
11.444445763698008
10
-190.99999769416689
20
11.444445763698061
10
-190.99999769416689
20
7.0000013192536139
10
-194.99999769416692
20
7.0000013192536326
10
-194.99999769416692
20
3.0000013192536286
10
-202.22221991638915
20
3.0000013192536281
10
-202.22221991638912
20
7.0000013192536317
10
-209.44444213861135
20
7.0000013192536326
10
-209.44444213861567
20
3.0000013192536463
10
-216.66666436083787
20
3.0000013192536459
10
-216.66666436083591
20
7.0000013192536317
10
-223.88888658305814
20
7.0000013192536503
10
-223.88888658305589
20
3.0000013192536463
10
-227.49999769416704
20
3.0000011183334947
10
-231.11110880527809
20
3.0000017941558079
10
-231.11110827923039
20
7.000001391759846
10
-238.33333050145254
20
7.0000027439601187
10
-238.33333102749606
20
3.0000023421198647
10
-245.5555532497182
20
3.0000036937645094
10
-245.55555272367707
20
7.0000032915935408
10
-252.77777494589915
20
7.0000046435688201
10
-252.77777547194466
20
3.0000042417285484
10
-259.99999769416684
20
3.0000055933731931
10
-259.9999971681213
20
7.0000053708772372
10
-263.99999716812124
20
7.0000061194186447
10
-263.99999658362628
20
11.444450786098654
10
-259.99999658362628
20
11.444450037817502
10
-259.99999599913133
20
15.888894482261914
10
-263.99999599913127
20
15.888895218111445
10
-263.99999541463632
20
20.333339452751808
10
-259.99999541463643
20
20.333338163059473
10
-259.99999483014142
20
24.777783075688539
10
-263.99999515843274
20
24.777783820355754
10
-263.9999949022291
20
29.222228046178564
10
-259.99999457393778
20
29.222228111057554
10
-259.99999464602553
20
33.666672555502004
10
-263.99999464602553
20
33.666672195160878
10
-263.99999471811327
20
38.111116639605328
10
-259.99999471811327
20
38.111116704484289
10
-259.99999479020096
20
42.555561148928724
10
-263.99999479020101
20
42.555561084049707
10
-263.9999948622887
20
47.000005528494135
10
-259.9999948622887
20
47.000005593373103
10
-252.77777264006653
20
47.00000571051568
10
-245.5555504178443
20
47.000005827658256
0
LWPOLYLINE
5
106
100
AcDbEntity
8
0
100
AcDbPolyline
90
64
70
1
43
0.0
10
-385.13931860340426
20
-3.0000027791565613
10
-362.91709638118107
20
-3.0000027791741384
10
-340.69487415895884
20
-3.0000027791880917
10
-318.47265193673599
20
-3.0000027791741584
10
-296.25042971451262
20
-3.0000027791741584
10
-274.02820749229483
20
-3.0000027791741584
10
-251.80598527007149
20
-3.000002779174165
10
-229.58376304784866
20
-3.0000027791917532
10
-207.36154082562646
20
-3.0000027791741761
10
-185.13931860340324
20
-3.0000027791566062
10
-185.13931860340267
20
-7.4444472236010553
10
-181.13931860340318
20
-7.4444472236013386
10
-181.13931860340313
20
-11.888891668045767
10
-185.13931860340247
20
-11.888891668045465
10
-185.13931860340239
20
-16.33333611248991
10
-181.13931860340313
20
-16.333336112489611
10
-181.13931860340313
20
-20.777780556934413
10
-185.13931860340239
20
-20.777780556934431
10
-185.13931860340239
20
-25.222225001378877
10
-181.13931860340313
20
-25.222225001378931
10
-181.13931860340313
20
-29.666669445823697
10
-185.13931860340247
20
-29.666669445823413
10
-185.13931860340247
20
-34.111113890267859
10
-181.13931860340313
20
-34.111113890267561
10
-181.13931860340318
20
-38.555558334712003
10
-185.13931860340267
20
-38.555558334712273
10
-185.13931860340364
20
-43.000002779156659
10
-181.13931860340361
20
-43.000002779156659
10
-181.13931860340361
20
-47.000002779156667
10
-207.36154082562547
20
-47.000002779155992
10
-207.36154082562655
20
-43.00000277914036
10
-229.58376304784878
20
-43.000002779123975
10
-229.58376304784821
20
-47.000002779156596
10
-251.80598527007044
20
-47.000002779156574
10
-251.80598527007263
20
-43.000002779140338
10
-274.02820749229483
20
-43.000002779140338
10
-274.02820749229261
20
-47.000002779156929
10
-296.25042971451484
20
-47.000002779156929
10
-296.25042971451262
20
-43.000002779140317
10
-318.47265193673491
20
-43.000002779140317
10
-318.47265193673712
20
-47.000002779156574
10
-340.69487415895935
20
-47.00000277915656
10
-340.69487415895873
20
-43.000002779123946
10
-362.91709638118101
20
-43.000002779140317
10
-362.91709638118209
20
-47.000002779155764
10
-389.13931860340381
20
-47.000002779156617
10
-389.13931860340392
20
-43.000002779156631
10
-385.13931860340392
20
-43.000002779156681
10
-385.13931860340494
20
-38.555558334712231
10
-389.13931860340438
20
-38.555558334711947
10
-389.13931860340438
20
-34.111113890267518
10
-385.13931860340506
20
-34.111113890267823
10
-385.13931860340506
20
-29.666669445823377
10
-389.13931860340438
20
-29.666669445823661
10
-389.13931860340438
20
-25.222225001379215
10
-385.13931860340517
20
-25.222225001378842
10
-385.13931860340517
20
-20.777780556934395
10
-389.13931860340438
20
-20.777780556934022
10
-389.13931860340438
20
-16.333336112489572
10
-385.13931860340506
20
-16.333336112489857
10
-385.13931860340506
20
-11.88889166804543
10
-389.13931860340438
20
-11.888891668045733
10
-389.13931860340432
20
-7.4444472236012862
10
-385.13931860340483
20
-7.4444472236010011
0
LWPOLYLINE
5
107
100
AcDbEntity
8
0
100
AcDbPolyline
90
4
70
1
43
0.0
10
-430.13900000000001
20
-202.99999999999994
10
-430.13900000000001
20
-2.9999999999999627
10
-394.13900000000001
20
-2.9999999999999716
10
-394.13900000000001
20
-202.99999999999994
0
LWPOLYLINE
5
108
100
AcDbEntity
8
0
100
AcDbPolyline
90
4
70
1
43
0.0
10
-471.13900000000001
20
-203
10
-471.13900000000001
20
-2.9999999999999627
10
-435.13900000000001
20
-2.9999999999999716
10
-435.13900000000001
20
-203
0
CIRCLE
5
109
100
AcDbEntity
8
0
100
AcDbCircle
10
-205.37931871835926
20
-64.19968151155183
30
0
40
1.587499999999995
0
CIRCLE
5
110
100
AcDbEntity
8
0
100
AcDbCircle
10
-256.17931871835924
20
-79.439681511551825
30
0
40
1.5875000000000039
0
CIRCLE
5
111
100
AcDbEntity
8
0
100
AcDbCircle
10
-204.10931871835916
20
-112.45968151155176
30
0
40
1.5874999999999995
0
CIRCLE
5
112
100
AcDbEntity
8
0
100
AcDbCircle
10
-256.17931871835924
20
-107.37968151155181
30
0
40
1.5875000000000039
0
LWPOLYLINE
5
113
100
AcDbEntity
8
0
100
AcDbPolyline
90
68
70
1
43
0.0
10
-185.13931870386241
20
-77.666348178218527
10
-181.13931871835939
20
-77.666348178218527
10
-181.13931871835933
20
-84.888570400440756
10
-185.13931871835928
20
-84.888570400440756
10
-185.13931871835922
20
-92.110792622662956
10
-181.13931871835933
20
-92.11079262266297
10
-181.13931871835933
20
-99.333014844885184
10
-185.13931871835933
20
-99.333014844885184
10
-185.13931871835933
20
-106.5552370671074
10
-181.13931871835933
20
-106.5552370671074
10
-181.13931871835933
20
-113.77745928932964
10
-185.13931871835933
20
-113.77745928932964
10
-185.13931871835933
20
-120.99968151155187
10
-207.36154094058156
20
-120.99968151155184
10
-207.36154094058153
20
-124.99968151155186
10
-229.58376316280379
20
-124.99968151155187
10
-229.58376316280379
20
-120.99968151155187
10
-251.80598538502602
20
-120.99968151155188
10
-251.80598538502602
20
-124.99968151155187
10
-274.02820760724813
20
-124.99968151155187
10
-274.02820760724825
20
-120.99968151155187
10
-296.25042982947048
20
-120.99968151155188
10
-296.25042982947042
20
-124.99968151155188
10
-318.47265205169271
20
-124.99968151155188
10
-318.47265205169271
20
-120.99968151155188
10
-340.69487427391493
20
-120.9996815115519
10
-340.69487427391488
20
-124.99968151155188
10
-362.91709649613711
20
-124.99968151155188
10
-362.91709649613711
20
-120.99968151155187
10
-385.13931871835939
20
-120.9996815115519
10
-385.13931871835939
20
-113.77745928932968
10
-389.13931871835933
20
-113.77745928932968
10
-389.13931871835933
20
-106.55523706710746
10
-385.13931871835939
20
-106.55523706710744
10
-385.13931871835939
20
-99.333014844885227
10
-389.13931871835933
20
-99.333014844885227
10
-389.13931871835928
20
-92.110792622663027
10
-385.13931871835939
20
-92.110792622663027
10
-385.13931871835939
20
-84.888570400440813
10
-389.13931871835939
20
-84.888570400440813
10
-389.13931871835939
20
-77.666348178219366
10
-385.13931873285628
20
-77.666348178218584
10
-385.13931871835945
20
-70.44412595599637
10
-389.13931871835939
20
-70.444125955996327
10
-389.13931871835933
20
-63.221903733774113
10
-385.13931871835939
20
-63.221903733774113
10
-385.13931871835939
20
-55.999681511551898
10
-362.91709649613716
20
-55.999681511552012
10
-362.91709649613716
20
-51.999681511551884
10
-340.69487427391493
20
-51.999681511551827
10
-340.69487427391493
20
-55.999681511551813
10
-318.47265205169276
20
-55.999681511551813
10
-318.47265205169271
20
-51.999681511551827
10
-296.25042982947048
20
-51.999681511551842
10
-296.25042982947048
20
-55.999681511551827
10
-274.02820760724819
20
-55.999681511551827
10
-274.02820760724819
20
-51.999681511551842
10
-251.80598538502596
20
-51.999681511551792
10
-251.80598538502593
20
-55.999681511551813
10
-229.58376316280376
20
-55.999681511551827
10
-229.58376316280379
20
-51.999681511551842
10
-207.36154094058168
20
-51.999681511551842
10
-207.36154094058162
20
-55.99968151155187
10
-185.13931871835936
20
-55.99968151155187
10
-185.13931871835939
20
-63.221903733774084
10
-181.13931871835939
20
-63.221903733774028
10
-181.13931871835939
20
-70.44412595599627
10
-185.13931871835939
20
-70.444125955996327
0
LWPOLYLINE
5
114
100
AcDbEntity
8
0
100
AcDbPolyline
90
64
70
1
43
0.0
10
-184.14001216928659
20
-173.99949658265791
10
-206.36223439150979
20
-173.99949658264029
10
-228.58445661373202
20
-173.99949658262631
10
-250.80667883595484
20
-173.99949658264029
10
-273.02890105817818
20
-173.99949658264029
10
-295.25112328039597
20
-173.99949658264029
10
-317.47334550261934
20
-173.99949658264029
10
-339.69556772484219
20
-173.99949658262267
10
-361.91778994706442
20
-173.99949658264023
10
-384.1400121692875
20
-173.9994965826578
10
-384.14001216928807
20
-169.55505213821337
10
-388.14001216928773
20
-169.55505213821309
10
-388.14001216928773
20
-165.11060769376866
10
-384.1400121692883
20
-165.11060769376894
10
-384.14001216928847
20
-160.66616324932451
10
-388.14001216928773
20
-160.6661632493248
10
-388.14001216928767
20
-156.22171880488
10
-384.14001216928841
20
-156.22171880487997
10
-384.14001216928847
20
-151.77727436043551
10
-388.14001216928773
20
-151.77727436043546
10
-388.14001216928773
20
-147.33282991599069
10
-384.14001216928841
20
-147.33282991599097
10
-384.14001216928841
20
-142.88838547154654
10
-388.14001216928773
20
-142.88838547154683
10
-388.14001216928762
20
-138.4439410271024
10
-384.14001216928807
20
-138.44394102710211
10
-384.1400121692871
20
-133.99949658265774
10
-388.14001216928716
20
-133.99949658265774
10
-388.14001216928722
20
-129.99949658265777
10
-361.91778994706539
20
-129.9994965826584
10
-361.91778994706425
20
-133.99949658267406
10
-339.69556772484202
20
-133.99949658269043
10
-339.69556772484259
20
-129.99949658265786
10
-317.47334550262042
20
-129.99949658265786
10
-317.4733455026182
20
-133.99949658267411
10
-295.25112328039597
20
-133.99949658267408
10
-295.25112328039819
20
-129.99949658265746
10
-273.02890105817596
20
-129.99949658265746
10
-273.02890105817818
20
-133.99949658267408
10
-250.80667883595595
20
-133.99949658267411
10
-250.80667883595373
20
-129.99949658265786
10
-228.58445661373153
20
-129.99949658265788
10
-228.5844566137321
20
-133.99949658269048
10
-206.36223439150993
20
-133.99949658267408
10
-206.36223439150882
20
-129.99949658265868
10
-180.14001216928688
20
-129.99949658265786
10
-180.14001216928699
20
-133.99949658265783
10
-184.14001216928699
20
-133.99949658265774
10
-184.140012169286
20
-138.4439410271022
10
-180.14001216928651
20
-138.44394102710248
10
-180.14001216928651
20
-142.88838547154694
10
-184.14001216928582
20
-142.8883854715466
10
-184.1400121692858
20
-147.33282991599106
10
-180.14001216928648
20
-147.33282991599077
10
-180.14001216928648
20
-151.77727436043523
10
-184.14001216928571
20
-151.77727436043563
10
-184.14001216928571
20
-156.22171880488003
10
-180.14001216928648
20
-156.2217188048804
10
-180.14001216928648
20
-160.66616324932488
10
-184.1400121692858
20
-160.6661632493246
10
-184.14001216928582
20
-165.11060769376905
10
-180.14001216928651
20
-165.11060769376877
10
-180.14001216928651
20
-169.55505213821317
10
-184.14001216928602
20
-169.55505213821345
0
LWPOLYLINE
5
115
100
AcDbEntity
8
0
100
AcDbPolyline
90
4
70
1
43
0.0
10
-394.13900000000001
20
-244
10
-451.13900000000001
20
-244
10
-451.13900000000001
20
-207.99999999999997
10
-394.13900000000001
20
-207.99999999999997
0
CIRCLE
5
116
100
AcDbEntity
8
0
100
AcDbCircle
10
-342.79914415740171
20
-201.2496815115523
30
0
40
3.4999999999999982
0
CIRCLE
5
117
100
AcDbEntity
8
0
100
AcDbCircle
10
-227.47949327931778
20
-201.2496815115523
30
0
40
3.4999999999999982
0
CIRCLE
5
118
100
AcDbEntity
8
0
100
AcDbCircle
10
-307.06517984485646
20
-198.00148532108824
30
0
40
14.5
0
CIRCLE
5
119
100
AcDbEntity
8
0
100
AcDbCircle
10
-263.213457591863
20
-198.0014853210883
30
0
40
14.5
0
CIRCLE
5
120
100
AcDbEntity
8
0
100
AcDbCircle
10
-324.13931871835973
20
-224.51437965377897
30
0
40
2.1100000000000039
0
CIRCLE
5
121
100
AcDbEntity
8
0
100
AcDbCircle
10
-285.13931871835973
20
-225.99968151155227
30
0
40
11.500000000000007
0
CIRCLE
5
122
100
AcDbEntity
8
0
100
AcDbCircle
10
-202.13931871835968
20
-198.7496815115523
30
0
40
8.0000000000000018
0
CIRCLE
5
123
100
AcDbEntity
8
0
100
AcDbCircle
10
-368.1393187183599
20
-224.24968151155215
30
0
40
8.0000000000000036
0
CIRCLE
5
124
100
AcDbEntity
8
0
100
AcDbCircle
10
-202.1393187183597
20
-224.24968151155235
30
0
40
8.0000000000000036
0
CIRCLE
5
125
100
AcDbEntity
8
0
100
AcDbCircle
10
-368.13931871835968
20
-198.74968151155213
30
0
40
8.0000000000000018
0
LWPOLYLINE
5
126
100
AcDbEntity
8
0
100
AcDbPolyline
90
4
70
1
43
0.0
10
-230.97931871835758
20
-230.15466950199487
10
-230.97931871835755
20
-218.87408980556316
10
-250.09931871835758
20
-218.87408980556316
10
-250.09931871835758
20
-230.15466950199487
0
CIRCLE
5
127
100
AcDbEntity
8
0
100
AcDbCircle
10
-232.91931871835757
20
-232.5174430345898
30
0
40
1.2500000000000004
0
CIRCLE
5
128
100
AcDbEntity
8
0
100
AcDbCircle
10
-248.15931871835758
20
-232.5174430345898
30
0
40
1.2500000000000004
0
LWPOLYLINE
5
129
100
AcDbEntity
8
0
100
AcDbPolyline
90
4
70
1
43
0.0
10
-185.13931871835968
20
-178.99968151155232
10
-185.13931871835968
20
-243.9996815115523
10
-385.13931871835985
20
-243.9996815115523
10
-385.13931871835979
20
-178.99968151155224
0
ENDSEC
0
SECTION
2
OBJECTS
0
DICTIONARY
5
C
100
AcDbDictionary
3
ACAD_GROUP
350
D
3
ACAD_MLINESTYLE
350
17
0
DICTIONARY
5
D
100
AcDbDictionary
0
DICTIONARY
5
1A
330
C
100
AcDbDictionary
0
DICTIONARY
5
17
100
AcDbDictionary
0
ENDSEC
0
EOF
