  0
SECTION
  2
HEADER
  9
$ACADVER
  1
AC1014
  9
$HANDSEED
  5
FFFF
  9
$MEASUREMENT
 70
     1
  0
ENDSEC
  0
SECTION
  2
TABLES
  0
TABLE
  2
VPORT
  5
8
330
0
100
AcDbSymbolTable
 70
     4
  0
VPORT
  5
2E
330
8
100
AcDbSymbolTableRecord
100
AcDbViewportTableRecord
  2
*ACTIVE
 70
     0
 10
0.0
 20
0.0
 11
1.0
 21
1.0
 12
210.0
 22
148.5
 13
0.0
 23
0.0
 14
10.0
 24
10.0
 15
10.0
 25
10.0
 16
0.0
 26
0.0
 36
1.0
 17
0.0
 27
0.0
 37
0.0
 40
341.0
 41
1.24
 42
50.0
 43
0.0
 44
0.0
 50
0.0
 51
0.0
 71
     0
 72
   100
 73
     1
 74
     3
 75
     0
 76
     0
 77
     0
 78
     0
  0
ENDTAB
  0
TABLE
  2
LTYPE
  5
5
330
0
100
AcDbSymbolTable
 70
     1
  0
LTYPE
  5
14
330
5
100
AcDbSymbolTableRecord
100
AcDbLinetypeTableRecord
  2
BYBLOCK
 70
     0
  3

 72
    65
 73
     0
 40
0.0
  0
LTYPE
  5
15
330
5
100
AcDbSymbolTableRecord
100
AcDbLinetypeTableRecord
  2
BYLAYER
 70
     0
  3

 72
    65
 73
     0
 40
0.0
  0
LTYPE
  5
16
330
5
100
AcDbSymbolTableRecord
100
AcDbLinetypeTableRecord
  2
CONTINUOUS
 70
     0
  3
Solid line
 72
    65
 73
     0
 40
0.0
  0
ENDTAB
  0
TABLE
  2
LAYER
  5
2
100
AcDbSymbolTable
 70
1
  0
LAYER
  5
50
100
AcDbSymbolTableRecord
100
AcDbLayerTableRecord
  2
0
 70
0
  6
CONTINUOUS
  0
ENDTAB
  0
TABLE
  2
STYLE
  5
3
330
0
100
AcDbSymbolTable
 70
     1
  0
STYLE
  5
11
330
3
100
AcDbSymbolTableRecord
100
AcDbTextStyleTableRecord
  2
STANDARD
 70
     0
 40
0.0
 41
1.0
 50
0.0
 71
     0
 42
2.5
  3
txt
  4

  0
ENDTAB
  0
TABLE
  2
VIEW
  5
6
330
0
100
AcDbSymbolTable
 70
     0
  0
ENDTAB
  0
TABLE
  2
UCS
  5
7
330
0
100
AcDbSymbolTable
 70
     0
  0
ENDTAB
  0
TABLE
  2
APPID
  5
9
330
0
100
AcDbSymbolTable
 70
     2
  0
APPID
  5
12
330
9
100
AcDbSymbolTableRecord
100
AcDbRegAppTableRecord
  2
ACAD
 70
     0
  0
ENDTAB
  0
TABLE
  2
DIMSTYLE
  5
A
330
0
100
AcDbSymbolTable
 70
     1
  0
DIMSTYLE
105
27
330
A
100
AcDbSymbolTableRecord
100
AcDbDimStyleTableRecord
  2
ISO-25
 70
     0
  3

  4

  5

  6

  7

 40
1.0
 41
2.5
 42
0.625
 43
3.75
 44
1.25
 45
0.0
 46
0.0
 47
0.0
 48
0.0
140
2.5
141
2.5
142
0.0
143
0.03937007874016
144
1.0
145
0.0
146
1.0
147
0.625
 71
     0
 72
     0
 73
     0
 74
     0
 75
     0
 76
     0
 77
     1
 78
     8
170
     0
171
     3
172
     1
173
     0
174
     0
175
     0
176
     0
177
     0
178
     0
270
     2
271
     2
272
     2
273
     2
274
     3
340
11
275
     0
280
     0
281
     0
282
     0
283
     0
284
     8
285
     0
286
     0
287
     3
288
     0
  0
ENDTAB
  0
TABLE
  2
BLOCK_RECORD
  5
1
330
0
100
AcDbSymbolTable
 70
     1
  0
BLOCK_RECORD
  5
1F
330
1
100
AcDbSymbolTableRecord
100
AcDbBlockTableRecord
  2
*MODEL_SPACE
  0
BLOCK_RECORD
  5
1B
330
1
100
AcDbSymbolTableRecord
100
AcDbBlockTableRecord
  2
*PAPER_SPACE
  0
ENDTAB
  0
ENDSEC
  0
SECTION
  2
BLOCKS
  0
BLOCK
  5
20
330
1F
100
AcDbEntity
  8
0
100
AcDbBlockBegin
  2
*MODEL_SPACE
 70
     0
 10
0.0
 20
0.0
 30
0.0
  3
*MODEL_SPACE
  1

  0
ENDBLK
  5
21
330
1F
100
AcDbEntity
  8
0
100
AcDbBlockEnd
  0
BLOCK
  5
1C
330
1B
100
AcDbEntity
 67
     1
  8
0
100
AcDbBlockBegin
  2
*PAPER_SPACE
  1

  0
ENDBLK
  5
1D
330
1B
100
AcDbEntity
 67
     1
  8
0
100
AcDbBlockEnd
  0
ENDSEC
  0
SECTION
  2
ENTITIES
  0
LWPOLYLINE
  5
100
100
AcDbEntity
  8
0
 62
1
100
AcDbPolyline
 90
2
 70
0
 10
446.792350
 20
377.885538
 30
0.0
 10
449.792355
 20
377.885538
 30
0.0
  0
LWPOLYLINE
  5
101
100
AcDbEntity
  8
0
 62
1
100
AcDbPolyline
 90
2
 70
0
 10
448.292352
 20
379.385513
 30
0.0
 10
448.292352
 20
376.385535
 30
0.0
  0
LWPOLYLINE
  5
102
100
AcDbEntity
  8
0
 62
1
100
AcDbPolyline
 90
2
 70
0
 10
586.792361
 20
272.885590
 30
0.0
 10
586.792361
 20
269.885584
 30
0.0
  0
LWPOLYLINE
  5
103
100
AcDbEntity
  8
0
 62
1
100
AcDbPolyline
 90
2
 70
0
 10
585.292359
 20
271.385588
 30
0.0
 10
588.292363
 20
271.385588
 30
0.0
  0
LWPOLYLINE
  5
104
100
AcDbEntity
  8
0
 62
1
100
AcDbPolyline
 90
2
 70
0
 10
448.292352
 20
166.398550
 30
0.0
 10
448.292352
 20
163.398545
 30
0.0
  0
LWPOLYLINE
  5
105
100
AcDbEntity
  8
0
 62
1
100
AcDbPolyline
 90
2
 70
0
 10
446.792350
 20
164.898547
 30
0.0
 10
449.792355
 20
164.898547
 30
0.0
  0
LWPOLYLINE
  5
106
100
AcDbEntity
  8
0
 62
1
100
AcDbPolyline
 90
2
 70
0
 10
303.792361
 20
164.885583
 30
0.0
 10
306.792365
 20
164.885583
 30
0.0
  0
LWPOLYLINE
  5
107
100
AcDbEntity
  8
0
 62
1
100
AcDbPolyline
 90
2
 70
0
 10
305.292363
 20
166.385585
 30
0.0
 10
305.292363
 20
163.385580
 30
0.0
  0
LWPOLYLINE
  5
108
100
AcDbEntity
  8
0
 62
1
100
AcDbPolyline
 90
2
 70
0
 10
160.792345
 20
164.902675
 30
0.0
 10
163.792350
 20
164.902675
 30
0.0
  0
LWPOLYLINE
  5
109
100
AcDbEntity
  8
0
 62
1
100
AcDbPolyline
 90
2
 70
0
 10
160.792345
 20
164.902675
 30
0.0
 10
163.792350
 20
164.902675
 30
0.0
  0
LWPOLYLINE
  5
10a
100
AcDbEntity
  8
0
 62
1
100
AcDbPolyline
 90
2
 70
0
 10
162.292348
 20
166.402677
 30
0.0
 10
162.292348
 20
163.402672
 30
0.0
  0
LWPOLYLINE
  5
10b
100
AcDbEntity
  8
0
 62
1
100
AcDbPolyline
 90
2
 70
0
 10
25.292368
 20
271.385588
 30
0.0
 10
22.292364
 20
271.385588
 30
0.0
  0
SPLINE
  5
10c
100
AcDbEntity
  8
0
 62
5
100
AcDbSpline
 70
8
 71
3
 72
8
 73
4
 74
0
 40
0
 40
0
 40
0
 40
0
 40
1
 40
1
 40
1
 40
1
 10
246.917342
 20
313.885582
 30
0.0
 10
246.920681
 20
315.138230
 30
0.0
 10
246.254319
 20
316.297155
 30
0.0
 10
245.170047
 20
316.924445
 30
0.0
  0
SPLINE
  5
10d
100
AcDbEntity
  8
0
 62
5
100
AcDbSpline
 70
8
 71
3
 72
8
 73
4
 74
0
 40
0
 40
0
 40
0
 40
0
 40
1
 40
1
 40
1
 40
1
 10
245.170047
 20
316.924445
 30
0.0
 10
244.085776
 20
317.551735
 30
0.0
 10
242.748933
 20
317.551735
 30
0.0
 10
241.664662
 20
316.924445
 30
0.0
  0
SPLINE
  5
10e
100
AcDbEntity
  8
0
 62
5
100
AcDbSpline
 70
8
 71
3
 72
8
 73
4
 74
0
 40
0
 40
0
 40
0
 40
0
 40
1
 40
1
 40
1
 40
1
 10
241.664662
 20
316.924445
 30
0.0
 10
240.580390
 20
316.297155
 30
0.0
 10
239.914028
 20
315.138230
 30
0.0
 10
239.917367
 20
313.885582
 30
0.0
  0
SPLINE
  5
10f
100
AcDbEntity
  8
0
 62
5
100
AcDbSpline
 70
8
 71
3
 72
8
 73
4
 74
0
 40
0
 40
0
 40
0
 40
0
 40
1
 40
1
 40
1
 40
1
 10
239.917367
 20
313.885582
 30
0.0
 10
239.914028
 20
312.632934
 30
0.0
 10
240.580390
 20
311.474009
 30
0.0
 10
241.664662
 20
310.846719
 30
0.0
  0
SPLINE
  5
110
100
AcDbEntity
  8
0
 62
5
100
AcDbSpline
 70
8
 71
3
 72
8
 73
4
 74
0
 40
0
 40
0
 40
0
 40
0
 40
1
 40
1
 40
1
 40
1
 10
241.664662
 20
310.846719
 30
0.0
 10
242.748933
 20
310.219430
 30
0.0
 10
244.085776
 20
310.219430
 30
0.0
 10
245.170047
 20
310.846719
 30
0.0
  0
SPLINE
  5
111
100
AcDbEntity
  8
0
 62
5
100
AcDbSpline
 70
8
 71
3
 72
8
 73
4
 74
0
 40
0
 40
0
 40
0
 40
0
 40
1
 40
1
 40
1
 40
1
 10
245.170047
 20
310.846719
 30
0.0
 10
246.254319
 20
311.474009
 30
0.0
 10
246.920681
 20
312.632934
 30
0.0
 10
246.917342
 20
313.885582
 30
0.0
  0
LWPOLYLINE
  5
112
100
AcDbEntity
  8
0
 62
1
100
AcDbPolyline
 90
2
 70
0
 10
23.792366
 20
272.885590
 30
0.0
 10
23.792366
 20
269.885584
 30
0.0
  0
SPLINE
  5
113
100
AcDbEntity
  8
0
 62
5
100
AcDbSpline
 70
8
 71
3
 72
8
 73
4
 74
0
 40
0
 40
0
 40
0
 40
0
 40
1
 40
1
 40
1
 40
1
 10
191.917346
 20
228.885592
 30
0.0
 10
191.917346
 20
230.136022
 30
0.0
 10
191.250250
 20
231.291467
 30
0.0
 10
190.167346
 20
231.916682
 30
0.0
  0
SPLINE
  5
114
100
AcDbEntity
  8
0
 62
5
100
AcDbSpline
 70
8
 71
3
 72
8
 73
4
 74
0
 40
0
 40
0
 40
0
 40
0
 40
1
 40
1
 40
1
 40
1
 10
190.167346
 20
231.916682
 30
0.0
 10
189.084442
 20
232.541897
 30
0.0
 10
187.750249
 20
232.541897
 30
0.0
 10
186.667345
 20
231.916682
 30
0.0
  0
SPLINE
  5
115
100
AcDbEntity
  8
0
 62
5
100
AcDbSpline
 70
8
 71
3
 72
8
 73
4
 74
0
 40
0
 40
0
 40
0
 40
0
 40
1
 40
1
 40
1
 40
1
 10
186.667345
 20
231.916682
 30
0.0
 10
185.584441
 20
231.291467
 30
0.0
 10
184.917345
 20
230.136022
 30
0.0
 10
184.917345
 20
228.885592
 30
0.0
  0
SPLINE
  5
116
100
AcDbEntity
  8
0
 62
5
100
AcDbSpline
 70
8
 71
3
 72
8
 73
4
 74
0
 40
0
 40
0
 40
0
 40
0
 40
1
 40
1
 40
1
 40
1
 10
184.917345
 20
228.885592
 30
0.0
 10
184.917345
 20
227.635162
 30
0.0
 10
185.584441
 20
226.479717
 30
0.0
 10
186.667345
 20
225.854502
 30
0.0
  0
SPLINE
  5
117
100
AcDbEntity
  8
0
 62
5
100
AcDbSpline
 70
8
 71
3
 72
8
 73
4
 74
0
 40
0
 40
0
 40
0
 40
0
 40
1
 40
1
 40
1
 40
1
 10
186.667345
 20
225.854502
 30
0.0
 10
187.750249
 20
225.229288
 30
0.0
 10
189.084442
 20
225.229288
 30
0.0
 10
190.167346
 20
225.854502
 30
0.0
  0
SPLINE
  5
118
100
AcDbEntity
  8
0
 62
5
100
AcDbSpline
 70
8
 71
3
 72
8
 73
4
 74
0
 40
0
 40
0
 40
0
 40
0
 40
1
 40
1
 40
1
 40
1
 10
190.167346
 20
225.854502
 30
0.0
 10
191.250250
 20
226.479717
 30
0.0
 10
191.917346
 20
227.635162
 30
0.0
 10
191.917346
 20
228.885592
 30
0.0
  0
LWPOLYLINE
  5
119
100
AcDbEntity
  8
0
 62
5
100
AcDbPolyline
 90
1
 70
1
 10
246.917342
 20
313.885582
 30
0.0
  0
SPLINE
  5
11a
100
AcDbEntity
  8
0
 62
5
100
AcDbSpline
 70
8
 71
3
 72
8
 73
4
 74
0
 40
0
 40
0
 40
0
 40
0
 40
1
 40
1
 40
1
 40
1
 10
219.417344
 20
228.885592
 30
0.0
 10
219.417344
 20
230.136022
 30
0.0
 10
218.750248
 20
231.291467
 30
0.0
 10
217.667344
 20
231.916682
 30
0.0
  0
SPLINE
  5
11b
100
AcDbEntity
  8
0
 62
5
100
AcDbSpline
 70
8
 71
3
 72
8
 73
4
 74
0
 40
0
 40
0
 40
0
 40
0
 40
1
 40
1
 40
1
 40
1
 10
217.667344
 20
231.916682
 30
0.0
 10
216.584440
 20
232.541897
 30
0.0
 10
215.250247
 20
232.541897
 30
0.0
 10
214.167343
 20
231.916682
 30
0.0
  0
SPLINE
  5
11c
100
AcDbEntity
  8
0
 62
5
100
AcDbSpline
 70
8
 71
3
 72
8
 73
4
 74
0
 40
0
 40
0
 40
0
 40
0
 40
1
 40
1
 40
1
 40
1
 10
214.167343
 20
231.916682
 30
0.0
 10
213.084439
 20
231.291467
 30
0.0
 10
212.417342
 20
230.136022
 30
0.0
 10
212.417343
 20
228.885592
 30
0.0
  0
SPLINE
  5
11d
100
AcDbEntity
  8
0
 62
5
100
AcDbSpline
 70
8
 71
3
 72
8
 73
4
 74
0
 40
0
 40
0
 40
0
 40
0
 40
1
 40
1
 40
1
 40
1
 10
212.417343
 20
228.885592
 30
0.0
 10
212.417342
 20
227.635162
 30
0.0
 10
213.084439
 20
226.479717
 30
0.0
 10
214.167343
 20
225.854502
 30
0.0
  0
SPLINE
  5
11e
100
AcDbEntity
  8
0
 62
5
100
AcDbSpline
 70
8
 71
3
 72
8
 73
4
 74
0
 40
0
 40
0
 40
0
 40
0
 40
1
 40
1
 40
1
 40
1
 10
214.167343
 20
225.854502
 30
0.0
 10
215.250247
 20
225.229287
 30
0.0
 10
216.584440
 20
225.229287
 30
0.0
 10
217.667344
 20
225.854502
 30
0.0
  0
SPLINE
  5
11f
100
AcDbEntity
  8
0
 62
5
100
AcDbSpline
 70
8
 71
3
 72
8
 73
4
 74
0
 40
0
 40
0
 40
0
 40
0
 40
1
 40
1
 40
1
 40
1
 10
217.667344
 20
225.854502
 30
0.0
 10
218.750248
 20
226.479717
 30
0.0
 10
219.417344
 20
227.635162
 30
0.0
 10
219.417344
 20
228.885592
 30
0.0
  0
LWPOLYLINE
  5
120
100
AcDbEntity
  8
0
 62
5
100
AcDbPolyline
 90
1
 70
1
 10
191.917346
 20
228.885592
 30
0.0
  0
SPLINE
  5
121
100
AcDbEntity
  8
0
 62
5
100
AcDbSpline
 70
8
 71
3
 72
8
 73
4
 74
0
 40
0
 40
0
 40
0
 40
0
 40
1
 40
1
 40
1
 40
1
 10
246.917342
 20
271.385588
 30
0.0
 10
246.920681
 20
272.638235
 30
0.0
 10
246.254319
 20
273.797161
 30
0.0
 10
245.170047
 20
274.424450
 30
0.0
  0
SPLINE
  5
122
100
AcDbEntity
  8
0
 62
5
100
AcDbSpline
 70
8
 71
3
 72
8
 73
4
 74
0
 40
0
 40
0
 40
0
 40
0
 40
1
 40
1
 40
1
 40
1
 10
245.170047
 20
274.424450
 30
0.0
 10
244.085776
 20
275.051740
 30
0.0
 10
242.748933
 20
275.051740
 30
0.0
 10
241.664662
 20
274.424450
 30
0.0
  0
SPLINE
  5
123
100
AcDbEntity
  8
0
 62
5
100
AcDbSpline
 70
8
 71
3
 72
8
 73
4
 74
0
 40
0
 40
0
 40
0
 40
0
 40
1
 40
1
 40
1
 40
1
 10
241.664662
 20
274.424450
 30
0.0
 10
240.580390
 20
273.797161
 30
0.0
 10
239.914028
 20
272.638235
 30
0.0
 10
239.917367
 20
271.385588
 30
0.0
  0
SPLINE
  5
124
100
AcDbEntity
  8
0
 62
5
100
AcDbSpline
 70
8
 71
3
 72
8
 73
4
 74
0
 40
0
 40
0
 40
0
 40
0
 40
1
 40
1
 40
1
 40
1
 10
239.917367
 20
271.385588
 30
0.0
 10
239.914028
 20
270.132940
 30
0.0
 10
240.580390
 20
268.974015
 30
0.0
 10
241.664662
 20
268.346725
 30
0.0
  0
SPLINE
  5
125
100
AcDbEntity
  8
0
 62
5
100
AcDbSpline
 70
8
 71
3
 72
8
 73
4
 74
0
 40
0
 40
0
 40
0
 40
0
 40
1
 40
1
 40
1
 40
1
 10
241.664662
 20
268.346725
 30
0.0
 10
242.748933
 20
267.719435
 30
0.0
 10
244.085776
 20
267.719435
 30
0.0
 10
245.170047
 20
268.346725
 30
0.0
  0
SPLINE
  5
126
100
AcDbEntity
  8
0
 62
5
100
AcDbSpline
 70
8
 71
3
 72
8
 73
4
 74
0
 40
0
 40
0
 40
0
 40
0
 40
1
 40
1
 40
1
 40
1
 10
245.170047
 20
268.346725
 30
0.0
 10
246.254319
 20
268.974015
 30
0.0
 10
246.920681
 20
270.132940
 30
0.0
 10
246.917342
 20
271.385588
 30
0.0
  0
LWPOLYLINE
  5
127
100
AcDbEntity
  8
0
 62
5
100
AcDbPolyline
 90
1
 70
1
 10
219.417344
 20
228.885592
 30
0.0
  0
SPLINE
  5
128
100
AcDbEntity
  8
0
 62
5
100
AcDbSpline
 70
8
 71
3
 72
8
 73
4
 74
0
 40
0
 40
0
 40
0
 40
0
 40
1
 40
1
 40
1
 40
1
 10
219.417344
 20
313.885582
 30
0.0
 10
219.417344
 20
315.136012
 30
0.0
 10
218.750248
 20
316.291457
 30
0.0
 10
217.667344
 20
316.916672
 30
0.0
  0
SPLINE
  5
129
100
AcDbEntity
  8
0
 62
5
100
AcDbSpline
 70
8
 71
3
 72
8
 73
4
 74
0
 40
0
 40
0
 40
0
 40
0
 40
1
 40
1
 40
1
 40
1
 10
217.667344
 20
316.916672
 30
0.0
 10
216.584440
 20
317.541887
 30
0.0
 10
215.250247
 20
317.541887
 30
0.0
 10
214.167343
 20
316.916672
 30
0.0
  0
SPLINE
  5
12a
100
AcDbEntity
  8
0
 62
5
100
AcDbSpline
 70
8
 71
3
 72
8
 73
4
 74
0
 40
0
 40
0
 40
0
 40
0
 40
1
 40
1
 40
1
 40
1
 10
214.167343
 20
316.916672
 30
0.0
 10
213.084439
 20
316.291457
 30
0.0
 10
212.417342
 20
315.136012
 30
0.0
 10
212.417343
 20
313.885582
 30
0.0
  0
SPLINE
  5
12b
100
AcDbEntity
  8
0
 62
5
100
AcDbSpline
 70
8
 71
3
 72
8
 73
4
 74
0
 40
0
 40
0
 40
0
 40
0
 40
1
 40
1
 40
1
 40
1
 10
212.417343
 20
313.885582
 30
0.0
 10
212.417342
 20
312.635152
 30
0.0
 10
213.084439
 20
311.479707
 30
0.0
 10
214.167343
 20
310.854492
 30
0.0
  0
SPLINE
  5
12c
100
AcDbEntity
  8
0
 62
5
100
AcDbSpline
 70
8
 71
3
 72
8
 73
4
 74
0
 40
0
 40
0
 40
0
 40
0
 40
1
 40
1
 40
1
 40
1
 10
214.167343
 20
310.854492
 30
0.0
 10
215.250247
 20
310.229277
 30
0.0
 10
216.584440
 20
310.229277
 30
0.0
 10
217.667344
 20
310.854492
 30
0.0
  0
SPLINE
  5
12d
100
AcDbEntity
  8
0
 62
5
100
AcDbSpline
 70
8
 71
3
 72
8
 73
4
 74
0
 40
0
 40
0
 40
0
 40
0
 40
1
 40
1
 40
1
 40
1
 10
217.667344
 20
310.854492
 30
0.0
 10
218.750248
 20
311.479707
 30
0.0
 10
219.417344
 20
312.635152
 30
0.0
 10
219.417344
 20
313.885582
 30
0.0
  0
LWPOLYLINE
  5
12e
100
AcDbEntity
  8
0
 62
5
100
AcDbPolyline
 90
1
 70
1
 10
246.917342
 20
271.385588
 30
0.0
  0
SPLINE
  5
12f
100
AcDbEntity
  8
0
 62
5
100
AcDbSpline
 70
8
 71
3
 72
8
 73
4
 74
0
 40
0
 40
0
 40
0
 40
0
 40
1
 40
1
 40
1
 40
1
 10
191.917346
 20
271.385588
 30
0.0
 10
191.917346
 20
272.636018
 30
0.0
 10
191.250250
 20
273.791462
 30
0.0
 10
190.167346
 20
274.416677
 30
0.0
  0
SPLINE
  5
130
100
AcDbEntity
  8
0
 62
5
100
AcDbSpline
 70
8
 71
3
 72
8
 73
4
 74
0
 40
0
 40
0
 40
0
 40
0
 40
1
 40
1
 40
1
 40
1
 10
190.167346
 20
274.416677
 30
0.0
 10
189.084442
 20
275.041892
 30
0.0
 10
187.750249
 20
275.041892
 30
0.0
 10
186.667345
 20
274.416677
 30
0.0
  0
SPLINE
  5
131
100
AcDbEntity
  8
0
 62
5
100
AcDbSpline
 70
8
 71
3
 72
8
 73
4
 74
0
 40
0
 40
0
 40
0
 40
0
 40
1
 40
1
 40
1
 40
1
 10
186.667345
 20
274.416677
 30
0.0
 10
185.584441
 20
273.791462
 30
0.0
 10
184.917345
 20
272.636018
 30
0.0
 10
184.917345
 20
271.385588
 30
0.0
  0
SPLINE
  5
132
100
AcDbEntity
  8
0
 62
5
100
AcDbSpline
 70
8
 71
3
 72
8
 73
4
 74
0
 40
0
 40
0
 40
0
 40
0
 40
1
 40
1
 40
1
 40
1
 10
184.917345
 20
271.385588
 30
0.0
 10
184.917345
 20
270.135158
 30
0.0
 10
185.584441
 20
268.979713
 30
0.0
 10
186.667345
 20
268.354498
 30
0.0
  0
SPLINE
  5
133
100
AcDbEntity
  8
0
 62
5
100
AcDbSpline
 70
8
 71
3
 72
8
 73
4
 74
0
 40
0
 40
0
 40
0
 40
0
 40
1
 40
1
 40
1
 40
1
 10
186.667345
 20
268.354498
 30
0.0
 10
187.750249
 20
267.729283
 30
0.0
 10
189.084442
 20
267.729283
 30
0.0
 10
190.167346
 20
268.354498
 30
0.0
  0
SPLINE
  5
134
100
AcDbEntity
  8
0
 62
5
100
AcDbSpline
 70
8
 71
3
 72
8
 73
4
 74
0
 40
0
 40
0
 40
0
 40
0
 40
1
 40
1
 40
1
 40
1
 10
190.167346
 20
268.354498
 30
0.0
 10
191.250250
 20
268.979713
 30
0.0
 10
191.917346
 20
270.135158
 30
0.0
 10
191.917346
 20
271.385588
 30
0.0
  0
LWPOLYLINE
  5
135
100
AcDbEntity
  8
0
 62
5
100
AcDbPolyline
 90
1
 70
1
 10
219.417344
 20
313.885582
 30
0.0
  0
SPLINE
  5
136
100
AcDbEntity
  8
0
 62
5
100
AcDbSpline
 70
8
 71
3
 72
8
 73
4
 74
0
 40
0
 40
0
 40
0
 40
0
 40
1
 40
1
 40
1
 40
1
 10
246.917342
 20
228.885592
 30
0.0
 10
246.920681
 20
230.138240
 30
0.0
 10
246.254319
 20
231.297165
 30
0.0
 10
245.170047
 20
231.924455
 30
0.0
  0
SPLINE
  5
137
100
AcDbEntity
  8
0
 62
5
100
AcDbSpline
 70
8
 71
3
 72
8
 73
4
 74
0
 40
0
 40
0
 40
0
 40
0
 40
1
 40
1
 40
1
 40
1
 10
245.170047
 20
231.924455
 30
0.0
 10
244.085776
 20
232.551745
 30
0.0
 10
242.748933
 20
232.551745
 30
0.0
 10
241.664662
 20
231.924455
 30
0.0
  0
SPLINE
  5
138
100
AcDbEntity
  8
0
 62
5
100
AcDbSpline
 70
8
 71
3
 72
8
 73
4
 74
0
 40
0
 40
0
 40
0
 40
0
 40
1
 40
1
 40
1
 40
1
 10
241.664662
 20
231.924455
 30
0.0
 10
240.580390
 20
231.297165
 30
0.0
 10
239.914028
 20
230.138240
 30
0.0
 10
239.917367
 20
228.885592
 30
0.0
  0
SPLINE
  5
139
100
AcDbEntity
  8
0
 62
5
100
AcDbSpline
 70
8
 71
3
 72
8
 73
4
 74
0
 40
0
 40
0
 40
0
 40
0
 40
1
 40
1
 40
1
 40
1
 10
239.917367
 20
228.885592
 30
0.0
 10
239.914028
 20
227.632945
 30
0.0
 10
240.580390
 20
226.474019
 30
0.0
 10
241.664662
 20
225.846729
 30
0.0
  0
SPLINE
  5
13a
100
AcDbEntity
  8
0
 62
5
100
AcDbSpline
 70
8
 71
3
 72
8
 73
4
 74
0
 40
0
 40
0
 40
0
 40
0
 40
1
 40
1
 40
1
 40
1
 10
241.664662
 20
225.846729
 30
0.0
 10
242.748933
 20
225.219440
 30
0.0
 10
244.085776
 20
225.219440
 30
0.0
 10
245.170047
 20
225.846729
 30
0.0
  0
SPLINE
  5
13b
100
AcDbEntity
  8
0
 62
5
100
AcDbSpline
 70
8
 71
3
 72
8
 73
4
 74
0
 40
0
 40
0
 40
0
 40
0
 40
1
 40
1
 40
1
 40
1
 10
245.170047
 20
225.846729
 30
0.0
 10
246.254319
 20
226.474019
 30
0.0
 10
246.920681
 20
227.632945
 30
0.0
 10
246.917342
 20
228.885592
 30
0.0
  0
LWPOLYLINE
  5
13c
100
AcDbEntity
  8
0
 62
5
100
AcDbPolyline
 90
1
 70
1
 10
191.917346
 20
271.385588
 30
0.0
  0
SPLINE
  5
13d
100
AcDbEntity
  8
0
 62
5
100
AcDbSpline
 70
8
 71
3
 72
8
 73
4
 74
0
 40
0
 40
0
 40
0
 40
0
 40
1
 40
1
 40
1
 40
1
 10
219.417344
 20
271.385588
 30
0.0
 10
219.417344
 20
272.636018
 30
0.0
 10
218.750248
 20
273.791463
 30
0.0
 10
217.667344
 20
274.416678
 30
0.0
  0
SPLINE
  5
13e
100
AcDbEntity
  8
0
 62
5
100
AcDbSpline
 70
8
 71
3
 72
8
 73
4
 74
0
 40
0
 40
0
 40
0
 40
0
 40
1
 40
1
 40
1
 40
1
 10
217.667344
 20
274.416678
 30
0.0
 10
216.584440
 20
275.041893
 30
0.0
 10
215.250247
 20
275.041893
 30
0.0
 10
214.167343
 20
274.416678
 30
0.0
  0
SPLINE
  5
13f
100
AcDbEntity
  8
0
 62
5
100
AcDbSpline
 70
8
 71
3
 72
8
 73
4
 74
0
 40
0
 40
0
 40
0
 40
0
 40
1
 40
1
 40
1
 40
1
 10
214.167343
 20
274.416678
 30
0.0
 10
213.084439
 20
273.791463
 30
0.0
 10
212.417342
 20
272.636018
 30
0.0
 10
212.417343
 20
271.385588
 30
0.0
  0
SPLINE
  5
140
100
AcDbEntity
  8
0
 62
5
100
AcDbSpline
 70
8
 71
3
 72
8
 73
4
 74
0
 40
0
 40
0
 40
0
 40
0
 40
1
 40
1
 40
1
 40
1
 10
212.417343
 20
271.385588
 30
0.0
 10
212.417342
 20
270.135158
 30
0.0
 10
213.084439
 20
268.979713
 30
0.0
 10
214.167343
 20
268.354498
 30
0.0
  0
SPLINE
  5
141
100
AcDbEntity
  8
0
 62
5
100
AcDbSpline
 70
8
 71
3
 72
8
 73
4
 74
0
 40
0
 40
0
 40
0
 40
0
 40
1
 40
1
 40
1
 40
1
 10
214.167343
 20
268.354498
 30
0.0
 10
215.250247
 20
267.729283
 30
0.0
 10
216.584440
 20
267.729283
 30
0.0
 10
217.667344
 20
268.354498
 30
0.0
  0
SPLINE
  5
142
100
AcDbEntity
  8
0
 62
5
100
AcDbSpline
 70
8
 71
3
 72
8
 73
4
 74
0
 40
0
 40
0
 40
0
 40
0
 40
1
 40
1
 40
1
 40
1
 10
217.667344
 20
268.354498
 30
0.0
 10
218.750248
 20
268.979713
 30
0.0
 10
219.417344
 20
270.135158
 30
0.0
 10
219.417344
 20
271.385588
 30
0.0
  0
LWPOLYLINE
  5
143
100
AcDbEntity
  8
0
 62
5
100
AcDbPolyline
 90
1
 70
1
 10
246.917342
 20
228.885592
 30
0.0
  0
SPLINE
  5
144
100
AcDbEntity
  8
0
 62
5
100
AcDbSpline
 70
8
 71
3
 72
8
 73
4
 74
0
 40
0
 40
0
 40
0
 40
0
 40
1
 40
1
 40
1
 40
1
 10
191.917346
 20
313.885582
 30
0.0
 10
191.917346
 20
315.136012
 30
0.0
 10
191.250250
 20
316.291457
 30
0.0
 10
190.167346
 20
316.916672
 30
0.0
  0
SPLINE
  5
145
100
AcDbEntity
  8
0
 62
5
100
AcDbSpline
 70
8
 71
3
 72
8
 73
4
 74
0
 40
0
 40
0
 40
0
 40
0
 40
1
 40
1
 40
1
 40
1
 10
190.167346
 20
316.916672
 30
0.0
 10
189.084442
 20
317.541887
 30
0.0
 10
187.750249
 20
317.541887
 30
0.0
 10
186.667345
 20
316.916672
 30
0.0
  0
SPLINE
  5
146
100
AcDbEntity
  8
0
 62
5
100
AcDbSpline
 70
8
 71
3
 72
8
 73
4
 74
0
 40
0
 40
0
 40
0
 40
0
 40
1
 40
1
 40
1
 40
1
 10
186.667345
 20
316.916672
 30
0.0
 10
185.584441
 20
316.291457
 30
0.0
 10
184.917345
 20
315.136012
 30
0.0
 10
184.917345
 20
313.885582
 30
0.0
  0
SPLINE
  5
147
100
AcDbEntity
  8
0
 62
5
100
AcDbSpline
 70
8
 71
3
 72
8
 73
4
 74
0
 40
0
 40
0
 40
0
 40
0
 40
1
 40
1
 40
1
 40
1
 10
184.917345
 20
313.885582
 30
0.0
 10
184.917345
 20
312.635152
 30
0.0
 10
185.584441
 20
311.479707
 30
0.0
 10
186.667345
 20
310.854492
 30
0.0
  0
SPLINE
  5
148
100
AcDbEntity
  8
0
 62
5
100
AcDbSpline
 70
8
 71
3
 72
8
 73
4
 74
0
 40
0
 40
0
 40
0
 40
0
 40
1
 40
1
 40
1
 40
1
 10
186.667345
 20
310.854492
 30
0.0
 10
187.750249
 20
310.229277
 30
0.0
 10
189.084442
 20
310.229277
 30
0.0
 10
190.167346
 20
310.854492
 30
0.0
  0
SPLINE
  5
149
100
AcDbEntity
  8
0
 62
5
100
AcDbSpline
 70
8
 71
3
 72
8
 73
4
 74
0
 40
0
 40
0
 40
0
 40
0
 40
1
 40
1
 40
1
 40
1
 10
190.167346
 20
310.854492
 30
0.0
 10
191.250250
 20
311.479707
 30
0.0
 10
191.917346
 20
312.635152
 30
0.0
 10
191.917346
 20
313.885582
 30
0.0
  0
LWPOLYLINE
  5
14a
100
AcDbEntity
  8
0
 62
5
100
AcDbPolyline
 90
1
 70
1
 10
219.417344
 20
271.385588
 30
0.0
  0
SPLINE
  5
14b
100
AcDbEntity
  8
0
 62
5
100
AcDbSpline
 70
8
 71
3
 72
8
 73
4
 74
0
 40
0
 40
0
 40
0
 40
0
 40
1
 40
1
 40
1
 40
1
 10
313.292358
 20
297.091578
 30
0.0
 10
313.292358
 20
299.949706
 30
0.0
 10
311.767565
 20
302.590725
 30
0.0
 10
309.292354
 20
304.019788
 30
0.0
  0
SPLINE
  5
14c
100
AcDbEntity
  8
0
 62
5
100
AcDbSpline
 70
8
 71
3
 72
8
 73
4
 74
0
 40
0
 40
0
 40
0
 40
0
 40
1
 40
1
 40
1
 40
1
 10
309.292354
 20
304.019788
 30
0.0
 10
306.817143
 20
305.448852
 30
0.0
 10
303.767557
 20
305.448852
 30
0.0
 10
301.292346
 20
304.019788
 30
0.0
  0
SPLINE
  5
14d
100
AcDbEntity
  8
0
 62
5
100
AcDbSpline
 70
8
 71
3
 72
8
 73
4
 74
0
 40
0
 40
0
 40
0
 40
0
 40
1
 40
1
 40
1
 40
1
 10
301.292346
 20
304.019788
 30
0.0
 10
298.817135
 20
302.590725
 30
0.0
 10
297.292342
 20
299.949706
 30
0.0
 10
297.292342
 20
297.091578
 30
0.0
  0
SPLINE
  5
14e
100
AcDbEntity
  8
0
 62
5
100
AcDbSpline
 70
8
 71
3
 72
8
 73
4
 74
0
 40
0
 40
0
 40
0
 40
0
 40
1
 40
1
 40
1
 40
1
 10
297.292342
 20
297.091578
 30
0.0
 10
297.292342
 20
294.233451
 30
0.0
 10
298.817135
 20
291.592432
 30
0.0
 10
301.292346
 20
290.163368
 30
0.0
  0
SPLINE
  5
14f
100
AcDbEntity
  8
0
 62
5
100
AcDbSpline
 70
8
 71
3
 72
8
 73
4
 74
0
 40
0
 40
0
 40
0
 40
0
 40
1
 40
1
 40
1
 40
1
 10
301.292346
 20
290.163368
 30
0.0
 10
303.767557
 20
288.734305
 30
0.0
 10
306.817143
 20
288.734305
 30
0.0
 10
309.292354
 20
290.163368
 30
0.0
  0
SPLINE
  5
150
100
AcDbEntity
  8
0
 62
5
100
AcDbSpline
 70
8
 71
3
 72
8
 73
4
 74
0
 40
0
 40
0
 40
0
 40
0
 40
1
 40
1
 40
1
 40
1
 10
309.292354
 20
290.163368
 30
0.0
 10
311.767565
 20
291.592432
 30
0.0
 10
313.292358
 20
294.233451
 30
0.0
 10
313.292358
 20
297.091578
 30
0.0
  0
LWPOLYLINE
  5
151
100
AcDbEntity
  8
0
 62
5
100
AcDbPolyline
 90
1
 70
1
 10
191.917346
 20
313.885582
 30
0.0
  0
LWPOLYLINE
  5
152
100
AcDbEntity
  8
0
 62
5
100
AcDbPolyline
 90
1
 70
1
 10
313.292358
 20
297.091578
 30
0.0
  0
SPLINE
  5
153
100
AcDbEntity
  8
0
 62
5
100
AcDbSpline
 70
8
 71
3
 72
8
 73
4
 74
0
 40
0
 40
0
 40
0
 40
0
 40
1
 40
1
 40
1
 40
1
 10
314.162361
 20
279.005588
 30
0.0
 10
314.163257
 20
279.452766
 30
0.0
 10
313.925206
 20
279.866360
 30
0.0
 10
313.538087
 20
280.090208
 30
0.0
  0
SPLINE
  5
154
100
AcDbEntity
  8
0
 62
5
100
AcDbSpline
 70
8
 71
3
 72
8
 73
4
 74
0
 40
0
 40
0
 40
0
 40
0
 40
1
 40
1
 40
1
 40
1
 10
313.538087
 20
280.090208
 30
0.0
 10
313.150968
 20
280.314057
 30
0.0
 10
312.673759
 20
280.314057
 30
0.0
 10
312.286640
 20
280.090208
 30
0.0
  0
SPLINE
  5
155
100
AcDbEntity
  8
0
 62
5
100
AcDbSpline
 70
8
 71
3
 72
8
 73
4
 74
0
 40
0
 40
0
 40
0
 40
0
 40
1
 40
1
 40
1
 40
1
 10
312.286640
 20
280.090208
 30
0.0
 10
311.899521
 20
279.866360
 30
0.0
 10
311.661469
 20
279.452766
 30
0.0
 10
311.662366
 20
279.005588
 30
0.0
  0
SPLINE
  5
156
100
AcDbEntity
  8
0
 62
5
100
AcDbSpline
 70
8
 71
3
 72
8
 73
4
 74
0
 40
0
 40
0
 40
0
 40
0
 40
1
 40
1
 40
1
 40
1
 10
311.662366
 20
279.005588
 30
0.0
 10
311.661469
 20
278.558409
 30
0.0
 10
311.899521
 20
278.144816
 30
0.0
 10
312.286640
 20
277.920967
 30
0.0
  0
SPLINE
  5
157
100
AcDbEntity
  8
0
 62
5
100
AcDbSpline
 70
8
 71
3
 72
8
 73
4
 74
0
 40
0
 40
0
 40
0
 40
0
 40
1
 40
1
 40
1
 40
1
 10
312.286640
 20
277.920967
 30
0.0
 10
312.673759
 20
277.697119
 30
0.0
 10
313.150968
 20
277.697119
 30
0.0
 10
313.538087
 20
277.920967
 30
0.0
  0
SPLINE
  5
158
100
AcDbEntity
  8
0
 62
5
100
AcDbSpline
 70
8
 71
3
 72
8
 73
4
 74
0
 40
0
 40
0
 40
0
 40
0
 40
1
 40
1
 40
1
 40
1
 10
313.538087
 20
277.920967
 30
0.0
 10
313.925206
 20
278.144816
 30
0.0
 10
314.163257
 20
278.558409
 30
0.0
 10
314.162361
 20
279.005588
 30
0.0
  0
LWPOLYLINE
  5
159
100
AcDbEntity
  8
0
 62
5
100
AcDbPolyline
 90
4
 70
1
 10
295.661980
 20
277.091592
 30
0.0
 10
295.661980
 20
265.679582
 30
0.0
 10
314.922747
 20
265.679582
 30
0.0
 10
314.922747
 20
277.091592
 30
0.0
  0
SPLINE
  5
15a
100
AcDbEntity
  8
0
 62
5
100
AcDbSpline
 70
8
 71
3
 72
8
 73
4
 74
0
 40
0
 40
0
 40
0
 40
0
 40
1
 40
1
 40
1
 40
1
 10
298.922361
 20
279.005588
 30
0.0
 10
298.923257
 20
279.452766
 30
0.0
 10
298.685206
 20
279.866360
 30
0.0
 10
298.298087
 20
280.090208
 30
0.0
  0
SPLINE
  5
15b
100
AcDbEntity
  8
0
 62
5
100
AcDbSpline
 70
8
 71
3
 72
8
 73
4
 74
0
 40
0
 40
0
 40
0
 40
0
 40
1
 40
1
 40
1
 40
1
 10
298.298087
 20
280.090208
 30
0.0
 10
297.910968
 20
280.314057
 30
0.0
 10
297.433759
 20
280.314057
 30
0.0
 10
297.046640
 20
280.090208
 30
0.0
  0
SPLINE
  5
15c
100
AcDbEntity
  8
0
 62
5
100
AcDbSpline
 70
8
 71
3
 72
8
 73
4
 74
0
 40
0
 40
0
 40
0
 40
0
 40
1
 40
1
 40
1
 40
1
 10
297.046640
 20
280.090208
 30
0.0
 10
296.659521
 20
279.866360
 30
0.0
 10
296.421469
 20
279.452766
 30
0.0
 10
296.422366
 20
279.005588
 30
0.0
  0
SPLINE
  5
15d
100
AcDbEntity
  8
0
 62
5
100
AcDbSpline
 70
8
 71
3
 72
8
 73
4
 74
0
 40
0
 40
0
 40
0
 40
0
 40
1
 40
1
 40
1
 40
1
 10
296.422366
 20
279.005588
 30
0.0
 10
296.421469
 20
278.558409
 30
0.0
 10
296.659521
 20
278.144816
 30
0.0
 10
297.046640
 20
277.920967
 30
0.0
  0
SPLINE
  5
15e
100
AcDbEntity
  8
0
 62
5
100
AcDbSpline
 70
8
 71
3
 72
8
 73
4
 74
0
 40
0
 40
0
 40
0
 40
0
 40
1
 40
1
 40
1
 40
1
 10
297.046640
 20
277.920967
 30
0.0
 10
297.433759
 20
277.697119
 30
0.0
 10
297.910968
 20
277.697119
 30
0.0
 10
298.298087
 20
277.920967
 30
0.0
  0
SPLINE
  5
15f
100
AcDbEntity
  8
0
 62
5
100
AcDbSpline
 70
8
 71
3
 72
8
 73
4
 74
0
 40
0
 40
0
 40
0
 40
0
 40
1
 40
1
 40
1
 40
1
 10
298.298087
 20
277.920967
 30
0.0
 10
298.685206
 20
278.144816
 30
0.0
 10
298.923257
 20
278.558409
 30
0.0
 10
298.922361
 20
279.005588
 30
0.0
  0
LWPOLYLINE
  5
160
100
AcDbEntity
  8
0
 62
5
100
AcDbPolyline
 90
1
 70
1
 10
314.162361
 20
279.005588
 30
0.0
  0
LWPOLYLINE
  5
161
100
AcDbEntity
  8
0
 62
5
100
AcDbPolyline
 90
1
 70
1
 10
298.922361
 20
279.005588
 30
0.0
  0
SPLINE
  5
162
100
AcDbEntity
  8
0
 62
5
100
AcDbSpline
 70
8
 71
3
 72
8
 73
4
 74
0
 40
0
 40
0
 40
0
 40
0
 40
1
 40
1
 40
1
 40
1
 10
494.662328
 20
268.885592
 30
0.0
 10
495.766897
 20
268.885585
 30
0.0
 10
496.662332
 20
269.781009
 30
0.0
 10
496.662340
 20
270.885578
 30
0.0
  0
SPLINE
  5
163
100
AcDbEntity
  8
0
 62
5
100
AcDbSpline
 70
8
 71
3
 72
8
 73
4
 74
0
 40
0
 40
0
 40
0
 40
0
 40
1
 40
1
 40
1
 40
1
 10
496.662340
 20
270.885578
 30
0.0
 10
496.662340
 20
270.885578
 30
0.0
 10
496.662340
 20
271.885597
 30
0.0
 10
496.662340
 20
271.885597
 30
0.0
  0
SPLINE
  5
164
100
AcDbEntity
  8
0
 62
5
100
AcDbSpline
 70
8
 71
3
 72
8
 73
4
 74
0
 40
0
 40
0
 40
0
 40
0
 40
1
 40
1
 40
1
 40
1
 10
496.662340
 20
271.885597
 30
0.0
 10
496.662332
 20
272.990166
 30
0.0
 10
495.766896
 20
273.885589
 30
0.0
 10
494.662328
 20
273.885583
 30
0.0
  0
SPLINE
  5
165
100
AcDbEntity
  8
0
 62
5
100
AcDbSpline
 70
8
 71
3
 72
8
 73
4
 74
0
 40
0
 40
0
 40
0
 40
0
 40
1
 40
1
 40
1
 40
1
 10
494.662328
 20
273.885583
 30
0.0
 10
494.662328
 20
273.885583
 30
0.0
 10
398.662340
 20
273.885583
 30
0.0
 10
398.662340
 20
273.885583
 30
0.0
  0
SPLINE
  5
166
100
AcDbEntity
  8
0
 62
5
100
AcDbSpline
 70
8
 71
3
 72
8
 73
4
 74
0
 40
0
 40
0
 40
0
 40
0
 40
1
 40
1
 40
1
 40
1
 10
398.662340
 20
273.885583
 30
0.0
 10
397.557771
 20
273.885589
 30
0.0
 10
396.662336
 20
272.990166
 30
0.0
 10
396.662328
 20
271.885597
 30
0.0
  0
SPLINE
  5
167
100
AcDbEntity
  8
0
 62
5
100
AcDbSpline
 70
8
 71
3
 72
8
 73
4
 74
0
 40
0
 40
0
 40
0
 40
0
 40
1
 40
1
 40
1
 40
1
 10
396.662328
 20
271.885597
 30
0.0
 10
396.662328
 20
271.885597
 30
0.0
 10
396.662328
 20
270.885578
 30
0.0
 10
396.662328
 20
270.885578
 30
0.0
  0
SPLINE
  5
168
100
AcDbEntity
  8
0
 62
5
100
AcDbSpline
 70
8
 71
3
 72
8
 73
4
 74
0
 40
0
 40
0
 40
0
 40
0
 40
1
 40
1
 40
1
 40
1
 10
396.662328
 20
270.885578
 30
0.0
 10
396.662335
 20
269.781009
 30
0.0
 10
397.557771
 20
268.885585
 30
0.0
 10
398.662340
 20
268.885592
 30
0.0
  0
LWPOLYLINE
  5
169
100
AcDbEntity
  8
0
 62
5
100
AcDbPolyline
 90
2
 70
0
 10
398.662340
 20
268.885592
 30
0.0
 10
494.662328
 20
268.885592
 30
0.0
  0
LWPOLYLINE
  5
16a
100
AcDbEntity
  8
0
 62
5
100
AcDbPolyline
 90
1
 70
1
 10
398.662340
 20
268.885592
 30
0.0
  0
SPLINE
  5
16b
100
AcDbEntity
  8
0
 62
5
100
AcDbSpline
 70
8
 71
3
 72
8
 73
4
 74
0
 40
0
 40
0
 40
0
 40
0
 40
1
 40
1
 40
1
 40
1
 10
357.662321
 20
222.633488
 30
0.0
 10
358.192758
 20
222.633485
 30
0.0
 10
358.701471
 20
222.844199
 30
0.0
 10
359.076547
 20
223.219274
 30
0.0
  0
SPLINE
  5
16c
100
AcDbEntity
  8
0
 62
5
100
AcDbSpline
 70
8
 71
3
 72
8
 73
4
 74
0
 40
0
 40
0
 40
0
 40
0
 40
1
 40
1
 40
1
 40
1
 10
359.076547
 20
223.219274
 30
0.0
 10
359.451622
 20
223.594350
 30
0.0
 10
359.662336
 20
224.103063
 30
0.0
 10
359.662333
 20
224.633500
 30
0.0
  0
SPLINE
  5
16d
100
AcDbEntity
  8
0
 62
5
100
AcDbSpline
 70
8
 71
3
 72
8
 73
4
 74
0
 40
0
 40
0
 40
0
 40
0
 40
1
 40
1
 40
1
 40
1
 10
359.662333
 20
224.633500
 30
0.0
 10
359.662333
 20
224.633500
 30
0.0
 10
359.662333
 20
320.633489
 30
0.0
 10
359.662333
 20
320.633489
 30
0.0
  0
SPLINE
  5
16e
100
AcDbEntity
  8
0
 62
5
100
AcDbSpline
 70
8
 71
3
 72
8
 73
4
 74
0
 40
0
 40
0
 40
0
 40
0
 40
1
 40
1
 40
1
 40
1
 10
359.662333
 20
320.633489
 30
0.0
 10
359.662336
 20
321.163926
 30
0.0
 10
359.451622
 20
321.672639
 30
0.0
 10
359.076547
 20
322.047714
 30
0.0
  0
SPLINE
  5
16f
100
AcDbEntity
  8
0
 62
5
100
AcDbSpline
 70
8
 71
3
 72
8
 73
4
 74
0
 40
0
 40
0
 40
0
 40
0
 40
1
 40
1
 40
1
 40
1
 10
359.076547
 20
322.047714
 30
0.0
 10
358.701471
 20
322.422790
 30
0.0
 10
358.192758
 20
322.633504
 30
0.0
 10
357.662321
 20
322.633501
 30
0.0
  0
LWPOLYLINE
  5
170
100
AcDbEntity
  8
0
 62
5
100
AcDbPolyline
 90
2
 70
0
 10
356.662329
 20
222.633488
 30
0.0
 10
357.662321
 20
222.633488
 30
0.0
  0
SPLINE
  5
171
100
AcDbEntity
  8
0
 62
5
100
AcDbSpline
 70
8
 71
3
 72
8
 73
4
 74
0
 40
0
 40
0
 40
0
 40
0
 40
1
 40
1
 40
1
 40
1
 10
356.662329
 20
322.633501
 30
0.0
 10
355.557760
 20
322.633493
 30
0.0
 10
354.662337
 20
321.738057
 30
0.0
 10
354.662343
 20
320.633489
 30
0.0
  0
SPLINE
  5
172
100
AcDbEntity
  8
0
 62
5
100
AcDbSpline
 70
8
 71
3
 72
8
 73
4
 74
0
 40
0
 40
0
 40
0
 40
0
 40
1
 40
1
 40
1
 40
1
 10
354.662343
 20
320.633489
 30
0.0
 10
354.662343
 20
320.633489
 30
0.0
 10
354.662343
 20
224.633500
 30
0.0
 10
354.662343
 20
224.633500
 30
0.0
  0
SPLINE
  5
173
100
AcDbEntity
  8
0
 62
5
100
AcDbSpline
 70
8
 71
3
 72
8
 73
4
 74
0
 40
0
 40
0
 40
0
 40
0
 40
1
 40
1
 40
1
 40
1
 10
354.662343
 20
224.633500
 30
0.0
 10
354.662337
 20
223.528931
 30
0.0
 10
355.557760
 20
222.633496
 30
0.0
 10
356.662329
 20
222.633488
 30
0.0
  0
LWPOLYLINE
  5
174
100
AcDbEntity
  8
0
 62
5
100
AcDbPolyline
 90
2
 70
0
 10
357.662321
 20
322.633501
 30
0.0
 10
356.662329
 20
322.633501
 30
0.0
  0
SPLINE
  5
175
100
AcDbEntity
  8
0
 62
5
100
AcDbSpline
 70
8
 71
3
 72
8
 73
4
 74
0
 40
0
 40
0
 40
0
 40
0
 40
1
 40
1
 40
1
 40
1
 10
572.292348
 20
271.385588
 30
0.0
 10
572.295719
 20
274.245956
 30
0.0
 10
570.771666
 20
276.890489
 30
0.0
 10
568.295075
 20
278.321648
 30
0.0
  0
SPLINE
  5
176
100
AcDbEntity
  8
0
 62
5
100
AcDbSpline
 70
8
 71
3
 72
8
 73
4
 74
0
 40
0
 40
0
 40
0
 40
0
 40
1
 40
1
 40
1
 40
1
 10
568.295075
 20
278.321648
 30
0.0
 10
565.818483
 20
279.752806
 30
0.0
 10
562.766223
 20
279.752806
 30
0.0
 10
560.289632
 20
278.321648
 30
0.0
  0
SPLINE
  5
177
100
AcDbEntity
  8
0
 62
5
100
AcDbSpline
 70
8
 71
3
 72
8
 73
4
 74
0
 40
0
 40
0
 40
0
 40
0
 40
1
 40
1
 40
1
 40
1
 10
560.289632
 20
278.321648
 30
0.0
 10
557.813040
 20
276.890489
 30
0.0
 10
556.288987
 20
274.245956
 30
0.0
 10
556.292359
 20
271.385588
 30
0.0
  0
SPLINE
  5
178
100
AcDbEntity
  8
0
 62
5
100
AcDbSpline
 70
8
 71
3
 72
8
 73
4
 74
0
 40
0
 40
0
 40
0
 40
0
 40
1
 40
1
 40
1
 40
1
 10
556.292359
 20
271.385588
 30
0.0
 10
556.288987
 20
268.525219
 30
0.0
 10
557.813040
 20
265.880686
 30
0.0
 10
560.289632
 20
264.449528
 30
0.0
  0
SPLINE
  5
179
100
AcDbEntity
  8
0
 62
5
100
AcDbSpline
 70
8
 71
3
 72
8
 73
4
 74
0
 40
0
 40
0
 40
0
 40
0
 40
1
 40
1
 40
1
 40
1
 10
560.289632
 20
264.449528
 30
0.0
 10
562.766223
 20
263.018369
 30
0.0
 10
565.818483
 20
263.018369
 30
0.0
 10
568.295075
 20
264.449528
 30
0.0
  0
SPLINE
  5
17a
100
AcDbEntity
  8
0
 62
5
100
AcDbSpline
 70
8
 71
3
 72
8
 73
4
 74
0
 40
0
 40
0
 40
0
 40
0
 40
1
 40
1
 40
1
 40
1
 10
568.295075
 20
264.449528
 30
0.0
 10
570.771666
 20
265.880686
 30
0.0
 10
572.295719
 20
268.525219
 30
0.0
 10
572.292348
 20
271.385588
 30
0.0
  0
LWPOLYLINE
  5
17b
100
AcDbEntity
  8
0
 62
5
100
AcDbPolyline
 90
1
 70
1
 10
356.662329
 20
222.633488
 30
0.0
  0
SPLINE
  5
17c
100
AcDbEntity
  8
0
 62
5
100
AcDbSpline
 70
8
 71
3
 72
8
 73
4
 74
0
 40
0
 40
0
 40
0
 40
0
 40
1
 40
1
 40
1
 40
1
 10
546.792354
 20
271.385588
 30
0.0
 10
546.792354
 20
274.243712
 30
0.0
 10
545.267563
 20
276.884729
 30
0.0
 10
542.792354
 20
278.313791
 30
0.0
  0
SPLINE
  5
17d
100
AcDbEntity
  8
0
 62
5
100
AcDbSpline
 70
8
 71
3
 72
8
 73
4
 74
0
 40
0
 40
0
 40
0
 40
0
 40
1
 40
1
 40
1
 40
1
 10
542.792354
 20
278.313791
 30
0.0
 10
540.317145
 20
279.742853
 30
0.0
 10
537.267562
 20
279.742853
 30
0.0
 10
534.792354
 20
278.313791
 30
0.0
  0
SPLINE
  5
17e
100
AcDbEntity
  8
0
 62
5
100
AcDbSpline
 70
8
 71
3
 72
8
 73
4
 74
0
 40
0
 40
0
 40
0
 40
0
 40
1
 40
1
 40
1
 40
1
 10
534.792354
 20
278.313791
 30
0.0
 10
532.317145
 20
276.884729
 30
0.0
 10
530.792354
 20
274.243712
 30
0.0
 10
530.792358
 20
271.385588
 30
0.0
  0
SPLINE
  5
17f
100
AcDbEntity
  8
0
 62
5
100
AcDbSpline
 70
8
 71
3
 72
8
 73
4
 74
0
 40
0
 40
0
 40
0
 40
0
 40
1
 40
1
 40
1
 40
1
 10
530.792358
 20
271.385588
 30
0.0
 10
530.792358
 20
268.527463
 30
0.0
 10
532.317149
 20
265.886447
 30
0.0
 10
534.792358
 20
264.457384
 30
0.0
  0
SPLINE
  5
180
100
AcDbEntity
  8
0
 62
5
100
AcDbSpline
 70
8
 71
3
 72
8
 73
4
 74
0
 40
0
 40
0
 40
0
 40
0
 40
1
 40
1
 40
1
 40
1
 10
534.792358
 20
264.457384
 30
0.0
 10
537.267566
 20
263.028322
 30
0.0
 10
540.317149
 20
263.028322
 30
0.0
 10
542.792358
 20
264.457384
 30
0.0
  0
SPLINE
  5
181
100
AcDbEntity
  8
0
 62
5
100
AcDbSpline
 70
8
 71
3
 72
8
 73
4
 74
0
 40
0
 40
0
 40
0
 40
0
 40
1
 40
1
 40
1
 40
1
 10
542.792358
 20
264.457384
 30
0.0
 10
545.267566
 20
265.886447
 30
0.0
 10
546.792358
 20
268.527463
 30
0.0
 10
546.792358
 20
271.385588
 30
0.0
  0
LWPOLYLINE
  5
182
100
AcDbEntity
  8
0
 62
5
100
AcDbPolyline
 90
1
 70
1
 10
572.292348
 20
271.385588
 30
0.0
  0
SPLINE
  5
183
100
AcDbEntity
  8
0
 62
5
100
AcDbSpline
 70
8
 71
3
 72
8
 73
4
 74
0
 40
0
 40
0
 40
0
 40
0
 40
1
 40
1
 40
1
 40
1
 10
79.792354
 20
271.385588
 30
0.0
 10
79.795725
 20
274.245956
 30
0.0
 10
78.271672
 20
276.890489
 30
0.0
 10
75.795081
 20
278.321648
 30
0.0
  0
SPLINE
  5
184
100
AcDbEntity
  8
0
 62
5
100
AcDbSpline
 70
8
 71
3
 72
8
 73
4
 74
0
 40
0
 40
0
 40
0
 40
0
 40
1
 40
1
 40
1
 40
1
 10
75.795081
 20
278.321648
 30
0.0
 10
73.318489
 20
279.752806
 30
0.0
 10
70.266229
 20
279.752806
 30
0.0
 10
67.789638
 20
278.321648
 30
0.0
  0
SPLINE
  5
185
100
AcDbEntity
  8
0
 62
5
100
AcDbSpline
 70
8
 71
3
 72
8
 73
4
 74
0
 40
0
 40
0
 40
0
 40
0
 40
1
 40
1
 40
1
 40
1
 10
67.789638
 20
278.321648
 30
0.0
 10
65.313046
 20
276.890489
 30
0.0
 10
63.788993
 20
274.245956
 30
0.0
 10
63.792365
 20
271.385588
 30
0.0
  0
SPLINE
  5
186
100
AcDbEntity
  8
0
 62
5
100
AcDbSpline
 70
8
 71
3
 72
8
 73
4
 74
0
 40
0
 40
0
 40
0
 40
0
 40
1
 40
1
 40
1
 40
1
 10
63.792365
 20
271.385588
 30
0.0
 10
63.789075
 20
268.525273
 30
0.0
 10
65.313145
 20
265.880825
 30
0.0
 10
67.789703
 20
264.449717
 30
0.0
  0
SPLINE
  5
187
100
AcDbEntity
  8
0
 62
5
100
AcDbSpline
 70
8
 71
3
 72
8
 73
4
 74
0
 40
0
 40
0
 40
0
 40
0
 40
1
 40
1
 40
1
 40
1
 10
67.789703
 20
264.449717
 30
0.0
 10
70.266261
 20
263.018609
 30
0.0
 10
73.318457
 20
263.018609
 30
0.0
 10
75.795015
 20
264.449717
 30
0.0
  0
SPLINE
  5
188
100
AcDbEntity
  8
0
 62
5
100
AcDbSpline
 70
8
 71
3
 72
8
 73
4
 74
0
 40
0
 40
0
 40
0
 40
0
 40
1
 40
1
 40
1
 40
1
 10
75.795015
 20
264.449717
 30
0.0
 10
78.271573
 20
265.880825
 30
0.0
 10
79.795644
 20
268.525273
 30
0.0
 10
79.792354
 20
271.385588
 30
0.0
  0
LWPOLYLINE
  5
189
100
AcDbEntity
  8
0
 62
5
100
AcDbPolyline
 90
1
 70
1
 10
546.792358
 20
271.385588
 30
0.0
  0
SPLINE
  5
18a
100
AcDbEntity
  8
0
 62
5
100
AcDbSpline
 70
8
 71
3
 72
8
 73
4
 74
0
 40
0
 40
0
 40
0
 40
0
 40
1
 40
1
 40
1
 40
1
 10
54.292368
 20
271.385588
 30
0.0
 10
54.292368
 20
274.243715
 30
0.0
 10
52.767575
 20
276.884734
 30
0.0
 10
50.292364
 20
278.313798
 30
0.0
  0
SPLINE
  5
18b
100
AcDbEntity
  8
0
 62
5
100
AcDbSpline
 70
8
 71
3
 72
8
 73
4
 74
0
 40
0
 40
0
 40
0
 40
0
 40
1
 40
1
 40
1
 40
1
 10
50.292364
 20
278.313798
 30
0.0
 10
47.817153
 20
279.742861
 30
0.0
 10
44.767567
 20
279.742861
 30
0.0
 10
42.292356
 20
278.313798
 30
0.0
  0
SPLINE
  5
18c
100
AcDbEntity
  8
0
 62
5
100
AcDbSpline
 70
8
 71
3
 72
8
 73
4
 74
0
 40
0
 40
0
 40
0
 40
0
 40
1
 40
1
 40
1
 40
1
 10
42.292356
 20
278.313798
 30
0.0
 10
39.817145
 20
276.884734
 30
0.0
 10
38.292352
 20
274.243715
 30
0.0
 10
38.292352
 20
271.385588
 30
0.0
  0
SPLINE
  5
18d
100
AcDbEntity
  8
0
 62
5
100
AcDbSpline
 70
8
 71
3
 72
8
 73
4
 74
0
 40
0
 40
0
 40
0
 40
0
 40
1
 40
1
 40
1
 40
1
 10
38.292352
 20
271.385588
 30
0.0
 10
38.292352
 20
268.527460
 30
0.0
 10
39.817145
 20
265.886441
 30
0.0
 10
42.292356
 20
264.457378
 30
0.0
  0
SPLINE
  5
18e
100
AcDbEntity
  8
0
 62
5
100
AcDbSpline
 70
8
 71
3
 72
8
 73
4
 74
0
 40
0
 40
0
 40
0
 40
0
 40
1
 40
1
 40
1
 40
1
 10
42.292356
 20
264.457378
 30
0.0
 10
44.767567
 20
263.028314
 30
0.0
 10
47.817153
 20
263.028314
 30
0.0
 10
50.292364
 20
264.457378
 30
0.0
  0
SPLINE
  5
18f
100
AcDbEntity
  8
0
 62
5
100
AcDbSpline
 70
8
 71
3
 72
8
 73
4
 74
0
 40
0
 40
0
 40
0
 40
0
 40
1
 40
1
 40
1
 40
1
 10
50.292364
 20
264.457378
 30
0.0
 10
52.767575
 20
265.886441
 30
0.0
 10
54.292368
 20
268.527460
 30
0.0
 10
54.292368
 20
271.385588
 30
0.0
  0
LWPOLYLINE
  5
190
100
AcDbEntity
  8
0
 62
5
100
AcDbPolyline
 90
1
 70
1
 10
79.792354
 20
271.385588
 30
0.0
  0
SPLINE
  5
191
100
AcDbEntity
  8
0
 62
5
100
AcDbSpline
 70
8
 71
3
 72
8
 73
4
 74
0
 40
0
 40
0
 40
0
 40
0
 40
1
 40
1
 40
1
 40
1
 10
316.792345
 20
189.885586
 30
0.0
 10
316.795981
 20
193.996561
 30
0.0
 10
314.604890
 20
197.796815
 30
0.0
 10
311.045286
 20
199.853353
 30
0.0
  0
SPLINE
  5
192
100
AcDbEntity
  8
0
 62
5
100
AcDbSpline
 70
8
 71
3
 72
8
 73
4
 74
0
 40
0
 40
0
 40
0
 40
0
 40
1
 40
1
 40
1
 40
1
 10
311.045286
 20
199.853353
 30
0.0
 10
307.485682
 20
201.909891
 30
0.0
 10
303.099018
 20
201.909891
 30
0.0
 10
299.539414
 20
199.853353
 30
0.0
  0
SPLINE
  5
193
100
AcDbEntity
  8
0
 62
5
100
AcDbSpline
 70
8
 71
3
 72
8
 73
4
 74
0
 40
0
 40
0
 40
0
 40
0
 40
1
 40
1
 40
1
 40
1
 10
299.539414
 20
199.853353
 30
0.0
 10
295.979810
 20
197.796815
 30
0.0
 10
293.788718
 20
193.996561
 30
0.0
 10
293.792354
 20
189.885586
 30
0.0
  0
SPLINE
  5
194
100
AcDbEntity
  8
0
 62
5
100
AcDbSpline
 70
8
 71
3
 72
8
 73
4
 74
0
 40
0
 40
0
 40
0
 40
0
 40
1
 40
1
 40
1
 40
1
 10
293.792354
 20
189.885586
 30
0.0
 10
293.788718
 20
185.774610
 30
0.0
 10
295.979810
 20
181.974356
 30
0.0
 10
299.539414
 20
179.917818
 30
0.0
  0
SPLINE
  5
195
100
AcDbEntity
  8
0
 62
5
100
AcDbSpline
 70
8
 71
3
 72
8
 73
4
 74
0
 40
0
 40
0
 40
0
 40
0
 40
1
 40
1
 40
1
 40
1
 10
299.539414
 20
179.917818
 30
0.0
 10
303.099018
 20
177.861280
 30
0.0
 10
307.485682
 20
177.861280
 30
0.0
 10
311.045286
 20
179.917818
 30
0.0
  0
SPLINE
  5
196
100
AcDbEntity
  8
0
 62
5
100
AcDbSpline
 70
8
 71
3
 72
8
 73
4
 74
0
 40
0
 40
0
 40
0
 40
0
 40
1
 40
1
 40
1
 40
1
 10
311.045286
 20
179.917818
 30
0.0
 10
314.604890
 20
181.974356
 30
0.0
 10
316.795981
 20
185.774610
 30
0.0
 10
316.792345
 20
189.885586
 30
0.0
  0
LWPOLYLINE
  5
197
100
AcDbEntity
  8
0
 62
5
100
AcDbPolyline
 90
1
 70
1
 10
54.292368
 20
271.385588
 30
0.0
  0
SPLINE
  5
198
100
AcDbEntity
  8
0
 62
5
100
AcDbSpline
 70
8
 71
3
 72
8
 73
4
 74
0
 40
0
 40
0
 40
0
 40
0
 40
1
 40
1
 40
1
 40
1
 10
499.042346
 20
326.885592
 30
0.0
 10
499.046246
 20
332.247174
 30
0.0
 10
496.188116
 20
337.203149
 30
0.0
 10
491.545499
 20
339.885066
 30
0.0
  0
SPLINE
  5
199
100
AcDbEntity
  8
0
 62
5
100
AcDbSpline
 70
8
 71
3
 72
8
 73
4
 74
0
 40
0
 40
0
 40
0
 40
0
 40
1
 40
1
 40
1
 40
1
 10
491.545499
 20
339.885066
 30
0.0
 10
486.902883
 20
342.566983
 30
0.0
 10
481.181817
 20
342.566983
 30
0.0
 10
476.539200
 20
339.885066
 30
0.0
  0
SPLINE
  5
19a
100
AcDbEntity
  8
0
 62
5
100
AcDbSpline
 70
8
 71
3
 72
8
 73
4
 74
0
 40
0
 40
0
 40
0
 40
0
 40
1
 40
1
 40
1
 40
1
 10
476.539200
 20
339.885066
 30
0.0
 10
471.896583
 20
337.203149
 30
0.0
 10
469.038453
 20
332.247174
 30
0.0
 10
469.042353
 20
326.885592
 30
0.0
  0
SPLINE
  5
19b
100
AcDbEntity
  8
0
 62
5
100
AcDbSpline
 70
8
 71
3
 72
8
 73
4
 74
0
 40
0
 40
0
 40
0
 40
0
 40
1
 40
1
 40
1
 40
1
 10
469.042353
 20
326.885592
 30
0.0
 10
469.038453
 20
321.524010
 30
0.0
 10
471.896583
 20
316.568035
 30
0.0
 10
476.539200
 20
313.886118
 30
0.0
  0
SPLINE
  5
19c
100
AcDbEntity
  8
0
 62
5
100
AcDbSpline
 70
8
 71
3
 72
8
 73
4
 74
0
 40
0
 40
0
 40
0
 40
0
 40
1
 40
1
 40
1
 40
1
 10
476.539200
 20
313.886118
 30
0.0
 10
481.181817
 20
311.204201
 30
0.0
 10
486.902883
 20
311.204201
 30
0.0
 10
491.545499
 20
313.886118
 30
0.0
  0
SPLINE
  5
19d
100
AcDbEntity
  8
0
 62
5
100
AcDbSpline
 70
8
 71
3
 72
8
 73
4
 74
0
 40
0
 40
0
 40
0
 40
0
 40
1
 40
1
 40
1
 40
1
 10
491.545499
 20
313.886118
 30
0.0
 10
496.188116
 20
316.568035
 30
0.0
 10
499.046246
 20
321.524010
 30
0.0
 10
499.042346
 20
326.885592
 30
0.0
  0
LWPOLYLINE
  5
19e
100
AcDbEntity
  8
0
 62
5
100
AcDbPolyline
 90
1
 70
1
 10
316.792345
 20
189.885586
 30
0.0
  0
SPLINE
  5
19f
100
AcDbEntity
  8
0
 62
5
100
AcDbSpline
 70
8
 71
3
 72
8
 73
4
 74
0
 40
0
 40
0
 40
0
 40
0
 40
1
 40
1
 40
1
 40
1
 10
141.542347
 20
326.885592
 30
0.0
 10
141.545977
 20
332.246994
 30
0.0
 10
138.687789
 20
337.202688
 30
0.0
 10
134.045282
 20
339.884438
 30
0.0
  0
SPLINE
  5
1a0
100
AcDbEntity
  8
0
 62
5
100
AcDbSpline
 70
8
 71
3
 72
8
 73
4
 74
0
 40
0
 40
0
 40
0
 40
0
 40
1
 40
1
 40
1
 40
1
 10
134.045282
 20
339.884438
 30
0.0
 10
129.402776
 20
342.566187
 30
0.0
 10
123.681924
 20
342.566187
 30
0.0
 10
119.039418
 20
339.884438
 30
0.0
  0
SPLINE
  5
1a1
100
AcDbEntity
  8
0
 62
5
100
AcDbSpline
 70
8
 71
3
 72
8
 73
4
 74
0
 40
0
 40
0
 40
0
 40
0
 40
1
 40
1
 40
1
 40
1
 10
119.039418
 20
339.884438
 30
0.0
 10
114.396912
 20
337.202688
 30
0.0
 10
111.538723
 20
332.246994
 30
0.0
 10
111.542354
 20
326.885592
 30
0.0
  0
SPLINE
  5
1a2
100
AcDbEntity
  8
0
 62
5
100
AcDbSpline
 70
8
 71
3
 72
8
 73
4
 74
0
 40
0
 40
0
 40
0
 40
0
 40
1
 40
1
 40
1
 40
1
 10
111.542354
 20
326.885592
 30
0.0
 10
111.538723
 20
321.524190
 30
0.0
 10
114.396912
 20
316.568496
 30
0.0
 10
119.039418
 20
313.886746
 30
0.0
  0
SPLINE
  5
1a3
100
AcDbEntity
  8
0
 62
5
100
AcDbSpline
 70
8
 71
3
 72
8
 73
4
 74
0
 40
0
 40
0
 40
0
 40
0
 40
1
 40
1
 40
1
 40
1
 10
119.039418
 20
313.886746
 30
0.0
 10
123.681924
 20
311.204997
 30
0.0
 10
129.402776
 20
311.204997
 30
0.0
 10
134.045282
 20
313.886746
 30
0.0
  0
SPLINE
  5
1a4
100
AcDbEntity
  8
0
 62
5
100
AcDbSpline
 70
8
 71
3
 72
8
 73
4
 74
0
 40
0
 40
0
 40
0
 40
0
 40
1
 40
1
 40
1
 40
1
 10
134.045282
 20
313.886746
 30
0.0
 10
138.687789
 20
316.568496
 30
0.0
 10
141.545977
 20
321.524190
 30
0.0
 10
141.542347
 20
326.885592
 30
0.0
  0
LWPOLYLINE
  5
1a5
100
AcDbEntity
  8
0
 62
5
100
AcDbPolyline
 90
1
 70
1
 10
499.042346
 20
326.885592
 30
0.0
  0
LWPOLYLINE
  5
1a6
100
AcDbEntity
  8
0
 62
5
100
AcDbPolyline
 90
1
 70
1
 10
141.542347
 20
326.885592
 30
0.0
  0
LWPOLYLINE
  5
1a7
100
AcDbEntity
  8
0
 62
3
100
AcDbPolyline
 90
4
 70
1
 10
19.292359
 20
382.385597
 30
0.0
 10
591.292368
 20
382.385597
 30
0.0
 10
591.292368
 20
160.385576
 30
0.0
 10
19.292359
 20
160.385576
 30
0.0
  0
LWPOLYLINE
  5
1a8
100
AcDbEntity
  8
0
 62
1
100
AcDbPolyline
 90
2
 70
0
 10
306.792365
 20
377.885591
 30
0.0
 10
303.792361
 20
377.885591
 30
0.0
  0
LWPOLYLINE
  5
1a9
100
AcDbEntity
  8
0
 62
1
100
AcDbPolyline
 90
2
 70
0
 10
305.292363
 20
379.385593
 30
0.0
 10
305.292363
 20
376.385588
 30
0.0
  0
LWPOLYLINE
  5
1aa
100
AcDbEntity
  8
0
 62
1
100
AcDbPolyline
 90
2
 70
0
 10
162.292348
 20
379.385593
 30
0.0
 10
162.292348
 20
376.385588
 30
0.0
  0
LWPOLYLINE
  5
1ab
100
AcDbEntity
  8
0
 62
1
100
AcDbPolyline
 90
2
 70
0
 10
160.792345
 20
377.885591
 30
0.0
 10
163.792350
 20
377.885591
 30
0.0
  0
ENDSEC
  0
SECTION
  2
OBJECTS
  0
DICTIONARY
  5
C
330
0
100
AcDbDictionary
  3
ACAD_GROUP
350
D
  3
ACAD_MLINESTYLE
350
17
  0
DICTIONARY
  5
D
330
C
100
AcDbDictionary
  0
DICTIONARY
  5
1A
330
C
100
AcDbDictionary
  0
DICTIONARY
  5
17
330
C
100
AcDbDictionary
  3
STANDARD
350
18
  0
DICTIONARY
  5
19
330
C
100
AcDbDictionary
  0
ENDSEC
  0
EOF
