<?xml version="1.0" encoding="UTF-8" standalone="no"?>
<svg
   xmlns:dc="http://purl.org/dc/elements/1.1/"
   xmlns:cc="http://creativecommons.org/ns#"
   xmlns:rdf="http://www.w3.org/1999/02/22-rdf-syntax-ns#"
   xmlns:svg="http://www.w3.org/2000/svg"
   xmlns="http://www.w3.org/2000/svg"
   xmlns:sodipodi="http://sodipodi.sourceforge.net/DTD/sodipodi-0.dtd"
   xmlns:inkscape="http://www.inkscape.org/namespaces/inkscape"
   width="600mm"
   height="400mm"
   version="1.1"
   id="svg724"
   sodipodi:docname="controlBox_LaserReady_9mm_sheet2.svg"
   inkscape:version="0.92.2 5c3e80d, 2017-08-06">
  <metadata
     id="metadata728">
    <rdf:RDF>
      <cc:Work
         rdf:about="">
        <dc:format>image/svg+xml</dc:format>
        <dc:type
           rdf:resource="http://purl.org/dc/dcmitype/StillImage" />
        <dc:title></dc:title>
      </cc:Work>
    </rdf:RDF>
  </metadata>
  <sodipodi:namedview
     pagecolor="#ffffff"
     bordercolor="#666666"
     borderopacity="1"
     objecttolerance="10"
     gridtolerance="10"
     guidetolerance="10"
     inkscape:pageopacity="0"
     inkscape:pageshadow="2"
     inkscape:window-width="1450"
     inkscape:window-height="860"
     id="namedview726"
     showgrid="false"
     inkscape:document-units="mm"
     units="mm"
     inkscape:zoom="0.14320462"
     inkscape:cx="1150.9455"
     inkscape:cy="527.37256"
     inkscape:window-x="119"
     inkscape:window-y="0"
     inkscape:window-maximized="0"
     inkscape:current-layer="g722" />
  <desc
     id="desc580">/Users/callumkirkwood/Desktop/controlBox_export.dxf - scale = 1.000000, origin = (0.000000, 0.000000), method = manual</desc>
  <defs
     id="defs594">
    <marker
       id="DistanceX"
       orient="auto"
       refX="0"
       refY="0"
       style="overflow:visible">
      <path
         d="M 3,-3 -3,3 M 0,-5 V 5"
         style="stroke:#000000;stroke-width:0.5"
         id="path582"
         inkscape:connector-curvature="0" />
    </marker>
    <pattern
       height="8"
       id="Hatch"
       patternUnits="userSpaceOnUse"
       width="8"
       x="0"
       y="0">
      <path
         d="M8 4 l-4,4"
         linecap="square"
         stroke="#000000"
         stroke-width="0.25"
         id="path585" />
      <path
         d="M6 2 l-4,4"
         linecap="square"
         stroke="#000000"
         stroke-width="0.25"
         id="path587" />
      <path
         d="M4 0 l-4,4"
         linecap="square"
         stroke="#000000"
         stroke-width="0.25"
         id="path589" />
    </pattern>
    <symbol
       id="*MODEL_SPACE" />
    <symbol
       id="*PAPER_SPACE" />
  </defs>
  <g
     inkscape:groupmode="layer"
     inkscape:label="0"
     id="g722"
     transform="translate(0,389.29131)">
    <path
       d="m 2249.9213,949.45106 v 129.58384 h -89.1969 v -34.0157 h -89.1968 v 34.0157 h -89.1969 v -34.0157 h -89.1968 v 34.0157 h -89.1969 v -34.0157 h -89.1968 v 34.0157 h -89.1969 v -34.0157 h -89.1968 v 34.0157 h -89.1969 v -34.0157 h -89.1968 v 34.0157 h -89.1969 v -34.0157 h -89.1968 v 34.0157 h -89.1969 v -34.0157 h -89.1968 v 34.0157 h -89.1969 v -34.0157 h -89.1968 v 34.0157 h -89.1969 v -34.0157 H 644.378 v 34.0157 h -89.1969 v -34.0157 h -89.1968 v 34.0157 h -89.1969 v -34.0157 h -89.1968 v 34.0157 h -89.1969 v -34.0157 h -89.1968 v 34.0157 H 20 V 949.45106 H 54.0158 V 819.86726 H 20 V 690.28346 H 54.0158 V 560.69966 H 20 V 431.11586 H 54.0158 V 301.53206 H 20 v -129.5838 h 89.1969 v 34.0158 h 89.1968 v -34.0158 h 89.1969 v 34.0158 h 89.1968 v -34.0158 h 89.1969 v 34.0158 h 89.1968 v -34.0158 h 89.1969 v 34.0158 h 89.1968 v -34.0158 h 89.1969 v 34.0158 h 89.1968 v -34.0158 h 89.1969 v 34.0158 h 89.1968 v -34.0158 h 89.1969 v 34.0158 h 89.1968 v -34.0158 h 89.1969 v 34.0158 h 89.1968 v -34.0158 h 89.1969 v 34.0158 h 89.1968 v -34.0158 h 89.1969 v 34.0158 h 89.1968 v -34.0158 h 89.1969 v 34.0158 h 89.1968 v -34.0158 h 89.1969 v 34.0158 h 89.1968 v -34.0158 h 89.1969 v 129.5838 h -34.0157 v 129.5838 h 34.0157 v 129.5838 h -34.0157 v 129.5838 h 34.0157 v 129.5838 h -34.0157 v 129.5838 z"
       style="fill:none;stroke:#00ff00"
       id="path596"
       inkscape:connector-curvature="0" />
    <path
       d="m 223.083,33.756756 -0.01,-230.551196 a 15.118111,15.118111 0 0 0 -30.2362,7e-4 V 33.757356 a 15.11815,15.11815 0 0 0 30.2363,-6e-4 z"
       style="fill:none;stroke:#0000ff"
       id="path704"
       inkscape:connector-curvature="0" />
    <path
       d="m 522.2056,33.750356 -0.01,-230.551196 a 15.11811,15.11811 0 0 0 -30.2362,7e-4 V 33.751056 a 15.11815,15.11815 0 0 0 30.2363,-7e-4 z"
       style="fill:none;stroke:#0000ff"
       id="path706"
       inkscape:connector-curvature="0" />
    <path
       d="M 821.3282,33.743956 V -196.80724 a 15.11815,15.11815 0 0 0 -30.2363,7e-4 V 33.744656 a 15.11811,15.11811 0 0 0 30.2362,-7e-4 z"
       style="fill:none;stroke:#0000ff"
       id="path708"
       inkscape:connector-curvature="0" />
    <path
       d="M 1419.5734,33.731156 V -196.81994 a 15.11811,15.11811 0 0 0 -30.2362,6e-4 V 33.731856 a 15.11811,15.11811 0 0 0 30.2362,-7e-4 z"
       style="fill:none;stroke:#0000ff"
       id="path710"
       inkscape:connector-curvature="0" />
    <path
       d="M 1718.696,33.724856 V -196.82634 a 15.118115,15.118115 0 0 0 -30.2362,6e-4 l 0.01,230.551196 a 15.11811,15.11811 0 0 0 30.2362,-6e-4 z"
       style="fill:none;stroke:#0000ff"
       id="path712"
       inkscape:connector-curvature="0" />
    <path
       d="m 2017.8186,33.718456 -0.01,-230.551196 a 15.11811,15.11811 0 0 0 -30.2362,6e-4 l 0.01,230.551196 a 15.118111,15.118111 0 0 0 30.2362,-6e-4 z"
       style="fill:none;stroke:#0000ff"
       id="path714"
       inkscape:connector-curvature="0" />
    <path
       d="M 1120.4508,33.737556 V -196.81354 a 15.11815,15.11815 0 0 0 -30.2363,6e-4 l 0.01,230.551196 a 15.118111,15.118111 0 0 0 30.2362,-7e-4 z"
       style="fill:none;stroke:#0000ff"
       id="path716"
       inkscape:connector-curvature="0" />
    <path
       d="M 2186.2791,95.803256 H 24.3894 V -236.79514 h 2161.8897 z"
       style="fill:none;stroke:#00ff00"
       id="path718"
       inkscape:connector-curvature="0" />
  </g>
</svg>
