<?xml version="1.0" encoding="UTF-8" standalone="no"?>
<svg
   xmlns:dc="http://purl.org/dc/elements/1.1/"
   xmlns:cc="http://creativecommons.org/ns#"
   xmlns:rdf="http://www.w3.org/1999/02/22-rdf-syntax-ns#"
   xmlns:svg="http://www.w3.org/2000/svg"
   xmlns="http://www.w3.org/2000/svg"
   xmlns:sodipodi="http://sodipodi.sourceforge.net/DTD/sodipodi-0.dtd"
   xmlns:inkscape="http://www.inkscape.org/namespaces/inkscape"
   width="594mm"
   height="420mm"
   version="1.1"
   id="svg78"
   sodipodi:docname="ControlBox_Prototype_Box1_LaserPrep.svg"
   inkscape:version="0.92.2 5c3e80d, 2017-08-06">
  <metadata
     id="metadata82">
    <rdf:RDF>
      <cc:Work
         rdf:about="">
        <dc:format>image/svg+xml</dc:format>
        <dc:type
           rdf:resource="http://purl.org/dc/dcmitype/StillImage" />
        <dc:title></dc:title>
      </cc:Work>
    </rdf:RDF>
  </metadata>
  <sodipodi:namedview
     pagecolor="#ffffff"
     bordercolor="#666666"
     borderopacity="1"
     objecttolerance="10"
     gridtolerance="10"
     guidetolerance="10"
     inkscape:pageopacity="0"
     inkscape:pageshadow="2"
     inkscape:window-width="1144"
     inkscape:window-height="818"
     id="namedview80"
     showgrid="false"
     inkscape:document-units="mm"
     units="mm"
     inkscape:zoom="0.59465222"
     inkscape:cx="1421.465"
     inkscape:cy="934.31429"
     inkscape:window-x="254"
     inkscape:window-y="19"
     inkscape:window-maximized="0"
     inkscape:current-layer="g76" />
  <desc
     id="desc2">/Users/callumkirkwood/Documents/Projects/Github/Trace-Transform/controlPanel/CAD/ControlBox_Prototype_Box1_export.dxf - scale = 1.000000, origin = (0.000000, 0.000000), method = manual</desc>
  <defs
     id="defs16">
    <marker
       id="DistanceX"
       orient="auto"
       refX="0"
       refY="0"
       style="overflow:visible">
      <path
         d="M 3,-3 -3,3 M 0,-5 V 5"
         style="stroke:#000000;stroke-width:0.5"
         id="path4"
         inkscape:connector-curvature="0" />
    </marker>
    <pattern
       height="8"
       id="Hatch"
       patternUnits="userSpaceOnUse"
       width="8"
       x="0"
       y="0">
      <path
         d="M8 4 l-4,4"
         linecap="square"
         stroke="#000000"
         stroke-width="0.25"
         id="path7" />
      <path
         d="M6 2 l-4,4"
         linecap="square"
         stroke="#000000"
         stroke-width="0.25"
         id="path9" />
      <path
         d="M4 0 l-4,4"
         linecap="square"
         stroke="#000000"
         stroke-width="0.25"
         id="path11" />
    </pattern>
    <symbol
       id="*MODEL_SPACE" />
    <symbol
       id="*PAPER_SPACE" />
  </defs>
  <g
     inkscape:groupmode="layer"
     inkscape:label="0"
     id="g76"
     transform="translate(0,464.8819)">
    <path
       d="m 1762.3335,484.39394 a 6,6 0 1 0 -12,0 6,6 0 1 0 12,0 z"
       style="fill:none;stroke:#0000ff"
       id="path18"
       inkscape:connector-curvature="0" />
    <path
       d="m 1819.9335,292.39394 a 6,6 0 1 0 -12,0 6,6 0 1 0 12,0 z"
       style="fill:none;stroke:#0000ff"
       id="path20"
       inkscape:connector-curvature="0" />
    <path
       d="m 1944.7335,489.19394 a 6,6 0 1 0 -12,0 6,6 0 1 0 12,0 z"
       style="fill:none;stroke:#0000ff"
       id="path22"
       inkscape:connector-curvature="0" />
    <path
       d="m 1925.5335,292.39394 a 6,6 0 1 0 -12,0 6,6 0 1 0 12,0 z"
       style="fill:none;stroke:#0000ff"
       id="path24"
       inkscape:connector-curvature="0" />
    <path
       d="m 1807.2312,576.00964 v -15.1181 h -27.2966 v 15.1181 h -27.2966 v -15.1181 h -27.2966 v -83.9895 h -15.1181 v -83.9895 h 15.1181 v -83.9895 h -15.1181 v -83.9895 h 15.1181 v -83.9895 h -15.1181 V 56.954539 h 15.1181 v -83.9895 h -15.1181 v -83.989499 h 15.1181 v -83.9895 h 27.2966 v -15.1181 h 27.2966 v 15.1181 h 27.2966 v -15.1181 h 27.2966 v 15.1181 h 27.2966 v -15.1181 h 27.2965 v 15.1181 h 27.2966 v -15.1181 h 27.2966 v 15.1181 h 27.2966 v 83.9895 h 15.1181 v 83.989499 h -15.1181 v 83.9895 h 15.1181 v 83.989501 h -15.1181 v 83.9895 h 15.1181 v 83.9895 h -15.1181 v 83.9895 h 15.1181 v 83.9895 h -15.1181 v 83.9895 h -27.2966 v 15.1181 h -27.2966 v -15.1181 h -27.2966 v 15.1181 h -27.2965 v -15.1181 h -27.2966 v 15.1181 z"
       style="fill:none;stroke:#00ff00"
       id="path26"
       inkscape:connector-curvature="0" />
    <path
       d="m 2171.3244,-195.01396 v 83.9895 83.989499 83.9895 83.989501 83.9895 83.9895 83.9895 83.9895 83.9895 h -16.7979 v 15.1181 h -16.7979 v -15.1181 h -16.7979 v 15.1181 h -16.7979 v -15.1181 h -16.7979 v 15.1181 h -16.7979 v -15.1181 h -16.7979 v 15.1181 h -16.7979 v -15.1181 h -16.7979 v 15.1181 h -15.1181 v -99.1076 h 15.1181 v -83.9895 h -15.1181 v -83.9895 h 15.1181 v -83.9895 h -15.1181 v -83.9895 h 15.1181 V 56.954539 h -15.1181 v -83.9895 h 15.1181 v -83.989499 h -15.1181 v -99.1076 h 15.1181 v 15.1181 h 16.7979 v -15.1181 h 16.7979 v 15.1181 h 16.7979 v -15.1181 h 16.7979 v 15.1181 h 16.7979 v -15.1181 h 16.7979 v 15.1181 h 16.7979 v -15.1181 h 16.7979 v 15.1181 z"
       style="fill:none;stroke:#00ff00"
       id="path28"
       inkscape:connector-curvature="0" />
    <path
       d="m 1525.0272,564.66844 v -83.9895 -83.9895 -83.9895 -83.9895 -83.9895 -83.989501 -83.9895 -83.989499 -83.9895 h 16.7979 v -15.1181 h 16.7979 v 15.1181 h 16.7979 v -15.1181 h 16.7979 v 15.1181 h 16.7979 v -15.1181 h 16.7979 v 15.1181 h 16.7979 v -15.1181 h 16.7979 v 15.1181 h 16.7979 v -15.1181 h 15.1181 v 99.1076 h -15.1181 v 83.989499 h 15.1181 v 83.9895 h -15.1181 v 83.989501 h 15.1181 v 83.9895 h -15.1181 v 83.9895 h 15.1181 v 83.9895 h -15.1181 v 83.9895 h 15.1181 v 99.1076 h -15.1181 v -15.1181 h -16.7979 v 15.1181 h -16.7979 v -15.1181 h -16.7979 v 15.1181 h -16.7979 v -15.1181 h -16.7979 v 15.1181 h -16.7979 v -15.1181 h -16.7979 v 15.1181 h -16.7979 v -15.1181 z"
       style="fill:none;stroke:#00ff00"
       id="path30"
       inkscape:connector-curvature="0" />
    <path
       d="m 1435.2627,-34.988161 a 13.22835,13.22835 0 1 0 -26.4567,0 13.22835,13.22835 0 1 0 26.4567,0 z"
       style="fill:none;stroke:#0000ff"
       id="path32"
       inkscape:connector-curvature="0" />
    <path
       d="m 1435.2627,400.86564 a 13.22835,13.22835 0 1 0 -26.4567,0 13.22835,13.22835 0 1 0 26.4567,0 z"
       style="fill:none;stroke:#0000ff"
       id="path34"
       inkscape:connector-curvature="0" />
    <path
       d="m 1479.1141,100.06934 a 54.80315,54.80315 0 1 0 -109.6063,0 54.80315,54.80315 0 1 0 109.6063,0 z"
       style="fill:none;stroke:#0000ff"
       id="path36"
       inkscape:connector-curvature="0" />
    <path
       d="m 1479.1141,265.80814 a 54.80315,54.80315 0 1 0 -109.6063,0 54.80315,54.80315 0 1 0 109.6063,0 z"
       style="fill:none;stroke:#0000ff"
       id="path38"
       inkscape:connector-curvature="0" />
    <path
       d="m 1342.0796,35.537239 a 7.974803,7.974803 0 1 0 -15.9496,0 7.974803,7.974803 0 1 0 15.9496,0 z"
       style="fill:none;stroke:#0000ff"
       id="path40"
       inkscape:connector-curvature="0" />
    <path
       d="m 1371.9556,182.93874 a 43.464567,43.464567 0 1 0 -86.9291,0 43.464567,43.464567 0 1 0 86.9291,0 z"
       style="fill:none;stroke:#0000ff"
       id="path42"
       inkscape:connector-curvature="0" />
    <path
       d="m 1461.7194,496.63954 a 30.23625,30.23625 0 1 0 -60.4725,0 30.23625,30.23625 0 1 0 60.4725,0 z"
       style="fill:none;stroke:#0000ff"
       id="path44"
       inkscape:connector-curvature="0" />
    <path
       d="m 1365.3414,-130.76196 a 30.23622,30.23622 0 1 0 -60.4724,0 30.236221,30.236221 0 1 0 60.4724,0 z"
       style="fill:none;stroke:#0000ff"
       id="path46"
       inkscape:connector-curvature="0" />
    <path
       d="m 1365.3414,496.63954 a 30.23622,30.23622 0 1 0 -60.4724,0 30.236221,30.236221 0 1 0 60.4724,0 z"
       style="fill:none;stroke:#0000ff"
       id="path48"
       inkscape:connector-curvature="0" />
    <path
       d="m 1461.7194,-130.76196 a 30.23625,30.23625 0 1 0 -60.4725,0 30.23625,30.23625 0 1 0 60.4725,0 z"
       style="fill:none;stroke:#0000ff"
       id="path50"
       inkscape:connector-curvature="0" />
    <path
       d="m 1312.7871,387.63804 h 42.6353 v -72.2646 h -42.6353 z"
       style="fill:none;stroke:#0000ff"
       id="path52"
       inkscape:connector-curvature="0" />
    <path
       d="m 1308.5814,380.30574 a 4.72445,4.72445 0 1 0 -9.4489,0 4.72445,4.72445 0 1 0 9.4489,0 z"
       style="fill:none;stroke:#0000ff"
       id="path54"
       inkscape:connector-curvature="0" />
    <path
       d="m 1308.5814,322.70574 a 4.72445,4.72445 0 1 0 -9.4489,0 4.72445,4.72445 0 1 0 9.4489,0 z"
       style="fill:none;stroke:#0000ff"
       id="path56"
       inkscape:connector-curvature="0" />
    <path
       d="m 1506.1288,560.89154 h -245.6693 v -755.9055 h 245.6693 z"
       style="fill:none;stroke:#00ff00"
       id="path58"
       inkscape:connector-curvature="0" />
    <path
       d="m 1105.4989,560.89154 v -755.9055 h 136.063 v 755.9055 z"
       style="fill:none;stroke:#00ff00"
       id="path60"
       inkscape:connector-curvature="0" />
    <path
       d="m 950.53826,560.89154 v -755.9055 h 136.06304 v 755.9055 z"
       style="fill:none;stroke:#00ff00"
       id="path62"
       inkscape:connector-curvature="0" />
    <path
       d="m 1981.6148,-395.32896 h 27.2966 27.2966 l 27.2965,10e-6 h 27.2966 27.2966 l 27.2966,1e-5 h 15.1181 l 0,16.7979 h -15.1181 v 16.7979 h 15.1181 v 16.7979 h -15.1181 v 16.7979 h 15.1181 v 16.79788 h -15.1181 v 16.7979 h 15.1181 v 16.7979 h -15.1181 v 16.7979 h 15.1181 v 16.7979 h -15.1181 v 15.1181 h -27.2966 v -15.1181 h -27.2966 v 15.1181 h -27.2966 v -15.1181 h -27.2966 v 15.1181 h -13.6482 -13.6483 l 0,-15.1181 h -27.2966 v 15.1181 h -27.2966 v -15.1181 h -27.2966 v 15.1181 h -27.2966 l 0,-15.1181 h -15.1181 v -16.7979 h 15.1181 v -16.7979 h -15.1181 v -16.7979 h 15.1181 v -16.7979 h -15.1181 v -16.7979 h 15.1181 v -16.7979 h -15.1181 l 0,-16.7979 h 15.1181 l 0,-16.7979 h -15.1181 v -16.7979 h 15.1181 27.2966 27.2966 z"
       style="fill:none;stroke:#00ff00"
       id="path64"
       inkscape:connector-curvature="0" />
    <path
       d="m 1748.4004,-288.36986 v 42.0284 h 45.6491 v -42.0284 z"
       style="fill:none;stroke:#0000ff"
       id="path66"
       inkscape:connector-curvature="0" />
    <path
       d="m 1604.9219,-391.55093 h 27.2966 l 27.2966,-1e-5 h 27.2966 27.2965 l 27.2966,-10e-6 h 27.2966 27.2966 27.2966 l 27.2966,10e-6 h 15.1181 v 16.7979 h -15.1181 v 16.7979 h 15.1181 v 16.7979 l -15.1181,-10e-6 v 16.79791 h 15.1181 v 16.79788 h -15.1181 v 16.7979 h 15.1181 v 16.7979 h -15.1181 v 16.7979 h 15.1181 v 16.7979 h -15.1181 v 15.1181 h -27.2966 v -15.1181 h -27.2966 v 15.1181 h -27.2966 v -15.1181 h -27.2966 v 15.1181 h -13.6483 -13.6482 v -15.1181 h -27.2966 v 15.1181 h -27.2966 v -15.1181 h -27.2966 v 15.1181 h -27.2966 v -15.1181 h -15.1181 v -16.7979 h 15.1181 v -16.7979 h -15.1181 v -16.7979 h 15.1181 v -16.7979 h -15.1181 v -16.79787 h 15.1181 v -16.7979 l -15.1181,1e-5 v -16.79791 h 15.1181 v -16.7979 h -15.1181 v -16.7979 z"
       style="fill:none;stroke:#00ff00"
       id="path68"
       inkscape:connector-curvature="0" />
    <path
       d="m 1434.9867,-355.34531 h -45.6491 v 42.02835 h 45.6491 z"
       style="fill:none;stroke:#0000ff"
       id="path70"
       inkscape:connector-curvature="0" />
    <path
       d="m 1347.914,-361.31697 h 215.4331 v 136.06301 H 1347.914 Z"
       style="fill:none;stroke:#00ff00"
       id="path72"
       inkscape:connector-curvature="0" />
    <path
       d="m 1329.0164,-225.25396 h -215.4331 v -136.06301 h 215.4331 z"
       style="fill:none;stroke:#00ff00"
       id="path74"
       inkscape:connector-curvature="0" />
  </g>
</svg>
