  0
SECTION
  2
HEADER
  9
$ACADVER
  1
AC1014
  9
$HANDSEED
  5
FFFF
  9
$MEASUREMENT
 70
     1
  0
ENDSEC
  0
SECTION
  2
TABLES
  0
TABLE
  2
VPORT
  5
8
330
0
100
AcDbSymbolTable
 70
     4
  0
VPORT
  5
2E
330
8
100
AcDbSymbolTableRecord
100
AcDbViewportTableRecord
  2
*ACTIVE
 70
     0
 10
0.0
 20
0.0
 11
1.0
 21
1.0
 12
210.0
 22
148.5
 13
0.0
 23
0.0
 14
10.0
 24
10.0
 15
10.0
 25
10.0
 16
0.0
 26
0.0
 36
1.0
 17
0.0
 27
0.0
 37
0.0
 40
341.0
 41
1.24
 42
50.0
 43
0.0
 44
0.0
 50
0.0
 51
0.0
 71
     0
 72
   100
 73
     1
 74
     3
 75
     0
 76
     0
 77
     0
 78
     0
  0
ENDTAB
  0
TABLE
  2
LTYPE
  5
5
330
0
100
AcDbSymbolTable
 70
     1
  0
LTYPE
  5
14
330
5
100
AcDbSymbolTableRecord
100
AcDbLinetypeTableRecord
  2
BYBLOCK
 70
     0
  3

 72
    65
 73
     0
 40
0.0
  0
LTYPE
  5
15
330
5
100
AcDbSymbolTableRecord
100
AcDbLinetypeTableRecord
  2
BYLAYER
 70
     0
  3

 72
    65
 73
     0
 40
0.0
  0
LTYPE
  5
16
330
5
100
AcDbSymbolTableRecord
100
AcDbLinetypeTableRecord
  2
CONTINUOUS
 70
     0
  3
Solid line
 72
    65
 73
     0
 40
0.0
  0
ENDTAB
  0
TABLE
  2
LAYER
  5
2
100
AcDbSymbolTable
 70
1
  0
LAYER
  5
50
100
AcDbSymbolTableRecord
100
AcDbLayerTableRecord
  2
0
 70
0
  6
CONTINUOUS
  0
ENDTAB
  0
TABLE
  2
STYLE
  5
3
330
0
100
AcDbSymbolTable
 70
     1
  0
STYLE
  5
11
330
3
100
AcDbSymbolTableRecord
100
AcDbTextStyleTableRecord
  2
STANDARD
 70
     0
 40
0.0
 41
1.0
 50
0.0
 71
     0
 42
2.5
  3
txt
  4

  0
ENDTAB
  0
TABLE
  2
VIEW
  5
6
330
0
100
AcDbSymbolTable
 70
     0
  0
ENDTAB
  0
TABLE
  2
UCS
  5
7
330
0
100
AcDbSymbolTable
 70
     0
  0
ENDTAB
  0
TABLE
  2
APPID
  5
9
330
0
100
AcDbSymbolTable
 70
     2
  0
APPID
  5
12
330
9
100
AcDbSymbolTableRecord
100
AcDbRegAppTableRecord
  2
ACAD
 70
     0
  0
ENDTAB
  0
TABLE
  2
DIMSTYLE
  5
A
330
0
100
AcDbSymbolTable
 70
     1
  0
DIMSTYLE
105
27
330
A
100
AcDbSymbolTableRecord
100
AcDbDimStyleTableRecord
  2
ISO-25
 70
     0
  3

  4

  5

  6

  7

 40
1.0
 41
2.5
 42
0.625
 43
3.75
 44
1.25
 45
0.0
 46
0.0
 47
0.0
 48
0.0
140
2.5
141
2.5
142
0.0
143
0.03937007874016
144
1.0
145
0.0
146
1.0
147
0.625
 71
     0
 72
     0
 73
     0
 74
     0
 75
     0
 76
     0
 77
     1
 78
     8
170
     0
171
     3
172
     1
173
     0
174
     0
175
     0
176
     0
177
     0
178
     0
270
     2
271
     2
272
     2
273
     2
274
     3
340
11
275
     0
280
     0
281
     0
282
     0
283
     0
284
     8
285
     0
286
     0
287
     3
288
     0
  0
ENDTAB
  0
TABLE
  2
BLOCK_RECORD
  5
1
330
0
100
AcDbSymbolTable
 70
     1
  0
BLOCK_RECORD
  5
1F
330
1
100
AcDbSymbolTableRecord
100
AcDbBlockTableRecord
  2
*MODEL_SPACE
  0
BLOCK_RECORD
  5
1B
330
1
100
AcDbSymbolTableRecord
100
AcDbBlockTableRecord
  2
*PAPER_SPACE
  0
ENDTAB
  0
ENDSEC
  0
SECTION
  2
BLOCKS
  0
BLOCK
  5
20
330
1F
100
AcDbEntity
  8
0
100
AcDbBlockBegin
  2
*MODEL_SPACE
 70
     0
 10
0.0
 20
0.0
 30
0.0
  3
*MODEL_SPACE
  1

  0
ENDBLK
  5
21
330
1F
100
AcDbEntity
  8
0
100
AcDbBlockEnd
  0
BLOCK
  5
1C
330
1B
100
AcDbEntity
 67
     1
  8
0
100
AcDbBlockBegin
  2
*PAPER_SPACE
  1

  0
ENDBLK
  5
1D
330
1B
100
AcDbEntity
 67
     1
  8
0
100
AcDbBlockEnd
  0
ENDSEC
  0
SECTION
  2
ENTITIES
  0
LWPOLYLINE
  5
100
100
AcDbEntity
  8
0
 62
5
100
AcDbPolyline
 90
4
 70
1
 10
227.904887
 20
325.515593
 30
0.0
 10
239.982878
 20
325.515593
 30
0.0
 10
239.982878
 20
336.635581
 30
0.0
 10
227.904887
 20
336.635581
 30
0.0
  0
LWPOLYLINE
  5
101
100
AcDbEntity
  8
0
 62
3
100
AcDbPolyline
 90
4
 70
1
 10
273.944900
 20
319.135590
 30
0.0
 10
216.944893
 20
319.135590
 30
0.0
 10
216.944893
 20
355.135581
 30
0.0
 10
273.944900
 20
355.135581
 30
0.0
  0
LWPOLYLINE
  5
102
100
AcDbEntity
  8
0
 62
5
100
AcDbPolyline
 90
4
 70
1
 10
311.982882
 20
329.515987
 30
0.0
 10
311.982882
 20
340.635975
 30
0.0
 10
299.904891
 20
340.635975
 30
0.0
 10
299.904891
 20
329.515987
 30
0.0
  0
LWPOLYLINE
  5
103
100
AcDbEntity
  8
0
 62
3
100
AcDbPolyline
 90
67
 70
1
 10
342.722676
 20
363.135985
 30
0.0
 10
349.944902
 20
363.135983
 30
0.0
 10
353.944899
 20
363.135983
 30
0.0
 10
353.944899
 20
358.691538
 30
0.0
 10
349.944902
 20
358.691538
 30
0.0
 10
349.944902
 20
354.247094
 30
0.0
 10
353.944899
 20
354.247094
 30
0.0
 10
353.944899
 20
349.802650
 30
0.0
 10
349.944902
 20
349.802650
 30
0.0
 10
349.944902
 20
345.358205
 30
0.0
 10
353.944899
 20
345.358205
 30
0.0
 10
353.944899
 20
340.913761
 30
0.0
 10
349.944902
 20
340.913761
 30
0.0
 10
349.944902
 20
336.469317
 30
0.0
 10
353.944899
 20
336.469317
 30
0.0
 10
353.944899
 20
332.024872
 30
0.0
 10
349.944902
 20
332.024872
 30
0.0
 10
349.944902
 20
327.580428
 30
0.0
 10
353.944899
 20
327.580428
 30
0.0
 10
353.944899
 20
323.135984
 30
0.0
 10
349.944902
 20
323.135984
 30
0.0
 10
349.944902
 20
319.135986
 30
0.0
 10
342.722676
 20
319.135986
 30
0.0
 10
342.722676
 20
323.135984
 30
0.0
 10
335.500451
 20
323.135984
 30
0.0
 10
335.500451
 20
319.135986
 30
0.0
 10
328.278225
 20
319.135986
 30
0.0
 10
328.278225
 20
323.135984
 30
0.0
 10
321.056000
 20
323.135984
 30
0.0
 10
321.056000
 20
319.135986
 30
0.0
 10
317.444887
 20
319.135986
 30
0.0
 10
313.833775
 20
319.135986
 30
0.0
 10
313.833775
 20
323.135984
 30
0.0
 10
306.611576
 20
323.135984
 30
0.0
 10
306.611576
 20
319.135986
 30
0.0
 10
299.389350
 20
319.135986
 30
0.0
 10
299.389350
 20
323.135984
 30
0.0
 10
292.167125
 20
323.135984
 30
0.0
 10
292.167125
 20
319.135986
 30
0.0
 10
284.944899
 20
319.135986
 30
0.0
 10
284.944899
 20
323.135984
 30
0.0
 10
280.944902
 20
323.135984
 30
0.0
 10
280.944902
 20
327.580428
 30
0.0
 10
284.944899
 20
327.580428
 30
0.0
 10
284.944899
 20
332.024872
 30
0.0
 10
280.944902
 20
332.024872
 30
0.0
 10
280.944902
 20
336.469317
 30
0.0
 10
284.944899
 20
336.469317
 30
0.0
 10
284.944899
 20
340.913761
 30
0.0
 10
280.944902
 20
340.913761
 30
0.0
 10
280.944902
 20
345.358205
 30
0.0
 10
284.944899
 20
345.358205
 30
0.0
 10
284.944899
 20
349.802655
 30
0.0
 10
280.944902
 20
349.802655
 30
0.0
 10
280.944902
 20
354.247099
 30
0.0
 10
284.944899
 20
354.247099
 30
0.0
 10
284.944899
 20
358.691544
 30
0.0
 10
280.944902
 20
358.691544
 30
0.0
 10
280.944902
 20
363.135988
 30
0.0
 10
284.944899
 20
363.135988
 30
0.0
 10
292.167125
 20
363.135988
 30
0.0
 10
299.389350
 20
363.135988
 30
0.0
 10
306.611576
 20
363.135988
 30
0.0
 10
313.833801
 20
363.135988
 30
0.0
 10
321.056000
 20
363.135988
 30
0.0
 10
328.278225
 20
363.135985
 30
0.0
 10
335.500451
 20
363.135985
 30
0.0
  0
LWPOLYLINE
  5
104
100
AcDbEntity
  8
0
 62
3
100
AcDbPolyline
 90
67
 70
1
 10
384.611563
 20
364.135587
 30
0.0
 10
391.833788
 20
364.135587
 30
0.0
 10
399.056013
 20
364.135587
 30
0.0
 10
406.278239
 20
364.135587
 30
0.0
 10
413.500464
 20
364.135584
 30
0.0
 10
420.722690
 20
364.135584
 30
0.0
 10
427.944915
 20
364.135584
 30
0.0
 10
431.944912
 20
364.135581
 30
0.0
 10
431.944912
 20
359.691137
 30
0.0
 10
427.944889
 20
359.691137
 30
0.0
 10
427.944889
 20
355.246695
 30
0.0
 10
431.944912
 20
355.246693
 30
0.0
 10
431.944912
 20
350.802248
 30
0.0
 10
427.944889
 20
350.802251
 30
0.0
 10
427.944889
 20
346.357801
 30
0.0
 10
431.944912
 20
346.357801
 30
0.0
 10
431.944912
 20
341.913357
 30
0.0
 10
427.944889
 20
341.913357
 30
0.0
 10
427.944889
 20
337.468912
 30
0.0
 10
431.944886
 20
337.468912
 30
0.0
 10
431.944886
 20
333.024468
 30
0.0
 10
427.944889
 20
333.024468
 30
0.0
 10
427.944889
 20
328.580024
 30
0.0
 10
431.944886
 20
328.580024
 30
0.0
 10
431.944886
 20
324.135579
 30
0.0
 10
427.944889
 20
324.135579
 30
0.0
 10
427.944889
 20
320.135582
 30
0.0
 10
420.722690
 20
320.135582
 30
0.0
 10
420.722690
 20
324.135579
 30
0.0
 10
413.500464
 20
324.135579
 30
0.0
 10
413.500464
 20
320.135582
 30
0.0
 10
406.278239
 20
320.135582
 30
0.0
 10
406.278239
 20
324.135579
 30
0.0
 10
399.056013
 20
324.135579
 30
0.0
 10
399.056013
 20
320.135582
 30
0.0
 10
395.444901
 20
320.135582
 30
0.0
 10
391.833788
 20
320.135582
 30
0.0
 10
391.833788
 20
324.135579
 30
0.0
 10
384.611563
 20
324.135579
 30
0.0
 10
384.611563
 20
320.135582
 30
0.0
 10
377.389337
 20
320.135582
 30
0.0
 10
377.389337
 20
324.135579
 30
0.0
 10
370.167112
 20
324.135579
 30
0.0
 10
370.167112
 20
320.135582
 30
0.0
 10
362.944886
 20
320.135582
 30
0.0
 10
362.944913
 20
324.135579
 30
0.0
 10
358.944889
 20
324.135579
 30
0.0
 10
358.944889
 20
328.580024
 30
0.0
 10
362.944913
 20
328.580024
 30
0.0
 10
362.944913
 20
333.024468
 30
0.0
 10
358.944889
 20
333.024468
 30
0.0
 10
358.944889
 20
337.468912
 30
0.0
 10
362.944913
 20
337.468912
 30
0.0
 10
362.944913
 20
341.913357
 30
0.0
 10
358.944889
 20
341.913357
 30
0.0
 10
358.944889
 20
346.357801
 30
0.0
 10
362.944913
 20
346.357801
 30
0.0
 10
362.944913
 20
350.802253
 30
0.0
 10
358.944915
 20
350.802253
 30
0.0
 10
358.944889
 20
355.246698
 30
0.0
 10
362.944913
 20
355.246698
 30
0.0
 10
362.944913
 20
359.691142
 30
0.0
 10
358.944889
 20
359.691142
 30
0.0
 10
358.944889
 20
364.135587
 30
0.0
 10
362.944913
 20
364.135587
 30
0.0
 10
370.167112
 20
364.135587
 30
0.0
 10
377.389337
 20
364.135587
 30
0.0
  0
LWPOLYLINE
  5
105
100
AcDbEntity
  8
0
 62
3
100
AcDbPolyline
 90
64
 70
1
 10
237.805569
 20
314.135573
 30
0.0
 10
260.027790
 20
314.135573
 30
0.0
 10
282.250012
 20
314.135573
 30
0.0
 10
304.472234
 20
314.135573
 30
0.0
 10
326.694456
 20
314.135573
 30
0.0
 10
348.916678
 20
314.135573
 30
0.0
 10
371.138900
 20
314.135573
 30
0.0
 10
393.361122
 20
314.135573
 30
0.0
 10
415.583344
 20
314.135573
 30
0.0
 10
437.805565
 20
314.135573
 30
0.0
 10
437.805565
 20
309.691129
 30
0.0
 10
441.805589
 20
309.691129
 30
0.0
 10
441.805589
 20
305.246684
 30
0.0
 10
437.805565
 20
305.246684
 30
0.0
 10
437.805565
 20
300.802240
 30
0.0
 10
441.805589
 20
300.802240
 30
0.0
 10
441.805589
 20
296.357796
 30
0.0
 10
437.805565
 20
296.357796
 30
0.0
 10
437.805565
 20
291.913351
 30
0.0
 10
441.805589
 20
291.913351
 30
0.0
 10
441.805589
 20
287.468907
 30
0.0
 10
437.805565
 20
287.468907
 30
0.0
 10
437.805565
 20
283.024462
 30
0.0
 10
441.805589
 20
283.024462
 30
0.0
 10
441.805589
 20
278.580018
 30
0.0
 10
437.805565
 20
278.580018
 30
0.0
 10
437.805565
 20
274.135572
 30
0.0
 10
441.805589
 20
274.135572
 30
0.0
 10
441.805589
 20
270.135576
 30
0.0
 10
415.583344
 20
270.135576
 30
0.0
 10
415.583344
 20
274.135572
 30
0.0
 10
393.361122
 20
274.135572
 30
0.0
 10
393.361122
 20
270.135576
 30
0.0
 10
371.138900
 20
270.135576
 30
0.0
 10
371.138900
 20
274.135572
 30
0.0
 10
348.916678
 20
274.135572
 30
0.0
 10
348.916678
 20
270.135576
 30
0.0
 10
326.694456
 20
270.135576
 30
0.0
 10
326.694456
 20
274.135572
 30
0.0
 10
304.472234
 20
274.135572
 30
0.0
 10
304.472234
 20
270.135576
 30
0.0
 10
282.250012
 20
270.135576
 30
0.0
 10
282.250012
 20
274.135572
 30
0.0
 10
260.027790
 20
274.135572
 30
0.0
 10
260.027790
 20
270.135576
 30
0.0
 10
233.805571
 20
270.135576
 30
0.0
 10
233.805571
 20
274.135572
 30
0.0
 10
237.805569
 20
274.135572
 30
0.0
 10
237.805569
 20
278.580018
 30
0.0
 10
233.805571
 20
278.580018
 30
0.0
 10
233.805571
 20
283.024462
 30
0.0
 10
237.805569
 20
283.024462
 30
0.0
 10
237.805569
 20
287.468907
 30
0.0
 10
233.805571
 20
287.468907
 30
0.0
 10
233.805571
 20
291.913351
 30
0.0
 10
237.805569
 20
291.913351
 30
0.0
 10
237.805569
 20
296.357796
 30
0.0
 10
233.805571
 20
296.357796
 30
0.0
 10
233.805571
 20
300.802240
 30
0.0
 10
237.805569
 20
300.802240
 30
0.0
 10
237.805569
 20
305.246684
 30
0.0
 10
233.805571
 20
305.246684
 30
0.0
 10
233.805571
 20
309.691129
 30
0.0
 10
237.805569
 20
309.691129
 30
0.0
  0
LWPOLYLINE
  5
106
100
AcDbEntity
  8
0
 62
3
100
AcDbPolyline
 90
4
 70
1
 10
192.805897
 20
114.135576
 30
0.0
 10
192.805897
 20
314.135573
 30
0.0
 10
228.805899
 20
314.135573
 30
0.0
 10
228.805899
 20
114.135576
 30
0.0
  0
SPLINE
  5
107
100
AcDbEntity
  8
0
 62
5
100
AcDbSpline
 70
8
 71
3
 72
8
 73
4
 74
0
 40
0
 40
0
 40
0
 40
0
 40
1
 40
1
 40
1
 40
1
 10
419.153075
 20
252.935887
 30
0.0
 10
419.153075
 20
253.503046
 30
0.0
 10
418.850500
 20
254.027123
 30
0.0
 10
418.359325
 20
254.310702
 30
0.0
  0
SPLINE
  5
108
100
AcDbEntity
  8
0
 62
5
100
AcDbSpline
 70
8
 71
3
 72
8
 73
4
 74
0
 40
0
 40
0
 40
0
 40
0
 40
1
 40
1
 40
1
 40
1
 10
418.359325
 20
254.310702
 30
0.0
 10
417.868151
 20
254.594282
 30
0.0
 10
417.263000
 20
254.594282
 30
0.0
 10
416.771825
 20
254.310702
 30
0.0
  0
SPLINE
  5
109
100
AcDbEntity
  8
0
 62
5
100
AcDbSpline
 70
8
 71
3
 72
8
 73
4
 74
0
 40
0
 40
0
 40
0
 40
0
 40
1
 40
1
 40
1
 40
1
 10
416.771825
 20
254.310702
 30
0.0
 10
416.280651
 20
254.027123
 30
0.0
 10
415.978075
 20
253.503046
 30
0.0
 10
415.978075
 20
252.935887
 30
0.0
  0
SPLINE
  5
10a
100
AcDbEntity
  8
0
 62
5
100
AcDbSpline
 70
8
 71
3
 72
8
 73
4
 74
0
 40
0
 40
0
 40
0
 40
0
 40
1
 40
1
 40
1
 40
1
 10
415.978075
 20
252.935887
 30
0.0
 10
415.978075
 20
252.368728
 30
0.0
 10
416.280651
 20
251.844651
 30
0.0
 10
416.771825
 20
251.561071
 30
0.0
  0
SPLINE
  5
10b
100
AcDbEntity
  8
0
 62
5
100
AcDbSpline
 70
8
 71
3
 72
8
 73
4
 74
0
 40
0
 40
0
 40
0
 40
0
 40
1
 40
1
 40
1
 40
1
 10
416.771825
 20
251.561071
 30
0.0
 10
417.263000
 20
251.277492
 30
0.0
 10
417.868151
 20
251.277492
 30
0.0
 10
418.359325
 20
251.561071
 30
0.0
  0
SPLINE
  5
10c
100
AcDbEntity
  8
0
 62
5
100
AcDbSpline
 70
8
 71
3
 72
8
 73
4
 74
0
 40
0
 40
0
 40
0
 40
0
 40
1
 40
1
 40
1
 40
1
 10
418.359325
 20
251.561071
 30
0.0
 10
418.850500
 20
251.844651
 30
0.0
 10
419.153075
 20
252.368728
 30
0.0
 10
419.153075
 20
252.935887
 30
0.0
  0
LWPOLYLINE
  5
10d
100
AcDbEntity
  8
0
 62
3
100
AcDbPolyline
 90
4
 70
1
 10
151.805905
 20
114.135576
 30
0.0
 10
151.805905
 20
314.135573
 30
0.0
 10
187.805907
 20
314.135573
 30
0.0
 10
187.805907
 20
114.135576
 30
0.0
  0
SPLINE
  5
10e
100
AcDbEntity
  8
0
 62
5
100
AcDbSpline
 70
8
 71
3
 72
8
 73
4
 74
0
 40
0
 40
0
 40
0
 40
0
 40
1
 40
1
 40
1
 40
1
 10
368.353075
 20
237.695887
 30
0.0
 10
368.353075
 20
238.263046
 30
0.0
 10
368.050500
 20
238.787123
 30
0.0
 10
367.559325
 20
239.070702
 30
0.0
  0
SPLINE
  5
10f
100
AcDbEntity
  8
0
 62
5
100
AcDbSpline
 70
8
 71
3
 72
8
 73
4
 74
0
 40
0
 40
0
 40
0
 40
0
 40
1
 40
1
 40
1
 40
1
 10
367.559325
 20
239.070702
 30
0.0
 10
367.068151
 20
239.354282
 30
0.0
 10
366.463000
 20
239.354282
 30
0.0
 10
365.971825
 20
239.070702
 30
0.0
  0
SPLINE
  5
110
100
AcDbEntity
  8
0
 62
5
100
AcDbSpline
 70
8
 71
3
 72
8
 73
4
 74
0
 40
0
 40
0
 40
0
 40
0
 40
1
 40
1
 40
1
 40
1
 10
365.971825
 20
239.070702
 30
0.0
 10
365.480651
 20
238.787123
 30
0.0
 10
365.178075
 20
238.263046
 30
0.0
 10
365.178075
 20
237.695887
 30
0.0
  0
SPLINE
  5
111
100
AcDbEntity
  8
0
 62
5
100
AcDbSpline
 70
8
 71
3
 72
8
 73
4
 74
0
 40
0
 40
0
 40
0
 40
0
 40
1
 40
1
 40
1
 40
1
 10
365.178075
 20
237.695887
 30
0.0
 10
365.178075
 20
237.128728
 30
0.0
 10
365.480651
 20
236.604651
 30
0.0
 10
365.971825
 20
236.321071
 30
0.0
  0
SPLINE
  5
112
100
AcDbEntity
  8
0
 62
5
100
AcDbSpline
 70
8
 71
3
 72
8
 73
4
 74
0
 40
0
 40
0
 40
0
 40
0
 40
1
 40
1
 40
1
 40
1
 10
365.971825
 20
236.321071
 30
0.0
 10
366.463000
 20
236.037492
 30
0.0
 10
367.068151
 20
236.037492
 30
0.0
 10
367.559325
 20
236.321071
 30
0.0
  0
SPLINE
  5
113
100
AcDbEntity
  8
0
 62
5
100
AcDbSpline
 70
8
 71
3
 72
8
 73
4
 74
0
 40
0
 40
0
 40
0
 40
0
 40
1
 40
1
 40
1
 40
1
 10
367.559325
 20
236.321071
 30
0.0
 10
368.050500
 20
236.604651
 30
0.0
 10
368.353075
 20
237.128728
 30
0.0
 10
368.353075
 20
237.695887
 30
0.0
  0
LWPOLYLINE
  5
114
100
AcDbEntity
  8
0
 62
5
100
AcDbPolyline
 90
1
 70
1
 10
419.153075
 20
252.935887
 30
0.0
  0
SPLINE
  5
115
100
AcDbEntity
  8
0
 62
5
100
AcDbSpline
 70
8
 71
3
 72
8
 73
4
 74
0
 40
0
 40
0
 40
0
 40
0
 40
1
 40
1
 40
1
 40
1
 10
420.423075
 20
204.675887
 30
0.0
 10
420.423075
 20
205.243046
 30
0.0
 10
420.120500
 20
205.767123
 30
0.0
 10
419.629325
 20
206.050702
 30
0.0
  0
SPLINE
  5
116
100
AcDbEntity
  8
0
 62
5
100
AcDbSpline
 70
8
 71
3
 72
8
 73
4
 74
0
 40
0
 40
0
 40
0
 40
0
 40
1
 40
1
 40
1
 40
1
 10
419.629325
 20
206.050702
 30
0.0
 10
419.138151
 20
206.334282
 30
0.0
 10
418.533000
 20
206.334282
 30
0.0
 10
418.041825
 20
206.050702
 30
0.0
  0
SPLINE
  5
117
100
AcDbEntity
  8
0
 62
5
100
AcDbSpline
 70
8
 71
3
 72
8
 73
4
 74
0
 40
0
 40
0
 40
0
 40
0
 40
1
 40
1
 40
1
 40
1
 10
418.041825
 20
206.050702
 30
0.0
 10
417.550651
 20
205.767123
 30
0.0
 10
417.248075
 20
205.243046
 30
0.0
 10
417.248075
 20
204.675887
 30
0.0
  0
SPLINE
  5
118
100
AcDbEntity
  8
0
 62
5
100
AcDbSpline
 70
8
 71
3
 72
8
 73
4
 74
0
 40
0
 40
0
 40
0
 40
0
 40
1
 40
1
 40
1
 40
1
 10
417.248075
 20
204.675887
 30
0.0
 10
417.248075
 20
204.108728
 30
0.0
 10
417.550651
 20
203.584651
 30
0.0
 10
418.041825
 20
203.301071
 30
0.0
  0
SPLINE
  5
119
100
AcDbEntity
  8
0
 62
5
100
AcDbSpline
 70
8
 71
3
 72
8
 73
4
 74
0
 40
0
 40
0
 40
0
 40
0
 40
1
 40
1
 40
1
 40
1
 10
418.041825
 20
203.301071
 30
0.0
 10
418.533000
 20
203.017492
 30
0.0
 10
419.138151
 20
203.017492
 30
0.0
 10
419.629325
 20
203.301071
 30
0.0
  0
SPLINE
  5
11a
100
AcDbEntity
  8
0
 62
5
100
AcDbSpline
 70
8
 71
3
 72
8
 73
4
 74
0
 40
0
 40
0
 40
0
 40
0
 40
1
 40
1
 40
1
 40
1
 10
419.629325
 20
203.301071
 30
0.0
 10
420.120500
 20
203.584651
 30
0.0
 10
420.423075
 20
204.108728
 30
0.0
 10
420.423075
 20
204.675887
 30
0.0
  0
LWPOLYLINE
  5
11b
100
AcDbEntity
  8
0
 62
5
100
AcDbPolyline
 90
1
 70
1
 10
368.353075
 20
237.695887
 30
0.0
  0
SPLINE
  5
11c
100
AcDbEntity
  8
0
 62
5
100
AcDbSpline
 70
8
 71
3
 72
8
 73
4
 74
0
 40
0
 40
0
 40
0
 40
0
 40
1
 40
1
 40
1
 40
1
 10
368.353075
 20
209.755887
 30
0.0
 10
368.353075
 20
210.323046
 30
0.0
 10
368.050500
 20
210.847123
 30
0.0
 10
367.559325
 20
211.130702
 30
0.0
  0
SPLINE
  5
11d
100
AcDbEntity
  8
0
 62
5
100
AcDbSpline
 70
8
 71
3
 72
8
 73
4
 74
0
 40
0
 40
0
 40
0
 40
0
 40
1
 40
1
 40
1
 40
1
 10
367.559325
 20
211.130702
 30
0.0
 10
367.068151
 20
211.414282
 30
0.0
 10
366.463000
 20
211.414282
 30
0.0
 10
365.971825
 20
211.130702
 30
0.0
  0
SPLINE
  5
11e
100
AcDbEntity
  8
0
 62
5
100
AcDbSpline
 70
8
 71
3
 72
8
 73
4
 74
0
 40
0
 40
0
 40
0
 40
0
 40
1
 40
1
 40
1
 40
1
 10
365.971825
 20
211.130702
 30
0.0
 10
365.480651
 20
210.847123
 30
0.0
 10
365.178075
 20
210.323046
 30
0.0
 10
365.178075
 20
209.755887
 30
0.0
  0
SPLINE
  5
11f
100
AcDbEntity
  8
0
 62
5
100
AcDbSpline
 70
8
 71
3
 72
8
 73
4
 74
0
 40
0
 40
0
 40
0
 40
0
 40
1
 40
1
 40
1
 40
1
 10
365.178075
 20
209.755887
 30
0.0
 10
365.178075
 20
209.188728
 30
0.0
 10
365.480651
 20
208.664651
 30
0.0
 10
365.971825
 20
208.381071
 30
0.0
  0
SPLINE
  5
120
100
AcDbEntity
  8
0
 62
5
100
AcDbSpline
 70
8
 71
3
 72
8
 73
4
 74
0
 40
0
 40
0
 40
0
 40
0
 40
1
 40
1
 40
1
 40
1
 10
365.971825
 20
208.381071
 30
0.0
 10
366.463000
 20
208.097492
 30
0.0
 10
367.068151
 20
208.097492
 30
0.0
 10
367.559325
 20
208.381071
 30
0.0
  0
SPLINE
  5
121
100
AcDbEntity
  8
0
 62
5
100
AcDbSpline
 70
8
 71
3
 72
8
 73
4
 74
0
 40
0
 40
0
 40
0
 40
0
 40
1
 40
1
 40
1
 40
1
 10
367.559325
 20
208.381071
 30
0.0
 10
368.050500
 20
208.664651
 30
0.0
 10
368.353075
 20
209.188728
 30
0.0
 10
368.353075
 20
209.755887
 30
0.0
  0
LWPOLYLINE
  5
122
100
AcDbEntity
  8
0
 62
5
100
AcDbPolyline
 90
1
 70
1
 10
420.423075
 20
204.675887
 30
0.0
  0
LWPOLYLINE
  5
123
100
AcDbEntity
  8
0
 62
5
100
AcDbPolyline
 90
1
 70
1
 10
368.353075
 20
209.755887
 30
0.0
  0
LWPOLYLINE
  5
124
100
AcDbEntity
  8
0
 62
3
100
AcDbPolyline
 90
68
 70
1
 10
437.805565
 20
239.469230
 30
0.0
 10
441.805589
 20
239.469230
 30
0.0
 10
441.805589
 20
232.247005
 30
0.0
 10
437.805565
 20
232.247005
 30
0.0
 10
437.805565
 20
225.024779
 30
0.0
 10
441.805589
 20
225.024779
 30
0.0
 10
441.805589
 20
217.802554
 30
0.0
 10
437.805565
 20
217.802554
 30
0.0
 10
437.805565
 20
210.580355
 30
0.0
 10
441.805589
 20
210.580355
 30
0.0
 10
441.805589
 20
203.358130
 30
0.0
 10
437.805565
 20
203.358130
 30
0.0
 10
437.805565
 20
196.135904
 30
0.0
 10
415.583344
 20
196.135904
 30
0.0
 10
415.583344
 20
192.135907
 30
0.0
 10
393.361122
 20
192.135907
 30
0.0
 10
393.361122
 20
196.135904
 30
0.0
 10
371.138900
 20
196.135904
 30
0.0
 10
371.138900
 20
192.135907
 30
0.0
 10
348.916678
 20
192.135907
 30
0.0
 10
348.916678
 20
196.135904
 30
0.0
 10
326.694456
 20
196.135904
 30
0.0
 10
326.694456
 20
192.135907
 30
0.0
 10
304.472234
 20
192.135907
 30
0.0
 10
304.472234
 20
196.135904
 30
0.0
 10
282.250012
 20
196.135904
 30
0.0
 10
282.250012
 20
192.135907
 30
0.0
 10
260.027790
 20
192.135907
 30
0.0
 10
260.027790
 20
196.135904
 30
0.0
 10
237.805569
 20
196.135904
 30
0.0
 10
237.805569
 20
203.358130
 30
0.0
 10
233.805571
 20
203.358130
 30
0.0
 10
233.805571
 20
210.580355
 30
0.0
 10
237.805569
 20
210.580355
 30
0.0
 10
237.805569
 20
217.802554
 30
0.0
 10
233.805571
 20
217.802554
 30
0.0
 10
233.805571
 20
225.024779
 30
0.0
 10
237.805569
 20
225.024779
 30
0.0
 10
237.805569
 20
232.247005
 30
0.0
 10
233.805571
 20
232.247005
 30
0.0
 10
233.805571
 20
239.469230
 30
0.0
 10
237.805569
 20
239.469230
 30
0.0
 10
237.805569
 20
246.691456
 30
0.0
 10
233.805571
 20
246.691456
 30
0.0
 10
233.805571
 20
253.913681
 30
0.0
 10
237.805569
 20
253.913681
 30
0.0
 10
237.805569
 20
261.135906
 30
0.0
 10
260.027790
 20
261.135906
 30
0.0
 10
260.027790
 20
265.135904
 30
0.0
 10
282.250012
 20
265.135904
 30
0.0
 10
282.250012
 20
261.135906
 30
0.0
 10
304.472234
 20
261.135906
 30
0.0
 10
304.472234
 20
265.135904
 30
0.0
 10
326.694456
 20
265.135904
 30
0.0
 10
326.694456
 20
261.135906
 30
0.0
 10
348.916678
 20
261.135906
 30
0.0
 10
348.916678
 20
265.135904
 30
0.0
 10
371.138900
 20
265.135904
 30
0.0
 10
371.138900
 20
261.135906
 30
0.0
 10
393.361122
 20
261.135906
 30
0.0
 10
393.361122
 20
265.135904
 30
0.0
 10
415.583344
 20
265.135904
 30
0.0
 10
415.583344
 20
261.135906
 30
0.0
 10
437.805565
 20
261.135906
 30
0.0
 10
437.805565
 20
253.913681
 30
0.0
 10
441.805589
 20
253.913681
 30
0.0
 10
441.805589
 20
246.691456
 30
0.0
 10
437.805565
 20
246.691456
 30
0.0
  0
LWPOLYLINE
  5
125
100
AcDbEntity
  8
0
 62
3
100
AcDbPolyline
 90
64
 70
1
 10
438.804897
 20
143.136079
 30
0.0
 10
416.582675
 20
143.136079
 30
0.0
 10
394.360453
 20
143.136079
 30
0.0
 10
372.138231
 20
143.136079
 30
0.0
 10
349.915983
 20
143.136079
 30
0.0
 10
327.693761
 20
143.136079
 30
0.0
 10
305.471539
 20
143.136079
 30
0.0
 10
283.249317
 20
143.136079
 30
0.0
 10
261.027095
 20
143.136079
 30
0.0
 10
238.804873
 20
143.136079
 30
0.0
 10
238.804873
 20
147.580523
 30
0.0
 10
234.804876
 20
147.580523
 30
0.0
 10
234.804876
 20
152.024968
 30
0.0
 10
238.804873
 20
152.024968
 30
0.0
 10
238.804873
 20
156.469412
 30
0.0
 10
234.804876
 20
156.469412
 30
0.0
 10
234.804876
 20
160.913856
 30
0.0
 10
238.804873
 20
160.913856
 30
0.0
 10
238.804873
 20
165.358301
 30
0.0
 10
234.804876
 20
165.358301
 30
0.0
 10
234.804876
 20
169.802745
 30
0.0
 10
238.804873
 20
169.802745
 30
0.0
 10
238.804873
 20
174.247190
 30
0.0
 10
234.804876
 20
174.247190
 30
0.0
 10
234.804876
 20
178.691634
 30
0.0
 10
238.804873
 20
178.691634
 30
0.0
 10
238.804873
 20
183.136078
 30
0.0
 10
234.804876
 20
183.136078
 30
0.0
 10
234.804876
 20
187.136076
 30
0.0
 10
261.027095
 20
187.136076
 30
0.0
 10
261.027095
 20
183.136078
 30
0.0
 10
283.249317
 20
183.136078
 30
0.0
 10
283.249317
 20
187.136076
 30
0.0
 10
305.471539
 20
187.136076
 30
0.0
 10
305.471539
 20
183.136078
 30
0.0
 10
327.693761
 20
183.136078
 30
0.0
 10
327.693761
 20
187.136076
 30
0.0
 10
349.915983
 20
187.136076
 30
0.0
 10
349.915983
 20
183.136078
 30
0.0
 10
372.138231
 20
183.136078
 30
0.0
 10
372.138231
 20
187.136076
 30
0.0
 10
394.360453
 20
187.136076
 30
0.0
 10
394.360453
 20
183.136078
 30
0.0
 10
416.582675
 20
183.136078
 30
0.0
 10
416.582675
 20
187.136076
 30
0.0
 10
442.804894
 20
187.136076
 30
0.0
 10
442.804894
 20
183.136078
 30
0.0
 10
438.804897
 20
183.136078
 30
0.0
 10
438.804897
 20
178.691634
 30
0.0
 10
442.804894
 20
178.691634
 30
0.0
 10
442.804894
 20
174.247190
 30
0.0
 10
438.804897
 20
174.247190
 30
0.0
 10
438.804897
 20
169.802745
 30
0.0
 10
442.804894
 20
169.802745
 30
0.0
 10
442.804894
 20
165.358301
 30
0.0
 10
438.804897
 20
165.358301
 30
0.0
 10
438.804897
 20
160.913856
 30
0.0
 10
442.804894
 20
160.913856
 30
0.0
 10
442.804894
 20
156.469412
 30
0.0
 10
438.804897
 20
156.469412
 30
0.0
 10
438.804897
 20
152.024968
 30
0.0
 10
442.804894
 20
152.024968
 30
0.0
 10
442.804894
 20
147.580523
 30
0.0
 10
438.804897
 20
147.580523
 30
0.0
  0
SPLINE
  5
126
100
AcDbEntity
  8
0
 62
5
100
AcDbSpline
 70
8
 71
3
 72
8
 73
4
 74
0
 40
0
 40
0
 40
0
 40
0
 40
1
 40
1
 40
1
 40
1
 10
283.645742
 20
115.885901
 30
0.0
 10
283.645742
 20
117.136331
 30
0.0
 10
282.978646
 20
118.291776
 30
0.0
 10
281.895742
 20
118.916991
 30
0.0
  0
SPLINE
  5
127
100
AcDbEntity
  8
0
 62
5
100
AcDbSpline
 70
8
 71
3
 72
8
 73
4
 74
0
 40
0
 40
0
 40
0
 40
0
 40
1
 40
1
 40
1
 40
1
 10
281.895742
 20
118.916991
 30
0.0
 10
280.812838
 20
119.542206
 30
0.0
 10
279.478645
 20
119.542206
 30
0.0
 10
278.395741
 20
118.916991
 30
0.0
  0
SPLINE
  5
128
100
AcDbEntity
  8
0
 62
5
100
AcDbSpline
 70
8
 71
3
 72
8
 73
4
 74
0
 40
0
 40
0
 40
0
 40
0
 40
1
 40
1
 40
1
 40
1
 10
278.395741
 20
118.916991
 30
0.0
 10
277.312837
 20
118.291776
 30
0.0
 10
276.645740
 20
117.136331
 30
0.0
 10
276.645740
 20
115.885901
 30
0.0
  0
SPLINE
  5
129
100
AcDbEntity
  8
0
 62
5
100
AcDbSpline
 70
8
 71
3
 72
8
 73
4
 74
0
 40
0
 40
0
 40
0
 40
0
 40
1
 40
1
 40
1
 40
1
 10
276.645740
 20
115.885901
 30
0.0
 10
276.645740
 20
114.635471
 30
0.0
 10
277.312837
 20
113.480026
 30
0.0
 10
278.395741
 20
112.854810
 30
0.0
  0
SPLINE
  5
12a
100
AcDbEntity
  8
0
 62
5
100
AcDbSpline
 70
8
 71
3
 72
8
 73
4
 74
0
 40
0
 40
0
 40
0
 40
0
 40
1
 40
1
 40
1
 40
1
 10
278.395741
 20
112.854810
 30
0.0
 10
279.478645
 20
112.229595
 30
0.0
 10
280.812838
 20
112.229595
 30
0.0
 10
281.895742
 20
112.854810
 30
0.0
  0
SPLINE
  5
12b
100
AcDbEntity
  8
0
 62
5
100
AcDbSpline
 70
8
 71
3
 72
8
 73
4
 74
0
 40
0
 40
0
 40
0
 40
0
 40
1
 40
1
 40
1
 40
1
 10
281.895742
 20
112.854810
 30
0.0
 10
282.978646
 20
113.480026
 30
0.0
 10
283.645742
 20
114.635471
 30
0.0
 10
283.645742
 20
115.885901
 30
0.0
  0
LWPOLYLINE
  5
12c
100
AcDbEntity
  8
0
 62
3
100
AcDbPolyline
 90
4
 70
1
 10
228.805899
 20
73.135584
 30
0.0
 10
171.805891
 20
73.135584
 30
0.0
 10
171.805891
 20
109.135586
 30
0.0
 10
228.805899
 20
109.135586
 30
0.0
  0
SPLINE
  5
12d
100
AcDbEntity
  8
0
 62
5
100
AcDbSpline
 70
8
 71
3
 72
8
 73
4
 74
0
 40
0
 40
0
 40
0
 40
0
 40
1
 40
1
 40
1
 40
1
 10
398.965394
 20
115.885901
 30
0.0
 10
398.965394
 20
117.136330
 30
0.0
 10
398.298297
 20
118.291775
 30
0.0
 10
397.215393
 20
118.916990
 30
0.0
  0
SPLINE
  5
12e
100
AcDbEntity
  8
0
 62
5
100
AcDbSpline
 70
8
 71
3
 72
8
 73
4
 74
0
 40
0
 40
0
 40
0
 40
0
 40
1
 40
1
 40
1
 40
1
 10
397.215393
 20
118.916990
 30
0.0
 10
396.132489
 20
119.542205
 30
0.0
 10
394.798296
 20
119.542205
 30
0.0
 10
393.715392
 20
118.916990
 30
0.0
  0
SPLINE
  5
12f
100
AcDbEntity
  8
0
 62
5
100
AcDbSpline
 70
8
 71
3
 72
8
 73
4
 74
0
 40
0
 40
0
 40
0
 40
0
 40
1
 40
1
 40
1
 40
1
 10
393.715392
 20
118.916990
 30
0.0
 10
392.632488
 20
118.291775
 30
0.0
 10
391.965392
 20
117.136330
 30
0.0
 10
391.965392
 20
115.885901
 30
0.0
  0
SPLINE
  5
130
100
AcDbEntity
  8
0
 62
5
100
AcDbSpline
 70
8
 71
3
 72
8
 73
4
 74
0
 40
0
 40
0
 40
0
 40
0
 40
1
 40
1
 40
1
 40
1
 10
391.965392
 20
115.885901
 30
0.0
 10
391.965392
 20
114.635471
 30
0.0
 10
392.632488
 20
113.480026
 30
0.0
 10
393.715392
 20
112.854811
 30
0.0
  0
SPLINE
  5
131
100
AcDbEntity
  8
0
 62
5
100
AcDbSpline
 70
8
 71
3
 72
8
 73
4
 74
0
 40
0
 40
0
 40
0
 40
0
 40
1
 40
1
 40
1
 40
1
 10
393.715392
 20
112.854811
 30
0.0
 10
394.798296
 20
112.229596
 30
0.0
 10
396.132489
 20
112.229596
 30
0.0
 10
397.215393
 20
112.854811
 30
0.0
  0
SPLINE
  5
132
100
AcDbEntity
  8
0
 62
5
100
AcDbSpline
 70
8
 71
3
 72
8
 73
4
 74
0
 40
0
 40
0
 40
0
 40
0
 40
1
 40
1
 40
1
 40
1
 10
397.215393
 20
112.854811
 30
0.0
 10
398.298297
 20
113.480026
 30
0.0
 10
398.965394
 20
114.635471
 30
0.0
 10
398.965394
 20
115.885901
 30
0.0
  0
LWPOLYLINE
  5
133
100
AcDbEntity
  8
0
 62
5
100
AcDbPolyline
 90
1
 70
1
 10
283.645742
 20
115.885901
 30
0.0
  0
SPLINE
  5
134
100
AcDbEntity
  8
0
 62
5
100
AcDbSpline
 70
8
 71
3
 72
8
 73
4
 74
0
 40
0
 40
0
 40
0
 40
0
 40
1
 40
1
 40
1
 40
1
 10
330.379705
 20
119.134084
 30
0.0
 10
330.379705
 20
124.314436
 30
0.0
 10
327.616021
 20
129.101278
 30
0.0
 10
323.129705
 20
131.691453
 30
0.0
  0
SPLINE
  5
135
100
AcDbEntity
  8
0
 62
5
100
AcDbSpline
 70
8
 71
3
 72
8
 73
4
 74
0
 40
0
 40
0
 40
0
 40
0
 40
1
 40
1
 40
1
 40
1
 10
323.129705
 20
131.691453
 30
0.0
 10
318.643389
 20
134.281629
 30
0.0
 10
313.116020
 20
134.281629
 30
0.0
 10
308.629705
 20
131.691453
 30
0.0
  0
SPLINE
  5
136
100
AcDbEntity
  8
0
 62
5
100
AcDbSpline
 70
8
 71
3
 72
8
 73
4
 74
0
 40
0
 40
0
 40
0
 40
0
 40
1
 40
1
 40
1
 40
1
 10
308.629705
 20
131.691453
 30
0.0
 10
304.143389
 20
129.101278
 30
0.0
 10
301.379704
 20
124.314436
 30
0.0
 10
301.379705
 20
119.134084
 30
0.0
  0
SPLINE
  5
137
100
AcDbEntity
  8
0
 62
5
100
AcDbSpline
 70
8
 71
3
 72
8
 73
4
 74
0
 40
0
 40
0
 40
0
 40
0
 40
1
 40
1
 40
1
 40
1
 10
301.379705
 20
119.134084
 30
0.0
 10
301.379705
 20
113.953733
 30
0.0
 10
304.143389
 20
109.166891
 30
0.0
 10
308.629705
 20
106.576716
 30
0.0
  0
SPLINE
  5
138
100
AcDbEntity
  8
0
 62
5
100
AcDbSpline
 70
8
 71
3
 72
8
 73
4
 74
0
 40
0
 40
0
 40
0
 40
0
 40
1
 40
1
 40
1
 40
1
 10
308.629705
 20
106.576716
 30
0.0
 10
313.116020
 20
103.986540
 30
0.0
 10
318.643389
 20
103.986540
 30
0.0
 10
323.129705
 20
106.576716
 30
0.0
  0
SPLINE
  5
139
100
AcDbEntity
  8
0
 62
5
100
AcDbSpline
 70
8
 71
3
 72
8
 73
4
 74
0
 40
0
 40
0
 40
0
 40
0
 40
1
 40
1
 40
1
 40
1
 10
323.129705
 20
106.576716
 30
0.0
 10
327.616021
 20
109.166891
 30
0.0
 10
330.379705
 20
113.953733
 30
0.0
 10
330.379705
 20
119.134084
 30
0.0
  0
LWPOLYLINE
  5
13a
100
AcDbEntity
  8
0
 62
5
100
AcDbPolyline
 90
1
 70
1
 10
398.965394
 20
115.885901
 30
0.0
  0
SPLINE
  5
13b
100
AcDbEntity
  8
0
 62
5
100
AcDbSpline
 70
8
 71
3
 72
8
 73
4
 74
0
 40
0
 40
0
 40
0
 40
0
 40
1
 40
1
 40
1
 40
1
 10
374.231429
 20
119.134084
 30
0.0
 10
374.235264
 20
124.316991
 30
0.0
 10
371.472418
 20
129.107835
 30
0.0
 10
366.984528
 20
131.700396
 30
0.0
  0
SPLINE
  5
13c
100
AcDbEntity
  8
0
 62
5
100
AcDbSpline
 70
8
 71
3
 72
8
 73
4
 74
0
 40
0
 40
0
 40
0
 40
0
 40
1
 40
1
 40
1
 40
1
 10
366.984528
 20
131.700396
 30
0.0
 10
362.496637
 20
134.292957
 30
0.0
 10
356.966221
 20
134.292957
 30
0.0
 10
352.478330
 20
131.700396
 30
0.0
  0
SPLINE
  5
13d
100
AcDbEntity
  8
0
 62
5
100
AcDbSpline
 70
8
 71
3
 72
8
 73
4
 74
0
 40
0
 40
0
 40
0
 40
0
 40
1
 40
1
 40
1
 40
1
 10
352.478330
 20
131.700396
 30
0.0
 10
347.990440
 20
129.107835
 30
0.0
 10
345.227594
 20
124.316991
 30
0.0
 10
345.231429
 20
119.134084
 30
0.0
  0
SPLINE
  5
13e
100
AcDbEntity
  8
0
 62
5
100
AcDbSpline
 70
8
 71
3
 72
8
 73
4
 74
0
 40
0
 40
0
 40
0
 40
0
 40
1
 40
1
 40
1
 40
1
 10
345.231429
 20
119.134084
 30
0.0
 10
345.227594
 20
113.951178
 30
0.0
 10
347.990440
 20
109.160333
 30
0.0
 10
352.478330
 20
106.567773
 30
0.0
  0
SPLINE
  5
13f
100
AcDbEntity
  8
0
 62
5
100
AcDbSpline
 70
8
 71
3
 72
8
 73
4
 74
0
 40
0
 40
0
 40
0
 40
0
 40
1
 40
1
 40
1
 40
1
 10
352.478330
 20
106.567773
 30
0.0
 10
356.966221
 20
103.975212
 30
0.0
 10
362.496637
 20
103.975212
 30
0.0
 10
366.984528
 20
106.567773
 30
0.0
  0
SPLINE
  5
140
100
AcDbEntity
  8
0
 62
5
100
AcDbSpline
 70
8
 71
3
 72
8
 73
4
 74
0
 40
0
 40
0
 40
0
 40
0
 40
1
 40
1
 40
1
 40
1
 10
366.984528
 20
106.567773
 30
0.0
 10
371.472418
 20
109.160333
 30
0.0
 10
374.235264
 20
113.951178
 30
0.0
 10
374.231429
 20
119.134084
 30
0.0
  0
LWPOLYLINE
  5
141
100
AcDbEntity
  8
0
 62
5
100
AcDbPolyline
 90
1
 70
1
 10
330.379705
 20
119.134084
 30
0.0
  0
SPLINE
  5
142
100
AcDbEntity
  8
0
 62
5
100
AcDbSpline
 70
8
 71
3
 72
8
 73
4
 74
0
 40
0
 40
0
 40
0
 40
0
 40
1
 40
1
 40
1
 40
1
 10
300.915573
 20
92.621194
 30
0.0
 10
300.916227
 20
93.375460
 30
0.0
 10
300.514207
 20
94.072711
 30
0.0
 10
299.861102
 20
94.450033
 30
0.0
  0
SPLINE
  5
143
100
AcDbEntity
  8
0
 62
5
100
AcDbSpline
 70
8
 71
3
 72
8
 73
4
 74
0
 40
0
 40
0
 40
0
 40
0
 40
1
 40
1
 40
1
 40
1
 10
299.861102
 20
94.450033
 30
0.0
 10
299.207997
 20
94.827355
 30
0.0
 10
298.403150
 20
94.827355
 30
0.0
 10
297.750045
 20
94.450033
 30
0.0
  0
SPLINE
  5
144
100
AcDbEntity
  8
0
 62
5
100
AcDbSpline
 70
8
 71
3
 72
8
 73
4
 74
0
 40
0
 40
0
 40
0
 40
0
 40
1
 40
1
 40
1
 40
1
 10
297.750045
 20
94.450033
 30
0.0
 10
297.096941
 20
94.072711
 30
0.0
 10
296.694920
 20
93.375460
 30
0.0
 10
296.695574
 20
92.621194
 30
0.0
  0
SPLINE
  5
145
100
AcDbEntity
  8
0
 62
5
100
AcDbSpline
 70
8
 71
3
 72
8
 73
4
 74
0
 40
0
 40
0
 40
0
 40
0
 40
1
 40
1
 40
1
 40
1
 10
296.695574
 20
92.621194
 30
0.0
 10
296.694920
 20
91.866928
 30
0.0
 10
297.096941
 20
91.169677
 30
0.0
 10
297.750045
 20
90.792355
 30
0.0
  0
SPLINE
  5
146
100
AcDbEntity
  8
0
 62
5
100
AcDbSpline
 70
8
 71
3
 72
8
 73
4
 74
0
 40
0
 40
0
 40
0
 40
0
 40
1
 40
1
 40
1
 40
1
 10
297.750045
 20
90.792355
 30
0.0
 10
298.403150
 20
90.415033
 30
0.0
 10
299.207997
 20
90.415033
 30
0.0
 10
299.861102
 20
90.792355
 30
0.0
  0
SPLINE
  5
147
100
AcDbEntity
  8
0
 62
5
100
AcDbSpline
 70
8
 71
3
 72
8
 73
4
 74
0
 40
0
 40
0
 40
0
 40
0
 40
1
 40
1
 40
1
 40
1
 10
299.861102
 20
90.792355
 30
0.0
 10
300.514207
 20
91.169677
 30
0.0
 10
300.916227
 20
91.866928
 30
0.0
 10
300.915573
 20
92.621194
 30
0.0
  0
LWPOLYLINE
  5
148
100
AcDbEntity
  8
0
 62
5
100
AcDbPolyline
 90
1
 70
1
 10
374.231429
 20
119.134084
 30
0.0
  0
SPLINE
  5
149
100
AcDbEntity
  8
0
 62
5
100
AcDbSpline
 70
8
 71
3
 72
8
 73
4
 74
0
 40
0
 40
0
 40
0
 40
0
 40
1
 40
1
 40
1
 40
1
 10
349.305589
 20
91.135902
 30
0.0
 10
349.305589
 20
95.244460
 30
0.0
 10
347.113700
 20
99.040923
 30
0.0
 10
343.555585
 20
101.095202
 30
0.0
  0
SPLINE
  5
14a
100
AcDbEntity
  8
0
 62
5
100
AcDbSpline
 70
8
 71
3
 72
8
 73
4
 74
0
 40
0
 40
0
 40
0
 40
0
 40
1
 40
1
 40
1
 40
1
 10
343.555585
 20
101.095202
 30
0.0
 10
339.997469
 20
103.149481
 30
0.0
 10
335.613691
 20
103.149481
 30
0.0
 10
332.055576
 20
101.095202
 30
0.0
  0
SPLINE
  5
14b
100
AcDbEntity
  8
0
 62
5
100
AcDbSpline
 70
8
 71
3
 72
8
 73
4
 74
0
 40
0
 40
0
 40
0
 40
0
 40
1
 40
1
 40
1
 40
1
 10
332.055576
 20
101.095202
 30
0.0
 10
328.497461
 20
99.040923
 30
0.0
 10
326.305571
 20
95.244460
 30
0.0
 10
326.305571
 20
91.135902
 30
0.0
  0
SPLINE
  5
14c
100
AcDbEntity
  8
0
 62
5
100
AcDbSpline
 70
8
 71
3
 72
8
 73
4
 74
0
 40
0
 40
0
 40
0
 40
0
 40
1
 40
1
 40
1
 40
1
 10
326.305571
 20
91.135902
 30
0.0
 10
326.305571
 20
87.027345
 30
0.0
 10
328.497461
 20
83.230881
 30
0.0
 10
332.055576
 20
81.176603
 30
0.0
  0
SPLINE
  5
14d
100
AcDbEntity
  8
0
 62
5
100
AcDbSpline
 70
8
 71
3
 72
8
 73
4
 74
0
 40
0
 40
0
 40
0
 40
0
 40
1
 40
1
 40
1
 40
1
 10
332.055576
 20
81.176603
 30
0.0
 10
335.613691
 20
79.122324
 30
0.0
 10
339.997469
 20
79.122324
 30
0.0
 10
343.555585
 20
81.176603
 30
0.0
  0
SPLINE
  5
14e
100
AcDbEntity
  8
0
 62
5
100
AcDbSpline
 70
8
 71
3
 72
8
 73
4
 74
0
 40
0
 40
0
 40
0
 40
0
 40
1
 40
1
 40
1
 40
1
 10
343.555585
 20
81.176603
 30
0.0
 10
347.113700
 20
83.230881
 30
0.0
 10
349.305589
 20
87.027345
 30
0.0
 10
349.305589
 20
91.135902
 30
0.0
  0
LWPOLYLINE
  5
14f
100
AcDbEntity
  8
0
 62
5
100
AcDbPolyline
 90
1
 70
1
 10
300.915573
 20
92.621194
 30
0.0
  0
SPLINE
  5
150
100
AcDbEntity
  8
0
 62
5
100
AcDbSpline
 70
8
 71
3
 72
8
 73
4
 74
0
 40
0
 40
0
 40
0
 40
0
 40
1
 40
1
 40
1
 40
1
 10
428.805578
 20
118.385896
 30
0.0
 10
428.809257
 20
121.246469
 30
0.0
 10
427.285271
 20
123.891323
 30
0.0
 10
424.808554
 20
125.322672
 30
0.0
  0
SPLINE
  5
151
100
AcDbEntity
  8
0
 62
5
100
AcDbSpline
 70
8
 71
3
 72
8
 73
4
 74
0
 40
0
 40
0
 40
0
 40
0
 40
1
 40
1
 40
1
 40
1
 10
424.808554
 20
125.322672
 30
0.0
 10
422.331836
 20
126.754022
 30
0.0
 10
419.279331
 20
126.754022
 30
0.0
 10
416.802614
 20
125.322672
 30
0.0
  0
SPLINE
  5
152
100
AcDbEntity
  8
0
 62
5
100
AcDbSpline
 70
8
 71
3
 72
8
 73
4
 74
0
 40
0
 40
0
 40
0
 40
0
 40
1
 40
1
 40
1
 40
1
 10
416.802614
 20
125.322672
 30
0.0
 10
414.325896
 20
123.891323
 30
0.0
 10
412.801910
 20
121.246469
 30
0.0
 10
412.805589
 20
118.385896
 30
0.0
  0
SPLINE
  5
153
100
AcDbEntity
  8
0
 62
5
100
AcDbSpline
 70
8
 71
3
 72
8
 73
4
 74
0
 40
0
 40
0
 40
0
 40
0
 40
1
 40
1
 40
1
 40
1
 10
412.805589
 20
118.385896
 30
0.0
 10
412.801910
 20
115.525322
 30
0.0
 10
414.325896
 20
112.880469
 30
0.0
 10
416.802614
 20
111.449119
 30
0.0
  0
SPLINE
  5
154
100
AcDbEntity
  8
0
 62
5
100
AcDbSpline
 70
8
 71
3
 72
8
 73
4
 74
0
 40
0
 40
0
 40
0
 40
0
 40
1
 40
1
 40
1
 40
1
 10
416.802614
 20
111.449119
 30
0.0
 10
419.279331
 20
110.017769
 30
0.0
 10
422.331836
 20
110.017769
 30
0.0
 10
424.808554
 20
111.449119
 30
0.0
  0
SPLINE
  5
155
100
AcDbEntity
  8
0
 62
5
100
AcDbSpline
 70
8
 71
3
 72
8
 73
4
 74
0
 40
0
 40
0
 40
0
 40
0
 40
1
 40
1
 40
1
 40
1
 10
424.808554
 20
111.449119
 30
0.0
 10
427.285271
 20
112.880469
 30
0.0
 10
428.809257
 20
115.525322
 30
0.0
 10
428.805578
 20
118.385896
 30
0.0
  0
LWPOLYLINE
  5
156
100
AcDbEntity
  8
0
 62
5
100
AcDbPolyline
 90
1
 70
1
 10
349.305589
 20
91.135902
 30
0.0
  0
SPLINE
  5
157
100
AcDbEntity
  8
0
 62
5
100
AcDbSpline
 70
8
 71
3
 72
8
 73
4
 74
0
 40
0
 40
0
 40
0
 40
0
 40
1
 40
1
 40
1
 40
1
 10
262.805571
 20
92.885910
 30
0.0
 10
262.808861
 20
95.746224
 30
0.0
 10
261.284791
 20
98.390672
 30
0.0
 10
258.808233
 20
99.821780
 30
0.0
  0
SPLINE
  5
158
100
AcDbEntity
  8
0
 62
5
100
AcDbSpline
 70
8
 71
3
 72
8
 73
4
 74
0
 40
0
 40
0
 40
0
 40
0
 40
1
 40
1
 40
1
 40
1
 10
258.808233
 20
99.821780
 30
0.0
 10
256.331675
 20
101.252888
 30
0.0
 10
253.279479
 20
101.252888
 30
0.0
 10
250.802921
 20
99.821780
 30
0.0
  0
SPLINE
  5
159
100
AcDbEntity
  8
0
 62
5
100
AcDbSpline
 70
8
 71
3
 72
8
 73
4
 74
0
 40
0
 40
0
 40
0
 40
0
 40
1
 40
1
 40
1
 40
1
 10
250.802921
 20
99.821780
 30
0.0
 10
248.326363
 20
98.390672
 30
0.0
 10
246.802292
 20
95.746224
 30
0.0
 10
246.805582
 20
92.885910
 30
0.0
  0
SPLINE
  5
15a
100
AcDbEntity
  8
0
 62
5
100
AcDbSpline
 70
8
 71
3
 72
8
 73
4
 74
0
 40
0
 40
0
 40
0
 40
0
 40
1
 40
1
 40
1
 40
1
 10
246.805582
 20
92.885910
 30
0.0
 10
246.802292
 20
90.025595
 30
0.0
 10
248.326363
 20
87.381147
 30
0.0
 10
250.802921
 20
85.950039
 30
0.0
  0
SPLINE
  5
15b
100
AcDbEntity
  8
0
 62
5
100
AcDbSpline
 70
8
 71
3
 72
8
 73
4
 74
0
 40
0
 40
0
 40
0
 40
0
 40
1
 40
1
 40
1
 40
1
 10
250.802921
 20
85.950039
 30
0.0
 10
253.279479
 20
84.518931
 30
0.0
 10
256.331675
 20
84.518931
 30
0.0
 10
258.808233
 20
85.950039
 30
0.0
  0
SPLINE
  5
15c
100
AcDbEntity
  8
0
 62
5
100
AcDbSpline
 70
8
 71
3
 72
8
 73
4
 74
0
 40
0
 40
0
 40
0
 40
0
 40
1
 40
1
 40
1
 40
1
 10
258.808233
 20
85.950039
 30
0.0
 10
261.284791
 20
87.381147
 30
0.0
 10
262.808861
 20
90.025595
 30
0.0
 10
262.805571
 20
92.885910
 30
0.0
  0
LWPOLYLINE
  5
15d
100
AcDbEntity
  8
0
 62
5
100
AcDbPolyline
 90
1
 70
1
 10
428.805578
 20
118.385896
 30
0.0
  0
SPLINE
  5
15e
100
AcDbEntity
  8
0
 62
5
100
AcDbSpline
 70
8
 71
3
 72
8
 73
4
 74
0
 40
0
 40
0
 40
0
 40
0
 40
1
 40
1
 40
1
 40
1
 10
428.805578
 20
92.885910
 30
0.0
 10
428.809257
 20
95.746483
 30
0.0
 10
427.285271
 20
98.391337
 30
0.0
 10
424.808554
 20
99.822686
 30
0.0
  0
SPLINE
  5
15f
100
AcDbEntity
  8
0
 62
5
100
AcDbSpline
 70
8
 71
3
 72
8
 73
4
 74
0
 40
0
 40
0
 40
0
 40
0
 40
1
 40
1
 40
1
 40
1
 10
424.808554
 20
99.822686
 30
0.0
 10
422.331836
 20
101.254036
 30
0.0
 10
419.279331
 20
101.254036
 30
0.0
 10
416.802614
 20
99.822686
 30
0.0
  0
SPLINE
  5
160
100
AcDbEntity
  8
0
 62
5
100
AcDbSpline
 70
8
 71
3
 72
8
 73
4
 74
0
 40
0
 40
0
 40
0
 40
0
 40
1
 40
1
 40
1
 40
1
 10
416.802614
 20
99.822686
 30
0.0
 10
414.325896
 20
98.391337
 30
0.0
 10
412.801910
 20
95.746483
 30
0.0
 10
412.805589
 20
92.885910
 30
0.0
  0
SPLINE
  5
161
100
AcDbEntity
  8
0
 62
5
100
AcDbSpline
 70
8
 71
3
 72
8
 73
4
 74
0
 40
0
 40
0
 40
0
 40
0
 40
1
 40
1
 40
1
 40
1
 10
412.805589
 20
92.885910
 30
0.0
 10
412.801910
 20
90.025336
 30
0.0
 10
414.325896
 20
87.380482
 30
0.0
 10
416.802614
 20
85.949133
 30
0.0
  0
SPLINE
  5
162
100
AcDbEntity
  8
0
 62
5
100
AcDbSpline
 70
8
 71
3
 72
8
 73
4
 74
0
 40
0
 40
0
 40
0
 40
0
 40
1
 40
1
 40
1
 40
1
 10
416.802614
 20
85.949133
 30
0.0
 10
419.279331
 20
84.517783
 30
0.0
 10
422.331836
 20
84.517783
 30
0.0
 10
424.808554
 20
85.949133
 30
0.0
  0
SPLINE
  5
163
100
AcDbEntity
  8
0
 62
5
100
AcDbSpline
 70
8
 71
3
 72
8
 73
4
 74
0
 40
0
 40
0
 40
0
 40
0
 40
1
 40
1
 40
1
 40
1
 10
424.808554
 20
85.949133
 30
0.0
 10
427.285271
 20
87.380482
 30
0.0
 10
428.809257
 20
90.025336
 30
0.0
 10
428.805578
 20
92.885910
 30
0.0
  0
LWPOLYLINE
  5
164
100
AcDbEntity
  8
0
 62
5
100
AcDbPolyline
 90
1
 70
1
 10
262.805571
 20
92.885910
 30
0.0
  0
SPLINE
  5
165
100
AcDbEntity
  8
0
 62
5
100
AcDbSpline
 70
8
 71
3
 72
8
 73
4
 74
0
 40
0
 40
0
 40
0
 40
0
 40
1
 40
1
 40
1
 40
1
 10
262.805571
 20
118.385896
 30
0.0
 10
262.808861
 20
121.246210
 30
0.0
 10
261.284791
 20
123.890658
 30
0.0
 10
258.808233
 20
125.321766
 30
0.0
  0
SPLINE
  5
166
100
AcDbEntity
  8
0
 62
5
100
AcDbSpline
 70
8
 71
3
 72
8
 73
4
 74
0
 40
0
 40
0
 40
0
 40
0
 40
1
 40
1
 40
1
 40
1
 10
258.808233
 20
125.321766
 30
0.0
 10
256.331675
 20
126.752874
 30
0.0
 10
253.279479
 20
126.752874
 30
0.0
 10
250.802921
 20
125.321766
 30
0.0
  0
SPLINE
  5
167
100
AcDbEntity
  8
0
 62
5
100
AcDbSpline
 70
8
 71
3
 72
8
 73
4
 74
0
 40
0
 40
0
 40
0
 40
0
 40
1
 40
1
 40
1
 40
1
 10
250.802921
 20
125.321766
 30
0.0
 10
248.326363
 20
123.890658
 30
0.0
 10
246.802292
 20
121.246210
 30
0.0
 10
246.805582
 20
118.385896
 30
0.0
  0
SPLINE
  5
168
100
AcDbEntity
  8
0
 62
5
100
AcDbSpline
 70
8
 71
3
 72
8
 73
4
 74
0
 40
0
 40
0
 40
0
 40
0
 40
1
 40
1
 40
1
 40
1
 10
246.805582
 20
118.385896
 30
0.0
 10
246.802292
 20
115.525581
 30
0.0
 10
248.326363
 20
112.881133
 30
0.0
 10
250.802921
 20
111.450025
 30
0.0
  0
SPLINE
  5
169
100
AcDbEntity
  8
0
 62
5
100
AcDbSpline
 70
8
 71
3
 72
8
 73
4
 74
0
 40
0
 40
0
 40
0
 40
0
 40
1
 40
1
 40
1
 40
1
 10
250.802921
 20
111.450025
 30
0.0
 10
253.279479
 20
110.018917
 30
0.0
 10
256.331675
 20
110.018917
 30
0.0
 10
258.808233
 20
111.450025
 30
0.0
  0
SPLINE
  5
16a
100
AcDbEntity
  8
0
 62
5
100
AcDbSpline
 70
8
 71
3
 72
8
 73
4
 74
0
 40
0
 40
0
 40
0
 40
0
 40
1
 40
1
 40
1
 40
1
 10
258.808233
 20
111.450025
 30
0.0
 10
261.284791
 20
112.881133
 30
0.0
 10
262.808861
 20
115.525581
 30
0.0
 10
262.805571
 20
118.385896
 30
0.0
  0
LWPOLYLINE
  5
16b
100
AcDbEntity
  8
0
 62
5
100
AcDbPolyline
 90
1
 70
1
 10
428.805578
 20
92.885910
 30
0.0
  0
LWPOLYLINE
  5
16c
100
AcDbEntity
  8
0
 62
5
100
AcDbPolyline
 90
1
 70
1
 10
262.805571
 20
118.385896
 30
0.0
  0
SPLINE
  5
16d
100
AcDbEntity
  8
0
 62
5
100
AcDbSpline
 70
8
 71
3
 72
8
 73
4
 74
0
 40
0
 40
0
 40
0
 40
0
 40
1
 40
1
 40
1
 40
1
 10
391.275570
 20
84.618130
 30
0.0
 10
391.276467
 20
85.065308
 30
0.0
 10
391.038415
 20
85.478902
 30
0.0
 10
390.651296
 20
85.702751
 30
0.0
  0
SPLINE
  5
16e
100
AcDbEntity
  8
0
 62
5
100
AcDbSpline
 70
8
 71
3
 72
8
 73
4
 74
0
 40
0
 40
0
 40
0
 40
0
 40
1
 40
1
 40
1
 40
1
 10
390.651296
 20
85.702751
 30
0.0
 10
390.264177
 20
85.926599
 30
0.0
 10
389.786968
 20
85.926599
 30
0.0
 10
389.399849
 20
85.702751
 30
0.0
  0
SPLINE
  5
16f
100
AcDbEntity
  8
0
 62
5
100
AcDbSpline
 70
8
 71
3
 72
8
 73
4
 74
0
 40
0
 40
0
 40
0
 40
0
 40
1
 40
1
 40
1
 40
1
 10
389.399849
 20
85.702751
 30
0.0
 10
389.012730
 20
85.478902
 30
0.0
 10
388.774678
 20
85.065308
 30
0.0
 10
388.775575
 20
84.618130
 30
0.0
  0
SPLINE
  5
170
100
AcDbEntity
  8
0
 62
5
100
AcDbSpline
 70
8
 71
3
 72
8
 73
4
 74
0
 40
0
 40
0
 40
0
 40
0
 40
1
 40
1
 40
1
 40
1
 10
388.775575
 20
84.618130
 30
0.0
 10
388.774678
 20
84.170952
 30
0.0
 10
389.012730
 20
83.757358
 30
0.0
 10
389.399849
 20
83.533510
 30
0.0
  0
SPLINE
  5
171
100
AcDbEntity
  8
0
 62
5
100
AcDbSpline
 70
8
 71
3
 72
8
 73
4
 74
0
 40
0
 40
0
 40
0
 40
0
 40
1
 40
1
 40
1
 40
1
 10
389.399849
 20
83.533510
 30
0.0
 10
389.786968
 20
83.309661
 30
0.0
 10
390.264177
 20
83.309661
 30
0.0
 10
390.651296
 20
83.533510
 30
0.0
  0
SPLINE
  5
172
100
AcDbEntity
  8
0
 62
5
100
AcDbSpline
 70
8
 71
3
 72
8
 73
4
 74
0
 40
0
 40
0
 40
0
 40
0
 40
1
 40
1
 40
1
 40
1
 10
390.651296
 20
83.533510
 30
0.0
 10
391.038415
 20
83.757358
 30
0.0
 10
391.276467
 20
84.170952
 30
0.0
 10
391.275570
 20
84.618130
 30
0.0
  0
LWPOLYLINE
  5
173
100
AcDbEntity
  8
0
 62
5
100
AcDbPolyline
 90
4
 70
1
 10
391.965577
 20
86.980912
 30
0.0
 10
391.965577
 20
98.261502
 30
0.0
 10
372.845568
 20
98.261502
 30
0.0
 10
372.845568
 20
86.980912
 30
0.0
  0
SPLINE
  5
174
100
AcDbEntity
  8
0
 62
5
100
AcDbSpline
 70
8
 71
3
 72
8
 73
4
 74
0
 40
0
 40
0
 40
0
 40
0
 40
1
 40
1
 40
1
 40
1
 10
376.035570
 20
84.618130
 30
0.0
 10
376.036490
 20
85.065324
 30
0.0
 10
375.798443
 20
85.478942
 30
0.0
 10
375.411315
 20
85.702805
 30
0.0
  0
SPLINE
  5
175
100
AcDbEntity
  8
0
 62
5
100
AcDbSpline
 70
8
 71
3
 72
8
 73
4
 74
0
 40
0
 40
0
 40
0
 40
0
 40
1
 40
1
 40
1
 40
1
 10
375.411315
 20
85.702805
 30
0.0
 10
375.024186
 20
85.926668
 30
0.0
 10
374.546959
 20
85.926668
 30
0.0
 10
374.159830
 20
85.702805
 30
0.0
  0
SPLINE
  5
176
100
AcDbEntity
  8
0
 62
5
100
AcDbSpline
 70
8
 71
3
 72
8
 73
4
 74
0
 40
0
 40
0
 40
0
 40
0
 40
1
 40
1
 40
1
 40
1
 10
374.159830
 20
85.702805
 30
0.0
 10
373.772702
 20
85.478942
 30
0.0
 10
373.534655
 20
85.065324
 30
0.0
 10
373.535575
 20
84.618130
 30
0.0
  0
SPLINE
  5
177
100
AcDbEntity
  8
0
 62
5
100
AcDbSpline
 70
8
 71
3
 72
8
 73
4
 74
0
 40
0
 40
0
 40
0
 40
0
 40
1
 40
1
 40
1
 40
1
 10
373.535575
 20
84.618130
 30
0.0
 10
373.534655
 20
84.170936
 30
0.0
 10
373.772702
 20
83.757318
 30
0.0
 10
374.159830
 20
83.533455
 30
0.0
  0
SPLINE
  5
178
100
AcDbEntity
  8
0
 62
5
100
AcDbSpline
 70
8
 71
3
 72
8
 73
4
 74
0
 40
0
 40
0
 40
0
 40
0
 40
1
 40
1
 40
1
 40
1
 10
374.159830
 20
83.533455
 30
0.0
 10
374.546959
 20
83.309592
 30
0.0
 10
375.024186
 20
83.309592
 30
0.0
 10
375.411315
 20
83.533455
 30
0.0
  0
SPLINE
  5
179
100
AcDbEntity
  8
0
 62
5
100
AcDbSpline
 70
8
 71
3
 72
8
 73
4
 74
0
 40
0
 40
0
 40
0
 40
0
 40
1
 40
1
 40
1
 40
1
 10
375.411315
 20
83.533455
 30
0.0
 10
375.798443
 20
83.757318
 30
0.0
 10
376.036490
 20
84.170936
 30
0.0
 10
376.035570
 20
84.618130
 30
0.0
  0
LWPOLYLINE
  5
17a
100
AcDbEntity
  8
0
 62
5
100
AcDbPolyline
 90
1
 70
1
 10
391.275570
 20
84.618130
 30
0.0
  0
LWPOLYLINE
  5
17b
100
AcDbEntity
  8
0
 62
5
100
AcDbPolyline
 90
1
 70
1
 10
376.035570
 20
84.618130
 30
0.0
  0
LWPOLYLINE
  5
17c
100
AcDbEntity
  8
0
 62
3
100
AcDbPolyline
 90
4
 70
1
 10
437.805565
 20
138.135904
 30
0.0
 10
437.805565
 20
73.135901
 30
0.0
 10
237.805569
 20
73.135901
 30
0.0
 10
237.805569
 20
138.135904
 30
0.0
  0
ENDSEC
  0
SECTION
  2
OBJECTS
  0
DICTIONARY
  5
C
330
0
100
AcDbDictionary
  3
ACAD_GROUP
350
D
  3
ACAD_MLINESTYLE
350
17
  0
DICTIONARY
  5
D
330
C
100
AcDbDictionary
  0
DICTIONARY
  5
1A
330
C
100
AcDbDictionary
  0
DICTIONARY
  5
17
330
C
100
AcDbDictionary
  3
STANDARD
350
18
  0
DICTIONARY
  5
19
330
C
100
AcDbDictionary
  0
ENDSEC
  0
EOF
