<?xml version="1.0" encoding="UTF-8" standalone="no"?>
<svg
   xmlns:dc="http://purl.org/dc/elements/1.1/"
   xmlns:cc="http://creativecommons.org/ns#"
   xmlns:rdf="http://www.w3.org/1999/02/22-rdf-syntax-ns#"
   xmlns:svg="http://www.w3.org/2000/svg"
   xmlns="http://www.w3.org/2000/svg"
   xmlns:sodipodi="http://sodipodi.sourceforge.net/DTD/sodipodi-0.dtd"
   xmlns:inkscape="http://www.inkscape.org/namespaces/inkscape"
   width="600mm"
   height="400mm"
   version="1.1"
   id="svg5036"
   sodipodi:docname="controlBox_LaserReady.svg"
   inkscape:version="0.92.2 5c3e80d, 2017-08-06">
  <metadata
     id="metadata5040">
    <rdf:RDF>
      <cc:Work
         rdf:about="">
        <dc:format>image/svg+xml</dc:format>
        <dc:type
           rdf:resource="http://purl.org/dc/dcmitype/StillImage" />
        <dc:title></dc:title>
      </cc:Work>
    </rdf:RDF>
  </metadata>
  <sodipodi:namedview
     pagecolor="#ffffff"
     bordercolor="#666666"
     borderopacity="1"
     objecttolerance="10"
     gridtolerance="10"
     guidetolerance="10"
     inkscape:pageopacity="0"
     inkscape:pageshadow="2"
     inkscape:window-width="1444"
     inkscape:window-height="859"
     id="namedview5038"
     showgrid="false"
     inkscape:zoom="0.29732611"
     inkscape:cx="1639.3508"
     inkscape:cy="1637.4366"
     inkscape:window-x="144"
     inkscape:window-y="1"
     inkscape:window-maximized="0"
     inkscape:current-layer="g5034"
     inkscape:document-units="mm"
     units="mm" />
  <desc
     id="desc4932">/Users/callumkirkwood/Desktop/face2.dxf - scale = 1.000000, origin = (0.000000, 0.000000), method = manual</desc>
  <defs
     id="defs4946">
    <marker
       id="DistanceX"
       orient="auto"
       refX="0"
       refY="0"
       style="overflow:visible">
      <path
         d="M 3,-3 -3,3 M 0,-5 V 5"
         style="stroke:#000000;stroke-width:0.5"
         id="path4934"
         inkscape:connector-curvature="0" />
    </marker>
    <pattern
       height="8"
       id="Hatch"
       patternUnits="userSpaceOnUse"
       width="8"
       x="0"
       y="0">
      <path
         d="M8 4 l-4,4"
         linecap="square"
         stroke="#000000"
         stroke-width="0.25"
         id="path4937" />
      <path
         d="M6 2 l-4,4"
         linecap="square"
         stroke="#000000"
         stroke-width="0.25"
         id="path4939" />
      <path
         d="M4 0 l-4,4"
         linecap="square"
         stroke="#000000"
         stroke-width="0.25"
         id="path4941" />
    </pattern>
    <symbol
       id="*MODEL_SPACE" />
    <symbol
       id="*PAPER_SPACE" />
  </defs>
  <g
     inkscape:groupmode="layer"
     inkscape:label="0"
     id="g5034"
     transform="translate(0,389.29131)">
    <path
       d="m 1688.664,-305.70909 h 11.3386"
       style="fill:none;stroke:#ff0000"
       id="path4948"
       inkscape:connector-curvature="0" />
    <path
       d="m 1694.3333,-311.37829 v 11.3385"
       style="fill:none;stroke:#ff0000"
       id="path4950"
       inkscape:connector-curvature="0" />
    <path
       d="M 2217.7979,91.141106 V 102.47971"
       style="fill:none;stroke:#ff0000"
       id="path4952"
       inkscape:connector-curvature="0" />
    <path
       d="m 2212.1286,96.810406 h 11.3386"
       style="fill:none;stroke:#ff0000"
       id="path4954"
       inkscape:connector-curvature="0" />
    <path
       d="m 1694.3333,493.61181 v 11.3386"
       style="fill:none;stroke:#ff0000"
       id="path4956"
       inkscape:connector-curvature="0" />
    <path
       d="m 1688.664,499.28111 h 11.3386"
       style="fill:none;stroke:#ff0000"
       id="path4958"
       inkscape:connector-curvature="0" />
    <path
       d="m 1148.1916,499.33011 h 11.3386"
       style="fill:none;stroke:#ff0000"
       id="path4960"
       inkscape:connector-curvature="0" />
    <path
       d="m 1153.8609,493.66081 v 11.3386"
       style="fill:none;stroke:#ff0000"
       id="path4962"
       inkscape:connector-curvature="0" />
    <path
       d="m 607.7191,499.26551 h 11.3386"
       style="fill:none;stroke:#ff0000"
       id="path4966"
       inkscape:connector-curvature="0" />
    <path
       d="m 607.7191,499.26551 h 11.3386"
       style="fill:none;stroke:#ff0000"
       id="path4968"
       inkscape:connector-curvature="0" />
    <path
       d="m 613.3884,493.59621 v 11.3386"
       style="fill:none;stroke:#ff0000"
       id="path4970"
       inkscape:connector-curvature="0" />
    <path
       d="m 95.593203,96.810406 h -11.3386"
       style="fill:none;stroke:#ff0000"
       id="path4972"
       inkscape:connector-curvature="0" />
    <path
       d="M 89.923903,91.141106 V 102.47971"
       style="fill:none;stroke:#ff0000"
       id="path4974"
       inkscape:connector-curvature="0" />
    <path
       d="m 933.2309,-63.819494 a 13.228347,13.228347 0 1 0 -26.4566,0 13.228347,13.228347 0 1 0 26.4566,0 z"
       style="fill:none;stroke:#0000ff"
       id="path4976"
       inkscape:connector-curvature="0" />
    <path
       d="m 725.3569,257.44031 a 13.22835,13.22835 0 1 0 -26.4567,0 13.22835,13.22835 0 1 0 26.4567,0 z"
       style="fill:none;stroke:#0000ff"
       id="path4978"
       inkscape:connector-curvature="0" />
    <path
       d="m 829.2939,257.44031 a 13.22835,13.22835 0 1 0 -26.4567,0 13.22835,13.22835 0 1 0 26.4567,0 z"
       style="fill:none;stroke:#0000ff"
       id="path4980"
       inkscape:connector-curvature="0" />
    <path
       d="m 933.2309,96.810406 a 13.228347,13.228347 0 1 0 -26.4566,0 13.228347,13.228347 0 1 0 26.4566,0 z"
       style="fill:none;stroke:#0000ff"
       id="path4982"
       inkscape:connector-curvature="0" />
    <path
       d="m 829.2939,-63.819494 a 13.22835,13.22835 0 1 0 -26.4567,0 13.22835,13.22835 0 1 0 26.4567,0 z"
       style="fill:none;stroke:#0000ff"
       id="path4984"
       inkscape:connector-curvature="0" />
    <path
       d="m 725.3569,96.810406 a 13.22835,13.22835 0 1 0 -26.4567,0 13.22835,13.22835 0 1 0 26.4567,0 z"
       style="fill:none;stroke:#0000ff"
       id="path4986"
       inkscape:connector-curvature="0" />
    <path
       d="m 933.2309,257.44031 a 13.228347,13.228347 0 1 0 -26.4566,0 13.228347,13.228347 0 1 0 26.4566,0 z"
       style="fill:none;stroke:#0000ff"
       id="path4988"
       inkscape:connector-curvature="0" />
    <path
       d="m 829.2939,96.810406 a 13.22835,13.22835 0 1 0 -26.4567,0 13.22835,13.22835 0 1 0 26.4567,0 z"
       style="fill:none;stroke:#0000ff"
       id="path4990"
       inkscape:connector-curvature="0" />
    <path
       d="m 725.3569,-63.819494 a 13.22835,13.22835 0 1 0 -26.4567,0 13.22835,13.22835 0 1 0 26.4567,0 z"
       style="fill:none;stroke:#0000ff"
       id="path4992"
       inkscape:connector-curvature="0" />
    <path
       d="m 1184.0971,-0.34609399 a 30.23625,30.23625 0 1 0 -60.4725,0 30.23625,30.23625 0 1 0 60.4725,0 z"
       style="fill:none;stroke:#0000ff"
       id="path4994"
       inkscape:connector-curvature="0" />
    <path
       d="m 1117.4626,75.244406 v 43.132004 h 72.7966 V 75.244406 Z"
       style="fill:none;stroke:#0000ff"
       id="path4996"
       inkscape:connector-curvature="0" />
    <path
       d="m 1187.3853,68.010406 a 4.7244095,4.7244095 0 1 0 -9.4488,0 4.7244095,4.7244095 0 1 0 9.4488,0 z"
       style="fill:none;stroke:#0000ff"
       id="path4998"
       inkscape:connector-curvature="0" />
    <path
       d="m 1129.7853,68.010406 a 4.7244095,4.7244095 0 1 0 -9.4488,0 4.7244095,4.7244095 0 1 0 9.4488,0 z"
       style="fill:none;stroke:#0000ff"
       id="path5000"
       inkscape:connector-curvature="0" />
    <path
       d="m 1506.7553,106.25921 h 362.8346 a 7.559055,7.559055 0 0 0 7.5591,-7.559004 v -3.7796 a 7.559055,7.559055 0 0 0 -7.5591,-7.559 h -362.8346 a 7.559055,7.559055 0 0 0 -7.5591,7.559 v 3.7796 a 7.559055,7.559055 0 0 0 7.5591,7.559004 z"
       style="fill:none;stroke:#0000ff"
       id="path5002"
       inkscape:connector-curvature="0" />
    <path
       d="m 1348.0151,281.07031 h 3.7795 a 7.559055,7.559055 0 0 0 7.5591,-7.5591 V -89.323394 a 7.559055,7.559055 0 0 0 -7.5591,-7.5591 h -3.7795 a 7.559055,7.559055 0 0 0 -7.559,7.5591 V 273.51121 a 7.559055,7.559055 0 0 0 7.559,7.5591 z"
       style="fill:none;stroke:#0000ff"
       id="path5004"
       inkscape:connector-curvature="0" />
    <path
       d="m 2162.9947,96.810406 a 30.236221,30.236221 0 1 0 -60.4724,0 30.236221,30.236221 0 1 0 60.4724,0 z"
       style="fill:none;stroke:#0000ff"
       id="path5006"
       inkscape:connector-curvature="0" />
    <path
       d="m 2066.6168,96.810406 a 30.236221,30.236221 0 1 0 -60.4725,0 30.236221,30.236221 0 1 0 60.4725,0 z"
       style="fill:none;stroke:#0000ff"
       id="path5008"
       inkscape:connector-curvature="0" />
    <path
       d="m 301.5774,96.810406 a 30.236221,30.236221 0 1 0 -60.4724,0 30.23622,30.23622 0 1 0 60.4724,0 z"
       style="fill:none;stroke:#0000ff"
       id="path5010"
       inkscape:connector-curvature="0" />
    <path
       d="m 205.1995,96.810406 a 30.23625,30.23625 0 1 0 -60.4725,0 30.23625,30.23625 0 1 0 60.4725,0 z"
       style="fill:none;stroke:#0000ff"
       id="path5012"
       inkscape:connector-curvature="0" />
    <path
       d="m 1197.3254,404.84191 a 43.464567,43.464567 0 1 0 -86.9291,0 43.464567,43.464567 0 1 0 86.9291,0 z"
       style="fill:none;stroke:#0000ff"
       id="path5014"
       inkscape:connector-curvature="0" />
    <path
       d="m 1886.1443,-112.95339 a 56.692915,56.692915 0 1 0 -113.3858,0 56.692915,56.692915 0 1 0 113.3858,0 z"
       style="fill:none;stroke:#0000ff"
       id="path5016"
       inkscape:connector-curvature="0" />
    <path
       d="m 534.9632,-112.95339 a 56.692913,56.692913 0 1 0 -113.3858,0 56.692913,56.692913 0 1 0 113.3858,0 z"
       style="fill:none;stroke:#0000ff"
       id="path5018"
       inkscape:connector-curvature="0" />
    <path
       d="M 72.916003,-322.71719 H 2234.8058 v 839.0552 H 72.916003 Z"
       style="fill:none;stroke:#00ff00"
       id="path5020"
       inkscape:connector-curvature="0" />
    <path
       d="m 1159.5302,-305.70929 h -11.3386"
       style="fill:none;stroke:#ff0000"
       id="path5024"
       inkscape:connector-curvature="0" />
    <path
       d="m 1153.8609,-311.37859 v 11.3386"
       style="fill:none;stroke:#ff0000"
       id="path5026"
       inkscape:connector-curvature="0" />
    <path
       d="m 613.3884,-311.37859 v 11.3386"
       style="fill:none;stroke:#ff0000"
       id="path5030"
       inkscape:connector-curvature="0" />
    <path
       d="m 607.7191,-305.70929 h 11.3386"
       style="fill:none;stroke:#ff0000"
       id="path5032"
       inkscape:connector-curvature="0" />
  </g>
</svg>
